<?xml version="1.0" standalone="no"?>
<!DOCTYPE svg PUBLIC "-//W3C//DTD SVG 1.1//EN" "http://www.w3.org/Graphics/SVG/1.1/DTD/svg11.dtd" >
<svg xmlns="http://www.w3.org/2000/svg" xmlns:xlink="http://www.w3.org/1999/xlink" version="1.1">
<metadata>
Created by FontForge 20170910 at Mon Feb  8 10:07:56 2016
 By Jimmy Wärting
Pangram Pangram 2015
</metadata>
<defs>
<font id="Pangram-Black" horiz-adv-x="728" >
  <font-face 
    font-family="Pangram Black"
    font-weight="900"
    font-stretch="normal"
    units-per-em="1000"
    panose-1="0 0 10 0 0 0 0 0 0 0"
    ascent="800"
    descent="-200"
    x-height="506"
    cap-height="710"
    bbox="-891 -304 1380 1020"
    underline-thickness="50"
    underline-position="-100"
    unicode-range="U+0020-25CA"
  />
<missing-glyph horiz-adv-x="490" 
d="M402 750v-980h-311v980h311zM326 684h-161v-32h63v-36h-64v-33h162v33h-64v36h64v32zM262 558h-98v-102h162v33h-64v69zM228 525v-36h-32v36h32zM326 430h-162v-33h64v-36h-64v-32h98v68h64v33zM326 371h-32v-65h-130v-33h162v98zM326 251h-98v-55h34v23h32v-46h-98v78
h-32v-111h162v111zM326 82h-162v-111h162v111zM294 49v-46h-98v46h98zM326 -52h-162v-32h68l-68 -46v-32h162v32h-100l69 46h31v32z" />
    <glyph glyph-name=".notdef" horiz-adv-x="490" 
d="M402 750v-980h-311v980h311zM326 684h-161v-32h63v-36h-64v-33h162v33h-64v36h64v32zM262 558h-98v-102h162v33h-64v69zM228 525v-36h-32v36h32zM326 430h-162v-33h64v-36h-64v-32h98v68h64v33zM326 371h-32v-65h-130v-33h162v98zM326 251h-98v-55h34v23h32v-46h-98v78
h-32v-111h162v111zM326 82h-162v-111h162v111zM294 49v-46h-98v46h98zM326 -52h-162v-32h68l-68 -46v-32h162v32h-100l69 46h31v32z" />
    <glyph glyph-name="space" unicode=" " horiz-adv-x="220" 
 />
    <glyph glyph-name="A" unicode="A" horiz-adv-x="846" 
d="M610 0l-48 133h-258l-48 -133h-176l256 710h194l256 -710h-176zM362 293h142l-71 198z" />
    <glyph glyph-name="Aacute" unicode="&#xc1;" horiz-adv-x="846" 
d="M611 980l-114 -170h-130l74 170h170zM610 0l-48 133h-258l-48 -133h-176l256 710h194l256 -710h-176zM362 293h142l-71 198z" />
    <glyph glyph-name="Abreve" unicode="&#x102;" horiz-adv-x="846" 
d="M432 810c-92 0 -211 41 -211 170h130c0 -26 18 -60 81 -60s81 34 81 60h130c0 -129 -119 -170 -211 -170zM610 0l-48 133h-258l-48 -133h-176l256 710h194l256 -710h-176zM362 293h142l-71 198z" />
    <glyph glyph-name="Acircumflex" unicode="&#xc2;" horiz-adv-x="846" 
d="M433 884l-43 -74h-148l129 170h124l129 -170h-148zM610 0l-48 133h-258l-48 -133h-176l256 710h194l256 -710h-176zM362 293h142l-71 198z" />
    <glyph glyph-name="Adieresis" unicode="&#xc4;" horiz-adv-x="846" 
d="M328 830c-45 0 -80 35 -80 80s35 80 80 80s80 -35 80 -80s-35 -80 -80 -80zM538 830c-45 0 -80 35 -80 80s35 80 80 80s80 -35 80 -80s-35 -80 -80 -80zM610 0l-48 133h-258l-48 -133h-176l256 710h194l256 -710h-176zM362 293h142l-71 198z" />
    <glyph glyph-name="Agrave" unicode="&#xc0;" horiz-adv-x="846" 
d="M500 810h-130l-114 170h170zM610 0l-48 133h-258l-48 -133h-176l256 710h194l256 -710h-176zM362 293h142l-71 198z" />
    <glyph glyph-name="Amacron" unicode="&#x100;" horiz-adv-x="846" 
d="M591 980v-160h-315v160h315zM610 0l-48 133h-258l-48 -133h-176l256 710h194l256 -710h-176zM362 293h142l-71 198z" />
    <glyph glyph-name="Aogonek" unicode="&#x104;" horiz-adv-x="846" 
d="M764 -70c37 0 77 16 100 28v-130c-23 -23 -61 -58 -135 -58c-100 0 -176 121 -95 230h-24l-48 133h-258l-48 -133h-176l256 710h194l256 -710h-22c-27 -29 -41 -70 0 -70zM362 293h142l-71 198z" />
    <glyph glyph-name="Aring" unicode="&#xc5;" horiz-adv-x="846" 
d="M432 810c-50 0 -90 40 -90 90s40 90 90 90s90 -40 90 -90s-40 -90 -90 -90zM432 920c-11 0 -20 -9 -20 -20s9 -20 20 -20s20 9 20 20s-9 20 -20 20zM610 0l-48 133h-258l-48 -133h-176l256 710h194l256 -710h-176zM362 293h142l-71 198z" />
    <glyph glyph-name="Atilde" unicode="&#xc3;" horiz-adv-x="846" 
d="M370 856c-27 0 -47 -17 -47 -52l-140 30c10 85 48 156 147 156c76 0 107 -62 164 -62c27 0 47 11 47 52l140 -30c-10 -85 -48 -156 -147 -156c-76 0 -107 62 -164 62zM610 0l-48 133h-258l-48 -133h-176l256 710h194l256 -710h-176zM362 293h142l-71 198z" />
    <glyph glyph-name="AE" unicode="&#xc6;" horiz-adv-x="1025" 
d="M975 550h-250v-114h200v-160h-200v-116h250v-160h-420v138h-225l-67 -138h-183l344 710h551v-160zM555 298v252h-26l-122 -252h148z" />
    <glyph glyph-name="B" unicode="B" horiz-adv-x="673" 
d="M502 380c56 -36 101 -92 101 -165c0 -138 -110 -215 -258 -215h-255v710h235c148 0 238 -82 238 -200c0 -51 -25 -96 -61 -130zM260 550v-100h65c38 0 68 15 68 50s-30 50 -68 50h-65zM345 160c56 0 88 27 88 65s-32 65 -88 65h-85v-130h85z" />
    <glyph glyph-name="C" unicode="C" horiz-adv-x="723" 
d="M653 482c-12 17 -77 78 -185 78c-112 0 -208 -78 -208 -205s96 -205 208 -205c108 0 173 61 185 78v-170c-20 -16 -89 -68 -207 -68c-197 0 -356 156 -356 365s159 365 356 365c118 0 187 -52 207 -68v-170z" />
    <glyph glyph-name="Cacute" unicode="&#x106;" horiz-adv-x="723" 
d="M447 980h170l-114 -170h-130zM653 482c-12 17 -77 78 -185 78c-112 0 -208 -78 -208 -205s96 -205 208 -205c108 0 173 61 185 78v-170c-20 -16 -89 -68 -207 -68c-197 0 -356 156 -356 365s159 365 356 365c118 0 187 -52 207 -68v-170z" />
    <glyph glyph-name="Ccaron" unicode="&#x10c;" horiz-adv-x="723" 
d="M376 810l-129 170h148l43 -74l43 74h148l-129 -170h-124zM468 560c-112 0 -208 -78 -208 -205s96 -205 208 -205c108 0 173 61 185 78v-170c-20 -16 -89 -68 -207 -68c-197 0 -356 156 -356 365s159 365 356 365c118 0 187 -52 207 -68v-170c-12 17 -77 78 -185 78z" />
    <glyph glyph-name="Ccedilla" unicode="&#xc7;" horiz-adv-x="723" 
d="M468 560c-112 0 -208 -78 -208 -205s96 -205 208 -205c108 0 173 61 185 78v-170c-17 -13 -67 -51 -151 -64l-28 -44c72 0 115 -24 115 -78c0 -116 -210 -102 -258 -102l30 72c78 0 138 -1 138 27c0 24 -30 25 -61 25l-94 -4l45 104c-170 27 -299 173 -299 361
c0 209 159 365 356 365c118 0 187 -52 207 -68v-170c-12 17 -77 78 -185 78z" />
    <glyph glyph-name="Cdotaccent" unicode="&#x10a;" horiz-adv-x="723" 
d="M438 830c-45 0 -80 35 -80 80s35 80 80 80s80 -35 80 -80s-35 -80 -80 -80zM653 482c-12 17 -77 78 -185 78c-112 0 -208 -78 -208 -205s96 -205 208 -205c108 0 173 61 185 78v-170c-20 -16 -89 -68 -207 -68c-197 0 -356 156 -356 365s159 365 356 365
c118 0 187 -52 207 -68v-170z" />
    <glyph glyph-name="D" unicode="D" horiz-adv-x="731" 
d="M333 710c202 0 348 -156 348 -355s-146 -355 -348 -355h-263v710h263zM333 160c94 0 178 57 178 195s-84 195 -178 195h-93v-390h93z" />
    <glyph glyph-name="Eth" unicode="&#xd0;" horiz-adv-x="731" 
d="M333 710c202 0 348 -156 348 -355s-146 -355 -348 -355h-263v275h-137v160h137v275h263zM333 160c94 0 178 57 178 195s-84 195 -178 195h-93v-115h143v-160h-143v-115h93z" />
    <glyph glyph-name="Dcaron" unicode="&#x10e;" horiz-adv-x="731" 
d="M241 810l-129 170h148l43 -74l43 74h148l-129 -170h-124zM333 710c202 0 348 -156 348 -355s-146 -355 -348 -355h-263v710h263zM333 160c94 0 178 57 178 195s-84 195 -178 195h-93v-390h93z" />
    <glyph glyph-name="Dcroat" unicode="&#x110;" horiz-adv-x="731" 
d="M333 710c202 0 348 -156 348 -355s-146 -355 -348 -355h-263v275h-137v160h137v275h263zM333 160c94 0 178 57 178 195s-84 195 -178 195h-93v-115h143v-160h-143v-115h93z" />
    <glyph glyph-name="E" unicode="E" horiz-adv-x="540" 
d="M490 550h-250v-114h200v-160h-200v-116h250v-160h-420v710h420v-160z" />
    <glyph glyph-name="Eacute" unicode="&#xc9;" horiz-adv-x="540" 
d="M462 980l-114 -170h-130l74 170h170zM490 550h-250v-114h200v-160h-200v-116h250v-160h-420v710h420v-160z" />
    <glyph glyph-name="Ecaron" unicode="&#x11a;" horiz-adv-x="540" 
d="M221 810l-129 170h148l43 -74l43 74h148l-129 -170h-124zM490 550h-250v-114h200v-160h-200v-116h250v-160h-420v710h420v-160z" />
    <glyph glyph-name="Ecircumflex" unicode="&#xca;" horiz-adv-x="540" 
d="M284 884l-43 -74h-148l129 170h124l129 -170h-148zM490 550h-250v-114h200v-160h-200v-116h250v-160h-420v710h420v-160z" />
    <glyph glyph-name="Edieresis" unicode="&#xcb;" horiz-adv-x="540" 
d="M179 830c-45 0 -80 35 -80 80s35 80 80 80s80 -35 80 -80s-35 -80 -80 -80zM389 830c-45 0 -80 35 -80 80s35 80 80 80s80 -35 80 -80s-35 -80 -80 -80zM490 550h-250v-114h200v-160h-200v-116h250v-160h-420v710h420v-160z" />
    <glyph glyph-name="Edotaccent" unicode="&#x116;" horiz-adv-x="540" 
d="M283 830c-45 0 -80 35 -80 80s35 80 80 80s80 -35 80 -80s-35 -80 -80 -80zM490 550h-250v-114h200v-160h-200v-116h250v-160h-420v710h420v-160z" />
    <glyph glyph-name="Egrave" unicode="&#xc8;" horiz-adv-x="540" 
d="M351 810h-130l-114 170h170zM490 550h-250v-114h200v-160h-200v-116h250v-160h-420v710h420v-160z" />
    <glyph glyph-name="Emacron" unicode="&#x112;" horiz-adv-x="540" 
d="M442 980v-160h-315v160h315zM490 550h-250v-114h200v-160h-200v-116h250v-160h-420v710h420v-160z" />
    <glyph glyph-name="Eogonek" unicode="&#x118;" horiz-adv-x="540" 
d="M407 -70c37 0 77 16 100 28v-130c-23 -23 -61 -58 -135 -58c-100 0 -176 121 -95 230h-207v710h420v-160h-250v-114h200v-160h-200v-116h250v-160h-83c-27 -29 -41 -70 0 -70z" />
    <glyph glyph-name="uni1EBC" unicode="&#x1ebc;" horiz-adv-x="540" 
d="M221 856c-27 0 -47 -17 -47 -52l-140 30c10 85 48 156 147 156c76 0 107 -62 164 -62c27 0 47 11 47 52l140 -30c-10 -85 -48 -156 -147 -156c-76 0 -107 62 -164 62zM70 710h420v-160h-250v-114h200v-160h-200v-116h250v-160h-420v710z" />
    <glyph glyph-name="F" unicode="F" horiz-adv-x="540" 
d="M490 550h-250v-124h220v-160h-220v-266h-170v710h420v-160z" />
    <glyph glyph-name="G" unicode="G" horiz-adv-x="876" 
d="M398 412h408c0 -279 -151 -422 -363 -422c-202 0 -353 166 -353 365s151 365 373 365c118 0 211 -56 277 -142l-128 -98c-28 40 -77 80 -149 80c-122 0 -203 -88 -203 -205s71 -205 183 -205c84 0 144 37 173 102h-218v160z" />
    <glyph glyph-name="Gbreve" unicode="&#x11e;" horiz-adv-x="876" 
d="M453 810c-92 0 -211 41 -211 170h130c0 -26 18 -60 81 -60s81 34 81 60h130c0 -129 -119 -170 -211 -170zM398 412h408c0 -279 -151 -422 -363 -422c-202 0 -353 166 -353 365s151 365 373 365c118 0 211 -56 277 -142l-128 -98c-28 40 -77 80 -149 80
c-122 0 -203 -88 -203 -205s71 -205 183 -205c84 0 144 37 173 102h-218v160z" />
    <glyph glyph-name="Gcommaaccent" unicode="&#x122;" horiz-adv-x="876" 
d="M398 412h408c0 -279 -151 -422 -363 -422c-202 0 -353 166 -353 365s151 365 373 365c118 0 211 -56 277 -142l-128 -98c-28 40 -77 80 -149 80c-122 0 -203 -88 -203 -205s71 -205 183 -205c84 0 144 37 173 102h-218v160zM308 -304l65 244h170l-105 -244h-130z" />
    <glyph glyph-name="Gdotaccent" unicode="&#x120;" horiz-adv-x="876" 
d="M453 830c-45 0 -80 35 -80 80s35 80 80 80s80 -35 80 -80s-35 -80 -80 -80zM398 412h408c0 -279 -151 -422 -363 -422c-202 0 -353 166 -353 365s151 365 373 365c118 0 211 -56 277 -142l-128 -98c-28 40 -77 80 -149 80c-122 0 -203 -88 -203 -205s71 -205 183 -205
c84 0 144 37 173 102h-218v160z" />
    <glyph glyph-name="H" unicode="H" horiz-adv-x="740" 
d="M520 710h170v-710h-170v267h-280v-267h-170v710h170v-283h280v283z" />
    <glyph glyph-name="Hbar" unicode="&#x126;" horiz-adv-x="740" 
d="M783 645v-160h-93v-485h-170v267h-280v-267h-170v485h-97v160h97v65h170v-65h280v65h170v-65h93zM520 427v58h-280v-58h280z" />
    <glyph glyph-name="I" unicode="I" horiz-adv-x="310" 
d="M80 0v710h170v-710h-170z" />
    <glyph glyph-name="Iacute" unicode="&#xcd;" horiz-adv-x="310" 
d="M176 980h170l-114 -170h-130zM80 0v710h170v-710h-170z" />
    <glyph glyph-name="Icircumflex" unicode="&#xce;" horiz-adv-x="310" 
d="M168 884l-43 -74h-148l129 170h124l129 -170h-148zM80 0v710h170v-710h-170z" />
    <glyph glyph-name="Idieresis" unicode="&#xcf;" horiz-adv-x="310" 
d="M63 830c-45 0 -80 35 -80 80s35 80 80 80s80 -35 80 -80s-35 -80 -80 -80zM273 830c-45 0 -80 35 -80 80s35 80 80 80s80 -35 80 -80s-35 -80 -80 -80zM80 0v710h170v-710h-170z" />
    <glyph glyph-name="Idotaccent" unicode="&#x130;" horiz-adv-x="310" 
d="M167 830c-45 0 -80 35 -80 80s35 80 80 80s80 -35 80 -80s-35 -80 -80 -80zM80 0v710h170v-710h-170z" />
    <glyph glyph-name="Igrave" unicode="&#xcc;" horiz-adv-x="310" 
d="M161 980l74 -170h-130l-114 170h170zM80 0v710h170v-710h-170z" />
    <glyph glyph-name="Imacron" unicode="&#x12a;" horiz-adv-x="310" 
d="M11 980h315v-160h-315v160zM80 0v710h170v-710h-170z" />
    <glyph glyph-name="Iogonek" unicode="&#x12e;" horiz-adv-x="310" 
d="M232 -70c37 0 77 16 100 28v-130c-23 -23 -61 -58 -135 -58c-100 0 -176 121 -95 230h-22v710h170v-710h-18c-27 -29 -41 -70 0 -70z" />
    <glyph glyph-name="J" unicode="J" horiz-adv-x="659" 
d="M250 248c0 -63 26 -98 84 -98c61 0 85 29 85 112v448h170l-1 -448c0 -178 -105 -272 -246 -272c-110 0 -262 59 -262 258h170z" />
    <glyph glyph-name="K" unicode="K" horiz-adv-x="756" 
d="M696 710l-275 -313l275 -397h-200l-188 269l-58 -66v-203h-170v710h170v-258l227 258h219z" />
    <glyph glyph-name="Kcommaaccent" unicode="&#x136;" horiz-adv-x="756" 
d="M696 710l-275 -313l275 -397h-200l-188 269l-58 -66v-203h-170v710h170v-258l227 258h219zM213 -304l65 244h170l-105 -244h-130z" />
    <glyph glyph-name="L" unicode="L" horiz-adv-x="620" 
d="M260 160h290v-160h-460v710h170v-550z" />
    <glyph glyph-name="Lacute" unicode="&#x139;" horiz-adv-x="620" 
d="M356 980l-114 -170h-130l74 170h170zM260 160h290v-160h-460v710h170v-550z" />
    <glyph glyph-name="Lcaron" unicode="&#x13d;" horiz-adv-x="620" 
d="M115 810l-129 170h148l43 -74l43 74h148l-129 -170h-124zM260 160h290v-160h-460v710h170v-550z" />
    <glyph glyph-name="Lcommaaccent" unicode="&#x13b;" horiz-adv-x="620" 
d="M260 160h290v-160h-460v710h170v-550zM150 -304l65 244h170l-105 -244h-130z" />
    <glyph glyph-name="Lslash" unicode="&#x141;" horiz-adv-x="620" 
d="M260 160h290v-160h-460v322l-66 -50v50l66 50v338h170v-210l77 58v-50l-77 -58v-290z" />
    <glyph glyph-name="M" unicode="M" horiz-adv-x="954" 
d="M704 710h170v-710h-170v409l-186 -293h-62l-186 293v-409h-170v710h170l217 -333z" />
    <glyph glyph-name="N" unicode="N" horiz-adv-x="787" 
d="M557 710h170v-710h-170l-307 427v-427h-170v710h170l307 -427v427z" />
    <glyph glyph-name="Nacute" unicode="&#x143;" horiz-adv-x="787" 
d="M581 980l-114 -170h-130l74 170h170zM557 710h170v-710h-170l-307 427v-427h-170v710h170l307 -427v427z" />
    <glyph glyph-name="Ncaron" unicode="&#x147;" horiz-adv-x="787" 
d="M340 810l-129 170h148l43 -74l43 74h148l-129 -170h-124zM557 710h170v-710h-170l-307 427v-427h-170v710h170l307 -427v427z" />
    <glyph glyph-name="Ncommaaccent" unicode="&#x145;" horiz-adv-x="787" 
d="M557 710h170v-710h-170l-307 427v-427h-170v710h170l307 -427v427zM257 -304l65 244h170l-105 -244h-130z" />
    <glyph glyph-name="Eng" unicode="&#x14a;" horiz-adv-x="827" 
d="M557 710h170v-736c0 -177 -107 -214 -183 -214c-72 0 -114 17 -136 33v135c18 -5 41 -8 55 -8c82 0 94 29 94 76v4l-307 427v-427h-170v710h170l307 -427v427z" />
    <glyph glyph-name="Ntilde" unicode="&#xd1;" horiz-adv-x="787" 
d="M340 856c-27 0 -47 -17 -47 -52l-140 30c10 85 48 156 147 156c76 0 107 -62 164 -62c27 0 47 11 47 52l140 -30c-10 -85 -48 -156 -147 -156c-76 0 -107 62 -164 62zM557 710h170v-710h-170l-307 427v-427h-170v710h170l307 -427v427z" />
    <glyph glyph-name="O" unicode="O" horiz-adv-x="890" 
d="M455 -10c-203 0 -365 162 -365 365s162 365 365 365s365 -162 365 -365s-162 -365 -365 -365zM455 150c117 0 195 93 195 205s-78 205 -195 205s-195 -93 -195 -205s78 -205 195 -205z" />
    <glyph glyph-name="Oacute" unicode="&#xd3;" horiz-adv-x="890" 
d="M464 980h170l-114 -170h-130zM455 -10c-203 0 -365 162 -365 365s162 365 365 365s365 -162 365 -365s-162 -365 -365 -365zM455 150c117 0 195 93 195 205s-78 205 -195 205s-195 -93 -195 -205s78 -205 195 -205z" />
    <glyph glyph-name="Ocircumflex" unicode="&#xd4;" horiz-adv-x="890" 
d="M456 884l-43 -74h-148l129 170h124l129 -170h-148zM455 720c203 0 365 -162 365 -365s-162 -365 -365 -365s-365 162 -365 365s162 365 365 365zM455 150c117 0 195 93 195 205s-78 205 -195 205s-195 -93 -195 -205s78 -205 195 -205z" />
    <glyph glyph-name="Odieresis" unicode="&#xd6;" horiz-adv-x="890" 
d="M351 830c-45 0 -80 35 -80 80s35 80 80 80s80 -35 80 -80s-35 -80 -80 -80zM561 830c-45 0 -80 35 -80 80s35 80 80 80s80 -35 80 -80s-35 -80 -80 -80zM455 -10c-203 0 -365 162 -365 365s162 365 365 365s365 -162 365 -365s-162 -365 -365 -365zM455 150
c117 0 195 93 195 205s-78 205 -195 205s-195 -93 -195 -205s78 -205 195 -205z" />
    <glyph glyph-name="Ograve" unicode="&#xd2;" horiz-adv-x="890" 
d="M449 980l74 -170h-130l-114 170h170zM455 -10c-203 0 -365 162 -365 365s162 365 365 365s365 -162 365 -365s-162 -365 -365 -365zM455 150c117 0 195 93 195 205s-78 205 -195 205s-195 -93 -195 -205s78 -205 195 -205z" />
    <glyph glyph-name="Ohungarumlaut" unicode="&#x150;" horiz-adv-x="890" 
d="M353 980h170l-114 -170h-130zM567 980h170l-114 -170h-130zM455 -10c-203 0 -365 162 -365 365s162 365 365 365s365 -162 365 -365s-162 -365 -365 -365zM455 150c117 0 195 93 195 205s-78 205 -195 205s-195 -93 -195 -205s78 -205 195 -205z" />
    <glyph glyph-name="Omacron" unicode="&#x14c;" horiz-adv-x="890" 
d="M299 980h315v-160h-315v160zM455 -10c-203 0 -365 162 -365 365s162 365 365 365s365 -162 365 -365s-162 -365 -365 -365zM455 150c117 0 195 93 195 205s-78 205 -195 205s-195 -93 -195 -205s78 -205 195 -205z" />
    <glyph glyph-name="Oslash" unicode="&#xd8;" horiz-adv-x="890" 
d="M689 636c80 -66 131 -167 131 -281c0 -203 -162 -365 -365 -365c-77 0 -149 24 -208 64l-71 -94h-50l90 118c-77 67 -126 166 -126 277c0 203 162 365 365 365c75 0 144 -22 202 -60l68 90h50zM260 355c0 -57 20 -109 55 -146l244 322c-29 18 -64 29 -104 29
c-117 0 -195 -93 -195 -205zM455 150c117 0 195 93 195 205c0 59 -22 113 -60 151l-245 -323c30 -21 68 -33 110 -33z" />
    <glyph glyph-name="Otilde" unicode="&#xd5;" horiz-adv-x="890" 
d="M206 834c10 85 48 156 147 156c76 0 107 -62 164 -62c27 0 47 11 47 52l140 -30c-10 -85 -48 -156 -147 -156c-76 0 -107 62 -164 62c-27 0 -47 -17 -47 -52zM455 -10c-203 0 -365 162 -365 365s162 365 365 365s365 -162 365 -365s-162 -365 -365 -365zM455 150
c117 0 195 93 195 205s-78 205 -195 205s-195 -93 -195 -205s78 -205 195 -205z" />
    <glyph glyph-name="OE" unicode="&#x152;" horiz-adv-x="1186" 
d="M1136 550h-250v-114h200v-160h-200v-116h250v-160h-420v99c-66 -68 -158 -109 -261 -109c-203 0 -365 162 -365 365s162 365 365 365c103 0 195 -41 261 -109v99h420v-160zM455 150c117 0 195 93 195 205s-78 205 -195 205s-195 -93 -195 -205s78 -205 195 -205z" />
    <glyph glyph-name="P" unicode="P" horiz-adv-x="673" 
d="M355 710c138 0 268 -95 268 -253s-130 -253 -268 -253h-115v-204h-170v710h285zM355 364c56 0 98 35 98 93s-42 93 -98 93h-115v-186h115z" />
    <glyph glyph-name="Thorn" unicode="&#xde;" horiz-adv-x="613" 
d="M325 620c138 0 268 -95 268 -253s-130 -253 -268 -253h-85v-114h-170v750h170v-130h85zM325 274c56 0 98 35 98 93s-42 93 -98 93h-85v-186h85z" />
    <glyph glyph-name="Q" unicode="Q" horiz-adv-x="886" 
d="M831 62l-116 -117l-87 88c-51 -27 -110 -43 -173 -43c-203 0 -365 162 -365 365s162 365 365 365s365 -162 365 -365c0 -80 -25 -153 -68 -213zM455 150c18 0 36 2 52 7l-85 86l116 116l93 -95c12 28 19 59 19 91c0 112 -78 205 -195 205s-195 -93 -195 -205
s78 -205 195 -205z" />
    <glyph glyph-name="R" unicode="R" horiz-adv-x="683" 
d="M442 0l-118 204h-84v-204h-170v710h285c138 0 268 -95 268 -253c0 -101 -53 -177 -128 -218l138 -239h-191zM240 550v-186h115c56 0 98 35 98 93s-42 93 -98 93h-115z" />
    <glyph glyph-name="Racute" unicode="&#x154;" horiz-adv-x="683" 
d="M496 980l-114 -170h-130l74 170h170zM442 0l-118 204h-84v-204h-170v710h285c138 0 268 -95 268 -253c0 -101 -53 -177 -128 -218l138 -239h-191zM240 550v-186h115c56 0 98 35 98 93s-42 93 -98 93h-115z" />
    <glyph glyph-name="Rcaron" unicode="&#x158;" horiz-adv-x="683" 
d="M255 810l-129 170h148l43 -74l43 74h148l-129 -170h-124zM442 0l-118 204h-84v-204h-170v710h285c138 0 268 -95 268 -253c0 -101 -53 -177 -128 -218l138 -239h-191zM240 550v-186h115c56 0 98 35 98 93s-42 93 -98 93h-115z" />
    <glyph glyph-name="Rcommaaccent" unicode="&#x156;" horiz-adv-x="683" 
d="M495 239l138 -239h-191l-118 204h-84v-204h-170v710h285c138 0 268 -95 268 -253c0 -101 -53 -177 -128 -218zM240 550v-186h115c56 0 98 35 98 93s-42 93 -98 93h-115zM192 -304l65 244h170l-105 -244h-130z" />
    <glyph glyph-name="S" unicode="S" horiz-adv-x="650" 
d="M90 237h170c0 -59 37 -87 85 -87c45 0 65 22 65 44c0 34 -38 49 -112 94c-166 101 -193 159 -193 241c0 114 96 191 220 191c144 0 235 -108 235 -245h-170c0 58 -26 85 -65 85c-27 0 -50 -14 -50 -39c0 -29 20 -44 86 -82c147 -85 219 -147 219 -252
c0 -129 -111 -197 -235 -197c-174 0 -255 131 -255 247z" />
    <glyph glyph-name="Sacute" unicode="&#x15a;" horiz-adv-x="650" 
d="M334 980h170l-114 -170h-130zM90 237h170c0 -59 37 -87 85 -87c45 0 65 22 65 44c0 34 -38 49 -112 94c-166 101 -193 159 -193 241c0 114 96 191 220 191c144 0 235 -108 235 -245h-170c0 58 -26 85 -65 85c-27 0 -50 -14 -50 -39c0 -29 20 -44 86 -82
c147 -85 219 -147 219 -252c0 -129 -111 -197 -235 -197c-174 0 -255 131 -255 247z" />
    <glyph glyph-name="Scaron" unicode="&#x160;" horiz-adv-x="650" 
d="M263 810l-129 170h148l43 -74l43 74h148l-129 -170h-124zM361 439c147 -85 219 -147 219 -252c0 -129 -111 -197 -235 -197c-174 0 -255 131 -255 247h170c0 -59 37 -87 85 -87c45 0 65 22 65 44c0 34 -38 49 -112 94c-166 101 -193 159 -193 241c0 114 96 191 220 191
c144 0 235 -108 235 -245h-170c0 58 -26 85 -65 85c-27 0 -50 -14 -50 -39c0 -29 20 -44 86 -82z" />
    <glyph glyph-name="Scedilla" unicode="&#x15e;" horiz-adv-x="650" 
d="M580 187c0 -116 -90 -183 -199 -195l-27 -42c72 0 115 -24 115 -78c0 -116 -210 -102 -258 -102l30 72c78 0 138 -1 138 27c0 24 -30 25 -61 25l-94 -4l47 109c-123 31 -181 140 -181 238h170c0 -59 37 -87 85 -87c45 0 65 22 65 44c0 34 -38 49 -112 94
c-166 101 -193 159 -193 241c0 114 96 191 220 191c144 0 235 -108 235 -245h-170c0 58 -26 85 -65 85c-27 0 -50 -14 -50 -39c0 -29 20 -44 86 -82c147 -85 219 -147 219 -252z" />
    <glyph glyph-name="Scommaaccent" unicode="&#x218;" horiz-adv-x="650" 
d="M90 237h170c0 -59 37 -87 85 -87c45 0 65 22 65 44c0 34 -38 49 -112 94c-166 101 -193 159 -193 241c0 114 96 191 220 191c144 0 235 -108 235 -245h-170c0 58 -26 85 -65 85c-27 0 -50 -14 -50 -39c0 -29 20 -44 86 -82c147 -85 219 -147 219 -252
c0 -129 -111 -197 -235 -197c-174 0 -255 131 -255 247zM245 -60h170l-105 -244h-130z" />
    <glyph glyph-name="T" unicode="T" horiz-adv-x="610" 
d="M560 710v-160h-160v-550h-170v550h-160v160h490z" />
    <glyph glyph-name="Tbar" unicode="&#x166;" horiz-adv-x="610" 
d="M560 550h-160v-115h140v-160h-140v-275h-170v275h-140v160h140v115h-160v160h490v-160z" />
    <glyph glyph-name="Tcaron" unicode="&#x164;" horiz-adv-x="610" 
d="M253 810l-129 170h148l43 -74l43 74h148l-129 -170h-124zM560 710v-160h-160v-550h-170v550h-160v160h490z" />
    <glyph glyph-name="uni0162" unicode="&#x162;" horiz-adv-x="610" 
d="M400 0h-24l-32 -50c72 0 115 -24 115 -78c0 -116 -210 -102 -258 -102l30 72c78 0 138 -1 138 27c0 24 -30 25 -61 25l-94 -4l47 110h-31v550h-160v160h490v-160h-160v-550z" />
    <glyph glyph-name="uni021A" unicode="&#x21a;" horiz-adv-x="610" 
d="M560 710v-160h-160v-550h-170v550h-160v160h490zM170 -304l65 244h170l-105 -244h-130z" />
    <glyph glyph-name="U" unicode="U" horiz-adv-x="716" 
d="M666 320c0 -230 -108 -330 -298 -330s-298 100 -298 330v390h170v-390c0 -129 39 -170 128 -170s128 41 128 170v390h170v-390z" />
    <glyph glyph-name="Uacute" unicode="&#xda;" horiz-adv-x="716" 
d="M377 980h170l-114 -170h-130zM666 320c0 -230 -108 -330 -298 -330s-298 100 -298 330v390h170v-390c0 -129 39 -170 128 -170s128 41 128 170v390h170v-390z" />
    <glyph glyph-name="Ucircumflex" unicode="&#xdb;" horiz-adv-x="716" 
d="M369 884l-43 -74h-148l129 170h124l129 -170h-148zM496 710h170v-390c0 -230 -108 -330 -298 -330s-298 100 -298 330v390h170v-390c0 -129 39 -170 128 -170s128 41 128 170v390z" />
    <glyph glyph-name="Udieresis" unicode="&#xdc;" horiz-adv-x="716" 
d="M264 830c-45 0 -80 35 -80 80s35 80 80 80s80 -35 80 -80s-35 -80 -80 -80zM474 830c-45 0 -80 35 -80 80s35 80 80 80s80 -35 80 -80s-35 -80 -80 -80zM666 320c0 -230 -108 -330 -298 -330s-298 100 -298 330v390h170v-390c0 -129 39 -170 128 -170s128 41 128 170v390
h170v-390z" />
    <glyph glyph-name="Ugrave" unicode="&#xd9;" horiz-adv-x="716" 
d="M362 980l74 -170h-130l-114 170h170zM666 320c0 -230 -108 -330 -298 -330s-298 100 -298 330v390h170v-390c0 -129 39 -170 128 -170s128 41 128 170v390h170v-390z" />
    <glyph glyph-name="Uhungarumlaut" unicode="&#x170;" horiz-adv-x="716" 
d="M266 980h170l-114 -170h-130zM480 980h170l-114 -170h-130zM666 320c0 -230 -108 -330 -298 -330s-298 100 -298 330v390h170v-390c0 -129 39 -170 128 -170s128 41 128 170v390h170v-390z" />
    <glyph glyph-name="Umacron" unicode="&#x16a;" horiz-adv-x="716" 
d="M212 980h315v-160h-315v160zM666 320c0 -230 -108 -330 -298 -330s-298 100 -298 330v390h170v-390c0 -129 39 -170 128 -170s128 41 128 170v390h170v-390z" />
    <glyph glyph-name="Uogonek" unicode="&#x172;" horiz-adv-x="716" 
d="M496 710h170v-390c0 -208 -89 -310 -247 -327c-16 -26 -19 -53 14 -53c37 0 77 16 100 28v-130c-23 -23 -61 -58 -135 -58c-96 0 -169 111 -105 216c-143 24 -223 126 -223 324v390h170v-390c0 -129 39 -170 128 -170s128 41 128 170v390z" />
    <glyph glyph-name="Uring" unicode="&#x16e;" horiz-adv-x="716" 
d="M368 810c-50 0 -90 40 -90 90s40 90 90 90s90 -40 90 -90s-40 -90 -90 -90zM368 880c11 0 20 9 20 20s-9 20 -20 20s-20 -9 -20 -20s9 -20 20 -20zM666 320c0 -230 -108 -330 -298 -330s-298 100 -298 330v390h170v-390c0 -129 39 -170 128 -170s128 41 128 170v390h170
v-390z" />
    <glyph glyph-name="Utilde" unicode="&#x168;" horiz-adv-x="716" 
d="M119 834c10 85 48 156 147 156c76 0 107 -62 164 -62c27 0 47 11 47 52l140 -30c-10 -85 -48 -156 -147 -156c-76 0 -107 62 -164 62c-27 0 -47 -17 -47 -52zM666 320c0 -230 -108 -330 -298 -330s-298 100 -298 330v390h170v-390c0 -129 39 -170 128 -170
s128 41 128 170v390h170v-390z" />
    <glyph glyph-name="V" unicode="V" horiz-adv-x="776" 
d="M549 710h177l-228 -710h-200l-228 710h177l151 -487z" />
    <glyph glyph-name="W" unicode="W" horiz-adv-x="1220" 
d="M996 710h174l-216 -710h-205l-129 424l-129 -424h-205l-216 710h174l145 -482l144 482h174l145 -482z" />
    <glyph glyph-name="Wacute" unicode="&#x1e82;" horiz-adv-x="1220" 
d="M798 980l-114 -170h-130l74 170h170zM996 710h174l-216 -710h-205l-129 424l-129 -424h-205l-216 710h174l145 -482l144 482h174l145 -482z" />
    <glyph glyph-name="Wcircumflex" unicode="&#x174;" horiz-adv-x="1220" 
d="M620 884l-43 -74h-148l129 170h124l129 -170h-148zM996 710h174l-216 -710h-205l-129 424l-129 -424h-205l-216 710h174l145 -482l144 482h174l145 -482z" />
    <glyph glyph-name="Wdieresis" unicode="&#x1e84;" horiz-adv-x="1220" 
d="M515 830c-45 0 -80 35 -80 80s35 80 80 80s80 -35 80 -80s-35 -80 -80 -80zM725 830c-45 0 -80 35 -80 80s35 80 80 80s80 -35 80 -80s-35 -80 -80 -80zM996 710h174l-216 -710h-205l-129 424l-129 -424h-205l-216 710h174l145 -482l144 482h174l145 -482z" />
    <glyph glyph-name="Wgrave" unicode="&#x1e80;" horiz-adv-x="1220" 
d="M687 810h-130l-114 170h170zM996 710h174l-216 -710h-205l-129 424l-129 -424h-205l-216 710h174l145 -482l144 482h174l145 -482z" />
    <glyph glyph-name="X" unicode="X" horiz-adv-x="862" 
d="M812 710l-268 -355l268 -355h-206l-165 219l-165 -219h-206l268 355l-268 355h206l165 -219l165 219h206z" />
    <glyph glyph-name="Y" unicode="Y" horiz-adv-x="826" 
d="M584 710h192l-268 -438v-272h-170v272l-268 438h192l161 -263z" />
    <glyph glyph-name="Yacute" unicode="&#xdd;" horiz-adv-x="826" 
d="M602 980l-114 -170h-130l74 170h170zM584 710h192l-268 -438v-272h-170v272l-268 438h192l161 -263z" />
    <glyph glyph-name="Ycircumflex" unicode="&#x176;" horiz-adv-x="826" 
d="M424 884l-43 -74h-148l129 170h124l129 -170h-148zM584 710h192l-268 -438v-272h-170v272l-268 438h192l161 -263z" />
    <glyph glyph-name="Ydieresis" unicode="&#x178;" horiz-adv-x="826" 
d="M319 830c-45 0 -80 35 -80 80s35 80 80 80s80 -35 80 -80s-35 -80 -80 -80zM529 830c-45 0 -80 35 -80 80s35 80 80 80s80 -35 80 -80s-35 -80 -80 -80zM584 710h192l-268 -438v-272h-170v272l-268 438h192l161 -263z" />
    <glyph glyph-name="Ygrave" unicode="&#x1ef2;" horiz-adv-x="826" 
d="M491 810h-130l-114 170h170zM584 710h192l-268 -438v-272h-170v272l-268 438h192l161 -263z" />
    <glyph glyph-name="uni1EF8" unicode="&#x1ef8;" horiz-adv-x="826" 
d="M361 856c-27 0 -47 -17 -47 -52l-140 30c10 85 48 156 147 156c76 0 107 -62 164 -62c27 0 47 11 47 52l140 -30c-10 -85 -48 -156 -147 -156c-76 0 -107 62 -164 62zM584 710h192l-268 -438v-272h-170v272l-268 438h192l161 -263z" />
    <glyph glyph-name="Z" unicode="Z" horiz-adv-x="729" 
d="M669 710v-160l-356 -390h356v-160h-579v160l356 390h-356v160h579z" />
    <glyph glyph-name="Zacute" unicode="&#x179;" horiz-adv-x="729" 
d="M564 980l-114 -170h-130l74 170h170zM669 710v-160l-356 -390h356v-160h-579v160l356 390h-356v160h579z" />
    <glyph glyph-name="Zcaron" unicode="&#x17d;" horiz-adv-x="729" 
d="M323 810l-129 170h148l43 -74l43 74h148l-129 -170h-124zM669 710v-160l-356 -390h356v-160h-579v160l356 390h-356v160h579z" />
    <glyph glyph-name="Zdotaccent" unicode="&#x17b;" horiz-adv-x="729" 
d="M385 830c-45 0 -80 35 -80 80s35 80 80 80s80 -35 80 -80s-35 -80 -80 -80zM669 710v-160l-356 -390h356v-160h-579v160l356 390h-356v160h579z" />
    <glyph glyph-name="a" unicode="a" 
d="M90 253c0 145 100 263 245 263c77 0 132 -36 153 -77l10 67h160v-506h-160l-10 67c-21 -41 -76 -77 -153 -77c-145 0 -245 118 -245 263zM260 253c0 -55 40 -103 105 -103s103 48 103 103s-38 103 -103 103s-105 -48 -105 -103z" />
    <glyph glyph-name="aacute" unicode="&#xe1;" 
d="M380 776h170l-114 -170h-130zM90 253c0 145 100 263 245 263c77 0 132 -36 153 -77l10 67h160v-506h-160l-10 67c-21 -41 -76 -77 -153 -77c-145 0 -245 118 -245 263zM260 253c0 -55 40 -103 105 -103s103 48 103 103s-38 103 -103 103s-105 -48 -105 -103z" />
    <glyph glyph-name="abreve" unicode="&#x103;" 
d="M582 776c0 -129 -119 -170 -211 -170s-211 41 -211 170h130c0 -26 18 -60 81 -60s81 34 81 60h130zM90 253c0 145 100 263 245 263c77 0 132 -36 153 -77l10 67h160v-506h-160l-10 67c-21 -41 -76 -77 -153 -77c-145 0 -245 118 -245 263zM260 253
c0 -55 40 -103 105 -103s103 48 103 103s-38 103 -103 103s-105 -48 -105 -103z" />
    <glyph glyph-name="acircumflex" unicode="&#xe2;" 
d="M372 680l-43 -74h-148l129 170h124l129 -170h-148zM498 506h160v-506h-160l-10 67c-21 -41 -76 -77 -153 -77c-145 0 -245 118 -245 263s100 263 245 263c77 0 132 -36 153 -77zM365 150c65 0 103 48 103 103s-38 103 -103 103s-105 -48 -105 -103s40 -103 105 -103z" />
    <glyph glyph-name="adieresis" unicode="&#xe4;" 
d="M267 626c-45 0 -80 35 -80 80s35 80 80 80s80 -35 80 -80s-35 -80 -80 -80zM477 626c-45 0 -80 35 -80 80s35 80 80 80s80 -35 80 -80s-35 -80 -80 -80zM90 253c0 145 100 263 245 263c77 0 132 -36 153 -77l10 67h160v-506h-160l-10 67c-21 -41 -76 -77 -153 -77
c-145 0 -245 118 -245 263zM260 253c0 -55 40 -103 105 -103s103 48 103 103s-38 103 -103 103s-105 -48 -105 -103z" />
    <glyph glyph-name="agrave" unicode="&#xe0;" 
d="M365 776l74 -170h-130l-114 170h170zM90 253c0 145 100 263 245 263c77 0 132 -36 153 -77l10 67h160v-506h-160l-10 67c-21 -41 -76 -77 -153 -77c-145 0 -245 118 -245 263zM260 253c0 -55 40 -103 105 -103s103 48 103 103s-38 103 -103 103s-105 -48 -105 -103z" />
    <glyph glyph-name="amacron" unicode="&#x101;" 
d="M215 776h315v-160h-315v160zM90 253c0 145 100 263 245 263c77 0 132 -36 153 -77l10 67h160v-506h-160l-10 67c-21 -41 -76 -77 -153 -77c-145 0 -245 118 -245 263zM260 253c0 -55 40 -103 105 -103s103 48 103 103s-38 103 -103 103s-105 -48 -105 -103z" />
    <glyph glyph-name="aogonek" unicode="&#x105;" 
d="M647 -70c37 0 77 16 100 28v-130c-23 -23 -61 -58 -135 -58c-100 0 -176 121 -95 230h-19l-10 67c-21 -41 -76 -77 -153 -77c-145 0 -245 118 -245 263s100 263 245 263c77 0 132 -36 153 -77l10 67h160v-506h-11c-27 -29 -41 -70 0 -70zM365 150c65 0 103 48 103 103
s-38 103 -103 103s-105 -48 -105 -103s40 -103 105 -103z" />
    <glyph glyph-name="aring" unicode="&#xe5;" 
d="M371 606c-50 0 -90 40 -90 90s40 90 90 90s90 -40 90 -90s-40 -90 -90 -90zM371 676c11 0 20 9 20 20s-9 20 -20 20s-20 -9 -20 -20s9 -20 20 -20zM90 253c0 145 100 263 245 263c77 0 132 -36 153 -77l10 67h160v-506h-160l-10 67c-21 -41 -76 -77 -153 -77
c-145 0 -245 118 -245 263zM260 253c0 -55 40 -103 105 -103s103 48 103 103s-38 103 -103 103s-105 -48 -105 -103z" />
    <glyph glyph-name="atilde" unicode="&#xe3;" 
d="M122 630c10 85 48 156 147 156c76 0 107 -62 164 -62c27 0 47 11 47 52l140 -30c-10 -85 -48 -156 -147 -156c-76 0 -107 62 -164 62c-27 0 -47 -17 -47 -52zM90 253c0 145 100 263 245 263c77 0 132 -36 153 -77l10 67h160v-506h-160l-10 67c-21 -41 -76 -77 -153 -77
c-145 0 -245 118 -245 263zM260 253c0 -55 40 -103 105 -103s103 48 103 103s-38 103 -103 103s-105 -48 -105 -103z" />
    <glyph glyph-name="ae" unicode="&#xe6;" horiz-adv-x="1162" 
d="M1092 245v-44h-336c2 -24 23 -61 93 -61c40 0 70 18 88 41l148 -15c-10 -68 -89 -176 -237 -176c-80 0 -145 30 -190 78v-68h-160l-10 67c-21 -41 -76 -77 -153 -77c-145 0 -245 118 -245 263s100 263 245 263c77 0 132 -36 153 -77l10 67h160v-63c44 45 105 73 181 73
c157 0 253 -123 253 -271zM756 316h166c-2 26 -33 50 -83 50s-81 -24 -83 -50zM365 150c65 0 103 48 103 103s-38 103 -103 103s-105 -48 -105 -103s40 -103 105 -103z" />
    <glyph glyph-name="b" unicode="b" horiz-adv-x="708" 
d="M638 253c0 -145 -100 -263 -245 -263c-77 0 -132 36 -153 77l-10 -67h-160v750h170v-311c21 41 76 77 153 77c145 0 245 -118 245 -263zM468 253c0 55 -40 103 -105 103s-103 -48 -103 -103s38 -103 103 -103s105 48 105 103z" />
    <glyph glyph-name="c" unicode="c" horiz-adv-x="556" 
d="M486 316c-39 34 -74 40 -109 40c-49 0 -107 -36 -107 -103s58 -103 107 -103c35 0 70 7 109 42v-160c-29 -22 -74 -42 -139 -42c-151 0 -257 121 -257 263c0 140 106 263 257 263c65 0 110 -20 139 -42v-158z" />
    <glyph glyph-name="cacute" unicode="&#x107;" horiz-adv-x="556" 
d="M338 776h170l-114 -170h-130zM486 316c-39 34 -74 40 -109 40c-49 0 -107 -36 -107 -103s58 -103 107 -103c35 0 70 7 109 42v-160c-29 -22 -74 -42 -139 -42c-151 0 -257 121 -257 263c0 140 106 263 257 263c65 0 110 -20 139 -42v-158z" />
    <glyph glyph-name="ccaron" unicode="&#x10d;" horiz-adv-x="556" 
d="M267 606l-129 170h148l43 -74l43 74h148l-129 -170h-124zM90 253c0 140 106 263 257 263c65 0 110 -20 139 -42v-158c-39 34 -74 40 -109 40c-49 0 -107 -36 -107 -103s58 -103 107 -103c35 0 70 7 109 42v-160c-29 -22 -74 -42 -139 -42c-151 0 -257 121 -257 263z" />
    <glyph glyph-name="ccedilla" unicode="&#xe7;" horiz-adv-x="556" 
d="M377 356c-49 0 -107 -36 -107 -103s58 -103 107 -103c35 0 70 7 109 42v-160c-21 -16 -50 -31 -90 -38l-28 -44c72 0 115 -24 115 -78c0 -116 -210 -102 -258 -102l30 72c78 0 138 -1 138 27c0 24 -30 25 -61 25l-94 -4l46 107c-117 29 -194 135 -194 256
c0 140 106 263 257 263c65 0 110 -20 139 -42v-158c-39 34 -74 40 -109 40z" />
    <glyph glyph-name="cdotaccent" unicode="&#x10b;" horiz-adv-x="556" 
d="M329 626c-45 0 -80 35 -80 80s35 80 80 80s80 -35 80 -80s-35 -80 -80 -80zM486 316c-39 34 -74 40 -109 40c-49 0 -107 -36 -107 -103s58 -103 107 -103c35 0 70 7 109 42v-160c-29 -22 -74 -42 -139 -42c-151 0 -257 121 -257 263c0 140 106 263 257 263
c65 0 110 -20 139 -42v-158z" />
    <glyph glyph-name="d" unicode="d" 
d="M90 253c0 145 100 263 245 263c77 0 132 -36 153 -77v311h170v-750h-160l-10 67c-21 -41 -76 -77 -153 -77c-145 0 -245 118 -245 263zM260 253c0 -55 40 -103 105 -103s103 48 103 103s-38 103 -103 103s-105 -48 -105 -103z" />
    <glyph glyph-name="eth" unicode="&#xf0;" horiz-adv-x="676" 
d="M406 631c128 -78 200 -209 200 -373c0 -161 -107 -268 -259 -268c-150 0 -257 107 -257 238c0 130 107 238 257 238c8 0 15 0 23 -1c-25 35 -58 56 -94 68l-118 -89v50l68 51c-47 7 -96 5 -136 5v160c107 0 201 -20 278 -58l103 78v-50zM348 150c53 0 88 35 88 78
s-35 78 -88 78s-88 -35 -88 -78s35 -78 88 -78z" />
    <glyph glyph-name="dcaron" unicode="&#x10f;" horiz-adv-x="752" 
d="M90 253c0 145 100 263 245 263c77 0 132 -36 153 -77v311h170v-750h-160l-10 67c-21 -41 -76 -77 -153 -77c-145 0 -245 118 -245 263zM753 750h170l-105 -244h-130zM260 253c0 -55 40 -103 105 -103s103 48 103 103s-38 103 -103 103s-105 -48 -105 -103z" />
    <glyph glyph-name="dcroat" unicode="&#x111;" 
d="M739 700v-160h-81v-540h-160l-10 67c-21 -41 -76 -77 -153 -77c-145 0 -245 118 -245 263s100 263 245 263c77 0 132 -36 153 -77v101h-199v160h199v50h170v-50h81zM365 150c65 0 103 48 103 103s-38 103 -103 103s-105 -48 -105 -103s40 -103 105 -103z" />
    <glyph glyph-name="e" unicode="e" horiz-adv-x="666" 
d="M596 245v-44h-336c2 -24 23 -61 93 -61c40 0 70 18 88 41l148 -15c-10 -68 -89 -176 -237 -176c-161 0 -262 124 -262 266c0 140 97 260 253 260c157 0 253 -123 253 -271zM260 316h166c-2 26 -33 50 -83 50s-81 -24 -83 -50z" />
    <glyph glyph-name="eacute" unicode="&#xe9;" horiz-adv-x="666" 
d="M522 776l-114 -170h-130l74 170h170zM596 245v-44h-336c2 -24 23 -61 93 -61c40 0 70 18 88 41l148 -15c-10 -68 -89 -176 -237 -176c-161 0 -262 124 -262 266c0 140 97 260 253 260c157 0 253 -123 253 -271zM260 316h166c-2 26 -33 50 -83 50s-81 -24 -83 -50z" />
    <glyph glyph-name="ecaron" unicode="&#x11b;" horiz-adv-x="666" 
d="M281 606l-129 170h148l43 -74l43 74h148l-129 -170h-124zM596 245v-44h-336c2 -24 23 -61 93 -61c40 0 70 18 88 41l148 -15c-10 -68 -89 -176 -237 -176c-161 0 -262 124 -262 266c0 140 97 260 253 260c157 0 253 -123 253 -271zM260 316h166c-2 26 -33 50 -83 50
s-81 -24 -83 -50z" />
    <glyph glyph-name="ecircumflex" unicode="&#xea;" horiz-adv-x="666" 
d="M344 680l-43 -74h-148l129 170h124l129 -170h-148zM596 245v-44h-336c2 -24 23 -61 93 -61c40 0 70 18 88 41l148 -15c-10 -68 -89 -176 -237 -176c-161 0 -262 124 -262 266c0 140 97 260 253 260c157 0 253 -123 253 -271zM260 316h166c-2 26 -33 50 -83 50
s-81 -24 -83 -50z" />
    <glyph glyph-name="edieresis" unicode="&#xeb;" horiz-adv-x="666" 
d="M239 626c-45 0 -80 35 -80 80s35 80 80 80s80 -35 80 -80s-35 -80 -80 -80zM449 626c-45 0 -80 35 -80 80s35 80 80 80s80 -35 80 -80s-35 -80 -80 -80zM596 245v-44h-336c2 -24 23 -61 93 -61c40 0 70 18 88 41l148 -15c-10 -68 -89 -176 -237 -176
c-161 0 -262 124 -262 266c0 140 97 260 253 260c157 0 253 -123 253 -271zM260 316h166c-2 26 -33 50 -83 50s-81 -24 -83 -50z" />
    <glyph glyph-name="edotaccent" unicode="&#x117;" horiz-adv-x="666" 
d="M343 626c-45 0 -80 35 -80 80s35 80 80 80s80 -35 80 -80s-35 -80 -80 -80zM596 245v-44h-336c2 -24 23 -61 93 -61c40 0 70 18 88 41l148 -15c-10 -68 -89 -176 -237 -176c-161 0 -262 124 -262 266c0 140 97 260 253 260c157 0 253 -123 253 -271zM260 316h166
c-2 26 -33 50 -83 50s-81 -24 -83 -50z" />
    <glyph glyph-name="egrave" unicode="&#xe8;" horiz-adv-x="666" 
d="M411 606h-130l-114 170h170zM596 245v-44h-336c2 -24 23 -61 93 -61c40 0 70 18 88 41l148 -15c-10 -68 -89 -176 -237 -176c-161 0 -262 124 -262 266c0 140 97 260 253 260c157 0 253 -123 253 -271zM260 316h166c-2 26 -33 50 -83 50s-81 -24 -83 -50z" />
    <glyph glyph-name="emacron" unicode="&#x113;" horiz-adv-x="666" 
d="M502 776v-160h-315v160h315zM596 245v-44h-336c2 -24 23 -61 93 -61c40 0 70 18 88 41l148 -15c-10 -68 -89 -176 -237 -176c-161 0 -262 124 -262 266c0 140 97 260 253 260c157 0 253 -123 253 -271zM260 316h166c-2 26 -33 50 -83 50s-81 -24 -83 -50z" />
    <glyph glyph-name="eogonek" unicode="&#x119;" horiz-adv-x="666" 
d="M596 245v-44h-336c2 -24 23 -61 93 -61c40 0 70 18 88 41l148 -15c-8 -58 -67 -144 -175 -169c-25 -29 -37 -67 3 -67c37 0 77 16 100 28v-130c-23 -23 -61 -58 -135 -58c-99 0 -175 119 -97 228c-121 29 -195 137 -195 258c0 140 97 260 253 260
c157 0 253 -123 253 -271zM260 316h166c-2 26 -33 50 -83 50s-81 -24 -83 -50z" />
    <glyph glyph-name="uni1EBD" unicode="&#x1ebd;" horiz-adv-x="666" 
d="M281 652c-27 0 -47 -17 -47 -52l-140 30c10 85 48 156 147 156c76 0 107 -62 164 -62c27 0 47 11 47 52l140 -30c-10 -85 -48 -156 -147 -156c-76 0 -107 62 -164 62zM596 245v-44h-336c2 -24 23 -61 93 -61c40 0 70 18 88 41l148 -15c-10 -68 -89 -176 -237 -176
c-161 0 -262 124 -262 266c0 140 97 260 253 260c157 0 253 -123 253 -271zM260 316h166c-2 26 -33 50 -83 50s-81 -24 -83 -50z" />
    <glyph glyph-name="f" unicode="f" horiz-adv-x="471" 
d="M421 506v-160h-130v-346h-170v346h-61v160h61c0 177 107 214 183 214c52 0 94 -17 116 -33v-140c-8 4 -34 13 -55 13c-52 0 -69 -20 -73 -54h129z" />
    <glyph glyph-name="g" unicode="g" horiz-adv-x="630" 
d="M570 506v-150l-44 11c3 -13 4 -27 4 -41c0 -114 -96 -190 -220 -190c-20 0 -39 2 -58 6c-1 -3 -2 -6 -2 -10c0 -22 30 -22 70 -22c173 0 240 -87 240 -175c0 -115 -122 -175 -235 -175s-235 60 -235 175c0 47 18 72 43 90c-25 21 -43 47 -43 75c0 41 31 70 64 88
c-40 33 -64 81 -64 138c0 115 96 190 220 190c41 0 79 -8 111 -23zM310 276c29 0 60 17 60 50c0 34 -31 50 -60 50c-28 0 -60 -16 -60 -50c0 -33 32 -50 60 -50zM400 -68c0 29 -40 38 -125 38c-13 -7 -25 -17 -25 -31c0 -24 25 -39 75 -39c49 0 75 9 75 32z" />
    <glyph glyph-name="gbreve" unicode="&#x11f;" horiz-adv-x="630" 
d="M310 603c-92 0 -211 41 -211 170h130c0 -26 18 -60 81 -60s81 34 81 60h130c0 -129 -119 -170 -211 -170zM570 506v-150l-44 11c3 -13 4 -27 4 -41c0 -114 -96 -190 -220 -190c-20 0 -39 2 -58 6c-1 -3 -2 -6 -2 -10c0 -22 30 -22 70 -22c173 0 240 -87 240 -175
c0 -115 -122 -175 -235 -175s-235 60 -235 175c0 47 18 72 43 90c-25 21 -43 47 -43 75c0 41 31 70 64 88c-40 33 -64 81 -64 138c0 115 96 190 220 190c41 0 79 -8 111 -23zM310 276c29 0 60 17 60 50c0 34 -31 50 -60 50c-28 0 -60 -16 -60 -50c0 -33 32 -50 60 -50z
M400 -68c0 29 -40 38 -125 38c-13 -7 -25 -17 -25 -31c0 -24 25 -39 75 -39c49 0 75 9 75 32z" />
    <glyph glyph-name="gcommaaccent" unicode="&#x123;" horiz-adv-x="630" 
d="M460 857l-65 -244h-170l105 244h130zM570 506v-150l-44 11c3 -13 4 -27 4 -41c0 -114 -96 -190 -220 -190c-20 0 -39 2 -58 6c-1 -3 -2 -6 -2 -10c0 -22 30 -22 70 -22c173 0 240 -87 240 -175c0 -115 -122 -175 -235 -175s-235 60 -235 175c0 47 18 72 43 90
c-25 21 -43 47 -43 75c0 41 31 70 64 88c-40 33 -64 81 -64 138c0 115 96 190 220 190c41 0 79 -8 111 -23zM310 276c29 0 60 17 60 50c0 34 -31 50 -60 50c-28 0 -60 -16 -60 -50c0 -33 32 -50 60 -50zM400 -68c0 29 -40 38 -125 38c-13 -7 -25 -17 -25 -31
c0 -24 25 -39 75 -39c49 0 75 9 75 32z" />
    <glyph glyph-name="gdotaccent" unicode="&#x121;" horiz-adv-x="630" 
d="M310 623c-45 0 -80 35 -80 80s35 80 80 80s80 -35 80 -80s-35 -80 -80 -80zM570 506v-150l-44 11c3 -13 4 -27 4 -41c0 -114 -96 -190 -220 -190c-20 0 -39 2 -58 6c-1 -3 -2 -6 -2 -10c0 -22 30 -22 70 -22c173 0 240 -87 240 -175c0 -115 -122 -175 -235 -175
s-235 60 -235 175c0 47 18 72 43 90c-25 21 -43 47 -43 75c0 41 31 70 64 88c-40 33 -64 81 -64 138c0 115 96 190 220 190c41 0 79 -8 111 -23zM310 276c29 0 60 17 60 50c0 34 -31 50 -60 50c-28 0 -60 -16 -60 -50c0 -33 32 -50 60 -50zM400 -68c0 29 -40 38 -125 38
c-13 -7 -25 -17 -25 -31c0 -24 25 -39 75 -39c49 0 75 9 75 32z" />
    <glyph glyph-name="h" unicode="h" horiz-adv-x="688" 
d="M435 516c128 0 183 -81 183 -214v-302h-170v220c0 107 -28 136 -83 136c-48 0 -105 -25 -105 -126v-230h-170v750h170v-305c50 42 109 71 175 71z" />
    <glyph glyph-name="hbar" unicode="&#x127;" horiz-adv-x="688" 
d="M435 516c128 0 183 -81 183 -214v-302h-170v220c0 107 -28 136 -83 136c-48 0 -105 -25 -105 -126v-230h-170v540h-83v160h83v50h170v-50h197v-160h-197v-95c50 42 109 71 175 71z" />
    <glyph glyph-name="i" unicode="i" horiz-adv-x="290" 
d="M145 560c-45 0 -80 35 -80 80s35 80 80 80s80 -35 80 -80s-35 -80 -80 -80zM230 506v-506h-170v506h170z" />
    <glyph glyph-name="dotlessi" unicode="&#x131;" horiz-adv-x="290" 
d="M230 506v-506h-170v506h170z" />
    <glyph glyph-name="iacute" unicode="&#xed;" horiz-adv-x="290" 
d="M157 776h170l-114 -170h-130zM230 506v-506h-170v506h170z" />
    <glyph glyph-name="icircumflex" unicode="&#xee;" horiz-adv-x="290" 
d="M149 680l-43 -74h-148l129 170h124l129 -170h-148zM60 0v506h170v-506h-170z" />
    <glyph glyph-name="idieresis" unicode="&#xef;" horiz-adv-x="290" 
d="M44 560c-45 0 -80 35 -80 80s35 80 80 80s80 -35 80 -80s-35 -80 -80 -80zM254 560c-45 0 -80 35 -80 80s35 80 80 80s80 -35 80 -80s-35 -80 -80 -80zM230 506v-506h-170v506h170z" />
    <glyph glyph-name="i.loclTRK" horiz-adv-x="320" 
d="M145 560c-45 0 -80 35 -80 80s35 80 80 80s80 -35 80 -80s-35 -80 -80 -80zM230 506v-506h-170v506h170z" />
    <glyph glyph-name="igrave" unicode="&#xec;" horiz-adv-x="290" 
d="M142 776l74 -170h-130l-114 170h170zM230 506v-506h-170v506h170z" />
    <glyph glyph-name="imacron" unicode="&#x12b;" horiz-adv-x="290" 
d="M-8 776h315v-160h-315v160zM230 506v-506h-170v506h170z" />
    <glyph glyph-name="iogonek" unicode="&#x12f;" horiz-adv-x="320" 
d="M145 560c-45 0 -80 35 -80 80s35 80 80 80s80 -35 80 -80s-35 -80 -80 -80zM210 -70c37 0 77 16 100 28v-130c-23 -23 -61 -58 -135 -58c-100 0 -176 121 -95 230h-20v506h170v-506h-20c-27 -29 -41 -70 0 -70z" />
    <glyph glyph-name="j" unicode="j" horiz-adv-x="335" 
d="M211 560c-45 0 -80 35 -80 80s35 80 80 80s80 -35 80 -80s-35 -80 -80 -80zM295 506v-506l-88 -230h-177l95 240v496h170z" />
    <glyph glyph-name="k" unicode="k" horiz-adv-x="732" 
d="M672 506l-228 -220l228 -286h-211l-137 171l-64 -62v-109h-170v750h170v-413l175 169h237z" />
    <glyph glyph-name="kcommaaccent" unicode="&#x137;" horiz-adv-x="732" 
d="M672 506l-228 -220l228 -286h-211l-137 171l-64 -62v-109h-170v750h170v-413l175 169h237zM208 -304l65 244h170l-105 -244h-130z" />
    <glyph glyph-name="l" unicode="l" horiz-adv-x="320" 
d="M260 750v-750h-170v750h170z" />
    <glyph glyph-name="lacute" unicode="&#x13a;" horiz-adv-x="320" 
d="M189 1020h170l-114 -170h-130zM260 750v-750h-170v750h170z" />
    <glyph glyph-name="lcaron" unicode="&#x13e;" horiz-adv-x="623" 
d="M260 750v-750h-170v750h170zM373 750h170l-105 -244h-130z" />
    <glyph glyph-name="lcommaaccent" unicode="&#x13c;" horiz-adv-x="320" 
d="M260 750v-750h-170v750h170zM93 -60h170l-105 -244h-130z" />
    <glyph glyph-name="lslash" unicode="&#x142;" horiz-adv-x="320" 
d="M331 488v-50l-71 -54v-384h-170v256l-72 -54v50l72 54v444h170v-316z" />
    <glyph glyph-name="m" unicode="m" horiz-adv-x="966" 
d="M733 516c108 0 163 -81 163 -195v-321h-170v260c0 57 -20 96 -62 96c-56 0 -86 -65 -86 -166v-190h-170v260c0 57 -20 96 -62 96c-56 0 -86 -65 -86 -166v-190h-170v506h160l9 -53c43 38 95 63 156 63c68 0 115 -32 140 -84c48 49 107 84 178 84z" />
    <glyph glyph-name="n" unicode="n" horiz-adv-x="688" 
d="M435 516c128 0 183 -81 183 -214v-302h-170v220c0 107 -28 136 -83 136c-48 0 -105 -25 -105 -126v-230h-170v506h160l10 -61c50 42 109 71 175 71z" />
    <glyph glyph-name="nacute" unicode="&#x144;" horiz-adv-x="688" 
d="M531 776l-114 -170h-130l74 170h170zM435 516c128 0 183 -81 183 -214v-302h-170v220c0 107 -28 136 -83 136c-48 0 -105 -25 -105 -126v-230h-170v506h160l10 -61c50 42 109 71 175 71z" />
    <glyph glyph-name="ncaron" unicode="&#x148;" horiz-adv-x="688" 
d="M290 606l-129 170h148l43 -74l43 74h148l-129 -170h-124zM435 516c128 0 183 -81 183 -214v-302h-170v220c0 107 -28 136 -83 136c-48 0 -105 -25 -105 -126v-230h-170v506h160l10 -61c50 42 109 71 175 71z" />
    <glyph glyph-name="ncommaaccent" unicode="&#x146;" horiz-adv-x="688" 
d="M435 516c128 0 183 -81 183 -214v-302h-170v220c0 107 -28 136 -83 136c-48 0 -105 -25 -105 -126v-230h-170v506h160l10 -61c50 42 109 71 175 71zM207 -304l65 244h170l-105 -244h-130z" />
    <glyph glyph-name="eng" unicode="&#x14b;" horiz-adv-x="688" 
d="M435 516c128 0 183 -81 183 -214v-328c0 -177 -107 -214 -183 -214c-72 0 -114 17 -136 33v135c18 -5 41 -8 55 -8c82 0 94 29 94 76v224c0 107 -28 136 -83 136c-48 0 -105 -25 -105 -126v-230h-170v506h160l10 -61c50 42 109 71 175 71z" />
    <glyph glyph-name="ntilde" unicode="&#xf1;" horiz-adv-x="688" 
d="M290 652c-27 0 -47 -17 -47 -52l-140 30c10 85 48 156 147 156c76 0 107 -62 164 -62c27 0 47 11 47 52l140 -30c-10 -85 -48 -156 -147 -156c-76 0 -107 62 -164 62zM435 516c128 0 183 -81 183 -214v-302h-170v220c0 107 -28 136 -83 136c-48 0 -105 -25 -105 -126
v-230h-170v506h160l10 -61c50 42 109 71 175 71z" />
    <glyph glyph-name="o" unicode="o" horiz-adv-x="708" 
d="M365 -10c-165 0 -275 118 -275 263s110 263 275 263s273 -118 273 -263s-108 -263 -273 -263zM365 150c65 0 103 48 103 103s-38 103 -103 103s-105 -48 -105 -103s40 -103 105 -103z" />
    <glyph glyph-name="oacute" unicode="&#xf3;" horiz-adv-x="708" 
d="M375 776h170l-114 -170h-130zM365 -10c-165 0 -275 118 -275 263s110 263 275 263s273 -118 273 -263s-108 -263 -273 -263zM365 150c65 0 103 48 103 103s-38 103 -103 103s-105 -48 -105 -103s40 -103 105 -103z" />
    <glyph glyph-name="ocircumflex" unicode="&#xf4;" horiz-adv-x="708" 
d="M367 680l-43 -74h-148l129 170h124l129 -170h-148zM365 516c165 0 273 -118 273 -263s-108 -263 -273 -263s-275 118 -275 263s110 263 275 263zM365 150c65 0 103 48 103 103s-38 103 -103 103s-105 -48 -105 -103s40 -103 105 -103z" />
    <glyph glyph-name="odieresis" unicode="&#xf6;" horiz-adv-x="708" 
d="M262 626c-45 0 -80 35 -80 80s35 80 80 80s80 -35 80 -80s-35 -80 -80 -80zM472 626c-45 0 -80 35 -80 80s35 80 80 80s80 -35 80 -80s-35 -80 -80 -80zM365 -10c-165 0 -275 118 -275 263s110 263 275 263s273 -118 273 -263s-108 -263 -273 -263zM365 150
c65 0 103 48 103 103s-38 103 -103 103s-105 -48 -105 -103s40 -103 105 -103z" />
    <glyph glyph-name="ograve" unicode="&#xf2;" horiz-adv-x="708" 
d="M360 776l74 -170h-130l-114 170h170zM365 -10c-165 0 -275 118 -275 263s110 263 275 263s273 -118 273 -263s-108 -263 -273 -263zM365 150c65 0 103 48 103 103s-38 103 -103 103s-105 -48 -105 -103s40 -103 105 -103z" />
    <glyph glyph-name="ohungarumlaut" unicode="&#x151;" horiz-adv-x="708" 
d="M264 776h170l-114 -170h-130zM478 776h170l-114 -170h-130zM365 -10c-165 0 -275 118 -275 263s110 263 275 263s273 -118 273 -263s-108 -263 -273 -263zM365 150c65 0 103 48 103 103s-38 103 -103 103s-105 -48 -105 -103s40 -103 105 -103z" />
    <glyph glyph-name="omacron" unicode="&#x14d;" horiz-adv-x="708" 
d="M210 776h315v-160h-315v160zM365 -10c-165 0 -275 118 -275 263s110 263 275 263s273 -118 273 -263s-108 -263 -273 -263zM365 150c65 0 103 48 103 103s-38 103 -103 103s-105 -48 -105 -103s40 -103 105 -103z" />
    <glyph glyph-name="oslash" unicode="&#xf8;" horiz-adv-x="707" 
d="M542 457c60 -48 95 -122 95 -204c0 -145 -108 -263 -273 -263c-56 0 -106 14 -147 37l-51 -67h-50l68 90c-60 48 -95 121 -95 203c0 145 110 263 275 263c56 0 105 -13 145 -37l51 67h50zM259 253c0 -26 9 -51 26 -70l124 164c-13 6 -28 9 -45 9
c-65 0 -105 -48 -105 -103zM364 150c65 0 103 48 103 103c0 27 -9 52 -26 70l-124 -163c14 -7 30 -10 47 -10z" />
    <glyph glyph-name="otilde" unicode="&#xf5;" horiz-adv-x="708" 
d="M117 630c10 85 48 156 147 156c76 0 107 -62 164 -62c27 0 47 11 47 52l140 -30c-10 -85 -48 -156 -147 -156c-76 0 -107 62 -164 62c-27 0 -47 -17 -47 -52zM365 -10c-165 0 -275 118 -275 263s110 263 275 263s273 -118 273 -263s-108 -263 -273 -263zM365 150
c65 0 103 48 103 103s-38 103 -103 103s-105 -48 -105 -103s40 -103 105 -103z" />
    <glyph glyph-name="oe" unicode="&#x153;" horiz-adv-x="1044" 
d="M974 246v-60h-307c14 -39 51 -56 129 -56c24 0 55 0 148 26v-116c-51 -35 -122 -50 -182 -50c-88 0 -155 29 -201 75c-47 -46 -115 -75 -196 -75c-165 0 -275 118 -275 263s110 263 275 263c81 0 148 -28 195 -74c44 45 105 74 178 74c142 0 236 -97 236 -270zM742 366
c-35 0 -64 -14 -77 -60h144c-9 46 -32 60 -67 60zM365 150c65 0 103 48 103 103s-38 103 -103 103s-105 -48 -105 -103s40 -103 105 -103z" />
    <glyph glyph-name="p" unicode="p" 
d="M90 -230v736h160l10 -67c21 41 76 77 153 77c145 0 245 -118 245 -263s-100 -263 -245 -263c-77 0 -132 36 -153 77v-297h-170zM280 253c0 -55 38 -103 103 -103s105 48 105 103s-40 103 -105 103s-103 -48 -103 -103z" />
    <glyph glyph-name="thorn" unicode="&#xfe;" horiz-adv-x="708" 
d="M90 -230v980h170v-301c21 41 76 67 133 67c145 0 245 -118 245 -263s-100 -263 -245 -263c-57 0 -112 26 -133 67v-287h-170zM250 253c0 -55 38 -103 103 -103s105 48 105 103s-40 103 -105 103s-103 -48 -103 -103z" />
    <glyph glyph-name="q" unicode="q" 
d="M658 -230h-170v297c-21 -41 -76 -77 -153 -77c-145 0 -245 118 -245 263s100 263 245 263c77 0 132 -36 153 -77l10 67h160v-736zM468 253c0 55 -38 103 -103 103s-105 -48 -105 -103s40 -103 105 -103s103 48 103 103z" />
    <glyph glyph-name="r" unicode="r" horiz-adv-x="448" 
d="M360 516c25 0 46 -9 58 -21l-22 -149c-11 6 -32 10 -47 10c-51 0 -89 -42 -89 -166v-190h-170v506h160l7 -45c31 34 66 55 103 55z" />
    <glyph glyph-name="racute" unicode="&#x155;" horiz-adv-x="448" 
d="M438 776l-114 -170h-130l74 170h170zM257 461c31 34 66 55 103 55c25 0 46 -9 58 -21l-22 -149c-11 6 -32 10 -47 10c-51 0 -89 -42 -89 -166v-190h-170v506h160z" />
    <glyph glyph-name="rcaron" unicode="&#x159;" horiz-adv-x="448" 
d="M197 606l-129 170h148l43 -74l43 74h148l-129 -170h-124zM257 461c31 34 66 55 103 55c25 0 46 -9 58 -21l-22 -149c-11 6 -32 10 -47 10c-51 0 -89 -42 -89 -166v-190h-170v506h160z" />
    <glyph glyph-name="rcommaaccent" unicode="&#x157;" horiz-adv-x="448" 
d="M360 516c25 0 46 -9 58 -21l-22 -149c-11 6 -32 10 -47 10c-51 0 -89 -42 -89 -166v-190h-170v506h160l7 -45c31 34 66 55 103 55zM24 -304l65 244h170l-105 -244h-130z" />
    <glyph glyph-name="s" unicode="s" horiz-adv-x="630" 
d="M90 170h170c0 -25 32 -40 79 -40c19 0 51 3 51 21c0 19 -26 22 -124 47c-100 26 -161 74 -161 159c0 99 99 159 208 159c145 0 227 -80 227 -171h-170c0 26 -35 31 -51 31c-20 0 -44 -5 -44 -19s18 -15 131 -50c134 -41 154 -109 154 -160c0 -105 -106 -157 -225 -157
c-144 0 -245 56 -245 180z" />
    <glyph glyph-name="sacute" unicode="&#x15b;" horiz-adv-x="630" 
d="M329 776h170l-114 -170h-130zM90 170h170c0 -25 32 -40 79 -40c19 0 51 3 51 21c0 19 -26 22 -124 47c-100 26 -161 74 -161 159c0 99 99 159 208 159c145 0 227 -80 227 -171h-170c0 26 -35 31 -51 31c-20 0 -44 -5 -44 -19s18 -15 131 -50c134 -41 154 -109 154 -160
c0 -105 -106 -157 -225 -157c-144 0 -245 56 -245 180z" />
    <glyph glyph-name="scaron" unicode="&#x161;" horiz-adv-x="630" 
d="M258 606l-129 170h148l43 -74l43 74h148l-129 -170h-124zM406 307c134 -41 154 -109 154 -160c0 -105 -106 -157 -225 -157c-144 0 -245 56 -245 180h170c0 -25 32 -40 79 -40c19 0 51 3 51 21c0 19 -26 22 -124 47c-100 26 -161 74 -161 159c0 99 99 159 208 159
c145 0 227 -80 227 -171h-170c0 26 -35 31 -51 31c-20 0 -44 -5 -44 -19s18 -15 131 -50z" />
    <glyph glyph-name="scedilla" unicode="&#x15f;" horiz-adv-x="630" 
d="M560 147c0 -91 -80 -142 -179 -154l-27 -43c72 0 115 -24 115 -78c0 -116 -210 -102 -258 -102l30 72c78 0 138 -1 138 27c0 24 -30 25 -61 25l-94 -4l45 104c-108 16 -179 72 -179 176h170c0 -25 32 -40 79 -40c19 0 51 3 51 21c0 19 -26 22 -124 47
c-100 26 -161 74 -161 159c0 99 99 159 208 159c145 0 227 -80 227 -171h-170c0 26 -35 31 -51 31c-20 0 -44 -5 -44 -19s18 -15 131 -50c134 -41 154 -109 154 -160z" />
    <glyph glyph-name="scommaaccent" unicode="&#x219;" horiz-adv-x="630" 
d="M90 170h170c0 -25 32 -40 79 -40c19 0 51 3 51 21c0 19 -26 22 -124 47c-100 26 -161 74 -161 159c0 99 99 159 208 159c145 0 227 -80 227 -171h-170c0 26 -35 31 -51 31c-20 0 -44 -5 -44 -19s18 -15 131 -50c134 -41 154 -109 154 -160c0 -105 -106 -157 -225 -157
c-144 0 -245 56 -245 180zM245 -60h170l-105 -244h-130z" />
    <glyph glyph-name="germandbls" unicode="&#xdf;" horiz-adv-x="746" 
d="M550 390c71 -40 126 -105 126 -188c0 -107 -70 -205 -208 -205c-65 0 -108 22 -138 43v163c32 -24 67 -46 108 -46c44 0 68 17 68 55c0 48 -46 85 -127 85h-19v140h19c24 0 47 26 47 59c0 35 -23 64 -73 64c-51 0 -93 -27 -93 -93v-467h-170v467c0 128 68 253 267 253
c168 0 239 -122 239 -199c0 -44 -17 -91 -46 -131z" />
    <glyph glyph-name="t" unicode="t" horiz-adv-x="490" 
d="M440 506v-160h-123v-346h-170v346h-87v160h87v150h170v-150h123z" />
    <glyph glyph-name="tbar" unicode="&#x167;" horiz-adv-x="490" 
d="M440 346h-123v-49h106v-160h-106v-137h-170v137h-84v160h84v49h-87v160h87v150h170v-150h123v-160z" />
    <glyph glyph-name="tcaron" unicode="&#x165;" horiz-adv-x="490" 
d="M435 790h170l-105 -244h-130zM317 656v-150h123v-160h-123v-346h-170v346h-87v160h87v150h170z" />
    <glyph glyph-name="uni0163" unicode="&#x163;" horiz-adv-x="490" 
d="M317 0h-26l-32 -50c72 0 115 -24 115 -78c0 -116 -210 -102 -258 -102l30 72c78 0 138 -1 138 27c0 24 -30 25 -61 25l-94 -4l47 110h-29v346h-87v160h87v150h170v-150h123v-160h-123v-346z" />
    <glyph glyph-name="uni021B" unicode="&#x21b;" horiz-adv-x="490" 
d="M317 506h123v-160h-123v-346h-170v346h-87v160h87v150h170v-150zM85 -304l65 244h170l-105 -244h-130z" />
    <glyph glyph-name="u" unicode="u" horiz-adv-x="688" 
d="M448 506h170v-506h-160l-10 61c-50 -42 -109 -71 -175 -71c-128 0 -183 81 -183 214v302h170v-220c0 -107 28 -136 83 -136c48 0 105 25 105 126v230z" />
    <glyph glyph-name="uacute" unicode="&#xfa;" horiz-adv-x="688" 
d="M538 776l-114 -170h-130l74 170h170zM448 506h170v-506h-160l-10 61c-50 -42 -109 -71 -175 -71c-128 0 -183 81 -183 214v302h170v-220c0 -107 28 -136 83 -136c48 0 105 25 105 126v230z" />
    <glyph glyph-name="ucircumflex" unicode="&#xfb;" horiz-adv-x="688" 
d="M360 680l-43 -74h-148l129 170h124l129 -170h-148zM448 506h170v-506h-160l-10 61c-50 -42 -109 -71 -175 -71c-128 0 -183 81 -183 214v302h170v-220c0 -107 28 -136 83 -136c48 0 105 25 105 126v230z" />
    <glyph glyph-name="udieresis" unicode="&#xfc;" horiz-adv-x="688" 
d="M255 626c-45 0 -80 35 -80 80s35 80 80 80s80 -35 80 -80s-35 -80 -80 -80zM465 626c-45 0 -80 35 -80 80s35 80 80 80s80 -35 80 -80s-35 -80 -80 -80zM448 506h170v-506h-160l-10 61c-50 -42 -109 -71 -175 -71c-128 0 -183 81 -183 214v302h170v-220
c0 -107 28 -136 83 -136c48 0 105 25 105 126v230z" />
    <glyph glyph-name="ugrave" unicode="&#xf9;" horiz-adv-x="688" 
d="M427 606h-130l-114 170h170zM448 506h170v-506h-160l-10 61c-50 -42 -109 -71 -175 -71c-128 0 -183 81 -183 214v302h170v-220c0 -107 28 -136 83 -136c48 0 105 25 105 126v230z" />
    <glyph glyph-name="uhungarumlaut" unicode="&#x171;" horiz-adv-x="688" 
d="M427 776l-114 -170h-130l74 170h170zM527 606h-130l74 170h170zM448 276v230h170v-506h-160l-10 61c-50 -42 -109 -71 -175 -71c-128 0 -183 81 -183 214v302h170v-220c0 -107 28 -136 83 -136c48 0 105 25 105 126z" />
    <glyph glyph-name="umacron" unicode="&#x16b;" horiz-adv-x="688" 
d="M518 776v-160h-315v160h315zM448 506h170v-506h-160l-10 61c-50 -42 -109 -71 -175 -71c-128 0 -183 81 -183 214v302h170v-220c0 -107 28 -136 83 -136c48 0 105 25 105 126v230z" />
    <glyph glyph-name="uogonek" unicode="&#x173;" horiz-adv-x="688" 
d="M613 -70c37 0 77 16 100 28v-130c-23 -23 -61 -58 -135 -58c-100 0 -176 121 -95 230h-25l-10 61c-50 -42 -109 -71 -175 -71c-128 0 -183 81 -183 214v302h170v-220c0 -107 28 -136 83 -136c48 0 105 25 105 126v230h170v-506h-5c-27 -29 -41 -70 0 -70z" />
    <glyph glyph-name="uring" unicode="&#x16f;" horiz-adv-x="688" 
d="M359 606c-50 0 -90 40 -90 90s40 90 90 90s90 -40 90 -90s-40 -90 -90 -90zM359 716c-11 0 -20 -9 -20 -20s9 -20 20 -20s20 9 20 20s-9 20 -20 20zM448 506h170v-506h-160l-10 61c-50 -42 -109 -71 -175 -71c-128 0 -183 81 -183 214v302h170v-220
c0 -107 28 -136 83 -136c48 0 105 25 105 126v230z" />
    <glyph glyph-name="utilde" unicode="&#x169;" horiz-adv-x="688" 
d="M297 652c-27 0 -47 -17 -47 -52l-140 30c10 85 48 156 147 156c76 0 107 -62 164 -62c27 0 47 11 47 52l140 -30c-10 -85 -48 -156 -147 -156c-76 0 -107 62 -164 62zM448 506h170v-506h-160l-10 61c-50 -42 -109 -71 -175 -71c-128 0 -183 81 -183 214v302h170v-220
c0 -107 28 -136 83 -136c48 0 105 25 105 126v230z" />
    <glyph glyph-name="v" unicode="v" horiz-adv-x="763" 
d="M513 506h190l-213 -506h-197l-213 506h190l122 -324z" />
    <glyph glyph-name="w" unicode="w" horiz-adv-x="1045" 
d="M804 506h181l-183 -506h-177l-92 256l-93 -256h-177l-183 506h181l91 -288l90 288h181l91 -288z" />
    <glyph glyph-name="wacute" unicode="&#x1e83;" horiz-adv-x="1045" 
d="M715 776l-114 -170h-130l74 170h170zM804 506h181l-183 -506h-177l-92 256l-93 -256h-177l-183 506h181l91 -288l90 288h181l91 -288z" />
    <glyph glyph-name="wcircumflex" unicode="&#x175;" horiz-adv-x="1045" 
d="M537 680l-43 -74h-148l129 170h124l129 -170h-148zM804 506h181l-183 -506h-177l-92 256l-93 -256h-177l-183 506h181l91 -288l90 288h181l91 -288z" />
    <glyph glyph-name="wdieresis" unicode="&#x1e85;" horiz-adv-x="1045" 
d="M432 626c-45 0 -80 35 -80 80s35 80 80 80s80 -35 80 -80s-35 -80 -80 -80zM642 626c-45 0 -80 35 -80 80s35 80 80 80s80 -35 80 -80s-35 -80 -80 -80zM804 506h181l-183 -506h-177l-92 256l-93 -256h-177l-183 506h181l91 -288l90 288h181l91 -288z" />
    <glyph glyph-name="wgrave" unicode="&#x1e81;" horiz-adv-x="1045" 
d="M604 606h-130l-114 170h170zM804 506h181l-183 -506h-177l-92 256l-93 -256h-177l-183 506h181l91 -288l90 288h181l91 -288z" />
    <glyph glyph-name="x" unicode="x" horiz-adv-x="747" 
d="M80 0l199 253l-199 253h209l95 -138l94 138h209l-199 -253l199 -253h-209l-94 138l-95 -138h-209z" />
    <glyph glyph-name="y" unicode="y" horiz-adv-x="741" 
d="M80 506h182l118 -295l119 295h182l-310 -736h-179l97 230z" />
    <glyph glyph-name="yacute" unicode="&#xfd;" horiz-adv-x="741" 
d="M396 776h170l-114 -170h-130zM80 506h182l118 -295l119 295h182l-310 -736h-179l97 230z" />
    <glyph glyph-name="ycircumflex" unicode="&#x177;" horiz-adv-x="741" 
d="M388 680l-43 -74h-148l129 170h124l129 -170h-148zM499 506h182l-310 -736h-179l97 230l-209 506h182l118 -295z" />
    <glyph glyph-name="ydieresis" unicode="&#xff;" horiz-adv-x="741" 
d="M283 626c-45 0 -80 35 -80 80s35 80 80 80s80 -35 80 -80s-35 -80 -80 -80zM493 626c-45 0 -80 35 -80 80s35 80 80 80s80 -35 80 -80s-35 -80 -80 -80zM80 506h182l118 -295l119 295h182l-310 -736h-179l97 230z" />
    <glyph glyph-name="ygrave" unicode="&#x1ef3;" horiz-adv-x="741" 
d="M381 776l74 -170h-130l-114 170h170zM80 506h182l118 -295l119 295h182l-310 -736h-179l97 230z" />
    <glyph glyph-name="uni1EF9" unicode="&#x1ef9;" horiz-adv-x="741" 
d="M138 630c10 85 48 156 147 156c76 0 107 -62 164 -62c27 0 47 11 47 52l140 -30c-10 -85 -48 -156 -147 -156c-76 0 -107 62 -164 62c-27 0 -47 -17 -47 -52zM80 506h182l118 -295l119 295h182l-310 -736h-179l97 230z" />
    <glyph glyph-name="z" unicode="z" horiz-adv-x="610" 
d="M550 506v-160l-230 -186h230v-160h-460v160l230 186h-230v160h460z" />
    <glyph glyph-name="zacute" unicode="&#x17a;" horiz-adv-x="610" 
d="M499 776l-114 -170h-130l74 170h170zM550 506v-160l-230 -186h230v-160h-460v160l230 186h-230v160h460z" />
    <glyph glyph-name="zcaron" unicode="&#x17e;" horiz-adv-x="610" 
d="M258 606l-129 170h148l43 -74l43 74h148l-129 -170h-124zM550 506v-160l-230 -186h230v-160h-460v160l230 186h-230v160h460z" />
    <glyph glyph-name="zdotaccent" unicode="&#x17c;" horiz-adv-x="610" 
d="M320 626c-45 0 -80 35 -80 80s35 80 80 80s80 -35 80 -80s-35 -80 -80 -80zM550 506v-160l-230 -186h230v-160h-460v160l230 186h-230v160h460z" />
    <glyph glyph-name="a.ss01" horiz-adv-x="668" 
d="M354 516c183 0 244 -104 244 -246v-270h-160l-10 31c-11 -12 -70 -41 -133 -41c-118 0 -205 60 -205 169c0 108 87 168 205 168c62 0 120 -27 133 -43c-5 62 -43 92 -110 92c-73 0 -133 -25 -186 -50v130c51 29 130 60 222 60zM341 100c47 0 87 26 87 59s-40 59 -87 59
c-48 0 -81 -25 -81 -59c0 -35 32 -59 81 -59z" />
    <glyph glyph-name="aacute.ss01" horiz-adv-x="668" 
d="M533 776l-114 -170h-130l74 170h170zM354 516c183 0 244 -104 244 -246v-270h-160l-10 31c-11 -12 -70 -41 -133 -41c-118 0 -205 60 -205 169c0 108 87 168 205 168c62 0 120 -27 133 -43c-5 62 -43 92 -110 92c-73 0 -133 -25 -186 -50v130c51 29 130 60 222 60z
M341 100c47 0 87 26 87 59s-40 59 -87 59c-48 0 -81 -25 -81 -59c0 -35 32 -59 81 -59z" />
    <glyph glyph-name="abreve.ss01" horiz-adv-x="668" 
d="M354 606c-92 0 -211 41 -211 170h130c0 -26 18 -60 81 -60s81 34 81 60h130c0 -129 -119 -170 -211 -170zM354 516c183 0 244 -104 244 -246v-270h-160l-10 31c-11 -12 -70 -41 -133 -41c-118 0 -205 60 -205 169c0 108 87 168 205 168c62 0 120 -27 133 -43
c-5 62 -43 92 -110 92c-73 0 -133 -25 -186 -50v130c51 29 130 60 222 60zM341 100c47 0 87 26 87 59s-40 59 -87 59c-48 0 -81 -25 -81 -59c0 -35 32 -59 81 -59z" />
    <glyph glyph-name="acircumflex.ss01" horiz-adv-x="668" 
d="M355 680l-43 -74h-148l129 170h124l129 -170h-148zM354 516c183 0 244 -104 244 -246v-270h-160l-10 31c-11 -12 -70 -41 -133 -41c-118 0 -205 60 -205 169c0 108 87 168 205 168c62 0 120 -27 133 -43c-5 62 -43 92 -110 92c-73 0 -133 -25 -186 -50v130
c51 29 130 60 222 60zM341 100c47 0 87 26 87 59s-40 59 -87 59c-48 0 -81 -25 -81 -59c0 -35 32 -59 81 -59z" />
    <glyph glyph-name="adieresis.ss01" horiz-adv-x="668" 
d="M250 626c-45 0 -80 35 -80 80s35 80 80 80s80 -35 80 -80s-35 -80 -80 -80zM460 626c-45 0 -80 35 -80 80s35 80 80 80s80 -35 80 -80s-35 -80 -80 -80zM354 516c183 0 244 -104 244 -246v-270h-160l-10 31c-11 -12 -70 -41 -133 -41c-118 0 -205 60 -205 169
c0 108 87 168 205 168c62 0 120 -27 133 -43c-5 62 -43 92 -110 92c-73 0 -133 -25 -186 -50v130c51 29 130 60 222 60zM341 100c47 0 87 26 87 59s-40 59 -87 59c-48 0 -81 -25 -81 -59c0 -35 32 -59 81 -59z" />
    <glyph glyph-name="agrave.ss01" horiz-adv-x="668" 
d="M422 606h-130l-114 170h170zM354 516c183 0 244 -104 244 -246v-270h-160l-10 31c-11 -12 -70 -41 -133 -41c-118 0 -205 60 -205 169c0 108 87 168 205 168c62 0 120 -27 133 -43c-5 62 -43 92 -110 92c-73 0 -133 -25 -186 -50v130c51 29 130 60 222 60zM341 100
c47 0 87 26 87 59s-40 59 -87 59c-48 0 -81 -25 -81 -59c0 -35 32 -59 81 -59z" />
    <glyph glyph-name="amacron.ss01" horiz-adv-x="668" 
d="M513 776v-160h-315v160h315zM354 516c183 0 244 -104 244 -246v-270h-160l-10 31c-11 -12 -70 -41 -133 -41c-118 0 -205 60 -205 169c0 108 87 168 205 168c62 0 120 -27 133 -43c-5 62 -43 92 -110 92c-73 0 -133 -25 -186 -50v130c51 29 130 60 222 60zM341 100
c47 0 87 26 87 59s-40 59 -87 59c-48 0 -81 -25 -81 -59c0 -35 32 -59 81 -59z" />
    <glyph glyph-name="aogonek.ss01" horiz-adv-x="668" 
d="M584 -70c37 0 77 16 100 28v-130c-23 -23 -61 -58 -135 -58c-100 0 -176 121 -95 230h-16l-10 31c-11 -12 -70 -41 -133 -41c-118 0 -205 60 -205 169c0 108 87 168 205 168c62 0 120 -27 133 -43c-5 62 -43 92 -110 92c-73 0 -133 -25 -186 -50v130c51 29 130 60 222 60
c183 0 244 -104 244 -246v-270h-14c-27 -29 -41 -70 0 -70zM341 100c47 0 87 26 87 59s-40 59 -87 59c-48 0 -81 -25 -81 -59c0 -35 32 -59 81 -59z" />
    <glyph glyph-name="aring.ss01" horiz-adv-x="668" 
d="M354 606c-50 0 -90 40 -90 90s40 90 90 90s90 -40 90 -90s-40 -90 -90 -90zM354 716c-11 0 -20 -9 -20 -20s9 -20 20 -20s20 9 20 20s-9 20 -20 20zM354 516c183 0 244 -104 244 -246v-270h-160l-10 31c-11 -12 -70 -41 -133 -41c-118 0 -205 60 -205 169
c0 108 87 168 205 168c62 0 120 -27 133 -43c-5 62 -43 92 -110 92c-73 0 -133 -25 -186 -50v130c51 29 130 60 222 60zM341 100c47 0 87 26 87 59s-40 59 -87 59c-48 0 -81 -25 -81 -59c0 -35 32 -59 81 -59z" />
    <glyph glyph-name="atilde.ss01" horiz-adv-x="668" 
d="M292 652c-27 0 -47 -17 -47 -52l-140 30c10 85 48 156 147 156c76 0 107 -62 164 -62c27 0 47 11 47 52l140 -30c-10 -85 -48 -156 -147 -156c-76 0 -107 62 -164 62zM354 516c183 0 244 -104 244 -246v-270h-160l-10 31c-11 -12 -70 -41 -133 -41
c-118 0 -205 60 -205 169c0 108 87 168 205 168c62 0 120 -27 133 -43c-5 62 -43 92 -110 92c-73 0 -133 -25 -186 -50v130c51 29 130 60 222 60zM341 100c47 0 87 26 87 59s-40 59 -87 59c-48 0 -81 -25 -81 -59c0 -35 32 -59 81 -59z" />
    <glyph glyph-name="ae.ss01" horiz-adv-x="1015" 
d="M945 246v-60h-307c14 -39 51 -56 129 -56c24 0 55 0 148 26v-116c-51 -35 -122 -50 -182 -50c-53 0 -98 10 -135 28v-18h-160l-10 31c-11 -12 -70 -41 -133 -41c-118 0 -205 60 -205 169c0 108 87 168 205 168c62 0 120 -27 133 -43c-5 62 -43 92 -110 92
c-73 0 -133 -25 -186 -50v130c51 29 130 60 222 60c88 0 148 -24 186 -65c43 40 101 65 169 65c142 0 236 -97 236 -270zM713 366c-35 0 -64 -14 -77 -60h144c-9 46 -32 60 -67 60zM341 100c47 0 87 26 87 59s-40 59 -87 59c-48 0 -81 -25 -81 -59c0 -35 32 -59 81 -59z" />
    <glyph glyph-name="e.ss01" horiz-adv-x="646" 
d="M576 246v-60h-307c14 -39 51 -56 129 -56c24 0 55 0 148 26v-116c-51 -35 -122 -50 -182 -50c-183 0 -274 124 -274 266c0 140 101 260 250 260c142 0 236 -97 236 -270zM344 366c-35 0 -64 -14 -77 -60h144c-9 46 -32 60 -67 60z" />
    <glyph glyph-name="eacute.ss01" horiz-adv-x="646" 
d="M519 776l-114 -170h-130l74 170h170zM576 246v-60h-307c14 -39 51 -56 129 -56c24 0 55 0 148 26v-116c-51 -35 -122 -50 -182 -50c-183 0 -274 124 -274 266c0 140 101 260 250 260c142 0 236 -97 236 -270zM344 366c-35 0 -64 -14 -77 -60h144c-9 46 -32 60 -67 60z
" />
    <glyph glyph-name="ecaron.ss01" horiz-adv-x="646" 
d="M278 606l-129 170h148l43 -74l43 74h148l-129 -170h-124zM576 246v-60h-307c14 -39 51 -56 129 -56c24 0 55 0 148 26v-116c-51 -35 -122 -50 -182 -50c-183 0 -274 124 -274 266c0 140 101 260 250 260c142 0 236 -97 236 -270zM344 366c-35 0 -64 -14 -77 -60h144
c-9 46 -32 60 -67 60z" />
    <glyph glyph-name="ecircumflex.ss01" horiz-adv-x="646" 
d="M341 680l-43 -74h-148l129 170h124l129 -170h-148zM576 246v-60h-307c14 -39 51 -56 129 -56c24 0 55 0 148 26v-116c-51 -35 -122 -50 -182 -50c-183 0 -274 124 -274 266c0 140 101 260 250 260c142 0 236 -97 236 -270zM344 366c-35 0 -64 -14 -77 -60h144
c-9 46 -32 60 -67 60z" />
    <glyph glyph-name="edieresis.ss01" horiz-adv-x="646" 
d="M236 626c-45 0 -80 35 -80 80s35 80 80 80s80 -35 80 -80s-35 -80 -80 -80zM446 626c-45 0 -80 35 -80 80s35 80 80 80s80 -35 80 -80s-35 -80 -80 -80zM576 246v-60h-307c14 -39 51 -56 129 -56c24 0 55 0 148 26v-116c-51 -35 -122 -50 -182 -50
c-183 0 -274 124 -274 266c0 140 101 260 250 260c142 0 236 -97 236 -270zM344 366c-35 0 -64 -14 -77 -60h144c-9 46 -32 60 -67 60z" />
    <glyph glyph-name="edotaccent.ss01" horiz-adv-x="646" 
d="M340 626c-45 0 -80 35 -80 80s35 80 80 80s80 -35 80 -80s-35 -80 -80 -80zM576 246v-60h-307c14 -39 51 -56 129 -56c24 0 55 0 148 26v-116c-51 -35 -122 -50 -182 -50c-183 0 -274 124 -274 266c0 140 101 260 250 260c142 0 236 -97 236 -270zM344 366
c-35 0 -64 -14 -77 -60h144c-9 46 -32 60 -67 60z" />
    <glyph glyph-name="egrave.ss01" horiz-adv-x="646" 
d="M408 606h-130l-114 170h170zM576 246v-60h-307c14 -39 51 -56 129 -56c24 0 55 0 148 26v-116c-51 -35 -122 -50 -182 -50c-183 0 -274 124 -274 266c0 140 101 260 250 260c142 0 236 -97 236 -270zM344 366c-35 0 -64 -14 -77 -60h144c-9 46 -32 60 -67 60z" />
    <glyph glyph-name="emacron.ss01" horiz-adv-x="646" 
d="M499 776v-160h-315v160h315zM576 246v-60h-307c14 -39 51 -56 129 -56c24 0 55 0 148 26v-116c-51 -35 -122 -50 -182 -50c-183 0 -274 124 -274 266c0 140 101 260 250 260c142 0 236 -97 236 -270zM344 366c-35 0 -64 -14 -77 -60h144c-9 46 -32 60 -67 60z" />
    <glyph glyph-name="eogonek.ss01" horiz-adv-x="646" 
d="M576 246v-60h-307c14 -39 51 -56 129 -56c24 0 55 0 148 26v-116c-37 -25 -84 -40 -131 -46c-23 -29 -32 -64 6 -64c37 0 77 16 100 28v-130c-23 -23 -61 -58 -135 -58c-99 0 -175 119 -97 228c-133 29 -199 137 -199 258c0 140 101 260 250 260c142 0 236 -97 236 -270z
M344 366c-35 0 -64 -14 -77 -60h144c-9 46 -32 60 -67 60z" />
    <glyph glyph-name="uni1EBD.ss01" horiz-adv-x="646" 
d="M278 652c-27 0 -47 -17 -47 -52l-140 30c10 85 48 156 147 156c76 0 107 -62 164 -62c27 0 47 11 47 52l140 -30c-10 -85 -48 -156 -147 -156c-76 0 -107 62 -164 62zM340 516c142 0 236 -97 236 -270v-60h-307c14 -39 51 -56 129 -56c24 0 55 0 148 26v-116
c-51 -35 -122 -50 -182 -50c-183 0 -274 124 -274 266c0 140 101 260 250 260zM344 366c-35 0 -64 -14 -77 -60h144c-9 46 -32 60 -67 60z" />
    <glyph glyph-name="g.ss01" 
d="M498 506h160v-470c0 -152 -91 -276 -274 -276c-92 0 -201 31 -252 60v130c53 -20 129 -50 216 -50c102 0 140 54 140 136v31c-21 -41 -76 -77 -153 -77c-145 0 -245 118 -245 263s100 263 245 263c77 0 132 -36 153 -77zM365 150c65 0 103 48 103 103s-38 103 -103 103
s-105 -48 -105 -103s40 -103 105 -103z" />
    <glyph glyph-name="gbreve.ss01" 
d="M380 606c-92 0 -211 41 -211 170h130c0 -26 18 -60 81 -60s81 34 81 60h130c0 -129 -119 -170 -211 -170zM498 506h160v-470c0 -152 -91 -276 -274 -276c-92 0 -201 31 -252 60v130c53 -20 129 -50 216 -50c102 0 140 54 140 136v31c-21 -41 -76 -77 -153 -77
c-145 0 -245 118 -245 263s100 263 245 263c77 0 132 -36 153 -77zM365 150c65 0 103 48 103 103s-38 103 -103 103s-105 -48 -105 -103s40 -103 105 -103z" />
    <glyph glyph-name="gcommaaccent.ss01" 
d="M530 860l-65 -244h-170l105 244h130zM498 506h160v-470c0 -152 -91 -276 -274 -276c-92 0 -201 31 -252 60v130c53 -20 129 -50 216 -50c102 0 140 54 140 136v31c-21 -41 -76 -77 -153 -77c-145 0 -245 118 -245 263s100 263 245 263c77 0 132 -36 153 -77zM365 150
c65 0 103 48 103 103s-38 103 -103 103s-105 -48 -105 -103s40 -103 105 -103z" />
    <glyph glyph-name="gdotaccent.ss01" 
d="M380 626c-45 0 -80 35 -80 80s35 80 80 80s80 -35 80 -80s-35 -80 -80 -80zM498 506h160v-470c0 -152 -91 -276 -274 -276c-92 0 -201 31 -252 60v130c53 -20 129 -50 216 -50c102 0 140 54 140 136v31c-21 -41 -76 -77 -153 -77c-145 0 -245 118 -245 263
s100 263 245 263c77 0 132 -36 153 -77zM365 150c65 0 103 48 103 103s-38 103 -103 103s-105 -48 -105 -103s40 -103 105 -103z" />
    <glyph glyph-name="i.ss01" horiz-adv-x="340" 
d="M184 560c-45 0 -80 35 -80 80s35 80 80 80s80 -35 80 -80s-35 -80 -80 -80zM280 506v-506h-170v346l-50 10v150h220z" />
    <glyph glyph-name="dotlessi.ss01" horiz-adv-x="340" 
d="M280 506v-506h-170v346l-50 10v150h220z" />
    <glyph glyph-name="iacute.ss01" horiz-adv-x="340" 
d="M193 776h170l-114 -170h-130zM280 506v-506h-170v346l-50 10v150h220z" />
    <glyph glyph-name="icircumflex.ss01" horiz-adv-x="340" 
d="M185 680l-43 -74h-148l129 170h124l129 -170h-148zM60 356v150h220v-506h-170v346z" />
    <glyph glyph-name="idieresis.ss01" horiz-adv-x="340" 
d="M80 560c-45 0 -80 35 -80 80s35 80 80 80s80 -35 80 -80s-35 -80 -80 -80zM290 560c-45 0 -80 35 -80 80s35 80 80 80s80 -35 80 -80s-35 -80 -80 -80zM280 506v-506h-170v346l-50 10v150h220z" />
    <glyph glyph-name="i.loclTRK.ss01" horiz-adv-x="340" 
d="M184 560c-45 0 -80 35 -80 80s35 80 80 80s80 -35 80 -80s-35 -80 -80 -80zM280 506v-506h-170v346l-50 10v150h220z" />
    <glyph glyph-name="igrave.ss01" horiz-adv-x="340" 
d="M178 776l74 -170h-130l-114 170h170zM280 506v-506h-170v346l-50 10v150h220z" />
    <glyph glyph-name="imacron.ss01" horiz-adv-x="340" 
d="M28 776h315v-160h-315v160zM280 506v-506h-170v346l-50 10v150h220z" />
    <glyph glyph-name="iogonek.ss01" horiz-adv-x="340" 
d="M184 560c-45 0 -80 35 -80 80s35 80 80 80s80 -35 80 -80s-35 -80 -80 -80zM259 -70c37 0 77 16 100 28v-130c-23 -23 -61 -58 -135 -58c-100 0 -176 121 -95 230h-19v346l-50 10v150h220v-506h-21c-27 -29 -41 -70 0 -70z" />
    <glyph glyph-name="j.ss01" horiz-adv-x="335" 
d="M205 560c-45 0 -80 35 -80 80s35 80 80 80s80 -35 80 -80s-35 -80 -80 -80zM295 506v-506l-88 -230h-177l95 240v336l-50 10v150h220z" />
    <glyph glyph-name="l.ss01" horiz-adv-x="350" 
d="M290 750v-750h-170v590l-50 10v150h220z" />
    <glyph glyph-name="lacute.ss01" horiz-adv-x="350" 
d="M209 1020h170l-114 -170h-130zM290 750v-750h-170v590l-50 10v150h220z" />
    <glyph glyph-name="lcaron.ss01" horiz-adv-x="523" 
d="M290 750v-750h-170v590l-50 10v150h220zM393 750h170l-105 -244h-130z" />
    <glyph glyph-name="lcommaaccent.ss01" horiz-adv-x="350" 
d="M290 750v-750h-170v590l-50 10v150h220zM120 -60h170l-105 -244h-130z" />
    <glyph glyph-name="lslash.ss01" horiz-adv-x="350" 
d="M357 458v-50l-67 -51v-357h-170v229l-76 -57v50l76 57v311l-50 10v150h220v-343z" />
    <glyph glyph-name="zero" unicode="0" horiz-adv-x="716" 
d="M368 720c143 0 288 -85 288 -268v-194c0 -183 -145 -268 -288 -268s-288 85 -288 268v194c0 183 145 268 288 268zM368 150c62 0 118 36 118 108v194c0 72 -56 108 -118 108s-118 -36 -118 -108v-194c0 -72 56 -108 118 -108z" />
    <glyph glyph-name="one" unicode="1" horiz-adv-x="569" 
d="M379 160h140v-160h-450v160h140v349l-140 -27v168l310 60v-550z" />
    <glyph glyph-name="two" unicode="2" horiz-adv-x="676" 
d="M606 490c0 -239 -342 -215 -342 -330h342v-160h-516v160c0 234 346 212 346 336c0 34 -26 64 -78 64c-56 0 -98 -26 -98 -70h-170c0 128 122 230 270 230c138 0 246 -88 246 -230z" />
    <glyph glyph-name="three" unicode="3" horiz-adv-x="696" 
d="M532 374c54 -36 94 -90 94 -163c0 -117 -100 -221 -258 -221c-168 0 -278 105 -278 233h170c0 -60 55 -73 98 -73c62 0 98 25 98 73c0 44 -36 64 -107 64h-49v160h49c68 0 77 38 77 54c0 36 -26 59 -78 59c-43 0 -88 -23 -88 -73h-170c0 128 100 233 268 233
c138 0 238 -102 238 -209c0 -57 -26 -103 -64 -137z" />
    <glyph glyph-name="four" unicode="4" horiz-adv-x="743" 
d="M693 289v-160h-105v-129h-170v129h-348v160l348 421h170v-421h105zM285 289h133v163z" />
    <glyph glyph-name="five" unicode="5" horiz-adv-x="696" 
d="M395 486c130 0 231 -102 231 -246c0 -127 -100 -250 -268 -250s-268 115 -268 233h170c4 -33 43 -63 95 -63c56 0 101 32 101 89c0 53 -41 87 -101 87c-39 0 -77 -20 -93 -52h-167l65 426h416v-160h-273l-13 -80c32 10 67 16 105 16z" />
    <glyph glyph-name="six" unicode="6" horiz-adv-x="716" 
d="M402 484c142 -15 234 -125 234 -246c0 -131 -107 -248 -267 -248c-162 0 -269 117 -269 248c0 49 15 96 42 135l218 337h196zM369 150c62 0 97 45 97 88s-35 88 -97 88c-64 0 -99 -45 -99 -88s35 -88 99 -88z" />
    <glyph glyph-name="seven" unicode="7" horiz-adv-x="672" 
d="M80 710h542v-160l-275 -550h-185l275 550h-357v160z" />
    <glyph glyph-name="eight" unicode="8" horiz-adv-x="676" 
d="M517 401c51 -40 89 -100 89 -174c0 -128 -100 -237 -258 -237s-258 109 -258 237c0 74 38 134 89 174c-29 33 -49 72 -49 115c0 103 90 204 218 204s218 -101 218 -204c0 -43 -20 -82 -49 -115zM348 560c-25 0 -48 -17 -48 -44s23 -44 48 -44s48 17 48 44s-23 44 -48 44z
M348 150c52 0 88 35 88 77s-36 77 -88 77s-88 -35 -88 -77s36 -77 88 -77z" />
    <glyph glyph-name="nine" unicode="9" horiz-adv-x="716" 
d="M636 472c0 -49 -15 -96 -42 -135l-218 -337h-196l154 226c-142 15 -234 125 -234 246c0 131 107 248 267 248c162 0 269 -117 269 -248zM270 472c0 -43 35 -88 97 -88c64 0 99 45 99 88s-35 88 -99 88c-62 0 -97 -45 -97 -88z" />
    <glyph glyph-name="fraction" unicode="&#x2044;" horiz-adv-x="771" 
d="M741 710l-536 -710h-155l536 710h155z" />
    <glyph glyph-name="asterisk" unicode="*" horiz-adv-x="590" 
d="M359 326l-49 125l-49 -125l-112 65l83 104l-132 -20v130l132 -20l-83 104l112 65l49 -124l49 124l112 -65l-83 -104l132 20v-130l-133 21l84 -105z" />
    <glyph glyph-name="backslash" unicode="\" horiz-adv-x="491" 
d="M50 710h145l266 -710h-145z" />
    <glyph glyph-name="periodcentered" unicode="&#xb7;" horiz-adv-x="220" 
d="M110 180c-45 0 -80 35 -80 80s35 80 80 80s80 -35 80 -80s-35 -80 -80 -80z" />
    <glyph glyph-name="bullet" unicode="&#x2022;" horiz-adv-x="320" 
d="M150 175c-67 0 -120 53 -120 120c0 68 53 120 120 120c68 0 120 -52 120 -120c0 -67 -52 -120 -120 -120z" />
    <glyph glyph-name="colon" unicode=":" horiz-adv-x="280" 
d="M150 325c-45 0 -80 35 -80 80s35 80 80 80s80 -35 80 -80s-35 -80 -80 -80zM150 -10c-45 0 -80 35 -80 80s35 80 80 80s80 -35 80 -80s-35 -80 -80 -80z" />
    <glyph glyph-name="comma" unicode="," horiz-adv-x="315" 
d="M95 74h170l-105 -244h-130z" />
    <glyph glyph-name="ellipsis" unicode="&#x2026;" horiz-adv-x="660" 
d="M110 -10c-45 0 -80 35 -80 80s35 80 80 80s80 -35 80 -80s-35 -80 -80 -80zM320 -10c-45 0 -80 35 -80 80s35 80 80 80s80 -35 80 -80s-35 -80 -80 -80zM530 -10c-45 0 -80 35 -80 80s35 80 80 80s80 -35 80 -80s-35 -80 -80 -80z" />
    <glyph glyph-name="exclam" unicode="!" horiz-adv-x="290" 
d="M80 217l-10 493h170l-10 -493h-150zM155 -10c-45 0 -80 35 -80 80s35 80 80 80s80 -35 80 -80s-35 -80 -80 -80z" />
    <glyph glyph-name="exclamdown" unicode="&#xa1;" horiz-adv-x="290" 
d="M155 480c45 0 80 -35 80 -80s-35 -80 -80 -80s-80 35 -80 80s35 80 80 80zM80 253h150l10 -493h-170z" />
    <glyph glyph-name="numbersign" unicode="#" horiz-adv-x="836" 
d="M776 396h-118l-11 -102h99v-170h-117l-13 -124h-165l13 124h-107l-13 -124h-165l13 124h-112v170h130l11 102h-111v170h130l15 144h165l-15 -144h107l15 144h165l-15 -144h99v-170zM482 294l11 102h-107l-11 -102h107z" />
    <glyph glyph-name="period" unicode="." horiz-adv-x="240" 
d="M110 -10c-45 0 -80 35 -80 80s35 80 80 80s80 -35 80 -80s-35 -80 -80 -80z" />
    <glyph glyph-name="question" unicode="?" horiz-adv-x="606" 
d="M318 720c155 0 248 -109 248 -206c0 -90 -63 -175 -177 -211l-5 -86h-150l-10 187h35c98 0 137 35 137 83s-36 73 -75 73c-47 0 -91 -33 -91 -96h-170c0 168 130 256 258 256zM309 150c45 0 80 -35 80 -80s-35 -80 -80 -80s-80 35 -80 80s35 80 80 80z" />
    <glyph glyph-name="questiondown" unicode="&#xbf;" horiz-adv-x="486" 
d="M217 320c-45 0 -80 35 -80 80s35 80 80 80s80 -35 80 -80s-35 -80 -80 -80zM296 6h170c0 -168 -130 -256 -258 -256c-155 0 -248 109 -248 206c0 90 63 175 177 211l5 86h150l10 -187h-35c-98 0 -137 -35 -137 -83s36 -73 75 -73c47 0 91 33 91 96z" />
    <glyph glyph-name="quotedbl" unicode="&#x22;" horiz-adv-x="470" 
d="M110 750h130v-244h-130v244zM300 750h130v-244h-130v244z" />
    <glyph glyph-name="quotesingle" unicode="'" horiz-adv-x="280" 
d="M110 750h130v-244h-130v244z" />
    <glyph glyph-name="semicolon" unicode=";" horiz-adv-x="319" 
d="M180 325c-45 0 -80 35 -80 80s35 80 80 80s80 -35 80 -80s-35 -80 -80 -80zM91 74h170l-105 -244h-130z" />
    <glyph glyph-name="slash" unicode="/" horiz-adv-x="491" 
d="M461 710l-266 -710h-145l266 710h145z" />
    <glyph glyph-name="underscore" unicode="_" horiz-adv-x="650" 
d="M30 0h610v-130h-610v130z" />
    <glyph glyph-name="braceleft" unicode="{" horiz-adv-x="486" 
d="M406 710v-160c-50 0 -120 -7 -120 -57c0 -44 29 -53 29 -105c0 -44 -44 -73 -69 -73c25 0 69 -29 69 -73c0 -52 -29 -61 -29 -105c0 -50 70 -57 120 -57v-160c-183 0 -290 36 -290 147c0 77 30 91 30 126c0 42 -51 42 -66 42v160c15 0 66 0 66 42c0 35 -30 49 -30 126
c0 111 107 147 290 147z" />
    <glyph glyph-name="braceright" unicode="}" horiz-adv-x="476" 
d="M70 710c183 0 290 -36 290 -147c0 -77 -30 -91 -30 -126c0 -42 51 -42 66 -42v-160c-15 0 -66 0 -66 -42c0 -35 30 -49 30 -126c0 -111 -107 -147 -290 -147v160c50 0 120 7 120 57c0 44 -29 53 -29 105c0 44 44 73 69 73c-25 0 -69 29 -69 73c0 52 29 61 29 105
c0 50 -70 57 -120 57v160z" />
    <glyph glyph-name="bracketleft" unicode="[" horiz-adv-x="450" 
d="M370 550h-120v-470h120v-160h-290v790h290v-160z" />
    <glyph glyph-name="bracketright" unicode="]" horiz-adv-x="440" 
d="M360 710v-790h-290v160h120v470h-120v160h290z" />
    <glyph glyph-name="parenleft" unicode="(" horiz-adv-x="450" 
d="M370 710v-160c-51 0 -120 -16 -120 -97v-276c0 -81 69 -97 120 -97v-160c-193 0 -290 76 -290 257v276c0 181 97 257 290 257z" />
    <glyph glyph-name="parenright" unicode=")" horiz-adv-x="440" 
d="M70 710c193 0 290 -76 290 -257v-276c0 -181 -97 -257 -290 -257v160c51 0 120 16 120 97v276c0 81 -69 97 -120 97v160z" />
    <glyph glyph-name="emdash" unicode="&#x2014;" horiz-adv-x="1400" 
d="M30 345h1350v-160h-1350v160z" />
    <glyph glyph-name="endash" unicode="&#x2013;" horiz-adv-x="1063" 
d="M30 345h1013v-160h-1013v160z" />
    <glyph glyph-name="hyphen" unicode="-" horiz-adv-x="630" 
d="M100 345h450v-160h-450v160z" />
    <glyph glyph-name="guillemotleft" unicode="&#xab;" 
d="M408 444l-123 -199l123 -199h-185l-123 199l123 199h185zM648 444l-123 -199l123 -199h-185l-123 199l123 199h185z" />
    <glyph glyph-name="guillemotright" unicode="&#xbb;" horiz-adv-x="618" 
d="M175 444l123 -199l-123 -199h-185l123 199l-123 199h185zM415 444l123 -199l-123 -199h-185l123 199l-123 199h185z" />
    <glyph glyph-name="guilsinglleft" unicode="&#x2039;" horiz-adv-x="488" 
d="M408 444l-123 -199l123 -199h-185l-123 199l123 199h185z" />
    <glyph glyph-name="guilsinglright" unicode="&#x203a;" horiz-adv-x="438" 
d="M235 444l123 -199l-123 -199h-185l123 199l-123 199h185z" />
    <glyph glyph-name="quotedblbase" unicode="&#x201e;" horiz-adv-x="600" 
d="M95 74h170l-105 -244h-130z" />
    <glyph glyph-name="quotedblleft" unicode="&#x201c;" horiz-adv-x="571" 
d="M230 506h-170l105 244h130zM468 506h-170l105 244h130z" />
    <glyph glyph-name="quotedblright" unicode="&#x201d;" horiz-adv-x="571" 
d="M107 750h170l-105 -244h-130zM345 750h170l-105 -244h-130z" />
    <glyph glyph-name="quoteleft" unicode="&#x2018;" horiz-adv-x="333" 
d="M218 506h-170l105 244h130z" />
    <glyph glyph-name="quoteright" unicode="&#x2019;" horiz-adv-x="333" 
d="M111 750h170l-105 -244h-130z" />
    <glyph glyph-name="quotesinglbase" unicode="&#x201a;" horiz-adv-x="600" 
d="M95 74h170l-105 -244h-130z" />
    <glyph glyph-name="cent" unicode="&#xa2;" horiz-adv-x="646" 
d="M496 316c-31 27 -59 36 -87 39v-204c28 3 56 13 87 41v-160c-21 -16 -49 -30 -87 -37v-67h-40v62h-12c-151 0 -257 121 -257 263c0 140 106 263 257 263h12v62h40v-67c38 -7 66 -21 87 -37v-158zM280 253c0 -59 45 -94 89 -101v202c-44 -7 -89 -42 -89 -101z" />
    <glyph glyph-name="currency" unicode="&#xa4;" horiz-adv-x="575" 
d="M423 413c48 -62 46 -148 -6 -208l58 -57l-29 -29l-59 58c-59 -42 -138 -41 -195 5l-63 -63l-29 29l63 63c-46 57 -48 137 -6 196l-57 58l29 29l56 -57c60 53 147 54 209 5l53 52l28 -28zM324 280c19 19 19 46 0 64c-18 18 -45 18 -63 0c-19 -18 -19 -45 0 -64
c18 -18 45 -18 63 0z" />
    <glyph glyph-name="dollar" unicode="$" horiz-adv-x="690" 
d="M590 187c0 -126 -105 -193 -225 -197v-70h-40v71c-153 14 -225 137 -225 246h170c0 -46 22 -73 55 -83v124c-5 3 -11 6 -17 10c-166 101 -193 159 -193 241c0 111 91 187 210 191v70h40v-72c127 -14 205 -116 205 -243h-170c0 41 -13 67 -35 78v-111l6 -3
c147 -85 219 -147 219 -252zM285 521c0 -21 10 -34 40 -54v92c-22 -3 -40 -16 -40 -38zM365 150c38 3 55 24 55 44c0 24 -19 38 -55 60v-104z" />
    <glyph glyph-name="Euro" unicode="&#x20ac;" horiz-adv-x="909" 
d="M604 560c-109 0 -203 -74 -208 -195h200l-7 -40h-191c1 -10 3 -20 6 -30h168l-7 -40h-145c35 -67 105 -105 184 -105c108 0 173 61 185 78v-170c-20 -16 -89 -68 -207 -68c-164 0 -302 108 -343 265h-139l7 40h123l-3 30h-103l7 40h95c5 204 162 355 356 355
c118 0 187 -52 207 -68v-170c-12 17 -77 78 -185 78z" />
    <glyph glyph-name="sterling" unicode="&#xa3;" horiz-adv-x="716" 
d="M480 150c59 0 109 19 136 40v-162c-31 -24 -77 -38 -136 -38c-96 0 -151 40 -244 40c-59 0 -109 -19 -136 -40v162c31 24 77 38 136 38c7 0 14 0 21 -1c-4 41 -13 69 -29 92h-128v40h89c-45 40 -89 109 -89 184c0 127 107 215 245 215s241 -102 241 -250h-170
c0 60 -27 90 -78 90c-37 0 -68 -26 -68 -65c0 -58 49 -77 100 -147l18 -27h137v-40h-118c12 -33 20 -73 22 -127c16 -2 33 -4 51 -4z" />
    <glyph glyph-name="yen" unicode="&#xa5;" horiz-adv-x="906" 
d="M538 272v-27h143v-40h-143v-30h143v-40h-143v-135h-170v135h-142v40h142v30h-142v40h142v27l-268 438h192l161 -263l161 263h192z" />
    <glyph glyph-name="approxequal" unicode="&#x2248;" horiz-adv-x="698" 
d="M100 394c10 85 48 156 147 156c76 0 107 -62 164 -62c27 0 47 11 47 52l140 -30c-10 -85 -48 -156 -147 -156c-76 0 -107 62 -164 62c-27 0 -47 -17 -47 -52zM100 144c10 85 48 156 147 156c76 0 107 -62 164 -62c27 0 47 11 47 52l140 -30c-10 -85 -48 -156 -147 -156
c-76 0 -107 62 -164 62c-27 0 -47 -17 -47 -52z" />
    <glyph glyph-name="asciitilde" unicode="~" horiz-adv-x="698" 
d="M100 239c10 85 48 156 147 156c76 0 107 -62 164 -62c27 0 47 11 47 52l140 -30c-10 -85 -48 -156 -147 -156c-76 0 -107 62 -164 62c-27 0 -47 -17 -47 -52z" />
    <glyph glyph-name="divide" unicode="&#xf7;" horiz-adv-x="640" 
d="M345 400c-45 0 -80 35 -80 80s35 80 80 80s80 -35 80 -80s-35 -80 -80 -80zM120 360h450v-160h-450v160zM345 0c-45 0 -80 35 -80 80s35 80 80 80s80 -35 80 -80s-35 -80 -80 -80z" />
    <glyph glyph-name="equal" unicode="=" horiz-adv-x="650" 
d="M100 465h450v-160h-450v160zM100 255h450v-160h-450v160z" />
    <glyph glyph-name="greater" unicode="&#x3e;" horiz-adv-x="650" 
d="M100 530l450 -158v-147l-450 -158v144l249 88l-249 87v144z" />
    <glyph glyph-name="greaterequal" unicode="&#x2265;" horiz-adv-x="650" 
d="M100 603l450 -158v-147l-450 -158v144l249 88l-249 87v144zM100 -45v160h450v-160h-450z" />
    <glyph glyph-name="less" unicode="&#x3c;" horiz-adv-x="640" 
d="M540 530v-144l-249 -87l249 -88v-144l-450 158v147z" />
    <glyph glyph-name="lessequal" unicode="&#x2264;" horiz-adv-x="640" 
d="M540 603v-144l-249 -87l249 -88v-144l-450 158v147zM90 -45v160h450v-160h-450z" />
    <glyph glyph-name="logicalnot" unicode="&#xac;" horiz-adv-x="650" 
d="M100 380h450v-266h-160v106h-290v160z" />
    <glyph glyph-name="minus" unicode="&#x2212;" horiz-adv-x="640" 
d="M120 360h450v-160h-450v160z" />
    <glyph glyph-name="multiply" unicode="&#xd7;" horiz-adv-x="603" 
d="M518 179l-114 -114l-102 103l-103 -103l-114 114l103 103l-102 102l113 113l103 -102l102 102l113 -113l-102 -102z" />
    <glyph glyph-name="notequal" unicode="&#x2260;" horiz-adv-x="640" 
d="M550 303h-151l-19 -50h170v-160h-229l-24 -63h-133l24 63h-88v160h147l19 50h-166v160h226l27 73h133l-27 -73h91v-160z" />
    <glyph glyph-name="percent" unicode="%" horiz-adv-x="1034" 
d="M265 390c-92 0 -165 73 -165 165s73 165 165 165s165 -73 165 -165s-73 -165 -165 -165zM867 710l-536 -710h-155l536 710h155zM265 510c26 0 45 19 45 45s-19 45 -45 45s-45 -19 -45 -45s19 -45 45 -45zM789 -10c-92 0 -165 73 -165 165s73 165 165 165
s165 -73 165 -165s-73 -165 -165 -165zM789 110c26 0 45 19 45 45s-19 45 -45 45s-45 -19 -45 -45s19 -45 45 -45z" />
    <glyph glyph-name="perthousand" unicode="&#x2030;" horiz-adv-x="1384" 
d="M265 390c-92 0 -165 73 -165 165s73 165 165 165s165 -73 165 -165s-73 -165 -165 -165zM867 710l-536 -710h-155l536 710h155zM265 510c26 0 45 19 45 45s-19 45 -45 45s-45 -19 -45 -45s19 -45 45 -45zM764 -10c-92 0 -165 73 -165 165s73 165 165 165
s165 -73 165 -165s-73 -165 -165 -165zM1139 -10c-92 0 -165 73 -165 165s73 165 165 165s165 -73 165 -165s-73 -165 -165 -165zM764 110c26 0 45 19 45 45s-19 45 -45 45s-45 -19 -45 -45s19 -45 45 -45zM1139 110c26 0 45 19 45 45s-19 45 -45 45s-45 -19 -45 -45
s19 -45 45 -45z" />
    <glyph glyph-name="plus" unicode="+" horiz-adv-x="650" 
d="M550 361v-160h-145v-145h-160v145h-145v160h145v145h160v-145h145z" />
    <glyph glyph-name="plusminus" unicode="&#xb1;" horiz-adv-x="650" 
d="M550 266h-145v-111h145v-160h-450v160h145v111h-145v160h145v145h160v-145h145v-160z" />
    <glyph glyph-name="arrowup" unicode="&#x2191;" horiz-adv-x="762" 
d="M662 446h-152l-64 101l-1 -547h-130l1 546l-64 -100h-152l216 304h130z" />
    <glyph glyph-name="uni2197" unicode="&#x2197;" horiz-adv-x="823" 
d="M631 604l92 -92l-63 -368l-107 108l26 116l-387 -386l-92 92l386 386l-116 -26l-107 108z" />
    <glyph glyph-name="arrowright" unicode="&#x2192;" horiz-adv-x="1051" 
d="M647 656l304 -216v-130l-304 -216v152l101 64l-648 1v130l647 -1l-100 64v152z" />
    <glyph glyph-name="uni2198" unicode="&#x2198;" horiz-adv-x="823" 
d="M660 627l63 -368l-92 -92l-368 62l107 108l116 -26l-386 386l92 92l387 -386l-26 116z" />
    <glyph glyph-name="arrowdown" unicode="&#x2193;" horiz-adv-x="762" 
d="M510 304h152l-216 -304h-130l-216 304h152l64 -100l-1 546h130l1 -547z" />
    <glyph glyph-name="uni2199" unicode="&#x2199;" horiz-adv-x="822" 
d="M336 311l116 26l107 -108l-368 -62l-92 92l63 368l107 -108l-26 -116l387 386l92 -92z" />
    <glyph glyph-name="arrowleft" unicode="&#x2190;" horiz-adv-x="1051" 
d="M951 441v-130l-648 -1l101 -64v-152l-304 216v130l304 216v-152l-100 -64z" />
    <glyph glyph-name="uni2196" unicode="&#x2196;" horiz-adv-x="823" 
d="M723 74l-92 -92l-387 386l26 -116l-107 -108l-63 368l92 92l368 -62l-107 -108l-116 26z" />
    <glyph glyph-name="arrowboth" unicode="&#x2194;" horiz-adv-x="950" 
d="M546 656l304 -216v-130l-304 -216v152l101 64l-343 1l100 -64v-152l-304 216v130l304 216v-152l-101 -64l343 -1l-100 64v152z" />
    <glyph glyph-name="arrowupdn" unicode="&#x2195;" horiz-adv-x="763" 
d="M446 204l64 100h152l-216 -304h-130l-216 304h152l64 -101l1 343l-64 -100h-152l216 304h130l216 -304h-152l-64 101z" />
    <glyph glyph-name="lozenge" unicode="&#x25ca;" horiz-adv-x="715" 
d="M431 710l184 -400l-184 -400h-147l-184 400l184 400h147zM358 70l110 240l-110 240l-111 -240z" />
    <glyph glyph-name="bar" unicode="|" horiz-adv-x="330" 
d="M100 -80v870h130v-870h-130z" />
    <glyph glyph-name="brokenbar" unicode="&#xa6;" horiz-adv-x="330" 
d="M100 500v290h130v-290h-130zM100 -80v290h130v-290h-130z" />
    <glyph glyph-name="at" unicode="@" horiz-adv-x="1030" 
d="M100 325c0 225 200 415 415 415c235 0 415 -170 415 -395c0 -163 -93 -262 -231 -262c-70 0 -120 38 -120 117c-13 -32 -64 -60 -114 -60c-85 0 -155 83 -155 185s70 185 155 185c47 0 92 -24 105 -56v53h130v-259c0 -43 13 -65 39 -65c35 0 61 39 61 142
c0 144 -71 285 -285 285c-154 0 -285 -120 -285 -285c0 -169 127 -275 265 -275c50 0 87 18 120 33l112 -76c-59 -46 -127 -87 -232 -87c-211 0 -395 160 -395 405zM450 325c0 -30 25 -55 55 -55s55 25 55 55c0 31 -26 55 -55 55c-30 0 -55 -25 -55 -55z" />
    <glyph glyph-name="ampersand" unicode="&#x26;" horiz-adv-x="900" 
d="M820 0h-201l-43 40c-53 -32 -120 -50 -203 -50c-178 0 -273 92 -273 207c0 94 57 157 110 186c-61 66 -70 101 -70 149c0 83 69 188 246 188c158 0 240 -115 240 -226h-170c0 43 -28 66 -78 66c-44 0 -68 -23 -68 -46c0 -33 29 -55 84 -107l163 -155c12 24 19 51 19 81
h-50v80h220c0 -102 -21 -199 -70 -275zM395 150c18 0 36 3 53 9l-148 137c-19 -11 -30 -34 -30 -59c0 -43 46 -87 125 -87z" />
    <glyph glyph-name="paragraph" unicode="&#xb6;" horiz-adv-x="798" 
d="M100 472c0 148 120 238 258 238h130v-710h-130v234c-138 0 -258 90 -258 238zM568 710h130v-710h-130v710z" />
    <glyph glyph-name="copyright" unicode="&#xa9;" horiz-adv-x="960" 
d="M484 -10c-212 0 -384 172 -384 385s172 385 384 385c213 0 386 -172 386 -385s-173 -385 -386 -385zM483 120c141 0 255 114 255 255s-114 255 -255 255s-255 -114 -255 -255s114 -255 255 -255zM588 408c-24 24 -50 40 -89 40c-40 0 -77 -26 -77 -73s37 -73 77 -73
c39 0 65 17 89 42l50 -120c-30 -26 -74 -62 -159 -62c-91 0 -207 71 -207 213c0 140 116 213 207 213c85 0 129 -36 159 -62z" />
    <glyph glyph-name="registered" unicode="&#xae;" horiz-adv-x="960" 
d="M484 757c213 0 386 -172 386 -385s-173 -385 -386 -385c-212 0 -384 172 -384 385s172 385 384 385zM483 117c141 0 255 114 255 255s-114 255 -255 255s-255 -114 -255 -255s114 -255 255 -255zM645 415c0 -55 -26 -97 -66 -120l66 -107h-154l-29 58v-58h-130v370h158
c88 0 155 -55 155 -143zM490 428h-28v-26h28c11 0 25 0 25 13s-14 13 -25 13z" />
    <glyph glyph-name="section" unicode="&#xa7;" horiz-adv-x="530" 
d="M391 263c36 -29 64 -72 64 -119c0 -74 -43 -154 -170 -154c-131 0 -175 102 -175 168h130c0 -25 17 -38 45 -38c27 0 40 13 40 32c0 29 -38 54 -105 72c-61 16 -130 38 -130 124c0 44 24 78 62 101c-28 29 -47 68 -47 117c0 74 53 154 170 154c130 0 175 -108 175 -168
h-130c0 21 -15 38 -45 38c-17 0 -40 -12 -40 -42c0 -22 12 -47 80 -57c67 -10 145 -43 145 -129c0 -42 -28 -76 -69 -99zM220 356c0 -23 17 -36 52 -46c34 6 58 21 58 38c0 31 -31 42 -65 50c-24 -7 -45 -20 -45 -42z" />
    <glyph glyph-name="trademark" unicode="&#x2122;" horiz-adv-x="888" 
d="M370 710v-120h-95v-180h-100v180h-95v120h290zM708 710h100v-300h-100v138l-88 -138h-22l-88 138v-138h-100v300h100l99 -145z" />
    <glyph glyph-name="degree" unicode="&#xb0;" horiz-adv-x="460" 
d="M245 390c-92 0 -165 73 -165 165s73 165 165 165s165 -73 165 -165s-73 -165 -165 -165zM245 510c26 0 45 19 45 45s-19 45 -45 45s-45 -19 -45 -45s19 -45 45 -45z" />
    <glyph glyph-name="asciicircum" unicode="^" horiz-adv-x="595" 
d="M565 310h-147l-110 240l-111 -240h-147l184 400h147z" />
    <glyph glyph-name="dagger" unicode="&#x2020;" horiz-adv-x="650" 
d="M550 570v-160h-160v-490h-130v490h-160v160h160v220h130v-220h160z" />
    <glyph glyph-name="daggerdbl" unicode="&#x2021;" horiz-adv-x="650" 
d="M550 410h-160v-120h160v-160h-160v-210h-130v210h-160v160h160v120h-160v160h160v220h130v-220h160v-160z" />
    <glyph glyph-name="acutecomb" unicode="&#x301;" horiz-adv-x="0" 
d="M-270 740h170l-114 -170h-130z" />
    <glyph glyph-name="uni0306" unicode="&#x306;" horiz-adv-x="0" 
d="M-100 740c0 -129 -119 -170 -211 -170s-211 41 -211 170h130c0 -26 18 -60 81 -60s81 34 81 60h130z" />
    <glyph glyph-name="uni030C" unicode="&#x30c;" horiz-adv-x="0" 
d="M-251 740h148l-129 -170h-124l-129 170h148l43 -74z" />
    <glyph glyph-name="uni0327" unicode="&#x327;" horiz-adv-x="0" 
d="M-133 -50c72 0 115 -24 115 -78c0 -116 -210 -102 -258 -102l30 72c78 0 138 -1 138 27c0 24 -30 25 -61 25l-94 -4l47 110h115z" />
    <glyph glyph-name="uni0302" unicode="&#x302;" horiz-adv-x="0" 
d="M-103 570h-148l-43 74l-43 -74h-148l129 170h124z" />
    <glyph glyph-name="uni0326" unicode="&#x326;" horiz-adv-x="0" 
d="M-270 -60h170l-105 -244h-130z" />
    <glyph glyph-name="uni0312" unicode="&#x312;" horiz-adv-x="0" 
d="M-165 580h-170l105 244h130z" />
    <glyph glyph-name="uni0308" unicode="&#x308;" horiz-adv-x="0" 
d="M-379 590c-45 0 -80 35 -80 80s35 80 80 80s80 -35 80 -80s-35 -80 -80 -80zM-169 590c-45 0 -80 35 -80 80s35 80 80 80s80 -35 80 -80s-35 -80 -80 -80z" />
    <glyph glyph-name="uni0307" unicode="&#x307;" horiz-adv-x="0" 
d="M-180 590c-45 0 -80 35 -80 80s35 80 80 80s80 -35 80 -80s-35 -80 -80 -80z" />
    <glyph glyph-name="gravecomb" unicode="&#x300;" horiz-adv-x="0" 
d="M-174 740l74 -170h-130l-114 170h170z" />
    <glyph glyph-name="uni030B" unicode="&#x30b;" horiz-adv-x="0" 
d="M-464 740h170l-114 -170h-130zM-250 740h170l-114 -170h-130z" />
    <glyph glyph-name="uni0304" unicode="&#x304;" horiz-adv-x="0" 
d="M-415 740h315v-160h-315v160z" />
    <glyph glyph-name="uni0328" unicode="&#x328;" horiz-adv-x="0" 
d="M-34 -42v-130c-23 -23 -61 -58 -135 -58c-100 0 -176 121 -95 230h130c-27 -29 -41 -70 0 -70c37 0 77 16 100 28z" />
    <glyph glyph-name="uni030A" unicode="&#x30a;" horiz-adv-x="0" 
d="M-190 570c-50 0 -90 40 -90 90s40 90 90 90s90 -40 90 -90s-40 -90 -90 -90zM-190 640c11 0 20 9 20 20s-9 20 -20 20s-20 -9 -20 -20s9 -20 20 -20z" />
    <glyph glyph-name="uni0338" unicode="&#x338;" horiz-adv-x="0" 
d="M-100 750l-599 -790h-50l599 790h50z" />
    <glyph glyph-name="uni0337" unicode="&#x337;" horiz-adv-x="0" 
d="M-413 92v50l313 236v-50z" />
    <glyph glyph-name="uni0336" unicode="&#x336;" horiz-adv-x="0" 
d="M-891 305h810v-160h-810v160z" />
    <glyph glyph-name="uni0335" unicode="&#x335;" horiz-adv-x="0" 
d="M-550 315h450v-160h-450v160z" />
    <glyph glyph-name="tildecomb" unicode="&#x303;" horiz-adv-x="0" 
d="M-598 594c10 85 48 156 147 156c76 0 107 -62 164 -62c27 0 47 11 47 52l140 -30c-10 -85 -48 -156 -147 -156c-76 0 -107 62 -164 62c-27 0 -47 -17 -47 -52z" />
    <glyph glyph-name="acute" unicode="&#xb4;" horiz-adv-x="444" 
d="M174 740h170l-114 -170h-130z" />
    <glyph glyph-name="breve" unicode="&#x2d8;" horiz-adv-x="622" 
d="M522 740c0 -129 -119 -170 -211 -170s-211 41 -211 170h130c0 -26 18 -60 81 -60s81 34 81 60h130z" />
    <glyph glyph-name="caron" unicode="&#x2c7;" horiz-adv-x="582" 
d="M334 740h148l-129 -170h-124l-129 170h148l43 -74z" />
    <glyph glyph-name="cedilla" unicode="&#xb8;" horiz-adv-x="458" 
d="M243 -50c72 0 115 -24 115 -78c0 -116 -210 -102 -258 -102l30 72c78 0 138 -1 138 27c0 24 -30 25 -61 25l-94 -4l47 110h115z" />
    <glyph glyph-name="circumflex" unicode="&#x2c6;" horiz-adv-x="582" 
d="M482 570h-148l-43 74l-43 -74h-148l129 170h124z" />
    <glyph glyph-name="dieresis" unicode="&#xa8;" horiz-adv-x="570" 
d="M180 590c-45 0 -80 35 -80 80s35 80 80 80s80 -35 80 -80s-35 -80 -80 -80zM390 590c-45 0 -80 35 -80 80s35 80 80 80s80 -35 80 -80s-35 -80 -80 -80z" />
    <glyph glyph-name="dotaccent" unicode="&#x2d9;" horiz-adv-x="360" 
d="M180 590c-45 0 -80 35 -80 80s35 80 80 80s80 -35 80 -80s-35 -80 -80 -80z" />
    <glyph glyph-name="grave" unicode="`" horiz-adv-x="444" 
d="M270 740l74 -170h-130l-114 170h170z" />
    <glyph glyph-name="hungarumlaut" unicode="&#x2dd;" horiz-adv-x="658" 
d="M174 740h170l-114 -170h-130zM388 740h170l-114 -170h-130z" />
    <glyph glyph-name="macron" unicode="&#xaf;" horiz-adv-x="515" 
d="M100 740h315v-160h-315v160z" />
    <glyph glyph-name="ogonek" unicode="&#x2db;" horiz-adv-x="465" 
d="M365 -42v-130c-23 -23 -61 -58 -135 -58c-100 0 -176 121 -95 230h130c-27 -29 -41 -70 0 -70c37 0 77 16 100 28z" />
    <glyph glyph-name="ring" unicode="&#x2da;" horiz-adv-x="380" 
d="M190 570c-50 0 -90 40 -90 90s40 90 90 90s90 -40 90 -90s-40 -90 -90 -90zM190 640c11 0 20 9 20 20s-9 20 -20 20s-20 -9 -20 -20s9 -20 20 -20z" />
    <glyph glyph-name="tilde" unicode="&#x2dc;" horiz-adv-x="698" 
d="M100 594c10 85 48 156 147 156c76 0 107 -62 164 -62c27 0 47 11 47 52l140 -30c-10 -85 -48 -156 -147 -156c-76 0 -107 62 -164 62c-27 0 -47 -17 -47 -52z" />
    </font>
</defs>
</svg>
