<?xml version="1.0" standalone="no"?>
<!DOCTYPE svg PUBLIC "-//W3C//DTD SVG 1.1//EN" "http://www.w3.org/Graphics/SVG/1.1/DTD/svg11.dtd" >
<svg xmlns="http://www.w3.org/2000/svg" xmlns:xlink="http://www.w3.org/1999/xlink" version="1.1">
<metadata>
Created by FontForge 20170910 at Fri Jun 23 18:44:55 2017
 By jimmywarting
Copyright (c) 2015 by Andrew Herndon. All rights reserved.
</metadata>
<defs>
<font id="Aquatico-Regular" horiz-adv-x="711" >
  <font-face 
    font-family="Aquatico"
    font-weight="400"
    font-stretch="normal"
    units-per-em="1000"
    panose-1="0 0 5 0 0 0 0 0 0 0"
    ascent="820"
    descent="-180"
    x-height="776"
    cap-height="786"
    bbox="10 -435 1237.96 891.061"
    underline-thickness="50"
    underline-position="-100"
    unicode-range="U+0020-00A9"
  />
<missing-glyph horiz-adv-x="500" 
d="M410 820v-1000h-317v1000h317zM333 138h-166v-113h166v113zM300 105v-47h-100v47h100zM333 311h-100v-56h34v23h33v-47h-100v80h-33v-113h166v113zM333 433h-33v-66h-133v-34h166v100zM333 493h-166v-33h66v-37h-66v-33h100v70h66v33zM233 590v-36h-33v36h33zM267 624
h-100v-104h166v34h-66v70zM333 753h-165v-33h65v-37h-66v-33h166v33h-66v37h66v33zM333 2h-166v-33h70l-70 -47v-33h166v33h-102l70 47h32v33z" />
    <glyph glyph-name=".notdef" horiz-adv-x="500" 
d="M410 820v-1000h-317v1000h317zM333 138h-166v-113h166v113zM300 105v-47h-100v47h100zM333 311h-100v-56h34v23h33v-47h-100v80h-33v-113h166v113zM333 433h-33v-66h-133v-34h166v100zM333 493h-166v-33h66v-37h-66v-33h100v70h66v33zM233 590v-36h-33v36h33zM267 624
h-100v-104h166v34h-66v70zM333 753h-165v-33h65v-37h-66v-33h166v33h-66v37h66v33zM333 2h-166v-33h70l-70 -47v-33h166v33h-102l70 47h32v33z" />
    <glyph glyph-name="space" unicode=" " horiz-adv-x="370" 
 />
    <glyph glyph-name="A" unicode="A" horiz-adv-x="800" 
d="M736 4c25 12 36 41 25 67l-311 686c-7 17 -26 29 -45 29c-20 0 -37 -11 -46 -29l-316 -686c-10 -23 -13 -51 9 -65c21 -13 46 -7 65 12c38 37 90 78 140 109c49 30 99 49 150 59c63 14 128 13 193 -3l69 -154c14 -27 44 -35 67 -25zM404 616l151 -332
c-55 5 -110 3 -164 -9c-56 -11 -126 -38 -179 -68z" />
    <glyph glyph-name="A.ss02" horiz-adv-x="755" 
d="M1197 -211c25 -13 34 -44 20 -68c-1 -3 -20 -36 -51 -70c-46 -51 -98 -78 -149 -79h-4c-74 0 -141 49 -200 147c-59 97 -141 260 -244 484h-206c-28 0 -50 22 -50 50c0 27 22 50 50 50h161l-136 307l-252 -580c-11 -25 -41 -37 -66 -26c-26 11 -37 41 -26 66l299 686
c8 18 26 30 46 30s38 -12 46 -31c3 -7 303 -720 463 -984c51 -83 91 -100 116 -99c30 1 59 25 78 46c23 25 37 51 38 51c13 24 43 33 67 20z" />
    <glyph glyph-name="A.ss03" horiz-adv-x="838" 
d="M40 72l334 686c8 17 25 28 44 28h1c19 0 36 -11 44 -28l335 -685c12 -24 2 -54 -23 -67c-24 -12 -54 -1 -67 23l-84 174h-249c-28 0 -50 22 -50 50c0 27 22 50 50 50h200l-156 319l-289 -594c-9 -18 -26 -28 -45 -28c-7 0 -15 2 -22 5c-25 12 -35 42 -23 67z" />
    <glyph glyph-name="B" unicode="B" 
d="M670 200c9 113 -53 197 -119 220c47 34 87 92 74 186c-17 121 -108 180 -239 180h-296c-27 0 -50 -22 -50 -50v-686c0 -14 6 -26 15 -36c9 -9 22 -14 35 -14h344c133 0 226 76 236 200zM570 209c-7 -74 -55 -108 -136 -108h-294v585h246c85 0 132 -27 140 -92
c9 -81 -30 -131 -104 -139l-76 -1c-27 0 -50 -22 -50 -50c1 -27 23 -50 50 -50h1l78 1h3c98 0 152 -48 142 -146z" />
    <glyph glyph-name="C" unicode="C" horiz-adv-x="769" 
d="M451 -13c48 0 96 9 141 26c43 16 83 39 119 69c21 17 24 49 6 70s-49 24 -70 6c-27 -22 -57 -40 -90 -52c-34 -12 -69 -19 -106 -19c-83 0 -161 33 -220 92c-29 28 -51 61 -67 98c-16 38 -24 77 -24 118s8 81 24 118s39 70 67 98c29 29 63 51 100 67c39 16 80 24 122 24
c68 0 131 -21 184 -62c21 -16 53 -12 70 10c16 22 12 53 -10 70c-70 54 -154 82 -244 82c-55 0 -109 -11 -160 -32c-49 -21 -94 -50 -132 -88c-38 -37 -68 -81 -89 -129c-21 -50 -32 -103 -32 -158c0 -54 10 -107 32 -157c21 -49 50 -93 88 -130c38 -38 82 -67 130 -88
c51 -22 105 -33 161 -33z" />
    <glyph glyph-name="D" unicode="D" horiz-adv-x="766" 
d="M318 0c54 0 107 11 157 31c48 20 92 48 130 85c38 36 67 78 88 125c22 48 33 98 33 150c0 53 -11 104 -32 153c-21 48 -50 90 -87 126c-38 36 -82 65 -130 85c-49 20 -102 31 -157 31h-229c-13 0 -27 -6 -36 -15c-10 -9 -15 -22 -15 -35v-686c0 -27 22 -50 51 -50h226h1z
M141 101v585h179c82 0 158 -31 216 -88c28 -27 50 -59 66 -94c16 -36 24 -74 24 -113c0 -38 -8 -74 -24 -109c-17 -35 -39 -67 -67 -94s-61 -48 -98 -63s-76 -23 -117 -24h-179z" />
    <glyph glyph-name="E" unicode="E" horiz-adv-x="658" 
d="M568 100c28 0 50 -22 50 -50s-22 -50 -50 -50h-478c-27 0 -50 22 -50 50v686c0 28 23 50 50 50h468c28 0 50 -22 50 -50s-22 -50 -50 -50h-418v-241h370c28 0 50 -23 50 -50c0 -28 -22 -50 -50 -50h-370v-245h428z" />
    <glyph glyph-name="F" unicode="F" horiz-adv-x="650" 
d="M560 786c28 0 50 -23 50 -50c0 -28 -22 -50 -50 -50h-420v-251h359c27 0 50 -23 50 -50c0 -28 -23 -50 -50 -50h-359v-285c0 -27 -22 -50 -50 -50s-50 23 -50 50v686c0 27 22 50 50 50h470z" />
    <glyph glyph-name="G" unicode="G" horiz-adv-x="804" 
d="M451 -18c58 0 115 12 167 36c51 23 95 56 133 97c8 9 13 21 13 33v229c0 28 -22 50 -50 50s-50 -22 -50 -50v-208c-25 -25 -55 -45 -87 -60c-39 -18 -82 -27 -126 -27c-83 0 -161 33 -220 92c-29 28 -51 61 -67 98s-24 77 -24 118s8 80 24 118c16 37 39 69 68 98
c28 28 62 51 99 66c39 17 80 25 122 25c64 0 124 -19 175 -56c23 -16 54 -10 70 12c16 23 11 54 -12 70c-68 48 -148 74 -233 74c-55 0 -109 -11 -160 -32c-49 -21 -94 -50 -132 -88c-38 -37 -68 -81 -89 -129c-21 -50 -32 -103 -32 -158c0 -54 10 -107 32 -158
c21 -48 50 -92 88 -129c38 -38 82 -68 131 -88c50 -22 104 -33 160 -33z" />
    <glyph glyph-name="G.ss03" horiz-adv-x="804" 
d="M764 380v-1v-229c0 -12 -5 -24 -13 -33c-38 -41 -82 -74 -133 -97c-52 -24 -109 -36 -167 -36c-56 0 -110 11 -161 33c-48 20 -92 50 -130 88c-38 37 -67 81 -88 129c-22 51 -32 104 -32 158c0 55 11 108 32 158c21 48 51 92 89 129c38 38 83 67 132 88
c51 21 105 32 160 32c85 0 165 -26 233 -74c22 -16 28 -47 12 -70c-16 -22 -47 -28 -70 -12c-51 37 -111 56 -175 56c-42 0 -83 -8 -122 -25c-37 -15 -71 -38 -100 -66c-28 -29 -51 -61 -67 -98c-16 -38 -24 -77 -24 -118s8 -81 24 -118s38 -70 67 -98
c59 -59 137 -92 220 -92c44 0 86 9 126 27c32 15 62 35 87 60v128c-5 -2 -10 -4 -16 -6c-23 -7 -46 -10 -67 -10c-50 0 -92 18 -124 55c-13 15 -25 23 -36 23c-17 0 -35 -15 -41 -22l-6 -6c-20 -17 -49 -16 -67 5c-17 19 -19 47 -4 65c5 6 51 58 117 58h1
c29 0 71 -10 112 -58c28 -32 70 -19 86 -14c36 11 66 31 66 32c23 15 54 10 70 -12c6 -9 9 -19 9 -29z" />
    <glyph glyph-name="H" unicode="H" 
d="M621 786c28 0 50 -22 50 -50v-686c0 -27 -22 -50 -50 -50c-27 0 -50 23 -50 50v302h-431v-302c0 -27 -22 -50 -50 -50s-50 23 -50 50v686c0 28 22 50 50 50s50 -22 50 -50v-284h431v284c0 28 23 50 50 50z" />
    <glyph glyph-name="H.ss01" horiz-adv-x="763" 
d="M723 735v-684v-1c0 -27 -23 -50 -51 -50c-27 0 -50 23 -50 50v301h-432v-301c0 -27 -22 -50 -50 -50s-50 23 -50 50v1v631v3c-28 0 -50 23 -50 51c0 27 23 50 51 50c35 0 62 -12 80 -36c18 -25 20 -56 20 -78v-220h431v283c0 28 23 50 50 50c28 0 51 -23 51 -50z" />
    <glyph glyph-name="I" unicode="I" horiz-adv-x="190" 
d="M95 0c28 0 50 22 50 50v686c0 27 -22 50 -50 50c-27 0 -50 -23 -50 -50v-686c0 -28 23 -50 50 -50z" />
    <glyph glyph-name="J" unicode="J" horiz-adv-x="525" 
d="M259 -11c38 0 73 6 103 18c27 11 51 27 70 48c54 58 53 132 53 148v533c0 28 -23 50 -50 50c-28 0 -50 -22 -50 -50v-538c0 -1 2 -45 -26 -76c-21 -22 -55 -33 -101 -33c-20 0 -42 3 -58 7c-34 9 -58 25 -72 47c-14 24 -45 32 -68 18c-24 -15 -32 -45 -18 -69
c28 -46 75 -79 136 -94c25 -6 51 -9 81 -9z" />
    <glyph glyph-name="K" unicode="K" horiz-adv-x="668" 
d="M90 786c28 0 50 -23 50 -50v-686c0 -28 -22 -50 -50 -50s-50 22 -50 50v686c0 27 22 50 50 50zM623 72c12 -25 2 -55 -23 -67c-7 -3 -14 -5 -22 -5c-18 0 -36 10 -45 28c-31 64 -77 137 -132 197c-59 63 -104 110 -172 149c-2 1 -3 2 -5 3c-2 2 -4 3 -6 5
c-7 8 -12 17 -13 27c-2 11 0 23 6 34c3 5 7 10 12 14l310 315c19 20 52 19 71 -1c19 -19 18 -50 -1 -70l-270 -275c126 -89 225 -220 290 -354z" />
    <glyph glyph-name="K.ss01" horiz-adv-x="716" 
d="M619 3c7 0 12 1 15 1c27 5 45 31 41 58c-5 26 -29 41 -56 41c-18 1 -39 22 -52 44c-71 122 -166 211 -237 258l286 295c19 20 21 50 2 70s-52 22 -71 2l-333 -340c-12 -12 -18 -27 -15 -42c2 -16 11 -30 25 -38c2 -1 167 -102 256 -255c31 -53 68 -76 94 -85
c19 -7 34 -9 45 -9zM90 0c28 0 50 22 50 50v686c0 27 -22 50 -50 50s-50 -23 -50 -50v-686c0 -28 22 -50 50 -50z" />
    <glyph glyph-name="K.ss02" horiz-adv-x="600" 
d="M90 0c27 0 50 22 50 50v686c0 28 -23 50 -50 50c-28 0 -50 -22 -50 -50v-686c0 -28 22 -50 50 -50zM810 -428h4c52 1 104 28 150 78c31 34 49 67 51 71c13 24 4 55 -20 68s-55 4 -68 -20c0 -1 -14 -26 -37 -51c-19 -21 -48 -46 -78 -46h-2c-25 0 -65 17 -114 99
c-135 222 -318 495 -378 584l260 351c16 22 11 54 -11 70c-22 17 -53 12 -70 -10l-280 -380c-13 -17 -13 -41 -1 -58c2 -4 233 -343 394 -609c60 -98 127 -147 200 -147z" />
    <glyph glyph-name="L" unicode="L" horiz-adv-x="616" 
d="M526 0c28 0 50 22 50 50s-22 50 -50 50h-386v636c0 28 -22 50 -50 50c-27 0 -50 -22 -50 -50v-686c0 -28 23 -50 50 -50h436z" />
    <glyph glyph-name="L.ss01" horiz-adv-x="667" 
d="M577 100c28 0 50 -22 50 -50s-22 -50 -50 -50h-437c-27 0 -50 22 -50 50v636c-28 0 -50 23 -50 50c0 28 23 51 51 51c35 0 62 -12 80 -36c18 -25 20 -57 20 -78l-1 -573h387z" />
    <glyph glyph-name="L.ss03" horiz-adv-x="616" 
d="M562 129c19 -20 19 -51 0 -71c-6 -6 -56 -55 -128 -55h-1c-44 0 -86 19 -122 55c-25 24 -63 30 -114 16c-45 -11 -80 -32 -81 -33c-8 -5 -17 -7 -26 -7c-16 0 -33 9 -42 24c-6 10 -8 20 -7 30c-1 1 -1 3 -1 4v644c0 28 23 50 50 50c28 0 50 -22 50 -50v-574
c10 3 21 6 32 9c109 28 174 -7 209 -43c18 -17 35 -25 52 -25c31 0 58 25 58 25c19 20 51 20 71 1z" />
    <glyph glyph-name="M" unicode="M" horiz-adv-x="855" 
d="M765 0c28 0 50 23 50 50v688c0 22 -14 41 -34 48c-21 7 -43 -1 -57 -18l-296 -501l-297 501c-13 17 -36 25 -56 18c-21 -7 -35 -26 -35 -48v-688c0 -27 23 -50 50 -50c28 0 50 23 50 50v505l247 -413c10 -13 25 -20 41 -20s31 7 40 20l246 413v-505c0 -27 24 -50 51 -50z
" />
    <glyph glyph-name="M.ss01" horiz-adv-x="896" 
d="M821 788c21 -7 35 -26 35 -48v-690c0 -27 -22 -50 -50 -50s-50 23 -50 50v506l-246 -415c-10 -13 -25 -20 -41 -20s-31 7 -40 20l-250 416v-507c0 -27 -22 -50 -50 -50s-50 23 -50 50v641c-22 0 -38 25 -39 49c0 27 22 50 50 50c33 0 75 0 116 -63l264 -459l296 502
c12 17 35 25 55 18z" />
    <glyph glyph-name="N" unicode="N" horiz-adv-x="752" 
d="M681 4c21 6 31 24 31 45v688c0 28 -23 50 -50 50c-28 0 -50 -22 -50 -50v-549l-484 580c-13 16 -35 22 -55 15s-33 -26 -33 -47v-686c0 -28 22 -50 50 -50s50 22 50 50v548l483 -581c13 -16 38 -19 58 -13z" />
    <glyph glyph-name="N.ss01" horiz-adv-x="806" 
d="M716 786c27 0 50 -22 50 -50v-687c0 -21 -8 -37 -27 -45c-20 -7 -47 -3 -62 13l-484 576v-542c0 -28 -22 -50 -50 -50c-29 0 -51 22 -51 50v635c-27 0 -51 22 -52 50c0 27 22 50 50 50c70 0 105 -39 154 -97l422 -501v548c0 28 22 50 50 50z" />
    <glyph glyph-name="O" unicode="O" horiz-adv-x="887" 
d="M446 -17c110 0 212 43 289 121c37 37 66 81 86 130c21 49 31 102 31 157c0 54 -10 107 -31 157c-20 48 -48 92 -85 129c-76 78 -178 121 -287 121c-56 0 -110 -11 -161 -32c-49 -21 -93 -50 -131 -88c-38 -37 -68 -81 -89 -129c-22 -50 -33 -103 -33 -158
c0 -54 11 -107 32 -157c21 -49 51 -92 88 -130c38 -38 82 -67 131 -88c51 -22 105 -33 160 -33zM449 698c82 0 159 -32 216 -91c56 -57 87 -134 87 -216c0 -41 -8 -81 -23 -119c-16 -37 -37 -70 -65 -98c-58 -58 -135 -91 -218 -91s-161 33 -220 92c-29 28 -51 61 -67 98
c-16 38 -24 77 -24 118s8 81 25 118c15 37 38 70 67 98c29 29 62 51 100 67c39 16 80 24 122 24z" />
    <glyph glyph-name="O.ss03" horiz-adv-x="896" 
d="M773 636c19 -26 35 -55 48 -85c21 -50 31 -103 31 -157c0 -55 -11 -108 -31 -158c-21 -48 -50 -92 -87 -129c-76 -78 -179 -121 -288 -121c-56 0 -110 11 -160 33c-30 12 -58 28 -83 47l-69 -68c-10 -10 -22 -15 -35 -15s-26 5 -36 15c-19 19 -19 51 0 70l67 66
c-26 31 -47 65 -63 102c-22 51 -32 104 -32 158c0 55 11 108 32 158c21 48 51 92 89 129c38 38 83 67 132 88c51 21 105 32 160 32c95 0 185 -32 256 -92l71 71c20 20 52 20 71 0c20 -19 20 -51 0 -70zM159 276c11 -25 25 -49 42 -70l432 432c-52 41 -117 63 -185 63
c-42 0 -83 -8 -122 -25c-37 -15 -71 -38 -100 -66c-28 -28 -51 -61 -67 -98s-24 -77 -24 -118s8 -81 24 -118zM728 275c16 38 24 77 24 119c0 61 -18 120 -51 171l-427 -427c51 -34 110 -52 172 -52c82 0 160 33 217 91c28 28 50 61 65 98z" />
    <glyph glyph-name="P" unicode="P" horiz-adv-x="671" 
d="M90 0c28 0 50 22 50 50v636h247c3 0 40 -1 76 -22c19 -11 35 -26 46 -46c14 -25 22 -58 22 -98c0 -59 -21 -98 -65 -123c-38 -22 -94 -33 -165 -33c-27 0 -50 -22 -50 -50s23 -50 50 -50c89 0 161 15 215 46c75 43 115 115 115 210c0 43 -7 82 -20 116
c-12 31 -30 58 -52 80c-30 29 -69 51 -113 62c-31 8 -55 8 -59 8h-297c-27 0 -50 -22 -50 -50v-686c0 -28 23 -50 50 -50z" />
    <glyph glyph-name="Q" unicode="Q" horiz-adv-x="897" 
d="M631 29c31 -29 62 -74 80 -142c8 -27 -8 -54 -35 -61c-8 -3 -17 -3 -25 -1c-17 5 -31 18 -36 36c-14 50 -37 87 -69 108c-23 16 -43 18 -44 18h1v2c-49 -6 -101 -3 -151 9c-54 13 -103 37 -148 70c-42 32 -77 71 -105 117s-46 95 -54 147c-9 54 -7 108 7 161
c13 53 36 102 69 145c32 42 72 77 118 104s96 45 149 53c54 9 109 6 163 -7c106 -27 195 -93 250 -187c26 -45 44 -94 51 -146c8 -53 6 -107 -7 -160c-14 -52 -37 -101 -69 -145c-31 -42 -70 -77 -115 -105c-9 -6 -19 -11 -30 -16zM185 237c43 -72 111 -122 191 -142
s163 -7 233 36c34 20 63 47 87 79c24 33 42 70 52 109c19 80 8 162 -33 232s-108 120 -188 140c-41 10 -83 12 -124 6c-40 -7 -78 -20 -113 -41c-35 -20 -65 -47 -89 -79c-25 -32 -43 -69 -52 -108c-10 -40 -12 -80 -5 -121c6 -39 20 -77 41 -111z" />
    <glyph glyph-name="Q.ss01" horiz-adv-x="898" 
d="M759 126c33 -13 63 -35 88 -67c17 -22 13 -53 -8 -70c-10 -7 -21 -11 -31 -11c-15 0 -30 7 -40 19c-26 34 -59 47 -100 41c-11 -1 -20 -4 -28 -6c-58 -30 -122 -46 -189 -46c-55 0 -109 11 -160 32c-49 21 -93 51 -130 88c-38 38 -68 81 -88 130c-22 50 -33 103 -33 158
c0 54 11 107 33 157c21 49 51 92 89 130c38 37 82 67 131 87c51 21 105 32 161 32c109 0 212 -43 287 -120c37 -38 66 -81 86 -130c20 -50 31 -103 31 -157s-11 -107 -32 -157c-17 -40 -39 -77 -67 -110zM734 274c16 38 24 78 24 119c0 82 -32 159 -88 217
c-57 58 -134 90 -216 90c-42 0 -83 -8 -122 -24c-37 -16 -71 -38 -100 -67c-29 -28 -51 -61 -67 -97c-16 -38 -25 -78 -25 -118c0 -41 8 -81 25 -119c15 -36 38 -69 66 -98c59 -59 137 -91 220 -91s160 32 218 91c28 28 50 61 65 97z" />
    <glyph glyph-name="Q.ss02" horiz-adv-x="858" 
d="M451 -16c110 0 212 43 289 121c37 37 66 81 86 130c21 49 31 102 31 157c0 54 -10 107 -30 157c-20 48 -49 92 -86 129c-76 78 -178 121 -287 121c-56 0 -110 -11 -161 -32c-49 -21 -93 -50 -131 -88c-38 -37 -68 -81 -89 -129c-22 -50 -33 -103 -33 -158
c0 -54 11 -107 33 -157c20 -49 50 -92 88 -130c37 -38 81 -67 130 -88c51 -22 105 -33 160 -33zM454 699c82 0 159 -32 216 -91c56 -57 87 -134 87 -216c0 -41 -7 -81 -23 -119c-15 -37 -37 -70 -65 -98c-58 -58 -135 -90 -218 -90s-161 32 -220 91c-28 28 -51 61 -67 98
c-16 38 -24 77 -24 118s8 81 25 118c16 37 38 70 67 98c29 29 63 51 100 67c39 16 80 24 122 24zM1027 -431h4c52 2 103 29 149 79c32 34 50 67 52 71c13 24 4 54 -20 68c-25 13 -55 4 -68 -21c0 0 -14 -25 -37 -50c-19 -21 -48 -46 -79 -47c-25 0 -65 17 -115 99
c-163 269 -337 523 -338 525c-16 23 -47 29 -70 13c-23 -15 -28 -46 -13 -69c2 -3 173 -254 335 -520c59 -98 126 -148 200 -148z" />
    <glyph glyph-name="R" unicode="R" horiz-adv-x="671" 
d="M576 1c3 0 6 1 10 1c27 5 44 32 39 59c-15 77 -40 141 -76 190c-15 20 -31 37 -49 52c6 3 11 5 16 8c75 43 115 116 115 210c0 43 -7 82 -20 116c-12 31 -30 58 -52 80c-30 30 -69 51 -113 62c-31 8 -55 8 -59 8h-297c-27 0 -50 -22 -50 -50v-686c0 -27 23 -50 50 -50
c28 0 50 23 50 50v636h247c3 0 40 -1 76 -21c19 -12 35 -27 46 -46c14 -26 22 -59 22 -99c0 -59 -21 -98 -65 -123c-30 -17 -71 -28 -123 -31c-28 2 -47 -2 -51 -3c-25 -4 -43 -28 -40 -53c2 -26 24 -46 49 -46c14 0 28 1 41 1c16 -1 37 -5 58 -16c27 -13 51 -33 70 -61
c26 -37 45 -86 57 -147c5 -24 26 -41 49 -41z" />
    <glyph glyph-name="R.ss01" horiz-adv-x="723" 
d="M90 0c28 0 50 23 50 50v636h247c3 0 40 -1 75 -21c20 -12 35 -27 46 -46c15 -26 22 -59 22 -99c0 -59 -20 -98 -64 -123c-39 -22 -94 -33 -165 -33c-26 0 -48 -19 -50 -45c-3 -26 14 -49 40 -54c2 0 28 -7 63 -30c50 -32 93 -79 128 -139c31 -54 70 -76 97 -86
c31 -10 54 -8 61 -7c27 4 46 30 42 57s-29 45 -56 42c-4 0 -32 0 -58 44c-31 55 -70 102 -113 139c22 6 42 15 60 25c75 43 115 116 115 210c0 43 -6 82 -20 116c-12 31 -29 58 -52 80c-29 29 -68 51 -112 62c-31 8 -55 8 -59 8h-297c-28 0 -50 -22 -50 -50v-686
c0 -27 22 -50 50 -50z" />
    <glyph glyph-name="R.ss02" horiz-adv-x="657" 
d="M743 -435c30 0 60 9 90 26c22 13 43 30 63 51c34 35 54 70 55 71c14 24 6 54 -18 68s-54 6 -68 -18c0 0 -16 -26 -40 -52c-21 -21 -51 -46 -82 -46h-1c-24 0 -63 17 -109 98c-111 195 -203 405 -245 507c53 8 98 23 135 45c34 21 60 48 78 81c20 35 30 77 30 125
c0 43 -7 82 -20 115c-13 31 -30 58 -53 80c-29 30 -68 51 -112 62c-31 8 -55 8 -59 8h-295c-28 0 -52 -23 -52 -52v-684c0 -27 23 -50 50 -50c28 0 50 23 50 50v636h247c2 0 60 0 101 -41c28 -28 43 -70 43 -124c0 -58 -20 -96 -61 -121c-36 -22 -88 -34 -155 -35
c-16 -1 -31 -9 -40 -23c-10 -13 -11 -30 -6 -45c2 -3 120 -308 278 -584c28 -49 59 -86 91 -111c33 -24 68 -37 104 -37h1z" />
    <glyph glyph-name="S" unicode="S" horiz-adv-x="652" 
d="M334 -16c66 0 242 31 272 180c20 100 -8 218 -222 270c-167 41 -240 66 -240 150c0 91 89 121 167 121c33 0 67 -1 98 -13c37 -14 67 -35 87 -57c5 -4 9 -9 14 -12c18 -10 40 -3 52 12c11 13 15 31 9 47c-13 38 -56 74 -111 95c-43 17 -97 26 -149 26
c-69 0 -187 -14 -248 -136c-20 -41 -26 -128 7 -183c27 -46 75 -75 123 -94c45 -19 93 -31 141 -41c72 -15 157 -40 180 -108c8 -23 6 -49 -3 -72c-18 -46 -63 -70 -110 -80c-38 -8 -85 -9 -131 -2c-54 9 -110 28 -146 72c-6 8 -12 17 -21 22c-36 18 -73 -26 -61 -61
c12 -34 41 -65 85 -88c35 -20 80 -34 128 -42c26 -4 53 -6 79 -6z" />
    <glyph glyph-name="T" unicode="T" horiz-adv-x="719" 
d="M629 786c28 0 50 -22 50 -50s-22 -50 -50 -50h-219v-636c0 -28 -23 -50 -50 -50c-28 0 -50 22 -50 50v636h-220c-28 0 -50 22 -50 50s22 50 50 50h539z" />
    <glyph glyph-name="U" unicode="U" horiz-adv-x="741" 
d="M371 -12c172 0 252 81 289 150c41 75 41 155 41 181v417c0 27 -22 50 -50 50c-27 0 -50 -23 -50 -50v-417c0 -20 0 -80 -29 -134c-15 -28 -37 -50 -64 -66c-35 -20 -81 -31 -137 -31s-102 11 -137 31c-28 16 -49 38 -65 67c-29 53 -29 113 -29 133v417
c0 27 -22 50 -50 50c-27 0 -50 -23 -50 -50v-417c0 -26 0 -105 41 -181c25 -45 59 -80 103 -105c51 -30 114 -45 187 -45z" />
    <glyph glyph-name="U.ss01" horiz-adv-x="793" 
d="M731 777c13 -9 22 -24 22 -41v-418c0 -26 0 -106 -41 -181c-37 -70 -117 -151 -290 -151c-71 0 -133 15 -184 43c-1 1 -2 2 -3 2c-3 2 -5 3 -7 5c-41 24 -73 58 -96 101c-42 76 -42 155 -42 181v367c-28 0 -50 23 -50 50c0 28 22 51 50 51c36 0 63 -12 81 -36
c18 -25 20 -56 20 -78v-354c0 -20 0 -80 29 -133c16 -29 37 -51 65 -67c35 -20 81 -32 137 -32s102 12 137 32c28 16 50 38 65 66c29 54 29 114 29 134v418c0 27 23 50 50 50c11 0 20 -3 28 -9z" />
    <glyph glyph-name="U.ss03" horiz-adv-x="889" 
d="M800 786c27 0 49 -23 49 -50c0 -28 -22 -50 -50 -50c-15 0 -24 -9 -24 -22v-345c0 -26 0 -105 -41 -181c-24 -45 -59 -80 -102 -105c-51 -29 -114 -44 -187 -44c-74 0 -137 15 -188 44c-43 25 -77 61 -102 106c-41 75 -41 154 -41 180v304v1v40c1 9 -11 22 -24 22
c-27 0 -50 22 -50 50c0 27 22 50 50 50c85 0 125 -71 124 -123v-344c0 -19 0 -79 29 -133c16 -28 37 -50 65 -66c35 -21 81 -31 137 -31c55 0 102 10 137 31c27 15 49 38 64 66c29 53 29 113 29 133v1v343c0 52 39 123 125 123z" />
    <glyph glyph-name="V" unicode="V" horiz-adv-x="753" 
d="M377 -2c20 0 38 12 46 31l286 692c11 25 -1 54 -27 65c-25 11 -55 -2 -65 -27l-240 -580l-240 580c-11 25 -40 38 -66 27c-25 -11 -37 -40 -27 -65l286 -692c8 -19 26 -31 47 -31z" />
    <glyph glyph-name="V.ss01" horiz-adv-x="810" 
d="M434 -2c-20 0 -39 12 -46 31l-264 636c-5 14 -19 24 -34 24c-28 0 -50 22 -50 50s22 50 49 50c50 4 106 -34 127 -86l218 -524l240 580c11 26 40 38 65 27c26 -10 38 -40 27 -65l-286 -692c-8 -19 -26 -31 -46 -31z" />
    <glyph glyph-name="W" unicode="W" horiz-adv-x="1120" 
d="M799 -3c21 0 40 13 47 33l231 692c9 26 -4 54 -30 64c-26 9 -55 -4 -64 -30l-184 -554l-192 554c-7 20 -26 33 -47 33s-40 -13 -47 -33l-189 -554l-187 554c-9 26 -38 39 -64 30c-26 -10 -39 -38 -30 -64l234 -692c7 -20 26 -33 47 -33s40 13 47 33l189 554l192 -554
c7 -20 26 -33 47 -33z" />
    <glyph glyph-name="W.ss01" horiz-adv-x="1177" 
d="M1105 784c26 -10 39 -38 30 -64l-232 -695c-7 -20 -26 -33 -47 -33s-40 13 -47 33l-193 556l-189 -556c-7 -20 -26 -33 -47 -33s-40 13 -47 33l-217 643c-6 18 -17 18 -26 18c-28 0 -50 22 -50 50s22 50 49 50c66 0 105 -34 122 -85l169 -503l189 555c7 20 26 33 47 33
s40 -13 47 -33l193 -555l185 556c9 26 38 39 64 30z" />
    <glyph glyph-name="W.ss03" horiz-adv-x="1145" 
d="M384 -2c20 0 38 12 46 31l293 692c10 25 -1 54 -27 65c-25 11 -55 -1 -65 -26l-248 -584l-247 584c-11 25 -40 37 -66 26c-25 -11 -37 -40 -26 -65l293 -692c8 -19 26 -31 47 -31zM762 -2c20 0 38 12 46 31l293 692c11 25 -1 54 -27 65c-25 11 -54 -1 -65 -26l-247 -584
l-248 584c-10 25 -40 37 -65 26c-26 -11 -38 -40 -27 -65l294 -692c8 -19 26 -31 46 -31z" />
    <glyph glyph-name="X" unicode="X" horiz-adv-x="688" 
d="M639 79c16 -23 11 -54 -11 -70c-23 -15 -53 -11 -70 11l-213 296l-214 -296c-17 -22 -47 -26 -70 -11c-23 16 -28 47 -11 70l233 323l-220 304c-17 23 -12 54 11 70c22 16 53 11 70 -11l201 -278l200 278c16 22 47 27 70 11c22 -16 27 -47 11 -70l-220 -304z" />
    <glyph glyph-name="X.ss01" horiz-adv-x="721" 
d="M124 667l191 -265l-233 -323c-16 -22 -11 -53 12 -69c19 -17 54 -12 69 11l214 296l214 -296c16 -25 52 -26 69 -11c23 16 28 47 12 69l-233 323l220 305c16 22 11 54 -12 70c-22 16 -53 11 -69 -12l-201 -277l-170 235c-27 38 -64 63 -117 63c-28 0 -50 -23 -50 -50
c1 -28 23 -50 50 -50c14 0 27 -9 34 -19z" />
    <glyph glyph-name="X.ss02" horiz-adv-x="628" 
d="M1042 -194c24 -14 33 -44 19 -68c-2 -4 -20 -36 -51 -69c-46 -49 -97 -75 -148 -77h-5c-73 0 -140 48 -200 143c-124 198 -274 461 -342 579l-183 -283c-10 -15 -26 -23 -42 -23c-10 0 -19 3 -27 8c-24 15 -30 46 -15 69l210 325l-198 307c-16 23 -9 54 14 69
s54 9 69 -15l175 -269l174 269c15 24 46 30 70 15c23 -15 29 -46 14 -69l-199 -308c42 -76 222 -393 365 -621c28 -44 70 -96 115 -96h2c30 1 59 25 78 45c23 25 37 49 37 49c13 24 44 33 68 20z" />
    <glyph glyph-name="Y" unicode="Y" horiz-adv-x="717" 
d="M655 778c23 -16 29 -47 14 -70l-261 -390v-268c0 -27 -22 -50 -50 -50c-27 0 -50 23 -50 50v268l-260 390c-15 23 -9 54 14 70c23 15 54 9 69 -14l227 -341l228 341c15 23 46 29 69 14z" />
    <glyph glyph-name="Y.ss01" horiz-adv-x="765" 
d="M90 786c-28 0 -50 -23 -50 -50c1 -28 23 -50 50 -50c13 0 28 -9 33 -20l233 -348v-268c0 -28 22 -50 50 -50s50 22 50 50v268l260 390c16 23 9 54 -13 69c-23 16 -55 10 -70 -13l-227 -341l-199 299c-26 39 -71 64 -117 64z" />
    <glyph glyph-name="Y.ss03" horiz-adv-x="814" 
d="M725 786c27 0 50 -23 49 -51c0 -27 -22 -49 -50 -49c-14 0 -28 -12 -33 -20l-232 -348v-268c0 -28 -23 -50 -50 -50c-28 0 -50 22 -50 50v267l-236 349c-7 11 -23 20 -33 20c-27 0 -50 22 -50 49c0 28 22 51 49 51c56 0 94 -28 117 -64l202 -300l200 300
c27 39 70 64 117 64z" />
    <glyph glyph-name="Z" unicode="Z" horiz-adv-x="724" 
d="M634 1c27 0 50 23 50 50c0 28 -23 50 -50 50h-441l480 604c12 15 14 35 6 53c-9 17 -26 28 -45 28h-529c-27 0 -50 -22 -50 -50s23 -50 50 -50h425l-480 -603c-12 -15 -14 -36 -6 -53c9 -18 26 -29 45 -29h545z" />
    <glyph glyph-name="Z.ss03" horiz-adv-x="724" 
d="M634 101c28 0 50 -22 50 -50c0 -27 -22 -50 -50 -50h-544c-19 0 -36 11 -45 29c-8 17 -6 38 6 53l202 253h-147c-28 0 -50 22 -50 50s22 50 50 50h226l199 250h-425c-28 0 -50 22 -50 50s22 50 50 50h528c20 0 37 -11 45 -28c9 -18 6 -38 -5 -53l-214 -269h174
c28 0 50 -22 50 -50s-22 -50 -50 -50h-254l-186 -235h440z" />
    <glyph glyph-name="a" unicode="a" horiz-adv-x="800" 
d="M736 4c25 12 36 41 25 67l-311 686c-7 17 -26 29 -45 29c-20 0 -37 -11 -46 -29l-316 -686c-10 -23 -13 -51 9 -65c21 -13 46 -7 65 12c38 37 90 78 140 109c49 30 99 49 150 59c63 14 128 13 193 -3l69 -154c14 -27 44 -35 67 -25zM404 616l151 -332
c-55 5 -110 3 -164 -9c-56 -11 -126 -38 -179 -68z" />
    <glyph glyph-name="b" unicode="b" 
d="M670 200c9 113 -53 197 -119 220c47 34 87 92 74 186c-17 121 -108 180 -239 180h-296c-27 0 -50 -22 -50 -50v-686c0 -14 6 -26 15 -36c9 -9 22 -14 35 -14h344c133 0 226 76 236 200zM570 209c-7 -74 -55 -108 -136 -108h-294v585h246c85 0 132 -27 140 -92
c9 -81 -30 -131 -104 -139l-76 -1c-27 0 -50 -22 -50 -50c1 -27 23 -50 50 -50h1l78 1h3c98 0 152 -48 142 -146z" />
    <glyph glyph-name="c" unicode="c" horiz-adv-x="769" 
d="M451 -13c48 0 96 9 141 26c43 16 83 39 119 69c21 17 24 49 6 70s-49 24 -70 6c-27 -22 -57 -40 -90 -52c-34 -12 -69 -19 -106 -19c-83 0 -161 33 -220 92c-29 28 -51 61 -67 98c-16 38 -24 77 -24 118s8 81 24 118s39 70 67 98c29 29 63 51 100 67c39 16 80 24 122 24
c68 0 131 -21 184 -62c21 -16 53 -12 70 10c16 22 12 53 -10 70c-70 54 -154 82 -244 82c-55 0 -109 -11 -160 -32c-49 -21 -94 -50 -132 -88c-38 -37 -68 -81 -89 -129c-21 -50 -32 -103 -32 -158c0 -54 10 -107 32 -157c21 -49 50 -93 88 -130c38 -38 82 -67 130 -88
c51 -22 105 -33 161 -33z" />
    <glyph glyph-name="d" unicode="d" horiz-adv-x="766" 
d="M318 0c54 0 107 11 157 31c48 20 92 48 130 85c38 36 67 78 88 125c22 48 33 98 33 150c0 53 -11 104 -32 153c-21 48 -50 90 -87 126c-38 36 -82 65 -130 85c-49 20 -102 31 -157 31h-229c-13 0 -27 -6 -36 -15c-10 -9 -15 -22 -15 -35v-686c0 -27 22 -50 51 -50h226h1z
M141 101v585h179c82 0 158 -31 216 -88c28 -27 50 -59 66 -94c16 -36 24 -74 24 -113c0 -38 -8 -74 -24 -109c-17 -35 -39 -67 -67 -94s-61 -48 -98 -63s-76 -23 -117 -24h-179z" />
    <glyph glyph-name="e" unicode="e" horiz-adv-x="658" 
d="M568 100c28 0 50 -22 50 -50s-22 -50 -50 -50h-478c-27 0 -50 22 -50 50v686c0 28 23 50 50 50h468c28 0 50 -22 50 -50s-22 -50 -50 -50h-418v-241h370c28 0 50 -23 50 -50c0 -28 -22 -50 -50 -50h-370v-245h428z" />
    <glyph glyph-name="f" unicode="f" horiz-adv-x="650" 
d="M560 786c28 0 50 -23 50 -50c0 -28 -22 -50 -50 -50h-420v-251h359c27 0 50 -23 50 -50c0 -28 -23 -50 -50 -50h-359v-285c0 -27 -22 -50 -50 -50s-50 23 -50 50v686c0 27 22 50 50 50h470z" />
    <glyph glyph-name="g" unicode="g" horiz-adv-x="804" 
d="M451 -18c58 0 115 12 167 36c51 23 95 56 133 97c8 9 13 21 13 33v229c0 28 -22 50 -50 50s-50 -22 -50 -50v-208c-25 -25 -55 -45 -87 -60c-39 -18 -82 -27 -126 -27c-83 0 -161 33 -220 92c-29 28 -51 61 -67 98s-24 77 -24 118s8 80 24 118c16 37 39 69 68 98
c28 28 62 51 99 66c39 17 80 25 122 25c64 0 124 -19 175 -56c23 -16 54 -10 70 12c16 23 11 54 -12 70c-68 48 -148 74 -233 74c-55 0 -109 -11 -160 -32c-49 -21 -94 -50 -132 -88c-38 -37 -68 -81 -89 -129c-21 -50 -32 -103 -32 -158c0 -54 10 -107 32 -158
c21 -48 50 -92 88 -129c38 -38 82 -68 131 -88c50 -22 104 -33 160 -33z" />
    <glyph glyph-name="h" unicode="h" 
d="M621 786c28 0 50 -22 50 -50v-686c0 -27 -22 -50 -50 -50c-27 0 -50 23 -50 50v302h-431v-302c0 -27 -22 -50 -50 -50s-50 23 -50 50v686c0 28 22 50 50 50s50 -22 50 -50v-284h431v284c0 28 23 50 50 50z" />
    <glyph glyph-name="i" unicode="i" horiz-adv-x="190" 
d="M95 0c28 0 50 22 50 50v686c0 27 -22 50 -50 50c-27 0 -50 -23 -50 -50v-686c0 -28 23 -50 50 -50z" />
    <glyph glyph-name="j" unicode="j" horiz-adv-x="525" 
d="M259 -11c38 0 73 6 103 18c27 11 51 27 70 48c54 58 53 132 53 148v533c0 28 -23 50 -50 50c-28 0 -50 -22 -50 -50v-538c0 -1 2 -45 -26 -76c-21 -22 -55 -33 -101 -33c-20 0 -42 3 -58 7c-34 9 -58 25 -72 47c-14 24 -45 32 -68 18c-24 -15 -32 -45 -18 -69
c28 -46 75 -79 136 -94c25 -6 51 -9 81 -9z" />
    <glyph glyph-name="k" unicode="k" horiz-adv-x="668" 
d="M90 786c28 0 50 -23 50 -50v-686c0 -28 -22 -50 -50 -50s-50 22 -50 50v686c0 27 22 50 50 50zM623 72c12 -25 2 -55 -23 -67c-7 -3 -14 -5 -22 -5c-18 0 -36 10 -45 28c-31 64 -77 137 -132 197c-59 63 -104 110 -172 149c-2 1 -3 2 -5 3c-2 2 -4 3 -6 5
c-7 8 -12 17 -13 27c-2 11 0 23 6 34c3 5 7 10 12 14l310 315c19 20 52 19 71 -1c19 -19 18 -50 -1 -70l-270 -275c126 -89 225 -220 290 -354z" />
    <glyph glyph-name="l" unicode="l" horiz-adv-x="616" 
d="M526 0c28 0 50 22 50 50s-22 50 -50 50h-386v636c0 28 -22 50 -50 50c-27 0 -50 -22 -50 -50v-686c0 -28 23 -50 50 -50h436z" />
    <glyph glyph-name="m" unicode="m" horiz-adv-x="855" 
d="M765 0c28 0 50 23 50 50v688c0 22 -14 41 -34 48c-21 7 -43 -1 -57 -18l-296 -501l-297 501c-13 17 -36 25 -56 18c-21 -7 -35 -26 -35 -48v-688c0 -27 23 -50 50 -50c28 0 50 23 50 50v505l247 -413c10 -13 25 -20 41 -20s31 7 40 20l246 413v-505c0 -27 24 -50 51 -50z
" />
    <glyph glyph-name="n" unicode="n" horiz-adv-x="752" 
d="M681 4c21 6 31 24 31 45v688c0 28 -23 50 -50 50c-28 0 -50 -22 -50 -50v-549l-484 580c-13 16 -35 22 -55 15s-33 -26 -33 -47v-686c0 -28 22 -50 50 -50s50 22 50 50v548l483 -581c13 -16 38 -19 58 -13z" />
    <glyph glyph-name="o" unicode="o" horiz-adv-x="887" 
d="M446 -17c110 0 212 43 289 121c37 37 66 81 86 130c21 49 31 102 31 157c0 54 -10 107 -31 157c-20 48 -48 92 -85 129c-76 78 -178 121 -287 121c-56 0 -110 -11 -161 -32c-49 -21 -93 -50 -131 -88c-38 -37 -68 -81 -89 -129c-22 -50 -33 -103 -33 -158
c0 -54 11 -107 32 -157c21 -49 51 -92 88 -130c38 -38 82 -67 131 -88c51 -22 105 -33 160 -33zM449 698c82 0 159 -32 216 -91c56 -57 87 -134 87 -216c0 -41 -8 -81 -23 -119c-16 -37 -37 -70 -65 -98c-58 -58 -135 -91 -218 -91s-161 33 -220 92c-29 28 -51 61 -67 98
c-16 38 -24 77 -24 118s8 81 25 118c15 37 38 70 67 98c29 29 62 51 100 67c39 16 80 24 122 24z" />
    <glyph glyph-name="p" unicode="p" horiz-adv-x="671" 
d="M90 0c28 0 50 22 50 50v636h247c3 0 40 -1 76 -22c19 -11 35 -26 46 -46c14 -25 22 -58 22 -98c0 -59 -21 -98 -65 -123c-38 -22 -94 -33 -165 -33c-27 0 -50 -22 -50 -50s23 -50 50 -50c89 0 161 15 215 46c75 43 115 115 115 210c0 43 -7 82 -20 116
c-12 31 -30 58 -52 80c-30 29 -69 51 -113 62c-31 8 -55 8 -59 8h-297c-27 0 -50 -22 -50 -50v-686c0 -28 23 -50 50 -50z" />
    <glyph glyph-name="q" unicode="q" horiz-adv-x="897" 
d="M631 29c31 -29 62 -74 80 -142c8 -27 -8 -54 -35 -61c-8 -3 -17 -3 -25 -1c-17 5 -31 18 -36 36c-14 50 -37 87 -69 108c-23 16 -43 18 -44 18h1v2c-49 -6 -101 -3 -151 9c-54 13 -103 37 -148 70c-42 32 -77 71 -105 117s-46 95 -54 147c-9 54 -7 108 7 161
c13 53 36 102 69 145c32 42 72 77 118 104s96 45 149 53c54 9 109 6 163 -7c106 -27 195 -93 250 -187c26 -45 44 -94 51 -146c8 -53 6 -107 -7 -160c-14 -52 -37 -101 -69 -145c-31 -42 -70 -77 -115 -105c-9 -6 -19 -11 -30 -16zM185 237c43 -72 111 -122 191 -142
s163 -7 233 36c34 20 63 47 87 79c24 33 42 70 52 109c19 80 8 162 -33 232s-108 120 -188 140c-41 10 -83 12 -124 6c-40 -7 -78 -20 -113 -41c-35 -20 -65 -47 -89 -79c-25 -32 -43 -69 -52 -108c-10 -40 -12 -80 -5 -121c6 -39 20 -77 41 -111z" />
    <glyph glyph-name="r" unicode="r" horiz-adv-x="671" 
d="M576 1c3 0 6 1 10 1c27 5 44 32 39 59c-15 77 -40 141 -76 190c-15 20 -31 37 -49 52c6 3 11 5 16 8c75 43 115 116 115 210c0 43 -7 82 -20 116c-12 31 -30 58 -52 80c-30 30 -69 51 -113 62c-31 8 -55 8 -59 8h-297c-27 0 -50 -22 -50 -50v-686c0 -27 23 -50 50 -50
c28 0 50 23 50 50v636h247c3 0 40 -1 76 -21c19 -12 35 -27 46 -46c14 -26 22 -59 22 -99c0 -59 -21 -98 -65 -123c-30 -17 -71 -28 -123 -31c-28 2 -47 -2 -51 -3c-25 -4 -43 -28 -40 -53c2 -26 24 -46 49 -46c14 0 28 1 41 1c16 -1 37 -5 58 -16c27 -13 51 -33 70 -61
c26 -37 45 -86 57 -147c5 -24 26 -41 49 -41z" />
    <glyph glyph-name="s" unicode="s" horiz-adv-x="652" 
d="M334 -16c66 0 242 31 272 180c20 100 -8 218 -222 270c-167 41 -240 66 -240 150c0 91 89 121 167 121c33 0 67 -1 98 -13c37 -14 67 -35 87 -57c5 -4 9 -9 14 -12c18 -10 40 -3 52 12c11 13 15 31 9 47c-13 38 -56 74 -111 95c-43 17 -97 26 -149 26
c-69 0 -187 -14 -248 -136c-20 -41 -26 -128 7 -183c27 -46 75 -75 123 -94c45 -19 93 -31 141 -41c72 -15 157 -40 180 -108c8 -23 6 -49 -3 -72c-18 -46 -63 -70 -110 -80c-38 -8 -85 -9 -131 -2c-54 9 -110 28 -146 72c-6 8 -12 17 -21 22c-36 18 -73 -26 -61 -61
c12 -34 41 -65 85 -88c35 -20 80 -34 128 -42c26 -4 53 -6 79 -6z" />
    <glyph glyph-name="t" unicode="t" horiz-adv-x="719" 
d="M629 786c28 0 50 -22 50 -50s-22 -50 -50 -50h-219v-636c0 -28 -23 -50 -50 -50c-28 0 -50 22 -50 50v636h-220c-28 0 -50 22 -50 50s22 50 50 50h539z" />
    <glyph glyph-name="u" unicode="u" horiz-adv-x="741" 
d="M371 -12c172 0 252 81 289 150c41 75 41 155 41 181v417c0 27 -22 50 -50 50c-27 0 -50 -23 -50 -50v-417c0 -20 0 -80 -29 -134c-15 -28 -37 -50 -64 -66c-35 -20 -81 -31 -137 -31s-102 11 -137 31c-28 16 -49 38 -65 67c-29 53 -29 113 -29 133v417
c0 27 -22 50 -50 50c-27 0 -50 -23 -50 -50v-417c0 -26 0 -105 41 -181c25 -45 59 -80 103 -105c51 -30 114 -45 187 -45z" />
    <glyph glyph-name="v" unicode="v" horiz-adv-x="753" 
d="M377 -2c20 0 38 12 46 31l286 692c11 25 -1 54 -27 65c-25 11 -55 -2 -65 -27l-240 -580l-240 580c-11 25 -40 38 -66 27c-25 -11 -37 -40 -27 -65l286 -692c8 -19 26 -31 47 -31z" />
    <glyph glyph-name="w" unicode="w" horiz-adv-x="1120" 
d="M799 -3c21 0 40 13 47 33l231 692c9 26 -4 54 -30 64c-26 9 -55 -4 -64 -30l-184 -554l-192 554c-7 20 -26 33 -47 33s-40 -13 -47 -33l-189 -554l-187 554c-9 26 -38 39 -64 30c-26 -10 -39 -38 -30 -64l234 -692c7 -20 26 -33 47 -33s40 13 47 33l189 554l192 -554
c7 -20 26 -33 47 -33z" />
    <glyph glyph-name="x" unicode="x" horiz-adv-x="688" 
d="M639 79c16 -23 11 -54 -11 -70c-23 -15 -53 -11 -70 11l-213 296l-214 -296c-17 -22 -47 -26 -70 -11c-23 16 -28 47 -11 70l233 323l-220 304c-17 23 -12 54 11 70c22 16 53 11 70 -11l201 -278l200 278c16 22 47 27 70 11c22 -16 27 -47 11 -70l-220 -304z" />
    <glyph glyph-name="y" unicode="y" horiz-adv-x="717" 
d="M655 778c23 -16 29 -47 14 -70l-261 -390v-268c0 -27 -22 -50 -50 -50c-27 0 -50 23 -50 50v268l-260 390c-15 23 -9 54 14 70c23 15 54 9 69 -14l227 -341l228 341c15 23 46 29 69 14z" />
    <glyph glyph-name="z" unicode="z" horiz-adv-x="724" 
d="M634 1c27 0 50 23 50 50c0 28 -23 50 -50 50h-441l480 604c12 15 14 35 6 53c-9 17 -26 28 -45 28h-529c-27 0 -50 -22 -50 -50s23 -50 50 -50h425l-480 -603c-12 -15 -14 -36 -6 -53c9 -18 26 -29 45 -29h545z" />
    <glyph glyph-name="zero" unicode="0" horiz-adv-x="765" 
d="M382 -15c48 0 94 12 137 34c41 21 78 51 109 89c62 76 97 177 97 284c0 106 -35 207 -97 283c-31 38 -68 68 -109 89c-43 23 -89 34 -137 34c-47 0 -93 -11 -136 -34c-41 -21 -78 -51 -109 -89c-63 -76 -97 -177 -97 -283c0 -107 34 -208 97 -284c31 -38 68 -68 109 -89
c43 -22 89 -34 136 -34zM382 698c63 0 123 -31 168 -86c48 -58 75 -137 75 -220c0 -84 -27 -162 -75 -220c-45 -56 -105 -87 -168 -87c-62 0 -122 31 -168 87c-48 58 -74 136 -74 220c0 83 26 162 74 220c46 55 106 86 168 86z" />
    <glyph glyph-name="one" unicode="1" horiz-adv-x="373" 
d="M283 0c28 0 50 22 50 50v687c0 16 -8 31 -20 40c-13 9 -30 12 -45 7l-193 -60c-26 -8 -41 -36 -33 -63c7 -21 27 -35 48 -35c5 0 10 1 15 3l128 40v-619c0 -28 22 -50 50 -50z" />
    <glyph glyph-name="two" unicode="2" horiz-adv-x="650" 
d="M560 0c28 0 50 22 50 50c0 27 -22 50 -50 50h-341l246 224c52 48 86 94 104 141c18 50 15 94 11 122c-4 31 -14 60 -29 86c-14 25 -33 48 -56 66c-44 37 -101 57 -161 59c-61 2 -117 -16 -162 -50c-45 -35 -76 -85 -89 -145c-6 -27 11 -53 38 -59s54 11 60 38
c8 37 26 67 52 87c27 20 60 30 98 29s73 -14 100 -36c28 -23 45 -53 50 -89c4 -29 2 -51 -6 -73c-12 -32 -37 -65 -78 -102l-340 -311c-16 -14 -21 -36 -13 -55c7 -20 26 -32 46 -32h470z" />
    <glyph glyph-name="three" unicode="3" horiz-adv-x="626" 
d="M296 -11c44 0 148 14 219 79c21 20 37 43 49 69c13 29 19 60 19 94c0 35 -6 66 -18 94c-12 26 -28 50 -50 69c-38 36 -92 59 -159 70l217 238c14 15 17 36 9 54s-26 30 -46 30h-421c-28 0 -50 -22 -50 -50s22 -50 50 -50h308l-212 -233c-14 -15 -17 -37 -8 -56
c9 -18 29 -29 49 -27c2 0 36 2 78 -3c36 -5 86 -17 118 -47c24 -22 35 -51 35 -89c0 -37 -12 -66 -37 -89c-26 -25 -62 -38 -88 -44c-33 -9 -60 -9 -67 -9c-4 0 -8 1 -12 1c0 0 -28 1 -62 16c-37 15 -65 38 -86 69c-15 23 -46 29 -69 14c-23 -16 -29 -47 -14 -70
c31 -46 76 -83 130 -105c49 -21 89 -24 97 -24c2 0 5 0 9 -1h12z" />
    <glyph glyph-name="four" unicode="4" horiz-adv-x="746" 
d="M531 -4c28 0 50 23 50 50v136h75c27 0 50 23 50 50c0 28 -23 50 -50 50h-75v457c0 21 -13 40 -32 47c-20 7 -42 2 -55 -14l-442 -507c-12 -15 -16 -36 -7 -54c8 -17 26 -29 45 -29h391v-136c0 -27 23 -50 50 -50zM200 282l281 324v-324h-281z" />
    <glyph glyph-name="five" unicode="5" horiz-adv-x="629" 
d="M308 -12c32 0 64 5 94 14c32 11 61 26 87 46c43 33 73 76 89 125c16 52 14 106 -6 156c-15 36 -35 67 -60 92c-23 23 -50 41 -80 54c-60 24 -131 28 -213 12c-10 -2 -20 -4 -29 -7l14 206h334c28 0 50 22 50 50s-22 50 -50 50h-381c-26 0 -48 -20 -50 -47l-22 -326
c-1 -17 7 -34 21 -44s33 -12 49 -5c0 0 36 15 83 25c43 9 105 14 156 -7c39 -16 67 -45 85 -90c11 -29 12 -60 3 -89s-28 -56 -54 -76c-35 -27 -79 -41 -128 -39c-58 2 -121 26 -180 70c-23 16 -54 11 -70 -11c-17 -22 -12 -53 10 -70c40 -28 80 -51 121 -66
c39 -14 78 -22 116 -23h11z" />
    <glyph glyph-name="six" unicode="6" horiz-adv-x="667" 
d="M604 347c15 -33 23 -67 23 -103s-8 -71 -23 -103c-15 -31 -35 -59 -62 -83c-53 -48 -124 -75 -198 -75c-75 0 -146 27 -199 75c-26 24 -47 52 -62 83c-10 22 -17 45 -20 68c-24 73 -30 202 -14 280c20 96 64 176 127 231c64 55 143 82 229 78c70 -3 134 -34 172 -84
c17 -22 13 -53 -9 -70s-53 -13 -70 9c-24 31 -66 44 -98 45c-60 3 -115 -16 -159 -54c-46 -40 -79 -101 -94 -175c-3 -12 -5 -27 -6 -43l4 4c53 48 124 74 199 74c74 0 145 -26 198 -74c27 -24 47 -52 62 -83zM344 83c101 0 183 72 183 161c0 88 -82 160 -183 160
c-102 0 -184 -72 -184 -160c0 -4 0 -9 1 -13s2 -9 2 -13c14 -76 90 -135 181 -135z" />
    <glyph glyph-name="seven" unicode="7" horiz-adv-x="630" 
d="M184 1c18 0 35 10 44 27l357 685c8 16 7 34 -2 49s-25 24 -43 24h-450c-28 0 -50 -22 -50 -50c0 -27 22 -50 50 -50h368l-318 -612c-13 -24 -4 -55 21 -67c7 -4 15 -6 23 -6z" />
    <glyph glyph-name="eight" unicode="8" horiz-adv-x="673" 
d="M607 323c17 -30 26 -63 26 -97s-9 -66 -26 -97c-16 -28 -38 -53 -66 -75c-56 -42 -128 -65 -205 -65s-149 23 -204 65c-29 22 -51 47 -67 75c-17 31 -25 63 -25 97s8 67 25 97c16 29 38 54 67 75c9 7 19 14 29 20c-2 1 -4 3 -6 4c-25 20 -45 43 -59 69
c-15 28 -23 58 -23 89s8 61 23 89c14 26 34 49 59 68c50 39 115 60 183 60s133 -21 182 -60c26 -19 46 -42 60 -68c15 -28 23 -58 23 -89s-8 -61 -23 -89c-14 -26 -34 -49 -60 -69c-2 -2 -5 -4 -7 -5c10 -6 19 -12 28 -19c28 -21 50 -46 66 -75zM217 658
c-28 -22 -44 -49 -44 -78s16 -57 44 -79c32 -25 75 -38 121 -38s89 13 121 38c28 22 44 50 44 79s-16 56 -44 78c-32 25 -75 39 -121 39s-89 -14 -121 -39zM480 134c34 26 53 58 53 92s-19 67 -53 92c-38 29 -89 45 -144 45s-106 -16 -144 -45c-34 -25 -52 -58 -52 -92
s18 -66 52 -92c38 -29 89 -45 144 -45s106 16 144 45z" />
    <glyph glyph-name="nine" unicode="9" horiz-adv-x="667" 
d="M63 435c-15 33 -23 68 -23 104c0 35 8 70 23 103c15 31 35 59 62 82c53 49 124 75 199 75c74 0 145 -26 198 -75c27 -23 47 -51 62 -82c10 -22 17 -45 21 -69c23 -72 29 -202 13 -280c-19 -96 -63 -176 -127 -231s-143 -82 -229 -78c-69 3 -134 35 -172 84
c-17 22 -13 54 9 70c22 17 53 13 70 -9c24 -31 66 -43 98 -45c60 -3 115 16 159 54c46 40 79 101 95 176c2 12 4 26 5 42c-1 -1 -3 -2 -4 -3c-53 -48 -124 -75 -198 -75c-75 0 -146 27 -199 75c-27 23 -47 51 -62 82zM324 699c-102 0 -184 -72 -184 -160
c0 -89 82 -161 184 -161c101 0 183 72 183 161c0 4 0 8 -1 12c-1 5 -1 9 -1 14c-15 76 -91 134 -181 134z" />
    <glyph glyph-name="asterisk" unicode="*" horiz-adv-x="388" 
d="M333 537c20 -20 20 -52 0 -71c-11 -10 -25 -15 -38 -14c-12 0 -24 5 -33 14l-68 69l-69 -68c-11 -11 -25 -15 -38 -15c-12 1 -24 6 -33 15c-19 20 -19 51 1 71l68 68l-68 69c-19 20 -19 51 0 71c20 19 52 19 71 0l68 -69l69 68c20 19 52 19 71 0c19 -20 19 -52 0 -71
l-69 -68z" />
    <glyph glyph-name="colon" unicode=":" horiz-adv-x="225" 
d="M185 501c0 40 -33 73 -73 73s-72 -33 -72 -73s32 -72 72 -72s73 32 73 72zM185 98c0 40 -33 73 -73 73s-72 -33 -72 -73s32 -72 72 -72s73 32 73 72z" />
    <glyph glyph-name="comma" unicode="," horiz-adv-x="180" 
d="M90 -112c27 0 50 22 50 50v166c0 28 -23 50 -50 50c-28 0 -50 -22 -50 -50v-166c0 -28 22 -50 50 -50z" />
    <glyph glyph-name="exclam" unicode="!" horiz-adv-x="229" 
d="M114 245c28 0 50 22 50 50v442c0 28 -22 50 -50 50c-27 0 -50 -22 -50 -50v-442c0 -28 23 -50 50 -50zM189 78c0 41 -33 75 -75 75c-41 0 -74 -34 -74 -75s33 -75 74 -75c42 0 75 34 75 75z" />
    <glyph glyph-name="numbersign" unicode="#" horiz-adv-x="781" 
d="M691 503h-85l-36 -215h79c27 0 50 -22 50 -50c0 -27 -23 -50 -50 -50h-95l-25 -144c-4 -25 -25 -42 -49 -42c-3 0 -5 0 -8 1c-27 4 -46 30 -41 57l21 128h-196l-24 -144c-4 -25 -25 -42 -49 -42c-3 0 -5 0 -8 1c-27 4 -46 30 -41 57l21 128h-65c-28 0 -50 23 -50 50
c0 28 22 50 50 50h82l36 215h-76c-28 0 -50 23 -50 50c0 28 22 50 50 50h92l24 142c5 27 30 46 58 41c27 -5 45 -30 41 -58l-21 -125h196l23 142c5 27 31 46 58 41s45 -30 41 -58l-21 -125h68c27 0 50 -22 50 -50c0 -27 -23 -50 -50 -50zM469 288l36 215h-196l-36 -215h196z
" />
    <glyph glyph-name="period" unicode="." horiz-adv-x="229" 
d="M189 75c0 41 -33 75 -74 75c-42 0 -75 -34 -75 -75c0 -42 33 -75 75 -75c41 0 74 33 74 75z" />
    <glyph glyph-name="question" unicode="?" horiz-adv-x="562" 
d="M328 72c0 40 -33 73 -73 73s-73 -33 -73 -73s33 -73 73 -73s73 33 73 73zM251 203h2c28 1 49 25 48 52l-4 94l24 3c60 10 108 33 143 67c20 19 35 42 45 68c10 27 15 59 13 92c-1 34 -8 65 -21 92c-12 25 -28 46 -49 64c-34 29 -80 48 -133 54c-35 5 -63 3 -69 2
s-32 -3 -67 -15c-49 -18 -94 -46 -129 -84c-19 -20 -18 -51 2 -70s52 -18 71 2c55 59 128 67 132 67c0 0 1 0 2 1c0 0 79 7 126 -33c22 -19 34 -46 35 -84c2 -37 -7 -64 -28 -85c-40 -40 -119 -44 -146 -43c-14 1 -28 -4 -38 -14s-15 -24 -15 -38l6 -144
c1 -27 24 -48 50 -48z" />
    <glyph glyph-name="quotedbl" unicode="&#x22;" horiz-adv-x="320" 
d="M83 524c28 0 50 23 50 50v166c0 28 -22 50 -50 50c-27 0 -50 -22 -50 -50v-166c0 -27 23 -50 50 -50zM237 524c28 0 50 23 50 50v166c0 28 -22 50 -50 50s-50 -22 -50 -50v-166c0 -27 22 -50 50 -50z" />
    <glyph glyph-name="quotesingle" unicode="'" horiz-adv-x="180" 
d="M90 520c27 0 50 22 50 50v166c0 28 -23 50 -50 50c-28 0 -50 -22 -50 -50v-166c0 -28 22 -50 50 -50z" />
    <glyph glyph-name="semicolon" unicode=";" horiz-adv-x="225" 
d="M113 -116c27 0 50 22 50 50v159c0 28 -23 50 -50 50c-28 0 -50 -22 -50 -50v-159c0 -28 22 -50 50 -50zM185 486c0 40 -32 72 -72 72s-73 -32 -73 -72s33 -73 73 -73s72 33 72 73z" />
    <glyph glyph-name="slash" unicode="/" horiz-adv-x="640" 
d="M90 -147c19 0 36 11 45 28l460 938c12 24 2 54 -23 67c-25 12 -55 2 -67 -23l-460 -937c-12 -25 -2 -55 23 -67c7 -4 15 -6 22 -6z" />
    <glyph glyph-name="underscore" unicode="_" horiz-adv-x="697" 
d="M637 -180c27 0 50 22 50 50s-23 50 -50 50h-577c-28 0 -50 -22 -50 -50s22 -50 50 -50h577z" />
    <glyph glyph-name="parenleft" unicode="(" horiz-adv-x="423" 
d="M327 -118c19 0 37 11 45 29c12 25 0 55 -25 66c-59 27 -111 74 -148 136c-39 65 -59 141 -59 221c0 81 21 159 61 224c38 63 91 109 152 135c25 11 37 40 26 66c-11 25 -40 37 -65 26c-40 -17 -78 -41 -112 -71c-33 -29 -62 -64 -86 -104c-50 -81 -76 -177 -76 -276
c0 -98 25 -192 73 -272s115 -141 193 -176c7 -3 14 -4 21 -4z" />
    <glyph glyph-name="parenright" unicode=")" horiz-adv-x="424" 
d="M97 782c-19 0 -38 -11 -46 -29c-11 -25 0 -55 25 -66c60 -27 111 -74 148 -136c39 -65 60 -141 60 -221c0 -81 -22 -159 -62 -224c-38 -63 -90 -110 -151 -135c-26 -11 -38 -40 -27 -66c11 -25 40 -37 66 -26c40 17 77 41 111 71c34 29 63 64 87 104c49 81 76 176 76 276
c0 98 -26 192 -74 272s-114 141 -193 176c-6 3 -13 4 -20 4z" />
    <glyph glyph-name="hyphen" unicode="-" horiz-adv-x="411" 
d="M321 317c28 0 50 23 50 50c0 28 -22 50 -50 50h-231c-28 0 -50 -22 -50 -50c0 -27 22 -50 50 -50h231z" />
    <glyph glyph-name="dollar" unicode="$" horiz-adv-x="621" 
d="M320 2c90 0 158 22 204 65c37 34 57 81 57 132c0 62 -21 114 -62 155c-45 44 -111 74 -203 93c-39 8 -71 21 -96 37c-18 13 -33 27 -43 44c-17 27 -17 51 -17 55v3c0 24 12 49 32 67c17 16 49 34 100 34c68 0 109 -14 131 -26c21 -11 30 -23 31 -24c14 -23 43 -31 67 -18
s33 43 20 68c-6 10 -62 100 -249 100c-33 0 -64 -5 -93 -16c-28 -10 -53 -25 -74 -44c-41 -37 -65 -88 -65 -140c0 -11 0 -55 27 -104c18 -30 42 -57 73 -79c37 -25 82 -44 136 -55c71 -14 123 -37 152 -66c23 -22 33 -49 33 -84c0 -16 -4 -40 -25 -59
c-27 -25 -73 -38 -136 -38c-78 0 -125 17 -151 31c-25 14 -35 27 -36 29c-13 23 -43 32 -67 19s-33 -43 -20 -68c6 -11 66 -111 274 -111zM320 -106c28 0 50 23 50 50v861c0 28 -22 50 -50 50s-50 -22 -50 -50v-861c0 -27 22 -50 50 -50z" />
    <glyph glyph-name="equal" unicode="=" horiz-adv-x="602" 
d="M512 479c28 0 50 23 50 50c0 28 -22 50 -50 50h-422c-27 0 -50 -22 -50 -50c0 -27 23 -50 50 -50h422zM512 217c28 0 50 23 50 50c0 28 -22 50 -50 50h-422c-27 0 -50 -22 -50 -50c0 -27 23 -50 50 -50h422z" />
    <glyph glyph-name="greater" unicode="&#x3e;" horiz-adv-x="640" 
d="M90 122c8 0 15 2 22 5l460 227c17 8 28 26 28 45s-11 36 -28 45l-454 227c-25 12 -55 2 -68 -23c-12 -25 -2 -55 23 -67l365 -182l-370 -182c-25 -12 -35 -42 -22 -67c8 -18 26 -28 44 -28z" />
    <glyph glyph-name="less" unicode="&#x3c;" horiz-adv-x="640" 
d="M550 675c-7 0 -15 -2 -22 -5l-460 -227c-17 -8 -28 -26 -28 -45s11 -36 28 -45l455 -227c25 -12 55 -2 67 23s2 55 -22 67l-365 182l369 182c25 12 35 42 23 67c-9 18 -26 28 -45 28z" />
    <glyph glyph-name="percent" unicode="%" horiz-adv-x="915" 
d="M220 400c49 0 95 21 129 59c33 37 51 86 51 137s-18 100 -51 137c-34 38 -80 59 -129 59s-95 -21 -130 -59c-32 -37 -50 -86 -50 -137s18 -100 50 -137c35 -38 81 -59 130 -59zM220 692c44 0 80 -43 80 -96s-36 -96 -80 -96s-80 43 -80 96s36 96 80 96zM695 -3
c49 0 95 21 129 59c33 37 51 86 51 137s-18 100 -51 137c-34 38 -80 59 -129 59s-95 -21 -129 -59c-33 -37 -51 -86 -51 -137s18 -100 51 -137c34 -38 80 -59 129 -59zM695 289c44 0 80 -43 80 -96s-36 -96 -80 -96s-80 43 -80 96s36 96 80 96zM209 1c15 0 30 7 40 21
l501 685c16 22 11 53 -11 70c-23 16 -54 11 -70 -11l-500 -685c-17 -23 -12 -54 10 -70c9 -7 20 -10 30 -10z" />
    <glyph glyph-name="plus" unicode="+" horiz-adv-x="642" 
d="M552 431c28 0 50 -23 50 -50c0 -28 -22 -50 -50 -50h-181v-173c0 -28 -22 -50 -50 -50c-27 0 -50 22 -50 50v173h-181c-28 0 -50 22 -50 50c0 27 22 50 50 50h181v172v4c0 28 23 50 50 50c28 0 50 -22 50 -50v-4v-172h181z" />
    <glyph glyph-name="at" unicode="@" horiz-adv-x="981" 
d="M906 522c23 -55 35 -114 35 -175c0 -34 -3 -67 -10 -99c-9 -40 -30 -75 -60 -101c-27 -25 -62 -40 -99 -46c-37 -5 -74 0 -108 15c-20 10 -38 23 -54 39c-36 -22 -76 -34 -119 -34c-61 0 -117 23 -160 66s-66 99 -66 160c0 60 23 117 66 160c43 42 99 66 160 66
c60 0 117 -24 160 -66c42 -43 66 -100 66 -160c0 -44 -13 -86 -36 -122c7 -8 16 -13 25 -18c16 -7 34 -9 52 -7c18 3 34 10 47 22c14 12 24 28 28 48c5 25 8 51 8 77c0 93 -36 181 -102 248c-67 66 -155 102 -248 102c-94 0 -182 -36 -248 -102c-66 -67 -103 -155 -103 -248
c0 -94 37 -182 103 -248s154 -103 248 -103c38 0 75 6 111 18c26 9 54 -5 63 -31c9 -27 -5 -55 -32 -64c-45 -15 -93 -23 -142 -23c-61 0 -120 12 -176 36c-53 22 -101 55 -143 96c-41 42 -74 90 -96 143c-24 56 -36 115 -36 176s12 120 36 175c22 54 55 102 96 143
c42 42 90 74 143 97c56 23 115 35 176 35s120 -12 175 -35c54 -23 102 -55 143 -97c42 -41 74 -89 97 -143zM365 347c0 -70 56 -126 126 -126c69 0 126 56 126 126c0 69 -57 126 -126 126c-70 0 -126 -57 -126 -126z" />
    <glyph glyph-name="ampersand" unicode="&#x26;" horiz-adv-x="730" 
d="M286 -9h6h3h1c48 0 104 17 156 47c26 16 51 35 75 56l76 -79c20 -19 51 -20 71 -1c20 20 21 51 1 71l-81 84c11 16 23 32 33 50l1 1l55 94c13 24 5 55 -19 69c-23 14 -54 5 -68 -18l-55 -95c-6 -10 -12 -19 -18 -28l-152 157c28 14 71 36 108 66c56 44 84 93 84 145
c0 60 -26 111 -74 146c-39 27 -91 42 -147 42c-27 0 -54 -5 -79 -16c-24 -10 -46 -25 -65 -43c-39 -37 -62 -87 -62 -136c0 -24 4 -48 12 -73c11 -36 30 -70 54 -99c-21 -11 -43 -25 -63 -41c-30 -24 -53 -50 -69 -79c-20 -35 -30 -73 -30 -115c0 -58 19 -105 54 -141
c29 -28 68 -47 116 -57c31 -6 59 -7 76 -7zM274 355l183 -189c-18 -16 -36 -30 -56 -41c-53 -31 -93 -34 -105 -34h-4c-12 0 -36 0 -62 5c-29 6 -51 16 -65 30c-17 17 -25 40 -25 70c0 45 20 83 61 116c23 18 49 32 73 43zM342 698c35 0 67 -9 89 -24c22 -16 32 -36 32 -64
c0 -25 -25 -50 -46 -67c-32 -25 -70 -45 -96 -58c-7 -3 -14 -7 -19 -9c-1 -1 -2 -1 -3 -2l-9 9c-22 22 -38 49 -46 77c-5 15 -8 30 -8 43c0 22 12 46 31 64c21 20 48 31 75 31z" />
    <glyph glyph-name="copyright" unicode="&#xa9;" horiz-adv-x="975" 
d="M493 113c45 0 89 13 126 39c23 15 29 46 13 69c-15 23 -46 29 -69 14c-21 -15 -45 -22 -70 -22c-70 0 -126 57 -126 126s56 126 126 126c22 0 43 -6 62 -17c24 -13 55 -5 69 19c13 24 5 54 -19 68c-34 20 -73 30 -112 30c-61 0 -118 -23 -160 -66
c-43 -43 -66 -100 -66 -160s23 -117 66 -160c42 -42 99 -66 160 -66zM488 -111c60 0 119 12 174 35c53 23 101 56 142 98c41 41 73 90 96 144c23 56 35 115 35 176s-12 121 -35 176c-23 54 -55 103 -96 145c-41 41 -89 74 -142 97c-55 24 -114 36 -174 36
c-61 0 -120 -12 -175 -36c-53 -23 -101 -56 -142 -97c-41 -42 -73 -91 -96 -145c-23 -55 -35 -115 -35 -176s12 -120 35 -176c23 -54 55 -103 96 -144c41 -42 89 -75 142 -98c55 -23 114 -35 175 -35zM488 696c92 0 179 -37 245 -104c66 -66 102 -155 102 -250
c0 -94 -36 -183 -102 -250s-153 -103 -245 -103c-93 0 -180 36 -246 103c-65 67 -102 156 -102 250c0 95 37 184 102 250c66 67 153 104 246 104z" />
    <glyph glyph-name="asciicircum" unicode="^" horiz-adv-x="445" 
d="M90 544c14 0 28 6 38 17l94 106l96 -106c18 -21 50 -22 70 -4c21 19 22 50 4 71l-132 147c-10 11 -23 17 -38 17c-14 0 -27 -6 -37 -17l-132 -147c-18 -21 -17 -52 4 -71c9 -8 21 -13 33 -13z" />
    <glyph glyph-name="ampersand.ss01" horiz-adv-x="750" 
d="M660 450c27 0 50 -22 50 -50c0 -27 -23 -50 -50 -50h-68v-87c0 -128 -67 -191 -123 -221c-60 -32 -126 -37 -160 -37h-1c-21 0 -82 1 -140 23c-82 33 -128 98 -128 184c0 50 10 94 30 129c13 23 30 43 51 59c-8 6 -15 12 -22 19c-27 30 -45 68 -54 111c-5 27 -5 49 -4 55
c0 62 23 113 67 148c50 39 124 56 221 51c68 -3 122 -17 125 -17c26 -7 43 -34 36 -61s-34 -43 -60 -36c-1 0 -49 11 -108 14c-69 4 -123 -7 -152 -30c-13 -10 -29 -28 -29 -70c0 -1 0 -2 -1 -3c0 -4 -1 -58 33 -94c23 -24 60 -37 109 -37h210v61c0 28 22 50 50 50
c27 0 50 -22 50 -50v-61h68zM492 263v87h-193c-111 0 -159 -41 -159 -138c0 -45 20 -73 64 -90c42 -17 89 -17 104 -17h1c25 0 72 4 113 25c47 26 70 69 70 133z" />
    </font>
</defs>
</svg>
