<?xml version="1.0" standalone="no"?>
<!DOCTYPE svg PUBLIC "-//W3C//DTD SVG 1.1//EN" "http://www.w3.org/Graphics/SVG/1.1/DTD/svg11.dtd" >
<svg xmlns="http://www.w3.org/2000/svg" xmlns:xlink="http://www.w3.org/1999/xlink" version="1.1">
<metadata>
Created by FontForge 20170910 at Sun Feb  7 23:25:43 2016
 By Jimmy Wärting
</metadata>
<defs>
<font id="Elianto-Regular" horiz-adv-x="833" >
  <font-face 
    font-family="Elianto"
    font-weight="400"
    font-stretch="normal"
    units-per-em="1000"
    panose-1="0 0 0 0 0 0 0 0 0 0"
    ascent="750"
    descent="-250"
    x-height="527"
    cap-height="733"
    bbox="-8 -306 1010 942"
    underline-thickness="50"
    underline-position="-100"
    stemh="90"
    stemv="90"
    unicode-range="U+000D-2212"
  />
<missing-glyph horiz-adv-x="500" 
 />
    <glyph glyph-name=".notdef" horiz-adv-x="500" 
 />
    <glyph glyph-name="B" unicode="B" horiz-adv-x="696" 
d="M487 438c93 -27 161 -113 161 -214c0 -124 -100 -224 -223 -224h-375v733h324c93 0 169 -76 169 -169c0 -50 -22 -95 -56 -126zM173 623v-119h173c33 0 59 27 59 60c0 32 -26 59 -59 59h-173zM396 121c62 0 113 50 113 112s-51 112 -113 112v0v0h-224v-224h224v0v0z" />
    <glyph glyph-name="C" unicode="C" horiz-adv-x="728" 
d="M588 196l89 -89c-67 -66 -158 -107 -259 -107c-203 0 -367 164 -367 366c0 203 164 367 367 367c101 0 193 -41 259 -108l-89 -89c-44 44 -104 71 -170 71c-133 0 -241 -108 -241 -241c0 -132 108 -240 241 -240c66 0 126 27 170 70zM475 366c0 33 -26 59 -58 59
s-59 -26 -59 -59c0 -32 27 -58 59 -58s58 26 58 58z" />
    <glyph glyph-name="D" unicode="D" horiz-adv-x="680" 
d="M340 733c147 0 291 -130 291 -407c0 -278 -148 -326 -291 -326h-289v733h289zM461 155c41 35 50 113 50 173c0 123 -34 190 -63 226s-66 55 -108 55h-169v-485h169c57 0 97 10 121 31z" />
    <glyph glyph-name="E" unicode="E" horiz-adv-x="649" 
d="M601 733v-124h-426v-272h284l-24 -124h-260v-89h426v-124h-550v0v124v89v124v272v62v62h550z" />
    <glyph glyph-name="F" unicode="F" horiz-adv-x="649" 
d="M51 733h550v-124h-427v-272h286l-24 -124h-262v-213h-123v213v124v272v62v62z" />
    <glyph glyph-name="G" unicode="G" 
d="M659 366h125c0 -202 -164 -366 -366 -366s-367 164 -367 366c0 203 165 367 367 367c110 0 208 -49 276 -125l-90 -90c-44 54 -111 89 -186 89c-133 0 -241 -108 -241 -241s108 -241 241 -241c93 0 174 53 214 131h-170l-19 110h189h27z" />
    <glyph glyph-name="H" unicode="H" horiz-adv-x="648" 
d="M476 733h123v-733h-123v733zM439 337l-24 -123h-241v-214h-123v214v123v396h123v-396h265z" />
    <glyph glyph-name="O" unicode="O" horiz-adv-x="832" 
d="M417 733c202 0 366 -164 366 -367c0 -202 -164 -366 -366 -366s-367 164 -367 366c0 203 165 367 367 367zM658 366c0 133 -108 241 -241 241s-241 -108 -241 -241s108 -241 241 -241s241 108 241 241zM476 366c0 33 -27 59 -59 59s-59 -26 -59 -59c0 -32 27 -58 59 -58
s59 26 59 58z" />
    <glyph glyph-name="I" unicode="I" horiz-adv-x="225" 
d="M51 0v733h124v-733h-124z" />
    <glyph glyph-name="J" unicode="J" horiz-adv-x="564" 
d="M401 733h113v-492c0 -128 -95 -241 -240 -241c-111 0 -193 65 -226 152l101 55c18 -62 83 -94 125 -94c58 0 127 47 127 128v492z" />
    <glyph glyph-name="K" unicode="K" horiz-adv-x="670" 
d="M195 210v0l-21 -28v-182h-123v733h123v-342l253 342h153l-249 -339v0zM349 369l272 -369h-153l-196 265z" />
    <glyph glyph-name="L" unicode="L" horiz-adv-x="661" 
d="M586 124l25 -124h-436v0h-124v733h124v-609h411z" />
    <glyph glyph-name="M" unicode="M" 
d="M164 0h-113l92 733l221 -371l118 -199l-65 -108l-96 160l-107 182zM504 199l-65 109l256 425l90 -733h-113l-48 398l-111 -183z" />
    <glyph glyph-name="N" unicode="N" horiz-adv-x="646" 
d="M451 318v-167l-289 299v-450h-111v733zM486 733h111v-733l-111 115v168v0v450z" />
    <glyph glyph-name="P" unicode="P" horiz-adv-x="665" 
d="M345 733c150 0 272 -122 272 -273c0 -150 -122 -272 -272 -272v0h-124l-24 123h148c82 0 149 67 149 149s-67 149 -149 149v0h-171v-609h-123v609v62v62h294z" />
    <glyph glyph-name="Q" unicode="Q" 
d="M779 366c0 -92 -34 -177 -91 -242l91 -124h-153l-35 46c-52 -29 -113 -46 -178 -46c-202 0 -367 164 -367 366c0 203 165 367 367 367s366 -164 366 -367zM413 125c133 0 241 108 241 241s-108 241 -241 241s-241 -108 -241 -241s108 -241 241 -241zM472 366
c0 33 -27 59 -59 59s-59 -26 -59 -59c0 -32 27 -58 59 -58s59 26 59 58z" />
    <glyph glyph-name="R" unicode="R" horiz-adv-x="667" 
d="M617 460c0 -111 -67 -207 -163 -250l154 -210h-153l-138 188h-97l-25 123h150c82 0 149 67 149 149s-67 149 -149 149v0h-171v-609h-123v609v62v62h294c150 0 272 -122 272 -273z" />
    <glyph glyph-name="S" unicode="S" horiz-adv-x="710" 
d="M578 381c53 -32 83 -80 83 -136c0 -102 -95 -245 -305 -245c-193 0 -288 120 -303 219l121 23c2 -29 35 -120 182 -120c151 0 182 97 182 123c0 29 -57 61 -182 61c-283 0 -305 140 -305 183c0 101 95 244 305 244c193 0 288 -120 303 -218l-121 -24
c-2 29 -35 119 -182 119c-150 0 -182 -97 -182 -121c0 -25 48 -61 182 -61c96 0 170 -16 222 -47z" />
    <glyph glyph-name="T" unicode="T" 
d="M784 609h-734v124h734v-124zM355 582l124 -24v-558h-124v582z" />
    <glyph glyph-name="U" unicode="U" horiz-adv-x="668" 
d="M334 0c-94 0 -167 25 -217 74c-42 42 -66 101 -66 166v493h123v-493c0 -77 55 -118 160 -118s162 43 162 120v491h123v-491c0 -112 -75 -242 -285 -242z" />
    <glyph glyph-name="V" unicode="V" horiz-adv-x="649" 
d="M405 212l-59 161l135 360h120zM326 320l59 -161l-59 -159l-275 733h120l155 -414v1z" />
    <glyph glyph-name="W" unicode="W" horiz-adv-x="916" 
d="M679 212l-59 161l135 360h119zM600 320l59 -161l-60 -159l-137 366l-137 -366l-275 733h119l156 -414l77 207l-77 207h119l18 -47l60 -160l77 -207z" />
    <glyph glyph-name="X" unicode="X" horiz-adv-x="665" 
d="M406 366l211 -366h-143l-140 242l-140 -242h-143l211 366l-211 367h143l140 -242l140 242h143z" />
    <glyph glyph-name="Y" unicode="Y" horiz-adv-x="665" 
d="M616 733l-211 -366l-10 -17v-350h-124v350l-10 17l-211 366h143l140 -242l140 242h143z" />
    <glyph glyph-name="Z" unicode="Z" horiz-adv-x="652" 
d="M308 443l134 166h-391v124h550v-124v0l-214 -265zM344 290l-134 -166h391v-124h-550v124v0l213 265z" />
    <glyph glyph-name="zero" unicode="0" horiz-adv-x="646" 
d="M382 364c0 32 -26 58 -58 58s-58 -26 -58 -58s26 -58 58 -58s58 26 58 58zM324 733c151 0 273 -164 273 -367c0 -202 -122 -366 -273 -366s-273 164 -273 366c0 203 122 367 273 367zM432 171c37 50 59 121 59 195c0 75 -22 146 -59 196c-18 24 -56 65 -108 65
s-90 -41 -108 -65c-38 -50 -59 -121 -59 -196c0 -74 21 -145 59 -195c18 -24 56 -65 108 -65s90 41 108 65z" />
    <glyph glyph-name="one" unicode="1" horiz-adv-x="274" 
d="M224 0h-122v550h-52l52 183h122v-733z" />
    <glyph glyph-name="two" unicode="2" horiz-adv-x="649" 
d="M285 122h316v-122h-550v123c157 80 390 246 390 373c0 12 -4 115 -133 115c-47 0 -82 -14 -106 -41c-26 -29 -28 -64 -28 -74h-122c0 118 88 237 256 237s255 -119 255 -237c0 -147 -147 -282 -278 -374z" />
    <glyph glyph-name="three" unicode="3" horiz-adv-x="645" 
d="M397 543c117 -35 198 -142 198 -266c0 -153 -125 -277 -278 -277c-93 0 -180 47 -231 125c-16 23 -27 48 -35 75l-2 6l104 103l-1 -25v-7c0 -27 6 -52 18 -75c28 -56 85 -91 148 -91c91 0 165 74 165 166c0 89 -70 162 -159 165l-2 1l-85 56l83 125h-241v109h444z" />
    <glyph glyph-name="four" unicode="4" horiz-adv-x="719" 
d="M585 0h-114v83h-425l539 650v-536h85v-114h-85v-83zM289 197h182v220z" />
    <glyph glyph-name="five" unicode="5" horiz-adv-x="639" 
d="M308 559c154 0 280 -125 280 -279c0 -155 -126 -280 -280 -280c-116 0 -215 71 -258 171l85 85c11 -86 85 -152 173 -152c97 0 176 78 176 175s-79 175 -176 175c-22 0 -42 -4 -62 -11l-1 -1h-110v57v234h374v-111h-263v-70c20 5 41 7 62 7z" />
    <glyph glyph-name="six" unicode="6" horiz-adv-x="652" 
d="M387 277c0 32 -26 58 -59 58c-32 0 -58 -26 -58 -58c0 -33 26 -59 58 -59c33 0 59 26 59 59zM346 554c145 -10 259 -130 259 -277c0 -153 -124 -277 -277 -277s-277 124 -277 277c0 69 25 131 66 179l224 277h151zM328 103c96 0 174 78 174 174s-78 174 -174 174
c-30 0 -58 -8 -83 -22c-18 -9 -34 -23 -48 -38c-26 -31 -43 -71 -43 -114c0 -96 78 -174 174 -174z" />
    <glyph glyph-name="seven" unicode="7" horiz-adv-x="655" 
d="M473 733h133l-72 -124l-140 -243l-71 -124l-140 -242h-133l211 366l72 125l74 128h-357v114h423z" />
    <glyph glyph-name="eight" unicode="8" horiz-adv-x="578" 
d="M409 443c73 -43 118 -120 118 -205c0 -131 -107 -238 -238 -238s-238 107 -238 238c0 85 45 162 118 205c-32 32 -50 75 -50 120c0 94 76 170 170 170s170 -76 170 -170c0 -45 -18 -88 -50 -120zM289 377c-77 0 -140 -63 -140 -140s63 -139 140 -139s140 62 140 139
s-63 140 -140 140zM289 484c43 0 79 35 79 79c0 43 -36 78 -79 78s-79 -35 -79 -78c0 -44 36 -79 79 -79z" />
    <glyph glyph-name="nine" unicode="9" horiz-adv-x="652" 
d="M386 456c0 32 -26 59 -58 59c-33 0 -59 -27 -59 -59s26 -58 59 -58c32 0 58 26 58 58zM309 179c-144 10 -258 130 -258 277c0 153 124 277 277 277s277 -124 277 -277c0 -69 -25 -131 -66 -180l-224 -276h-151zM328 630c-96 0 -174 -78 -174 -174s78 -174 174 -174
c30 0 58 8 82 21c19 10 35 24 49 39c26 31 42 71 42 114c0 96 -77 174 -173 174z" />
    <glyph glyph-name="a" unicode="a" horiz-adv-x="630" 
d="M488 527h90v-527h-90v65c-46 -40 -107 -65 -173 -65c-146 0 -264 118 -264 263c0 146 118 264 264 264c66 0 127 -25 173 -65v65zM315 90c96 0 173 77 173 173c0 95 -77 173 -173 173c-95 0 -173 -78 -173 -173c0 -96 78 -173 173 -173z" />
    <glyph glyph-name="b" unicode="b" horiz-adv-x="623" 
d="M313 527c145 0 263 -118 263 -264c0 -145 -118 -263 -263 -263c-66 0 -127 25 -173 65v-65h-90v772h90v-310c46 40 107 65 173 65zM313 90c96 0 173 77 173 173c0 95 -77 173 -173 173c-95 0 -173 -78 -173 -173c0 -96 78 -173 173 -173z" />
    <glyph glyph-name="c" unicode="c" horiz-adv-x="603" 
d="M464 178l88 -27c-42 -89 -133 -151 -239 -151c-145 0 -263 118 -263 263c0 146 118 264 263 264c106 0 197 -62 239 -151l-88 -27c-30 52 -86 87 -150 87c-96 0 -173 -78 -173 -173c0 -96 77 -173 173 -173c64 0 120 35 150 88z" />
    <glyph glyph-name="d" unicode="d" horiz-adv-x="626" 
d="M487 773h90v-773h-90v65c-46 -40 -107 -65 -173 -65c-145 0 -263 118 -263 263c0 146 118 264 263 264c66 0 127 -25 173 -65v311zM314 90c96 0 173 77 173 173c0 95 -77 173 -173 173c-95 0 -173 -78 -173 -173c0 -96 78 -173 173 -173z" />
    <glyph glyph-name="e" unicode="e" horiz-adv-x="629" 
d="M453 160l90 -27c-45 -79 -131 -133 -229 -133c-146 0 -264 118 -264 263c0 146 118 264 264 264c145 0 263 -118 263 -264c0 -18 -2 -37 -5 -54h-94h-42h-286c23 -69 88 -119 164 -119c57 0 108 28 139 70zM314 436c-83 0 -153 -59 -169 -137h339
c-17 78 -87 137 -170 137z" />
    <glyph glyph-name="f" unicode="f" horiz-adv-x="290" 
d="M239 683c-18 0 -60 -6 -60 -54v-102h60v-90h-60v-437h-90v437h-38v90h38v102c0 106 90 144 150 144v-90z" />
    <glyph glyph-name="g" unicode="g" horiz-adv-x="629" 
d="M517 -59c38 -29 55 -73 57 -106v-2c0 -6 -1 -37 -19 -69c-7 -12 -19 -29 -38 -42c-20 -15 -49 -27 -89 -28h-4h-223c-54 0 -88 22 -106 41c-43 45 -42 108 -42 115l90 -3c-1 -9 2 -35 17 -50c9 -9 22 -13 41 -13h223h4c46 1 55 30 56 48c-3 39 -37 47 -56 48h-6h-218
c-111 0 -151 90 -151 151c0 5 0 57 34 99c-23 39 -36 84 -36 133c0 145 118 263 263 263c54 0 105 -16 147 -44c31 32 76 45 111 45v-90c-11 0 -33 -3 -47 -17l1 -1c32 -44 51 -98 51 -156c0 -63 -22 -122 -60 -167c-24 -30 -54 -54 -89 -71c-35 -16 -73 -25 -114 -25
c-63 0 -120 22 -166 58c-5 -13 -5 -26 -5 -26c0 -19 7 -62 61 -62h218h6c38 -1 67 -13 89 -29zM314 436c-95 0 -173 -78 -173 -173c0 -32 9 -61 23 -86c10 -18 23 -34 39 -47c30 -25 69 -40 111 -40c44 0 83 16 114 42c36 32 59 79 59 131c0 51 -23 98 -59 129
c-30 27 -70 44 -114 44z" />
    <glyph glyph-name="h" unicode="h" horiz-adv-x="559" 
d="M279 525c109 0 232 -108 232 -253v-272h-89v272c0 91 -79 164 -143 164c-78 0 -138 -85 -140 -159v-277h-90v773h90v-304c38 34 86 56 140 56z" />
    <glyph glyph-name="i" unicode="i" horiz-adv-x="190" 
d="M51 0v527h90v-527h-90zM140 609c0 -25 -20 -45 -44 -45s-44 20 -44 45c0 24 20 44 44 44s44 -20 44 -44z" />
    <glyph glyph-name="j" unicode="j" horiz-adv-x="188" 
d="M51 527h89v-611c0 -105 -89 -143 -148 -143v89c17 0 59 6 59 54v611zM139 608c0 -24 -19 -44 -44 -44c-24 0 -44 20 -44 44s20 44 44 44c25 0 44 -20 44 -44z" />
    <glyph glyph-name="k" unicode="k" horiz-adv-x="459" 
d="M306 0l-141 237l-24 -33v-204h-90v527h90v-171l127 171h111l-156 -212l188 -315h-105z" />
    <glyph glyph-name="l" unicode="l" horiz-adv-x="190" 
d="M51 0v773h90v-773h-90z" />
    <glyph glyph-name="m" unicode="m" 
d="M592 527c128 0 215 -124 215 -240v-287h-91v287c0 71 -51 150 -124 150c-71 0 -126 -78 -126 -145v-5v-287h-90v287c0 71 -51 150 -124 150c-71 0 -126 -78 -126 -145v-292h-91v292c0 111 89 235 217 235c72 0 132 -40 169 -96c38 56 98 96 171 96z" />
    <glyph glyph-name="n" unicode="n" horiz-adv-x="530" 
d="M481 0h-90v287c0 71 -51 150 -124 150c-71 0 -126 -78 -126 -145v-292h-90v292c0 111 88 235 216 235s214 -124 214 -240v-287z" />
    <glyph glyph-name="o" unicode="o" horiz-adv-x="625" 
d="M315 527c145 0 263 -118 263 -264c0 -145 -118 -263 -263 -263c-146 0 -264 118 -264 263c0 146 118 264 264 264zM488 263c0 95 -77 173 -173 173c-95 0 -173 -78 -173 -173c0 -96 78 -173 173 -173c96 0 173 77 173 173z" />
    <glyph glyph-name="p" unicode="p" horiz-adv-x="623" 
d="M313 527c145 0 262 -117 262 -262s-117 -262 -262 -262c-66 0 -126 25 -172 65v-295h-90v754h90v-65c46 40 106 65 172 65zM313 92c95 0 172 78 172 173c0 94 -77 172 -172 172s-172 -78 -172 -172c0 -95 77 -173 172 -173z" />
    <glyph glyph-name="q" unicode="q" horiz-adv-x="625" 
d="M51 265c0 145 117 262 262 262c66 0 126 -25 172 -65v65h90v-754h-90v295c-46 -40 -106 -65 -172 -65c-145 0 -262 117 -262 262zM141 265c0 -95 77 -173 172 -173s172 78 172 173c0 94 -77 172 -172 172s-172 -78 -172 -172z" />
    <glyph glyph-name="r" unicode="r" horiz-adv-x="380" 
d="M291 489c18 -18 39 -49 39 -102h-90c0 16 -4 29 -11 36c-11 11 -29 13 -35 13c-19 -1 -50 -7 -54 -43v-100v0v-293h-90v293v92v142h90v-11c18 7 36 10 52 10c10 0 61 -1 99 -37z" />
    <glyph glyph-name="s" unicode="s" horiz-adv-x="449" 
d="M253 301c59 -24 149 -49 149 -159c0 -87 -60 -142 -176 -142c-103 0 -162 35 -173 105l88 26c0 -23 7 -41 85 -41c79 0 85 29 85 52c0 45 -26 49 -92 75l-21 9c-59 23 -148 48 -148 158c0 87 60 143 177 143c103 0 161 -35 172 -104l-88 -27c0 25 -7 41 -84 41
c-80 0 -86 -30 -86 -53c0 -45 26 -48 91 -75z" />
    <glyph glyph-name="t" unicode="t" horiz-adv-x="338" 
d="M287 617v-90h-73v-527h-90v527h-73v90h73v156h90v-156h73z" />
    <glyph glyph-name="u" unicode="u" horiz-adv-x="528" 
d="M479 527v-287c0 -116 -86 -240 -214 -240s-216 124 -216 235v292h90v-292c0 -67 55 -145 126 -145c73 0 124 79 124 150v287h90z" />
    <glyph glyph-name="v" unicode="v" horiz-adv-x="565" 
d="M282 241l127 286h107l-234 -527l-232 527h107z" />
    <glyph glyph-name="w" unicode="w" horiz-adv-x="659" 
d="M526 527h83l-182 -527l-98 286l-100 -286l-180 527h83l98 -286l57 166l42 120v0l41 -120l57 -166z" />
    <glyph glyph-name="x" unicode="x" horiz-adv-x="513" 
d="M463 527l-156 -269l149 -258h-105l-96 167l-96 -167h-105l149 258l-156 269h105l103 -179l103 179h105z" />
    <glyph glyph-name="y" unicode="y" horiz-adv-x="520" 
d="M370 527h99l-160 -343l-50 -106l-34 -73l-85 -183l-23 -49h-99l23 49l85 183l84 179l-160 343h99l110 -237z" />
    <glyph glyph-name="z" unicode="z" horiz-adv-x="520" 
d="M468 0l-418 1l255 436h-255v90h418l-255 -436l255 -1v-90z" />
    <glyph glyph-name="bullet" unicode="&#x2022;" horiz-adv-x="183" 
d="M134 263c0 -24 -19 -43 -43 -43s-43 19 -43 43s19 44 43 44s43 -20 43 -44z" />
    <glyph glyph-name="colon" unicode=":" horiz-adv-x="188" 
d="M137 352c0 -24 -19 -43 -43 -43s-43 19 -43 43s19 44 43 44s43 -20 43 -44zM137 45c0 -24 -19 -43 -43 -43s-43 19 -43 43s19 44 43 44s43 -20 43 -44z" />
    <glyph glyph-name="hyphen" unicode="-" horiz-adv-x="301" 
d="M252 244h-201v39h201v-39z" />
    <glyph glyph-name="endash" unicode="&#x2013;" horiz-adv-x="297" 
d="M250 244h-201v39h201v-39z" />
    <glyph glyph-name="emdash" unicode="&#x2014;" horiz-adv-x="438" 
d="M388 244h-338v39h338v-39z" />
    <glyph glyph-name="minus" unicode="&#x2212;" horiz-adv-x="439" 
d="M389 283v-39h-338v39h338z" />
    <glyph glyph-name="exclam" unicode="!" horiz-adv-x="191" 
d="M140 733v-607h-90v607h90zM51 44c0 25 20 45 44 45s44 -20 44 -45c0 -24 -20 -44 -44 -44s-44 20 -44 44z" />
    <glyph glyph-name="quotedbl" unicode="&#x22;" horiz-adv-x="239" 
d="M111 702c0 -17 -31 -73 -31 -73s-31 56 -31 73s14 31 31 31s31 -14 31 -31zM189 702c0 -17 -30 -73 -30 -73s-31 56 -31 73s14 31 31 31s30 -14 30 -31z" />
    <glyph glyph-name="period" unicode="." horiz-adv-x="184" 
d="M136 43c0 -24 -19 -43 -43 -43s-43 19 -43 43s19 44 43 44s43 -20 43 -44z" />
    <glyph glyph-name="comma" unicode="," horiz-adv-x="184" 
d="M136 43c0 0 3 -53 -82 -111c0 0 32 35 24 70c-16 6 -28 22 -28 41c0 24 19 44 43 44s43 -20 43 -44z" />
    <glyph glyph-name="quotedblright" unicode="&#x201d;" horiz-adv-x="287" 
d="M135 689c0 0 4 -53 -82 -111c0 0 33 35 25 70c-17 6 -29 22 -29 41c0 24 19 44 43 44s43 -20 43 -44zM238 689c0 0 4 -53 -82 -111c0 0 33 35 25 70c-17 6 -29 22 -29 41c0 24 19 44 43 44s43 -20 43 -44z" />
    <glyph glyph-name="quotedblleft" unicode="&#x201c;" horiz-adv-x="287" 
d="M152 622c0 0 -3 53 82 111c0 0 -32 -35 -24 -71c17 -6 28 -21 28 -40c0 -24 -19 -44 -43 -44s-43 20 -43 44zM49 622c0 0 -3 53 82 111c0 0 -32 -35 -24 -71c17 -6 28 -21 28 -40c0 -24 -19 -44 -43 -44s-43 20 -43 44z" />
    <glyph glyph-name="quoteright" unicode="&#x2019;" horiz-adv-x="187" 
d="M137 689c0 0 4 -53 -82 -111c0 0 33 35 25 70c-17 6 -29 22 -29 41c0 24 19 44 43 44s43 -20 43 -44z" />
    <glyph glyph-name="quoteleft" unicode="&#x2018;" horiz-adv-x="186" 
d="M50 624c0 0 -4 53 82 111c0 0 -33 -35 -25 -70c17 -6 29 -22 29 -41c0 -24 -19 -44 -43 -44s-43 20 -43 44z" />
    <glyph glyph-name="bar" unicode="|" horiz-adv-x="142" 
d="M51 -228v1001h42v-1001h-42z" />
    <glyph glyph-name="slash" unicode="/" horiz-adv-x="414" 
d="M372 773h45l-375 -911h-46z" />
    <glyph glyph-name="backslash" unicode="\" horiz-adv-x="459" 
d="M79 773l375 -911h-45l-376 911h46z" />
    <glyph glyph-name="quotesingle" unicode="'" horiz-adv-x="162" 
d="M112 702c0 -17 -30 -73 -30 -73s-31 56 -31 73s14 31 31 31s30 -14 30 -31z" />
    <glyph glyph-name="semicolon" unicode=";" horiz-adv-x="184" 
d="M138 352c0 -24 -19 -43 -43 -43s-43 19 -43 43s19 44 43 44s43 -20 43 -44zM136 43c0 0 3 -53 -82 -111c0 0 32 35 24 70c-16 6 -28 22 -28 41c0 24 19 44 43 44s43 -20 43 -44z" />
    <glyph glyph-name="parenleft" unicode="(" horiz-adv-x="233" 
d="M179 -73c0 0 0 1 -1 2s-3 3 -5 6c-3 5 -8 13 -15 23c-6 10 -13 22 -21 37s-16 31 -24 50c-4 9 -8 19 -12 29c-2 5 -4 11 -6 16s-4 11 -5 16c-8 22 -15 46 -21 71c-3 12 -5 25 -7 38c-1 3 -1 7 -2 10c0 2 -1 3 -1 5s0 3 -1 5c0 3 -1 6 -1 10c0 1 0 3 -1 5v5
c-2 13 -3 27 -4 40v10l-1 6v5v10v5v3v1v0v1v0v21c1 6 1 13 1 20c1 7 1 14 2 21v5l1 5c0 3 1 6 1 10c0 3 1 6 1 10c1 3 1 6 2 10c0 3 1 6 1 9c1 4 1 7 2 10c0 3 1 7 2 10c0 3 1 6 2 9v5c1 2 1 3 2 5c0 3 1 6 2 9c5 25 12 49 20 71c4 11 7 22 11 32s8 20 12 29
c9 19 17 36 24 50c8 15 15 27 21 38c7 10 12 17 15 22c2 3 4 5 5 6l1 2l-1 -2c-1 -1 -2 -4 -3 -6c-3 -6 -7 -14 -11 -25c-5 -11 -10 -24 -16 -39c-6 -16 -12 -33 -18 -52c-2 -5 -3 -9 -5 -14c-1 -5 -3 -10 -5 -15c-1 -6 -3 -11 -4 -16c-1 -3 -2 -5 -2 -8c-1 -3 -2 -6 -3 -8
c-5 -22 -11 -46 -15 -70c-1 -3 -1 -6 -2 -9c0 -3 -1 -6 -2 -10c0 -3 -1 -6 -1 -9c-1 -3 -1 -6 -1 -9c-2 -13 -4 -26 -5 -39c0 -3 -1 -6 -1 -9v-5c-1 -2 -1 -3 -1 -5c0 -6 -1 -13 -1 -19c0 -7 -1 -13 -1 -20v-20v-20v-4v-5c1 -4 1 -7 1 -10v-10c1 -3 1 -6 1 -10v-5l1 -4
c0 -4 0 -7 1 -10v-5c0 -2 0 -3 1 -5c0 -3 0 -6 1 -9v-5c1 -2 1 -3 1 -5c0 -3 1 -6 1 -9c0 -2 1 -4 1 -5c0 -2 0 -3 1 -5c0 -3 1 -6 1 -9c1 -6 2 -12 3 -19c5 -24 10 -47 16 -69c3 -11 6 -22 9 -32c3 -11 6 -20 9 -30c7 -19 13 -36 19 -51s11 -29 16 -39c4 -11 8 -19 11 -25
c1 -3 2 -5 3 -7c1 -1 1 -2 1 -2z" />
    <glyph glyph-name="parenright" unicode=")" horiz-adv-x="233" 
d="M52 -73c0 0 0 1 1 2c1 2 2 4 3 7c3 6 7 14 11 25c5 10 10 24 16 39s12 32 19 51c3 10 6 19 9 30c3 10 6 21 9 32c6 22 11 45 16 69c1 7 2 13 3 19c0 3 1 6 1 9c0 2 1 3 1 5c0 1 0 3 1 5c0 3 1 6 1 9c0 2 0 3 1 5v5c0 3 1 6 1 9c0 2 1 3 1 5v5c1 3 1 6 1 10l1 4v5
c0 4 0 7 1 10v10s0 6 1 10v5v4v20v20s-1 13 -1 20c0 6 -1 13 -1 19c0 2 0 3 -1 5v5c0 3 -1 6 -1 9c-1 13 -3 26 -5 39c0 3 -1 6 -1 9c-1 3 -1 6 -2 9c0 4 -1 7 -1 10c-1 3 -1 6 -2 9c-4 24 -10 48 -16 70c0 2 -1 5 -2 8c0 3 -1 5 -2 8c-1 5 -3 10 -5 16c-1 5 -3 10 -4 15
c-2 5 -3 9 -5 14c-6 19 -12 36 -18 52c-6 15 -11 28 -16 39s-8 19 -11 25c-1 2 -2 5 -3 6l-1 2l1 -2c1 -1 3 -3 5 -6c3 -5 8 -12 14 -22c7 -11 14 -23 22 -38c7 -14 15 -31 23 -50c5 -9 9 -19 13 -29c3 -10 7 -21 11 -32c8 -22 14 -46 20 -71c1 -3 2 -6 2 -9c1 -2 1 -3 1 -5
c1 -1 1 -3 1 -5c1 -3 2 -6 2 -9c1 -3 2 -7 2 -10c1 -3 1 -6 2 -10c0 -3 1 -6 1 -9c1 -4 1 -7 2 -10c0 -4 1 -7 1 -10c0 -4 1 -7 1 -10l1 -5v-5c1 -7 1 -14 2 -21c0 -7 0 -14 1 -20v-21v0v-1v0v-1v-3v-5v-10v-5l-1 -6v-10c-1 -13 -2 -27 -4 -40v-5c-1 -2 -1 -4 -1 -5
c-1 -4 -1 -7 -2 -10v-5c-1 -2 -1 -3 -1 -5c-1 -3 -1 -7 -2 -10c-2 -13 -5 -26 -8 -38c-5 -25 -12 -49 -20 -71c-1 -5 -3 -11 -5 -16s-4 -11 -6 -16c-4 -10 -8 -20 -12 -29c-8 -19 -17 -35 -24 -50c-8 -15 -15 -27 -21 -37c-7 -10 -12 -18 -15 -23c-2 -3 -4 -5 -5 -6
s-1 -2 -1 -2z" />
    <glyph glyph-name="less" unicode="&#x3c;" horiz-adv-x="414" 
d="M356 527l-257 -259l266 -268h-50l-266 268l257 259h50z" />
    <glyph glyph-name="greater" unicode="&#x3e;" horiz-adv-x="416" 
d="M60 527h50l257 -259l-266 -268h-50l266 268z" />
    <glyph glyph-name="copyright" unicode="&#xa9;" horiz-adv-x="472" 
d="M303 303l38 -11c-18 -39 -58 -66 -104 -66c-63 0 -114 51 -114 115c0 63 51 115 114 115c46 0 86 -27 104 -66l-38 -12c-13 23 -37 38 -65 38c-42 0 -76 -34 -76 -75c0 -42 34 -76 76 -76c28 0 52 16 65 38zM237 155c-103 0 -186 83 -186 186c0 102 83 186 186 186
s186 -84 186 -186c0 -103 -83 -186 -186 -186zM237 490c-82 0 -149 -67 -149 -149s67 -149 149 -149s149 67 149 149s-67 149 -149 149z" />
    <glyph glyph-name="registered" unicode="&#xae;" horiz-adv-x="471" 
d="M235 155c-102 0 -186 83 -186 186c0 102 84 186 186 186c103 0 187 -84 187 -186c0 -103 -84 -186 -187 -186zM235 490c-82 0 -148 -67 -148 -149s66 -149 148 -149c83 0 149 67 149 149s-66 149 -149 149zM326 370c0 -33 -20 -62 -49 -74l46 -63h-46l-41 56h-28l-8 37
h45c24 0 44 19 44 44c0 24 -20 44 -44 44v0h-51v-181h-37v181v18v19h88c44 0 81 -37 81 -81z" />
    <glyph glyph-name="Euro" unicode="&#x20ac;" horiz-adv-x="726" 
d="M438 117c61 0 117 25 158 65l82 -82c-61 -62 -146 -100 -240 -100c-137 0 -255 81 -309 198h-78v114h49c-1 9 -2 19 -2 28s1 18 2 27h-49v115h79c53 117 171 198 308 198c94 0 179 -39 240 -100l-82 -83c-41 41 -97 66 -158 66c-69 0 -130 -32 -171 -81h257l-22 -115
h-285c-1 -9 -2 -18 -2 -27c0 -10 1 -19 2 -28h307l-22 -114h-235c41 -50 102 -81 171 -81z" />
    <glyph glyph-name="ydieresis" unicode="&#xff;" horiz-adv-x="520" 
d="M200 610c0 -25 -19 -45 -44 -45c-24 0 -44 20 -44 45c0 24 20 44 44 44c25 0 44 -20 44 -44zM410 610c0 -25 -20 -45 -44 -45c-25 0 -44 20 -44 45c0 24 19 44 44 44c24 0 44 -20 44 -44zM370 527h99l-160 -343l-50 -106l-34 -73l-85 -183l-23 -49h-99l23 49l85 183
l84 179l-160 343h99l110 -237z" />
    <glyph glyph-name="divide" unicode="&#xf7;" horiz-adv-x="432" 
d="M258 352c0 -24 -19 -43 -43 -43s-43 19 -43 43s19 44 43 44s43 -20 43 -44zM258 45c0 -24 -19 -43 -43 -43s-43 19 -43 43s19 44 43 44s43 -20 43 -44zM381 219v-39h-338v39h338z" />
    <glyph glyph-name="currency" unicode="&#xa4;" horiz-adv-x="475" 
d="M392 341c0 -39 -14 -74 -37 -102l62 -85h-94l-30 41c-18 -7 -37 -11 -57 -11s-39 4 -57 11l-30 -41h-94l62 85c-23 27 -38 63 -38 102c0 37 13 71 35 98l-65 88h94l31 -42c19 8 40 12 62 12s43 -4 62 -12l31 42h94l-65 -88c21 -27 34 -61 34 -98zM259 241
c26 6 48 21 63 43c10 16 17 36 17 57c0 19 -6 36 -15 52c-13 22 -34 39 -60 46c-9 3 -18 4 -28 4s-19 -1 -29 -4c-25 -7 -46 -24 -60 -46c-9 -16 -14 -33 -14 -52c0 -21 6 -41 17 -57c14 -22 37 -37 63 -43c7 -2 15 -3 23 -3s16 1 23 3z" />
    <glyph glyph-name="agrave" unicode="&#xe0;" horiz-adv-x="625" 
d="M485 527h90v-527h-90v65c-46 -40 -107 -65 -173 -65c-145 0 -263 118 -263 263c0 146 118 264 263 264c66 0 127 -25 173 -66v66zM312 90c96 0 173 77 173 173c0 95 -77 173 -173 173c-95 0 -173 -78 -173 -173c0 -96 78 -173 173 -173zM438 574l-270 101l38 81l250 -144
z" />
    <glyph glyph-name="egrave" unicode="&#xe8;" horiz-adv-x="626" 
d="M440 574l-270 101l38 81l250 -144zM453 160l90 -27c-45 -79 -131 -133 -229 -133c-146 0 -264 118 -264 263c0 146 118 264 264 264c145 0 263 -118 263 -264c0 -18 -2 -37 -5 -54h-94h-42h-286c23 -69 88 -119 164 -119c57 0 108 28 139 70zM314 436
c-83 0 -153 -59 -169 -137h339c-17 78 -87 137 -170 137z" />
    <glyph glyph-name="igrave" unicode="&#xec;" horiz-adv-x="387" 
d="M319 574l-270 101l38 81l250 -144zM148 0v527h90v-527h-90z" />
    <glyph glyph-name="ograve" unicode="&#xf2;" horiz-adv-x="625" 
d="M438 574l-270 101l38 81l250 -144zM312 527v0c145 0 263 -118 263 -264c0 -145 -118 -263 -263 -263c-146 0 -264 118 -264 263c0 146 118 264 264 264zM485 263c0 95 -77 173 -173 173c-95 0 -173 -78 -173 -173c0 -96 78 -173 173 -173c96 0 173 77 173 173z" />
    <glyph glyph-name="ugrave" unicode="&#xf9;" horiz-adv-x="530" 
d="M391 574l-270 101l38 81l250 -144zM480 527v-287c0 -116 -86 -240 -214 -240s-216 124 -216 235v292h90v-292c0 -67 55 -145 126 -145c73 0 124 79 124 150v287h90z" />
    <glyph glyph-name="aacute" unicode="&#xe1;" horiz-adv-x="625" 
d="M486 535h90v-527h-90v65c-46 -40 -107 -65 -173 -65c-145 0 -263 118 -263 263c0 146 118 264 263 264c66 0 127 -25 173 -66v66zM313 98c96 0 173 77 173 173c0 95 -77 173 -173 173c-95 0 -173 -78 -173 -173c0 -96 78 -173 173 -173zM187 582l-18 38l250 144l38 -81z
" />
    <glyph glyph-name="eacute" unicode="&#xe9;" horiz-adv-x="626" 
d="M188 574l-18 38l250 144l38 -81zM453 160l90 -27c-45 -79 -131 -133 -229 -133c-146 0 -264 118 -264 263c0 146 118 264 264 264c145 0 263 -118 263 -264c0 -18 -2 -37 -5 -54h-94h-42h-286c23 -69 88 -119 164 -119c57 0 108 28 139 70zM314 436
c-83 0 -153 -59 -169 -137h339c-17 78 -87 137 -170 137z" />
    <glyph glyph-name="iacute" unicode="&#xed;" horiz-adv-x="387" 
d="M148 0h90v527h-90v-527zM67 574l-18 38l250 144l38 -81z" />
    <glyph glyph-name="oacute" unicode="&#xf3;" horiz-adv-x="626" 
d="M314 527c145 0 263 -118 263 -264c0 -145 -118 -263 -263 -263c-146 0 -264 118 -264 263c0 146 118 264 264 264zM487 263c0 95 -77 173 -173 173c-95 0 -173 -78 -173 -173c0 -96 78 -173 173 -173c96 0 173 77 173 173zM188 574l-18 38l250 144l38 -81z" />
    <glyph glyph-name="uacute" unicode="&#xfa;" horiz-adv-x="530" 
d="M480 527v-287c0 -116 -86 -240 -214 -240s-216 124 -216 235v292h90v-292c0 -67 55 -145 126 -145c73 0 124 79 124 150v287h90zM139 574l-18 38l250 144l38 -81z" />
    <glyph glyph-name="yacute" unicode="&#xfd;" horiz-adv-x="520" 
d="M139 574l-18 38l250 144l38 -81zM370 527h99l-160 -343l-50 -106l-34 -73l-85 -183l-23 -49h-99l23 49l85 183l84 179l-160 343h99l110 -237z" />
    <glyph glyph-name="acircumflex" unicode="&#xe2;" horiz-adv-x="625" 
d="M485 527h90v-527h-90v65c-46 -40 -107 -65 -173 -65c-145 0 -263 118 -263 263c0 146 118 264 263 264c66 0 127 -25 173 -66v66zM312 90c96 0 173 77 173 173c0 95 -77 173 -173 173c-95 0 -173 -78 -173 -173c0 -96 78 -173 173 -173zM312 731l123 -122h-70l-53 52
l-53 -52h-70z" />
    <glyph glyph-name="ecircumflex" unicode="&#xea;" horiz-adv-x="626" 
d="M317 731l123 -122h-70l-53 52l-53 -52h-70zM453 160l90 -27c-45 -79 -131 -133 -229 -133c-146 0 -264 118 -264 263c0 146 118 264 264 264c145 0 263 -118 263 -264c0 -18 -2 -37 -5 -54h-94h-42h-286c23 -69 88 -119 164 -119c57 0 108 28 139 70zM314 436
c-83 0 -153 -59 -169 -137h339c-17 78 -87 137 -170 137z" />
    <glyph glyph-name="icircumflex" unicode="&#xee;" horiz-adv-x="343" 
d="M126 0h90v527h-90v-527zM171 731l123 -122h-70l-53 52l-53 -52h-70z" />
    <glyph glyph-name="ocircumflex" unicode="&#xf4;" horiz-adv-x="628" 
d="M313 731l123 -122h-70l-53 52l-53 -52h-70zM315 527c145 0 263 -118 263 -264c0 -145 -118 -263 -263 -263c-146 0 -264 118 -264 263c0 146 118 264 264 264zM488 263c0 95 -77 173 -173 173c-95 0 -173 -78 -173 -173c0 -96 78 -173 173 -173c96 0 173 77 173 173z" />
    <glyph glyph-name="ucircumflex" unicode="&#xfb;" horiz-adv-x="529" 
d="M264 731l123 -122h-70l-53 52l-53 -52h-70zM479 527v-287c0 -116 -86 -240 -214 -240s-216 124 -216 235v292h90v-292c0 -67 55 -145 126 -145c73 0 124 79 124 150v287h90z" />
    <glyph glyph-name="atilde" unicode="&#xe3;" horiz-adv-x="628" 
d="M145 596c0 0 0 2 2 4c2 3 5 7 9 12c8 9 20 23 37 36c9 6 19 13 31 19c11 5 25 10 40 12h6l1 1h1h1h1l2 -1h5h3h3c10 -1 18 -4 26 -8c16 -8 28 -21 37 -30c9 -10 17 -17 25 -21c4 -2 8 -3 13 -4l4 -1h2v0v0c1 0 -2 0 -1 0h1h1h10c9 1 20 3 31 6c10 3 20 6 30 10
c9 4 17 8 25 11c7 4 14 7 19 10c11 6 17 9 17 9s-1 -2 -3 -4c-2 -3 -4 -7 -9 -12c-4 -4 -9 -10 -15 -16s-14 -12 -22 -19c-9 -6 -19 -12 -31 -18c-11 -6 -24 -11 -40 -14c-3 0 -7 0 -10 -1h-1v0h-2h-1h-3h-6c-8 1 -17 3 -25 6l-12 6s-8 5 -11 7c-6 6 -12 11 -16 16
c-10 11 -18 19 -26 23c-4 3 -8 4 -12 5c0 0 0 1 -1 1h-2l-5 1h-3v0h-1h2h-1h-1h-4c-10 0 -21 -2 -31 -5c-11 -2 -21 -6 -30 -10s-17 -8 -25 -11c-7 -4 -14 -7 -19 -10c-10 -6 -16 -10 -16 -10zM488 527h90v-527h-90v65c-46 -40 -107 -65 -173 -65c-146 0 -264 118 -264 263
c0 146 118 264 264 264c66 0 127 -25 173 -65v65zM315 90c96 0 173 77 173 173c0 95 -77 173 -173 173c-95 0 -173 -78 -173 -173c0 -96 78 -173 173 -173z" />
    <glyph glyph-name="ntilde" unicode="&#xf1;" horiz-adv-x="520" 
d="M70 596c0 0 0 2 2 4c2 3 5 7 9 12c8 9 20 23 37 36c9 6 19 13 31 19c11 5 25 10 40 12h6l1 1h1h1h1l2 -1h5h3h3c10 -1 18 -4 26 -8c16 -8 28 -21 37 -30c9 -10 17 -17 25 -21c4 -2 8 -3 13 -4l4 -1h2v0v0c1 0 -2 0 -1 0h1h1h10c9 1 20 3 31 6c10 3 20 6 30 10
c9 4 17 8 25 11c7 4 14 7 19 10c11 6 17 9 17 9s-1 -2 -3 -4c-2 -3 -4 -7 -9 -12c-4 -4 -9 -10 -15 -16s-14 -12 -22 -19c-9 -6 -19 -12 -31 -18c-11 -6 -24 -11 -40 -14c-3 0 -7 0 -10 -1h-1v0h-2h-1h-3h-6c-8 1 -17 3 -25 6l-12 6s-8 5 -11 7c-6 6 -12 11 -16 16
c-10 11 -18 19 -26 23c-4 3 -8 4 -12 5c0 0 0 1 -1 1h-2l-5 1h-3v0h-1h2h-1h-1h-4c-10 0 -21 -2 -31 -5c-11 -2 -21 -6 -30 -10s-17 -8 -25 -11c-7 -4 -14 -7 -19 -10c-10 -6 -16 -10 -16 -10zM470 0h-90v287c0 71 -51 150 -124 150c-71 0 -126 -78 -126 -145v-292h-90v292
c0 111 88 235 216 235s214 -124 214 -240v-287z" />
    <glyph glyph-name="otilde" unicode="&#xf5;" horiz-adv-x="628" 
d="M119 596c0 0 0 2 2 4c2 3 5 7 9 12c8 9 20 23 37 36c9 6 19 13 31 19c11 5 25 10 40 12h6l1 1h1h1h1l2 -1h5h3h3c10 -1 18 -4 26 -8c16 -8 28 -21 37 -30c9 -10 17 -17 25 -21c4 -2 8 -3 13 -4l4 -1h2v0v0c1 0 -2 0 -1 0h1h1h10c9 1 20 3 31 6c10 3 20 6 30 10
c9 4 17 8 25 11c7 4 14 7 19 10c11 6 17 9 17 9s-1 -2 -3 -4c-2 -3 -4 -7 -9 -12c-4 -4 -9 -10 -15 -16s-14 -12 -22 -19c-9 -6 -19 -12 -31 -18c-11 -6 -24 -11 -40 -14c-3 0 -7 0 -10 -1h-1v0h-2h-1h-3h-6c-8 1 -17 3 -25 6l-12 6s-8 5 -11 7c-6 6 -12 11 -16 16
c-10 11 -18 19 -26 23c-4 3 -8 4 -12 5c0 0 0 1 -1 1h-2l-5 1h-3v0h-1h2h-1h-1h-4c-10 0 -21 -2 -31 -5c-11 -2 -21 -6 -30 -10s-17 -8 -25 -11c-7 -4 -14 -7 -19 -10c-10 -6 -16 -10 -16 -10zM315 527c145 0 263 -118 263 -264c0 -145 -118 -263 -263 -263
c-146 0 -264 118 -264 263c0 146 118 264 264 264zM488 263c0 95 -77 173 -173 173c-95 0 -173 -78 -173 -173c0 -96 78 -173 173 -173c96 0 173 77 173 173z" />
    <glyph glyph-name="adieresis" unicode="&#xe4;" horiz-adv-x="628" 
d="M269 610c0 -25 -19 -45 -44 -45c-24 0 -44 20 -44 45c0 24 20 44 44 44c25 0 44 -20 44 -44zM479 610c0 -25 -20 -45 -44 -45c-25 0 -44 20 -44 45c0 24 19 44 44 44c24 0 44 -20 44 -44zM488 527h90v-527h-90v65c-46 -40 -107 -65 -173 -65c-146 0 -264 118 -264 263
c0 146 118 264 264 264c66 0 127 -25 173 -65v65zM315 90c96 0 173 77 173 173c0 95 -77 173 -173 173c-95 0 -173 -78 -173 -173c0 -96 78 -173 173 -173z" />
    <glyph glyph-name="edieresis" unicode="&#xeb;" horiz-adv-x="626" 
d="M249 610c0 -25 -19 -45 -44 -45c-24 0 -44 20 -44 45c0 24 20 44 44 44c25 0 44 -20 44 -44zM459 610c0 -25 -20 -45 -44 -45c-25 0 -44 20 -44 45c0 24 19 44 44 44c24 0 44 -20 44 -44zM453 160l90 -27c-45 -79 -131 -133 -229 -133c-146 0 -264 118 -264 263
c0 146 118 264 264 264c145 0 263 -118 263 -264c0 -18 -2 -37 -5 -54h-94h-42h-286c23 -69 88 -119 164 -119c57 0 108 28 139 70zM314 436c-83 0 -153 -59 -169 -137h339c-17 78 -87 137 -170 137z" />
    <glyph glyph-name="idieresis" unicode="&#xef;" horiz-adv-x="397" 
d="M138 610c0 -25 -19 -45 -44 -45c-24 0 -44 20 -44 45c0 24 20 44 44 44c25 0 44 -20 44 -44zM348 610c0 -25 -20 -45 -44 -45c-25 0 -44 20 -44 45c0 24 19 44 44 44c24 0 44 -20 44 -44zM244 0h-90v527h90v-527z" />
    <glyph glyph-name="odieresis" unicode="&#xf6;" horiz-adv-x="628" 
d="M243 610c0 -25 -19 -45 -44 -45c-24 0 -44 20 -44 45c0 24 20 44 44 44c25 0 44 -20 44 -44zM453 610c0 -25 -20 -45 -44 -45c-25 0 -44 20 -44 45c0 24 19 44 44 44c24 0 44 -20 44 -44zM315 527c145 0 263 -118 263 -264c0 -145 -118 -263 -263 -263
c-146 0 -264 118 -264 263c0 146 118 264 264 264zM488 263c0 95 -77 173 -173 173c-95 0 -173 -78 -173 -173c0 -96 78 -173 173 -173c96 0 173 77 173 173z" />
    <glyph glyph-name="udieresis" unicode="&#xfc;" horiz-adv-x="530" 
d="M205 610c0 -25 -19 -45 -44 -45c-24 0 -44 20 -44 45c0 24 20 44 44 44c25 0 44 -20 44 -44zM415 610c0 -25 -20 -45 -44 -45c-25 0 -44 20 -44 45c0 24 19 44 44 44c24 0 44 -20 44 -44zM479 527v-287c0 -116 -86 -240 -214 -240s-216 124 -216 235v292h90v-292
c0 -67 55 -145 126 -145c73 0 124 79 124 150v287h90z" />
    <glyph glyph-name="aring" unicode="&#xe5;" horiz-adv-x="628" 
d="M316 742c46 0 85 -38 85 -84c0 -47 -39 -84 -85 -84s-85 37 -85 84c0 46 39 84 85 84zM316 611c26 0 46 21 46 47c0 25 -20 46 -46 46s-46 -21 -46 -46c0 -26 20 -47 46 -47zM488 527h90v-527h-90v65c-46 -40 -107 -65 -173 -65c-146 0 -264 118 -264 263
c0 146 118 264 264 264c66 0 127 -25 173 -65v65zM315 90c96 0 173 77 173 173c0 95 -77 173 -173 173c-95 0 -173 -78 -173 -173c0 -96 78 -173 173 -173z" />
    <glyph glyph-name="ae" unicode="&#xe6;" horiz-adv-x="1059" 
d="M912 208h-43h-285c23 -69 88 -118 164 -118c57 0 107 27 138 70l90 -27c-45 -80 -131 -133 -228 -133c-67 0 -127 24 -173 65v-65h-90v65c-46 -40 -107 -65 -173 -65c-145 0 -262 118 -262 263s117 263 262 263c66 0 127 -25 173 -65v65h90v-66c46 41 106 65 173 65
c145 0 262 -117 262 -262c0 -19 -2 -37 -6 -55h-92zM313 90c95 0 172 77 172 173c0 95 -77 172 -172 172c-96 0 -173 -77 -173 -172c0 -96 77 -173 173 -173zM579 298h338c-17 78 -86 137 -169 137s-152 -59 -169 -137z" />
    <glyph glyph-name="eth" unicode="&#xf0;" horiz-adv-x="626" 
d="M380 712l-49 -64l47 -62h-33l-31 40l-30 -40h-34l48 62l-50 64h33l33 -43l33 43h33zM314 527c145 0 263 -118 263 -264c0 -145 -118 -263 -263 -263c-146 0 -264 118 -264 263c0 146 118 264 264 264zM487 263c0 95 -77 173 -173 173c-95 0 -173 -78 -173 -173
c0 -96 78 -173 173 -173c96 0 173 77 173 173z" />
    <glyph glyph-name="oslash" unicode="&#xf8;" horiz-adv-x="625" 
d="M498 451c49 -48 78 -114 78 -188c0 -145 -118 -263 -263 -263c-42 0 -81 10 -116 27l-18 -26h-104l53 75c-48 48 -79 114 -79 187c0 146 118 264 264 264c42 0 81 -10 116 -27l18 25h104zM140 263c0 -43 16 -82 41 -112l195 273c-20 8 -41 12 -63 12
c-95 0 -173 -78 -173 -173zM313 90c96 0 173 77 173 173c0 43 -15 82 -41 112l-195 -273c20 -8 41 -12 63 -12z" />
    <glyph glyph-name="guillemotright" unicode="&#xbb;" horiz-adv-x="554" 
d="M314 268l-257 259h50l257 -259l-266 -268h-50zM454 268l-257 259h50l257 -259l-266 -268h-50z" />
    <glyph glyph-name="guillemotleft" unicode="&#xab;" horiz-adv-x="555" 
d="M238 259l257 -259h-50l-257 259l266 268h50zM98 259l257 -259h-50l-257 259l266 268h50z" />
    <glyph glyph-name="ordfeminine" unicode="&#xaa;" horiz-adv-x="410" 
d="M306 527h53v-310h-53v37c-26 -22 -65 -37 -102 -37c-85 0 -155 70 -155 155s70 155 155 155c37 0 76 -15 102 -40v40zM204 270c56 0 102 46 102 102c0 55 -46 102 -102 102c-55 0 -102 -47 -102 -102c0 -56 47 -102 102 -102z" />
    <glyph glyph-name="Oslash" unicode="&#xd8;" 
d="M675 627c67 -67 108 -159 108 -261c0 -202 -164 -366 -366 -366c-58 0 -113 13 -161 37l-27 -37h-145l75 106c-67 66 -109 159 -109 260c0 203 165 367 367 367c58 0 112 -13 161 -37l27 37h145zM176 366c0 -59 22 -114 57 -155l270 380c-26 10 -55 16 -86 16
c-133 0 -241 -108 -241 -241zM417 125c133 0 241 108 241 241c0 59 -22 114 -58 156l-270 -381c27 -10 56 -16 87 -16z" />
    <glyph glyph-name="multiply" unicode="&#xd7;" horiz-adv-x="400" 
d="M352 483l-113 -148l107 -140h-75l-70 91l-70 -91h-76l108 140l-113 148h77l74 -98l74 98h77z" />
    <glyph glyph-name="Agrave" unicode="&#xc0;" 
d="M564 798l-18 -38l-270 101l38 81zM416 733l366 -733h-733zM416 483l-185 -371h370z" />
    <glyph glyph-name="Egrave" unicode="&#xc8;" horiz-adv-x="649" 
d="M464 798l-18 -38l-270 101l38 81zM601 733v-124h-426v-272h284l-24 -124h-260v-89h426v-124h-550v0v124v89v124v272v62v62h550z" />
    <glyph glyph-name="Igrave" unicode="&#xcc;" horiz-adv-x="384" 
d="M338 798l-18 -38l-270 101l38 81zM117 0v733h124v-733h-124z" />
    <glyph glyph-name="Ograve" unicode="&#xd2;" 
d="M564 798l-18 -38l-270 101l38 81zM417 733c202 0 366 -164 366 -367c0 -202 -164 -366 -366 -366s-367 164 -367 366c0 203 165 367 367 367zM658 366c0 133 -108 241 -241 241s-241 -108 -241 -241s108 -241 241 -241s241 108 241 241zM476 366c0 -32 -27 -58 -59 -58
s-59 26 -59 58c0 33 27 59 59 59s59 -26 59 -59z" />
    <glyph glyph-name="Ugrave" unicode="&#xd9;" horiz-adv-x="670" 
d="M475 798l-18 -38l-270 101l38 81zM334 0c-94 0 -167 25 -217 74c-42 42 -66 101 -66 166v493h123v-493c0 -77 55 -118 160 -118s162 43 162 120v491h123v-491c0 -112 -75 -242 -285 -242z" />
    <glyph glyph-name="Aacute" unicode="&#xc1;" 
d="M284 758l-18 38l250 144l38 -81zM416 733l366 -733h-733zM416 483l-185 -371h370z" />
    <glyph glyph-name="Eacute" unicode="&#xc9;" horiz-adv-x="651" 
d="M211 758l-18 38l250 144l38 -81zM601 733v-124h-426v-272h284l-24 -124h-260v-89h426v-124h-550v0v124v89v124v272v62v62h550z" />
    <glyph glyph-name="Iacute" unicode="&#xcd;" horiz-adv-x="384" 
d="M66 758l-18 38l250 144l38 -81zM132 0h124v733h-124v-733z" />
    <glyph glyph-name="Oacute" unicode="&#xd3;" 
d="M294 758l-18 38l250 144l38 -81zM417 733c202 0 366 -164 366 -367c0 -202 -164 -366 -366 -366s-367 164 -367 366c0 203 165 367 367 367zM658 366c0 133 -108 241 -241 241s-241 -108 -241 -241s108 -241 241 -241s241 108 241 241zM476 366c0 33 -27 59 -59 59
s-59 -26 -59 -59c0 -32 27 -58 59 -58s59 26 59 58z" />
    <glyph glyph-name="Uacute" unicode="&#xda;" horiz-adv-x="670" 
d="M211 758l-18 38l250 144l38 -81zM334 0c210 0 285 130 285 242v491h-123v-491c0 -77 -57 -120 -162 -120s-160 41 -160 118v493h-123v-493c0 -65 24 -124 66 -166c50 -49 123 -74 217 -74z" />
    <glyph glyph-name="Yacute" unicode="&#xdd;" horiz-adv-x="665" 
d="M211 758l-18 38l250 144l38 -81zM616 733l-211 -366l-10 -17v-350h-124v350l-10 17l-211 366h143l140 -242l140 242h143z" />
    <glyph glyph-name="equal" unicode="=" horiz-adv-x="436" 
d="M388 173v-39h-338v39h338zM388 363v-39h-338v39h338z" />
    <glyph glyph-name="Acircumflex" unicode="&#xc2;" 
d="M215 763l-11 24l153 88l24 -50zM618 787l-11 -24l-166 62l24 50zM416 733l366 -733h-733zM416 483l-185 -371h370z" />
    <glyph glyph-name="Ecircumflex" unicode="&#xca;" horiz-adv-x="651" 
d="M134 763l-11 24l153 88l24 -50zM537 787l-11 -24l-166 62l24 50zM601 733v-124h-426v-272h284l-24 -124h-260v-89h426v-124h-550v0v124v89v124v272v62v62h550z" />
    <glyph glyph-name="Icircumflex" unicode="&#xce;" horiz-adv-x="507" 
d="M57 763l-11 24l153 88l24 -50zM460 787l-11 -24l-166 62l24 50zM191 0h124v733h-124v-733z" />
    <glyph glyph-name="Ocircumflex" unicode="&#xd4;" 
d="M224 763l-11 24l153 88l24 -50zM627 787l-11 -24l-166 62l24 50zM417 733c202 0 366 -164 366 -367c0 -202 -164 -366 -366 -366s-367 164 -367 366c0 203 165 367 367 367zM658 366c0 133 -108 241 -241 241s-241 -108 -241 -241s108 -241 241 -241s241 108 241 241z
M476 366c0 33 -27 59 -59 59s-59 -26 -59 -59c0 -32 27 -58 59 -58s59 26 59 58z" />
    <glyph glyph-name="Ucircumflex" unicode="&#xdb;" horiz-adv-x="670" 
d="M142 763l-11 24l153 88l24 -50zM545 787l-11 -24l-166 62l24 50zM334 0c210 0 285 130 285 242v491h-123v-491c0 -77 -57 -120 -162 -120s-160 41 -160 118v493h-123v-493c0 -65 24 -124 66 -166c50 -49 123 -74 217 -74z" />
    <glyph glyph-name="Adieresis" unicode="&#xc4;" 
d="M350 820c0 -25 -19 -45 -44 -45c-24 0 -44 20 -44 45c0 24 20 44 44 44c25 0 44 -20 44 -44v0zM560 820c0 -25 -20 -45 -44 -45c-25 0 -44 20 -44 45c0 24 19 44 44 44c24 0 44 -20 44 -44zM416 733l366 -733h-733zM416 483l-185 -371h370z" />
    <glyph glyph-name="Edieresis" unicode="&#xcb;" horiz-adv-x="651" 
d="M265 820c0 -25 -19 -45 -44 -45c-24 0 -44 20 -44 45c0 24 20 44 44 44c25 0 44 -20 44 -44v0zM475 820c0 -25 -20 -45 -44 -45c-25 0 -44 20 -44 45c0 24 19 44 44 44c24 0 44 -20 44 -44zM601 733v-124h-426v-272h284l-24 -124h-260v-89h426v-124h-550v0v124v89v124
v272v62v62h550z" />
    <glyph glyph-name="Idieresis" unicode="&#xcf;" horiz-adv-x="399" 
d="M138 820c0 -25 -19 -45 -44 -45c-24 0 -44 20 -44 45c0 24 20 44 44 44c25 0 44 -20 44 -44v0zM348 820c0 -25 -20 -45 -44 -45c-25 0 -44 20 -44 45c0 24 19 44 44 44c24 0 44 -20 44 -44zM133 0v733h124v-733h-124z" />
    <glyph glyph-name="Odieresis" unicode="&#xd6;" 
d="M359 820c0 -25 -19 -45 -44 -45c-24 0 -44 20 -44 45c0 24 20 44 44 44c25 0 44 -20 44 -44v0zM569 820c0 -25 -20 -45 -44 -45c-25 0 -44 20 -44 45c0 24 19 44 44 44c24 0 44 -20 44 -44zM417 733c202 0 366 -164 366 -367c0 -202 -164 -366 -366 -366
s-367 164 -367 366c0 203 165 367 367 367zM658 366c0 133 -108 241 -241 241s-241 -108 -241 -241s108 -241 241 -241s241 108 241 241zM476 366c0 -32 -27 -58 -59 -58s-59 26 -59 58c0 33 27 59 59 59s59 -26 59 -59z" />
    <glyph glyph-name="Udieresis" unicode="&#xdc;" horiz-adv-x="670" 
d="M274 820c0 -25 -19 -45 -44 -45c-24 0 -44 20 -44 45c0 24 20 44 44 44c25 0 44 -20 44 -44v0zM484 820c0 -25 -20 -45 -44 -45c-25 0 -44 20 -44 45c0 24 19 44 44 44c24 0 44 -20 44 -44zM334 0c-94 0 -167 25 -217 74c-42 42 -66 101 -66 166v493h123v-493
c0 -77 55 -118 160 -118s162 43 162 120v491h123v-491c0 -112 -75 -242 -285 -242z" />
    <glyph glyph-name="dieresis" unicode="&#xa8;" horiz-adv-x="399" 
d="M138 820c0 -25 -19 -45 -44 -45c-24 0 -44 20 -44 45c0 24 20 44 44 44c25 0 44 -20 44 -44v0zM348 820c0 -25 -20 -45 -44 -45c-25 0 -44 20 -44 45c0 24 19 44 44 44c24 0 44 -20 44 -44z" />
    <glyph glyph-name="onequarter" unicode="&#xbc;" horiz-adv-x="610" 
d="M426 842h45l-375 -911h-46zM179 360v373h-62l-27 -93h27v-280h62zM518 0v42h43v58h-43v273l-274 -331h216v-42h58zM367 100l93 112v-112h-93z" />
    <glyph glyph-name="Atilde" unicode="&#xc3;" 
d="M215 790c0 0 0 2 2 4c2 3 5 7 9 12c8 9 20 23 37 36c9 6 19 13 31 19c11 5 25 10 40 12h6l1 1h1h1h1l2 -1h5h3h3c10 -1 18 -4 26 -8c16 -8 28 -21 37 -30c9 -10 17 -17 25 -21c4 -2 8 -3 13 -4l4 -1h2v0v0c1 0 -2 0 -1 0h1h1h10c9 1 20 3 31 6c10 3 20 6 30 10
c9 4 17 8 25 11c7 4 14 7 19 10c11 6 17 9 17 9s-1 -2 -3 -4c-2 -3 -4 -7 -9 -12c-4 -4 -9 -10 -15 -16s-14 -12 -22 -19c-9 -6 -19 -12 -31 -18c-11 -6 -24 -11 -40 -14c-3 0 -7 0 -10 -1h-1v0h-2h-1h-3h-6c-8 1 -17 3 -25 6l-12 6s-8 5 -11 7c-6 6 -12 11 -16 16
c-10 11 -18 19 -26 23c-4 3 -8 4 -12 5c0 0 0 1 -1 1h-2l-5 1h-3v0h-1h2h-1h-1h-4c-10 0 -21 -2 -31 -5c-11 -2 -21 -6 -30 -10s-17 -8 -25 -11c-7 -4 -14 -7 -19 -10c-10 -6 -16 -10 -16 -10zM416 733l366 -733h-733zM416 483l-185 -371h370z" />
    <glyph glyph-name="Otilde" unicode="&#xd5;" 
d="M222 790c0 0 0 2 2 4c2 3 5 7 9 12c8 9 20 23 37 36c9 6 19 13 31 19c11 5 25 10 40 12h6l1 1h1h1h1l2 -1h5h3h3c10 -1 18 -4 26 -8c16 -8 28 -21 37 -30c9 -10 17 -17 25 -21c4 -2 8 -3 13 -4l4 -1h2v0v0c1 0 -2 0 -1 0h1h1h10c9 1 20 3 31 6c10 3 20 6 30 10
c9 4 17 8 25 11c7 4 14 7 19 10c11 6 17 9 17 9s-1 -2 -3 -4c-2 -3 -4 -7 -9 -12c-4 -4 -9 -10 -15 -16s-14 -12 -22 -19c-9 -6 -19 -12 -31 -18c-11 -6 -24 -11 -40 -14c-3 0 -7 0 -10 -1h-1v0h-2h-1h-3h-6c-8 1 -17 3 -25 6l-12 6s-8 5 -11 7c-6 6 -12 11 -16 16
c-10 11 -18 19 -26 23c-4 3 -8 4 -12 5c0 0 0 1 -1 1h-2l-5 1h-3v0h-1h2h-1h-1h-4c-10 0 -21 -2 -31 -5c-11 -2 -21 -6 -30 -10s-17 -8 -25 -11c-7 -4 -14 -7 -19 -10c-10 -6 -16 -10 -16 -10zM417 733c202 0 366 -164 366 -367c0 -202 -164 -366 -366 -366
s-367 164 -367 366c0 203 165 367 367 367zM658 366c0 133 -108 241 -241 241s-241 -108 -241 -241s108 -241 241 -241s241 108 241 241zM476 366c0 -32 -27 -58 -59 -58s-59 26 -59 58c0 33 27 59 59 59s59 -26 59 -59z" />
    <glyph glyph-name="Ntilde" unicode="&#xd1;" horiz-adv-x="648" 
d="M132 790c0 0 0 2 2 4c2 3 5 7 9 12c8 9 20 23 37 36c9 6 19 13 31 19c11 5 25 10 40 12h6l1 1h1h1h1l2 -1h5h3h3c10 -1 18 -4 26 -8c16 -8 28 -21 37 -30c9 -10 17 -17 25 -21c4 -2 8 -3 13 -4l4 -1h2v0v0c1 0 -2 0 -1 0h1h1h10c9 1 20 3 31 6c10 3 20 6 30 10
c9 4 17 8 25 11c7 4 14 7 19 10c11 6 17 9 17 9s-1 -2 -3 -4c-2 -3 -4 -7 -9 -12c-4 -4 -9 -10 -15 -16s-14 -12 -22 -19c-9 -6 -19 -12 -31 -18c-11 -6 -24 -11 -40 -14c-3 0 -7 0 -10 -1h-1v0h-2h-1h-3h-6c-8 1 -17 3 -25 6l-12 6s-8 5 -11 7c-6 6 -12 11 -16 16
c-10 11 -18 19 -26 23c-4 3 -8 4 -12 5c0 0 0 1 -1 1h-2l-5 1h-3v0h-1h2h-1h-1h-4c-10 0 -21 -2 -31 -5c-11 -2 -21 -6 -30 -10s-17 -8 -25 -11c-7 -4 -14 -7 -19 -10c-10 -6 -16 -10 -16 -10zM451 318v-167l-289 299v-450h-111v733zM486 733h111v-733l-111 115v168v0v450z
" />
    <glyph glyph-name="Eth" unicode="&#xd0;" horiz-adv-x="778" 
d="M436 733c147 0 291 -130 291 -407c0 -278 -148 -326 -291 -326h-289v305h-98l20 123h78v305h289zM557 155c41 35 50 113 50 173c0 123 -34 190 -63 226s-67 55 -108 55h-169v-181h99l-20 -123h-79v-181h169c57 0 97 10 121 31z" />
    <glyph glyph-name="Ydieresis" unicode="&#x178;" horiz-adv-x="665" 
d="M271 820c0 -25 -19 -45 -44 -45c-24 0 -44 20 -44 45c0 24 20 44 44 44c25 0 44 -20 44 -44zM481 820c0 -25 -20 -45 -44 -45c-25 0 -44 20 -44 45c0 24 19 44 44 44c24 0 44 -20 44 -44zM616 733l-211 -366l-10 -17v-350h-124v350l-10 17l-211 366h143l140 -242l140 242
h143z" />
    <glyph glyph-name="mu" unicode="&#xb5;" horiz-adv-x="532" 
d="M393 528h90v-288c0 -116 -86 -240 -215 -240c-49 0 -92 18 -126 46v-274h-91v464v292h90h1v-302c5 -65 58 -136 126 -136c73 0 125 79 125 150v288z" />
    <glyph glyph-name="onehalf" unicode="&#xbd;" horiz-adv-x="601" 
d="M425 842h45l-375 -911h-46zM178 360v373h-62l-27 -93h27v-280h62zM392 62h160v-62h-279v62c79 41 198 125 198 190c0 6 -2 58 -68 58c-23 0 -41 -6 -53 -20c-13 -15 -15 -33 -15 -38h-62c0 60 45 121 130 121c86 0 130 -61 130 -121c0 -75 -75 -143 -141 -190z" />
    <glyph glyph-name="threequarters" unicode="&#xbe;" horiz-adv-x="725" 
d="M540 842h45l-375 -911h-46zM632 0v42h43v58h-43v273l-274 -331h216v-42h58zM481 100l93 112v-112h-93zM228 636c60 -17 101 -72 101 -135c0 -77 -64 -140 -141 -140c-48 0 -92 23 -118 63c-8 12 -14 25 -18 38v3l52 53v-13v-4c0 -13 3 -26 9 -38c14 -28 43 -46 75 -46
c46 0 84 38 84 84s-35 83 -81 84h-1l-43 29l42 64h-122v55h225z" />
    <glyph glyph-name="Aring" unicode="&#xc5;" 
d="M414 922c46 0 85 -38 85 -84c0 -47 -39 -84 -85 -84s-85 37 -85 84c0 46 39 84 85 84zM414 791c26 0 46 21 46 47c0 25 -20 46 -46 46s-46 -21 -46 -46c0 -26 20 -47 46 -47zM416 733l366 -733h-733zM416 483l-185 -371h370z" />
    <glyph glyph-name="ordmasculine" unicode="&#xba;" horiz-adv-x="377" 
d="M189 773c74 0 139 -64 139 -138c0 -77 -65 -138 -139 -138c-76 0 -139 61 -139 138c0 74 63 138 139 138zM189 558c42 0 74 34 74 77c0 41 -32 74 -74 74c-43 0 -76 -33 -76 -74c0 -43 33 -77 76 -77z" />
    <glyph glyph-name="perthousand" unicode="&#x2030;" horiz-adv-x="900" 
d="M13 130l786 514h74l1 -1l-784 -513h-77zM480 153c0 14 -11 24 -24 24s-24 -10 -24 -24c0 -13 11 -23 24 -23s24 10 24 23zM456 305c62 0 112 -68 112 -151s-50 -150 -112 -150s-112 67 -112 150s50 151 112 151zM500 74c16 21 24 50 24 80c0 31 -8 60 -24 81
c-7 10 -23 26 -44 26s-37 -16 -44 -26c-16 -21 -25 -50 -25 -81c0 -30 9 -59 25 -80c7 -10 23 -26 44 -26s37 16 44 26zM736 153c0 14 -10 24 -24 24c-13 0 -23 -10 -23 -24c0 -13 10 -23 23 -23c14 0 24 10 24 23zM712 305c62 0 113 -68 113 -151s-51 -150 -113 -150
c-61 0 -112 67 -112 150s51 151 112 151zM757 74c15 21 24 50 24 80c0 31 -9 60 -24 81c-8 10 -23 26 -45 26c-21 0 -36 -16 -44 -26c-15 -21 -24 -50 -24 -81c0 -30 9 -59 24 -80c8 -10 23 -26 44 -26c22 0 37 16 45 26zM246 510c0 13 -11 24 -24 24s-24 -11 -24 -24
s11 -24 24 -24s24 11 24 24zM222 661c62 0 112 -67 112 -150s-50 -151 -112 -151s-112 68 -112 151s50 150 112 150zM266 430c16 21 24 50 24 81c0 30 -8 59 -24 80c-7 10 -23 26 -44 26s-37 -16 -44 -26c-16 -21 -25 -50 -25 -80c0 -31 9 -60 25 -81c7 -9 23 -26 44 -26
s37 17 44 26z" />
    <glyph glyph-name="bracketleft" unicode="[" horiz-adv-x="435" 
d="M361 1l24 -121h-334v853h334l-24 -121h-189v-611h189z" />
    <glyph glyph-name="bracketright" unicode="]" horiz-adv-x="435" 
d="M75 1h189v611h-189l-24 121h334v-853h-334z" />
    <glyph glyph-name="underscore" unicode="_" horiz-adv-x="739" 
d="M692 41v-41h-642v41h642z" />
    <glyph glyph-name="plus" unicode="+" horiz-adv-x="438" 
d="M200 471h39v-338h-39v338zM51 282v39h338v-39h-338z" />
    <glyph glyph-name="asterisk" unicode="*" horiz-adv-x="365" 
d="M165 774h39v-338h-39v338zM51 711l28 28l239 -239l-28 -28zM78 472l-28 28l239 239l28 -28z" />
    <glyph glyph-name="percent" unicode="%" horiz-adv-x="719" 
d="M520 842h45l-375 -911h-46zM559 185c0 17 -13 30 -29 30c-17 0 -30 -13 -30 -30c0 -16 13 -29 30 -29c16 0 29 13 29 29zM530 373c76 0 139 -83 139 -187c0 -103 -63 -186 -139 -186c-77 0 -139 83 -139 186c0 104 62 187 139 187zM585 87c19 25 30 62 30 99
c0 38 -11 74 -30 100c-9 12 -29 33 -55 33c-27 0 -46 -21 -55 -33c-19 -26 -30 -62 -30 -100c0 -37 11 -74 30 -99c9 -12 28 -33 55 -33c26 0 46 21 55 33zM220 546c0 16 -13 29 -30 29c-16 0 -29 -13 -29 -29c0 -17 13 -30 29 -30c17 0 30 13 30 30zM190 733
c77 0 139 -83 139 -186s-62 -187 -139 -187s-139 84 -139 187s62 186 139 186zM245 447c19 26 30 62 30 100s-11 74 -30 99c-9 13 -28 33 -55 33c-26 0 -46 -20 -55 -33c-19 -25 -30 -61 -30 -99s11 -74 30 -100c9 -12 29 -33 55 -33c27 0 46 21 55 33z" />
    <glyph glyph-name="tilde" unicode="&#x2dc;" horiz-adv-x="481" 
d="M50 596c0 0 0 2 2 4c2 3 5 7 9 12c8 9 20 23 37 36c9 6 19 13 31 19c11 5 25 10 40 12h6l1 1h1h1h1l2 -1h5h3h3c10 -1 18 -4 26 -8c16 -8 28 -21 37 -30c9 -10 17 -17 25 -21c4 -2 8 -3 13 -4l4 -1h2v0v0c1 0 -2 0 -1 0h1h1h10c9 1 20 3 31 6c10 3 20 6 30 10
c9 4 17 8 25 11c7 4 14 7 19 10c11 6 17 9 17 9s-1 -2 -3 -4c-2 -3 -4 -7 -9 -12c-4 -4 -9 -10 -15 -16s-14 -12 -22 -19c-9 -6 -19 -12 -31 -18c-11 -6 -24 -11 -40 -14c-3 0 -7 0 -10 -1h-1v0h-2h-1h-3h-6c-8 1 -17 3 -25 6l-12 6s-8 5 -11 7c-6 6 -12 11 -16 16
c-10 11 -18 19 -26 23c-4 3 -8 4 -12 5c0 0 0 1 -1 1h-2l-5 1h-3v0h-1h2h-1h-1h-4c-10 0 -21 -2 -31 -5c-11 -2 -21 -6 -30 -10s-17 -8 -25 -11c-7 -4 -14 -7 -19 -10c-10 -6 -16 -10 -16 -10z" />
    <glyph glyph-name="trademark" unicode="&#x2122;" horiz-adv-x="490" 
d="M244 699h-194v33h194v-33zM131 692l32 -6v-147h-32v153zM275 536h-29l24 194l59 -98l31 -53l-18 -28l-25 42l-28 48zM365 589l-17 29l68 112l24 -194h-30l-13 105l-29 -48z" />
    <glyph glyph-name="oe" unicode="&#x153;" horiz-adv-x="889" 
d="M554 209h-93h-42c5 -16 13 -30 21 -43c17 -25 41 -46 69 -59c22 -11 48 -17 74 -17c57 0 108 27 139 70l90 -27c-45 -79 -131 -133 -229 -133c-53 0 -102 16 -143 42c-41 -26 -90 -42 -143 -42c-146 0 -264 118 -264 263c0 146 118 264 264 264c53 0 102 -16 143 -43
c41 27 90 43 143 43c146 0 264 -118 264 -264c0 -19 -2 -37 -6 -54h-93h-43h-151zM297 90c27 0 52 6 74 17c-32 44 -51 98 -51 156s19 112 51 156c-23 11 -48 17 -74 17c-95 0 -173 -78 -173 -173c0 -96 78 -173 173 -173zM414 299h52h92h195c-17 78 -86 137 -170 137
c-26 0 -51 -6 -74 -17c-28 -14 -52 -34 -69 -60c-12 -18 -21 -38 -26 -60z" />
    <glyph glyph-name="cent" unicode="&#xa2;" horiz-adv-x="601" 
d="M345 90c51 10 94 42 118 85l88 -26c-38 -81 -115 -138 -206 -150v-107h-90v112c-118 26 -206 131 -206 257s88 231 206 257v112h90v-108c91 -11 168 -69 206 -149l-88 -26c-25 43 -68 74 -118 84v-341zM140 260c0 -75 48 -139 115 -163v327c-67 -24 -115 -88 -115 -164z
" />
    <glyph glyph-name="yen" unicode="&#xa5;" horiz-adv-x="664" 
d="M465 252h-71v-48h91l-20 -108h-71v-96h-124v96h-91l20 108h71v48h-91l20 110h64l-3 5l-211 366h143l140 -242l140 242h143l-211 -366l-3 -5h84z" />
    <glyph glyph-name="plusminus" unicode="&#xb1;" horiz-adv-x="436" 
d="M51 65v39h338v-39h-338zM239 322h150v-39h-150v-149h-39v149h-149v39h149v150h39v-150z" />
    <glyph glyph-name="twosuperior" unicode="&#xb2;" horiz-adv-x="342" 
d="M153 354h140v-54h-243v54c69 36 172 109 172 165c0 6 -2 51 -59 51c-21 0 -36 -6 -47 -18c-11 -13 -12 -28 -12 -33h-54c0 52 39 105 113 105s113 -53 113 -105c0 -65 -65 -124 -123 -165z" />
    <glyph glyph-name="threesuperior" unicode="&#xb3;" horiz-adv-x="342" 
d="M204 541c53 -16 89 -64 89 -119c0 -69 -56 -124 -124 -124c-42 0 -81 21 -104 56c-7 10 -12 21 -15 33l-1 3l46 46v-11v-3c0 -12 3 -23 8 -34c12 -25 38 -40 66 -40c41 0 74 33 74 74c0 40 -31 72 -71 74h-1l-38 25l37 56h-108v49h199z" />
    <glyph glyph-name="acute" unicode="&#xb4;" horiz-adv-x="206" 
d="M6 572l60 200h90l-123 -200h-27z" />
    <glyph glyph-name="hungarumlaut" unicode="&#x2dd;" horiz-adv-x="841" 
d="M297 572l60 200h90l-123 -200h-27zM423 572l60 200h90l-123 -200h-27z" />
    <glyph glyph-name="onesuperior" unicode="&#xb9;" horiz-adv-x="175" 
d="M126 300h-54v244h-23l23 81h54v-325z" />
    <glyph glyph-name="braceleft" unicode="{" horiz-adv-x="294" 
d="M230 -112c3 -1 5 -1 8 -2c4 -1 6 -2 6 -2s-2 0 -7 -1c-2 -1 -5 -1 -8 -1c-3 -1 -7 -1 -11 -1s-9 1 -14 1c-3 1 -5 1 -8 1c-3 1 -6 2 -9 2l-9 3l-9 3c-7 2 -13 6 -20 9c-6 3 -13 8 -20 12c-6 5 -13 10 -19 16c-13 11 -25 26 -36 42c-10 17 -18 36 -22 58c-1 5 -1 11 -2 16
v4v2v4v7c1 2 1 4 1 7l2 10c1 6 3 12 5 18c4 11 10 21 17 30c6 9 14 16 20 23c13 13 25 23 32 34s11 22 13 36v1v0v-1v0v1v3v6v5v4c0 5 -1 11 -3 16c-3 11 -8 20 -15 27s-15 12 -22 16c-6 4 -12 6 -16 8c-4 1 -6 2 -6 2s2 1 6 2l16 8c7 4 15 10 22 17s12 16 15 26
c2 5 3 11 3 16v4v6v6v2v1v1v-2v1v1c-2 13 -6 25 -13 35c-7 11 -19 21 -32 34c-6 7 -14 15 -20 23c-7 9 -13 19 -17 31c-2 5 -4 11 -5 18l-2 9c0 3 0 5 -1 8v6v4v2v4c1 6 1 11 2 16c4 22 12 41 22 58c11 17 23 31 36 43c6 6 13 11 19 15c7 5 14 9 20 12c7 4 13 7 20 9
c3 1 6 2 9 4c3 0 6 1 9 2s6 1 9 2c3 0 5 1 8 1c5 1 10 1 14 1h11c3 -1 6 -1 8 -2c5 0 7 -1 7 -1s-2 0 -6 -2c-3 0 -5 -1 -8 -2s-6 -3 -10 -4s-7 -3 -12 -5c-2 -2 -4 -3 -6 -4s-4 -3 -6 -4c-3 -1 -5 -3 -7 -4c-3 -2 -5 -4 -7 -6c-5 -3 -10 -7 -14 -11c-10 -9 -19 -19 -28 -30
c-8 -11 -16 -24 -22 -38c-6 -13 -11 -27 -12 -42c-1 -3 0 -7 -1 -10v-3v0v-1l1 -7v-6c1 -2 1 -3 1 -4c1 -1 1 -3 1 -4l2 -4c2 -6 5 -12 9 -18c5 -6 10 -12 16 -18c5 -6 12 -14 18 -21c3 -4 6 -9 9 -13s6 -9 8 -13c10 -20 13 -41 12 -60v-1v-2v-1h-1v-3l-1 -6
c0 -2 0 -3 -1 -6c-1 -2 -1 -4 -2 -7c-1 -4 -2 -9 -5 -13c-2 -4 -3 -8 -5 -11c-9 -14 -21 -24 -33 -30c-10 -5 -20 -8 -28 -9c8 -1 18 -3 28 -9c12 -5 24 -15 33 -30c2 -3 3 -7 5 -11c3 -4 4 -8 5 -13c1 -2 1 -5 2 -7s1 -4 1 -6l1 -6v-2l1 -1v-1v-1v-2c1 -18 -2 -40 -12 -59
c-2 -5 -5 -10 -8 -14s-6 -9 -9 -12c-6 -8 -13 -15 -18 -22c-6 -6 -11 -12 -16 -18c-4 -6 -7 -11 -9 -17l-2 -5c0 -1 0 -2 -1 -4c0 -1 0 -2 -1 -3v-7l-1 -7v0v-1v-3c1 -3 0 -7 1 -10c1 -14 6 -29 12 -42c6 -14 14 -26 22 -38c9 -11 18 -21 28 -30c4 -4 9 -8 14 -11
c2 -2 4 -4 7 -5c2 -2 4 -3 7 -5c2 -1 4 -3 6 -4l6 -3c5 -3 8 -5 12 -6s7 -3 10 -4z" />
    <glyph glyph-name="asciitilde" unicode="~" horiz-adv-x="535" 
d="M51 266c0 0 1 1 3 4s5 8 10 13c8 11 22 26 42 41c10 8 21 15 34 22c14 6 29 11 46 13l7 1h1h1h2v0h3h6h3h3c11 -2 21 -5 30 -9c18 -9 31 -24 42 -34c10 -12 19 -20 28 -24c5 -2 10 -4 15 -5h4l3 -1v0v0c1 0 -2 0 -1 0v0h2h11c10 1 24 3 35 7c12 3 24 7 34 12
c11 4 20 8 29 12l22 11c12 6 19 10 19 10s-1 -2 -3 -5s-6 -7 -10 -12c-5 -6 -11 -12 -18 -19s-15 -14 -25 -21c-10 -8 -22 -15 -35 -21c-13 -7 -27 -12 -46 -16c-3 0 -7 0 -11 -1h-1v0h-2h-1h-3h-7c-10 1 -20 3 -29 7c-5 2 -9 4 -14 6l-12 9c-7 6 -13 12 -19 18
c-10 12 -19 21 -28 26c-5 3 -10 5 -14 6h-1l-3 1h-6l-3 1v0v0s-2 0 1 0v0h-2h-4c-12 0 -24 -2 -36 -5c-12 -4 -23 -8 -33 -12c-11 -4 -20 -9 -29 -13c-8 -5 -15 -8 -21 -12c-12 -6 -19 -10 -19 -10z" />
    <glyph glyph-name="braceright" unicode="}" horiz-adv-x="291" 
d="M64 -112c3 1 6 3 10 4c3 1 7 3 11 6c2 1 5 2 7 3s4 3 6 4c3 2 5 3 7 5c2 1 5 3 7 5c5 3 9 7 14 11c10 9 19 19 27 30c9 12 17 24 23 38c6 13 11 28 12 42c1 3 0 7 1 10v3v1v0l-1 7v7c-1 1 -1 2 -1 3c-1 2 -1 3 -1 4l-2 5c-2 6 -6 11 -9 17c-5 6 -10 12 -16 18
c-5 7 -12 14 -18 22c-3 3 -6 8 -9 12s-6 9 -8 14c-10 19 -13 41 -12 59v2v1v1v1l1 2l1 6c0 2 0 4 1 6s1 5 2 7c1 5 2 9 4 13s4 8 6 11c9 15 21 25 33 30c10 6 20 8 28 9c-8 1 -18 4 -28 9c-12 6 -24 16 -33 30c-2 3 -4 7 -6 11s-3 9 -4 13c-1 3 -1 5 -2 7c-1 3 -1 4 -1 6
l-1 6l-1 3v0v1v2v1c-1 19 2 40 12 60c2 4 5 9 8 13s6 9 9 13c6 7 13 15 18 21c6 6 11 12 16 18c3 6 7 12 9 18l2 4c0 1 0 3 1 4c0 1 0 2 1 4v6l1 7v1v0v3c-1 3 0 7 -1 10c-1 15 -6 29 -12 42c-6 14 -14 27 -23 38c-8 11 -17 21 -27 30c-5 4 -9 8 -14 11c-2 2 -5 4 -7 6
c-2 1 -4 3 -7 4c-2 1 -4 3 -6 4s-5 2 -7 4c-4 2 -8 4 -11 5c-4 1 -7 3 -10 4s-6 2 -8 2c-4 2 -6 2 -6 2s2 1 7 1c2 1 4 1 8 2h11s9 0 14 -1c3 0 5 -1 8 -1c3 -1 6 -1 9 -2c2 -1 6 -2 9 -2c3 -2 6 -3 9 -4c6 -2 13 -5 19 -9c7 -3 14 -7 20 -12c7 -4 14 -9 20 -15
c13 -12 25 -26 35 -43c11 -17 19 -36 23 -58c1 -5 1 -10 2 -16v-4v-2v-4v-6c-1 -3 -1 -5 -1 -8l-2 -9c-1 -7 -3 -13 -5 -18c-4 -12 -10 -22 -17 -31c-6 -8 -14 -16 -20 -23c-13 -13 -25 -23 -32 -34c-7 -10 -11 -22 -13 -35v-1v-1v2v-1v-1v-2v-6c0 -2 -1 -4 0 -6v-4
c0 -5 1 -11 3 -16c2 -10 8 -19 15 -26s15 -13 21 -17c7 -3 13 -6 17 -8c4 -1 6 -2 6 -2s-2 -1 -6 -2c-4 -2 -10 -4 -17 -8c-6 -4 -14 -9 -21 -16s-13 -16 -15 -27c-2 -5 -3 -11 -3 -16v-4c-1 -1 0 -4 0 -5v-6v-3v-1v0v1v0v-1c2 -14 6 -25 13 -36s19 -21 32 -34
c6 -7 14 -14 20 -23c7 -9 13 -19 17 -30c2 -6 4 -12 5 -18l2 -10c0 -3 0 -5 1 -7v-7v-4v-2v-4c-1 -5 -1 -11 -2 -16c-4 -22 -12 -41 -23 -58c-10 -16 -22 -31 -35 -42c-6 -6 -13 -11 -20 -16c-6 -4 -13 -9 -20 -12c-6 -3 -13 -7 -19 -9l-9 -3s-7 -2 -9 -3c-3 0 -6 -1 -9 -2
c-3 0 -5 0 -8 -1c-5 0 -10 -1 -14 -1s-8 0 -11 1c-4 0 -6 0 -8 1c-5 1 -7 1 -7 1s2 1 6 2c2 1 5 1 8 2z" />
    <glyph glyph-name="Scaron" unicode="&#x160;" horiz-adv-x="710" 
d="M346 759v0v0v0v0l-166 62l24 50l142 -82l142 82l24 -50zM578 381c53 -32 83 -80 83 -136c0 -102 -95 -245 -305 -245c-193 0 -288 120 -303 219l121 23c2 -29 35 -120 182 -120c151 0 182 97 182 123c0 29 -57 61 -182 61c-283 0 -305 140 -305 183c0 101 95 244 305 244
c193 0 288 -120 303 -218l-121 -24c-2 29 -35 119 -182 119c-150 0 -182 -97 -182 -121c0 -25 48 -61 182 -61c96 0 170 -16 222 -47z" />
    <glyph glyph-name="scaron" unicode="&#x161;" horiz-adv-x="451" 
d="M222 553v0v0v0v0l-166 62l24 50l142 -82l142 82l24 -50zM253 301c59 -24 149 -49 149 -159c0 -87 -60 -142 -176 -142c-103 0 -162 35 -173 105l88 26c0 -23 7 -41 85 -41c79 0 85 29 85 52c0 45 -26 49 -92 75l-21 9c-59 23 -148 48 -148 158c0 87 60 143 177 143
c103 0 161 -35 172 -104l-88 -27c0 25 -7 41 -84 41c-80 0 -86 -30 -86 -53c0 -45 26 -48 91 -75z" />
    <glyph glyph-name="ampersand" unicode="&#x26;" horiz-adv-x="693" 
d="M527 237c0 -68 50 -126 116 -137l-69 -82c-38 16 -71 42 -97 75c-43 -56 -112 -93 -188 -93c-131 0 -238 107 -238 238c0 85 45 162 118 205c-32 32 -50 75 -50 120c0 94 76 170 170 170c93 0 170 -76 170 -170c0 -45 -18 -88 -50 -120c27 -16 50 -37 69 -61
c25 33 58 58 96 74l69 -81c-66 -12 -116 -69 -116 -138zM289 641c-44 0 -79 -35 -79 -78c0 -44 35 -79 79 -79c43 0 78 35 78 79c0 43 -35 78 -78 78zM289 98c77 0 140 62 140 139s-63 140 -140 140s-140 -63 -140 -140s63 -139 140 -139z" />
    <glyph glyph-name="zcaron" unicode="&#x17e;" horiz-adv-x="520" 
d="M258 553l-166 62l24 50l142 -82l142 82l24 -50zM468 0v90l-255 1l255 436h-418v-90h255l-255 -436z" />
    <glyph glyph-name="Zcaron" unicode="&#x17d;" horiz-adv-x="648" 
d="M324 759l-166 62l24 50l142 -82l142 82l24 -50zM305 443l134 166h-391v124h550v-124v0l-214 -265zM341 290l-134 -166h391v-124h-550v124v0l213 265z" />
    <glyph glyph-name="asciicircum" unicode="^" horiz-adv-x="414" 
d="M349 557c5 -9 10 -19 15 -29c-9 8 -16 14 -25 23c-9 6 -15 15 -24 23c-7 7 -13 15 -22 24c-6 7 -14 16 -21 25c-6 6 -14 15 -20 23c-8 8 -14 18 -21 27c-8 8 -14 16 -21 25l-3 3l-3 -3c-7 -9 -13 -17 -21 -25c-7 -9 -13 -19 -21 -27c-6 -8 -14 -17 -20 -23
c-7 -9 -15 -18 -22 -25c-8 -9 -14 -17 -23 -24c-7 -8 -15 -17 -22 -23c-9 -9 -16 -15 -25 -23c5 10 10 20 15 29c6 10 11 20 17 28c5 9 12 19 17 29c6 9 11 19 16 28c7 8 12 18 18 27s13 17 18 27c7 9 15 17 20 27l20 26l16 22l16 -22l20 -26c5 -10 13 -18 19 -27
c6 -10 11 -18 19 -27c6 -9 11 -19 18 -27c5 -9 10 -19 16 -28c5 -10 12 -20 17 -29c6 -8 11 -18 17 -28z" />
    <glyph glyph-name="caron" unicode="&#x2c7;" 
d="M430 553l-166 62l24 50l142 -82l142 82l24 -50z" />
    <glyph glyph-name="question" unicode="?" horiz-adv-x="564" 
d="M239 44c0 -24 20 -44 44 -44s44 20 44 44c0 25 -20 45 -44 45s-44 -20 -44 -45zM477 647c34 -53 38 -87 38 -133c0 -78 -61 -137 -105 -154c-66 -24 -83 -38 -83 -66v-165h-88v165c0 42 17 77 50 104c28 22 62 35 90 45c26 10 47 41 47 73c0 61 -10 69 -32 94
c-21 24 -56 35 -111 35c-56 0 -90 -11 -112 -35c-21 -25 -31 -33 -31 -96v-10h-89v10c0 84 16 110 52 152c38 46 97 68 180 68c48 0 90 -8 123 -24c30 -15 54 -36 71 -63z" />
    <glyph glyph-name="at" unicode="@" horiz-adv-x="817" 
d="M769 288c0 -42 -7 -83 -20 -119v0s-10 -34 -40 -79c-17 -26 -38 -55 -76 -83c-1 -1 -13 -8 -23 -8c-11 -1 -27 -1 -37 1c-16 4 -27 13 -35 21c-20 21 -22 55 -22 79v0v46c-33 -28 -76 -46 -124 -46c-103 0 -187 84 -187 188s84 188 187 188c48 0 91 -18 124 -46v46h64
v-364c0 -12 3 -23 18 -25c10 0 36 12 58 37c30 47 49 104 49 164c0 163 -133 296 -296 296s-296 -133 -296 -296s133 -296 296 -296c24 0 46 2 67 8l42 -55c-35 -11 -71 -17 -109 -17c-198 0 -360 162 -360 360s162 360 360 360s360 -162 360 -360zM392 164
c69 0 124 56 124 124c0 67 -55 123 -124 123c-68 0 -123 -56 -123 -123c0 -68 55 -124 123 -124z" />
    <glyph glyph-name="guilsinglleft" unicode="&#x2039;" horiz-adv-x="416" 
d="M357 0h-50l-257 259l266 268h50l-266 -268z" />
    <glyph glyph-name="guilsinglright" unicode="&#x203a;" horiz-adv-x="412" 
d="M312 268l-257 259h50l257 -259l-266 -268h-50z" />
    <glyph glyph-name="degree" unicode="&#xb0;" horiz-adv-x="425" 
d="M212 619c88 0 163 -73 163 -161c0 -90 -75 -161 -163 -161s-163 71 -163 161c0 88 75 161 163 161zM212 368c50 0 88 40 88 90c0 48 -38 88 -88 88s-88 -40 -88 -88c0 -50 38 -90 88 -90z" />
    <glyph glyph-name="questiondown" unicode="&#xbf;" horiz-adv-x="562" 
d="M325 690c0 -25 -20 -45 -44 -45s-44 20 -44 45c0 24 20 44 44 44s44 -20 44 -44v0zM87 87c-34 53 -38 87 -38 133c0 78 61 137 105 154c66 24 83 38 83 66v165h88v-165c0 -42 -17 -77 -50 -104c-28 -22 -62 -35 -90 -45c-26 -10 -47 -41 -47 -73c0 -61 10 -69 32 -94
c21 -24 56 -35 111 -35c56 0 90 11 112 35c21 25 31 33 31 96v10h89v-10c0 -84 -16 -110 -52 -152c-38 -46 -97 -68 -180 -68c-48 0 -90 8 -123 24c-30 15 -54 36 -71 63z" />
    <glyph glyph-name="exclamdown" unicode="&#xa1;" horiz-adv-x="191" 
d="M51 0v607h90v-607h-90zM140 689c0 -25 -20 -45 -44 -45s-44 20 -44 45c0 24 20 44 44 44s44 -20 44 -44z" />
    <glyph glyph-name="dollar" unicode="$" horiz-adv-x="620" 
d="M573 262c0 -75 -61 -178 -195 -204v-58h-106v55c-138 15 -208 108 -219 185l103 20c1 -22 24 -85 116 -100v156c-204 12 -221 121 -221 155c0 80 69 191 221 207v55h106v-58c121 -23 183 -109 193 -181l-103 -20c-1 19 -20 72 -90 93v-151c51 -6 93 -18 124 -37
c46 -27 71 -69 71 -117zM156 471c0 -18 32 -44 116 -50v151c-94 -15 -116 -82 -116 -101zM378 166c73 22 90 79 90 96c0 20 -29 40 -90 48v-144z" />
    <glyph glyph-name="quotedblbase" unicode="&#x201e;" horiz-adv-x="290" 
d="M137 111c0 0 4 -53 -82 -111c0 0 33 35 25 70c-17 6 -29 22 -29 41c0 24 19 44 43 44s43 -20 43 -44zM240 111c0 0 4 -53 -82 -111c0 0 33 35 25 70c-17 6 -29 22 -29 41c0 24 19 44 43 44s43 -20 43 -44z" />
    <glyph glyph-name="quotesinglbase" unicode="&#x201a;" horiz-adv-x="184" 
d="M136 111c0 0 4 -53 -82 -111c0 0 33 35 25 70c-17 6 -29 22 -29 41c0 24 19 44 43 44s43 -20 43 -44z" />
    <glyph glyph-name="numbersign" unicode="#" horiz-adv-x="813" 
d="M640 262l52 -89l-146 -1l-31 -102h-103l30 102h-55h-97l-30 -102h-103l30 101h-104l-52 89l183 1l39 130h-93l-52 89h171l35 117h103l-35 -116h31h103h19l35 116h103l-35 -116l79 1l52 -89l-158 -1l-39 -130h68zM439 261h30l39 131h-44l-103 -1h-5l-39 -130h18h104z" />
    <glyph glyph-name="NULL" horiz-adv-x="0" 
 />
    <glyph glyph-name="NULL" horiz-adv-x="0" 
 />
    <glyph glyph-name="CR" unicode="&#xd;" horiz-adv-x="500" 
 />
    <glyph glyph-name="A" unicode="A" 
d="M416 733l366 -733h-733zM416 483l-185 -371h370z" />
    <glyph glyph-name="space" unicode=" " horiz-adv-x="500" 
 />
  </font>
</defs>
</svg>
