<?xml version="1.0" standalone="no"?>
<!DOCTYPE svg PUBLIC "-//W3C//DTD SVG 1.1//EN" "http://www.w3.org/Graphics/SVG/1.1/DTD/svg11.dtd" >
<svg xmlns="http://www.w3.org/2000/svg" xmlns:xlink="http://www.w3.org/1999/xlink" version="1.1">
<metadata>
Created by FontForge 20170910 at Mon Feb  8 10:07:56 2016
 By Jimmy Wärting
Pangram Pangram 2015
</metadata>
<defs>
<font id="Pangram-Medium" horiz-adv-x="640" >
  <font-face 
    font-family="Pangram Medium"
    font-weight="500"
    font-stretch="normal"
    units-per-em="1000"
    panose-1="0 0 6 0 0 0 0 0 0 0"
    ascent="800"
    descent="-200"
    x-height="506"
    cap-height="710"
    bbox="-801 -263 1293 1007"
    underline-thickness="50"
    underline-position="-100"
    unicode-range="U+0020-25CA"
  />
<missing-glyph horiz-adv-x="490" 
d="M402 750v-980h-311v980h311zM326 684h-161v-32h63v-36h-64v-33h162v33h-64v36h64v32zM262 558h-98v-102h162v33h-64v69zM228 525v-36h-32v36h32zM326 430h-162v-33h64v-36h-64v-32h98v68h64v33zM326 371h-32v-65h-130v-33h162v98zM326 251h-98v-55h34v23h32v-46h-98v78
h-32v-111h162v111zM326 82h-162v-111h162v111zM294 49v-46h-98v46h98zM326 -52h-162v-32h68l-68 -46v-32h162v32h-100l69 46h31v32z" />
    <glyph glyph-name=".notdef" horiz-adv-x="490" 
d="M402 750v-980h-311v980h311zM326 684h-161v-32h63v-36h-64v-33h162v33h-64v36h64v32zM262 558h-98v-102h162v33h-64v69zM228 525v-36h-32v36h32zM326 430h-162v-33h64v-36h-64v-32h98v68h64v33zM326 371h-32v-65h-130v-33h162v98zM326 251h-98v-55h34v23h32v-46h-98v78
h-32v-111h162v111zM326 82h-162v-111h162v111zM294 49v-46h-98v46h98zM326 -52h-162v-32h68l-68 -46v-32h162v32h-100l69 46h31v32z" />
    <glyph glyph-name="space" unicode=" " horiz-adv-x="246" 
 />
    <glyph glyph-name="A" unicode="A" horiz-adv-x="770" 
d="M602 0l-60 166h-294l-60 -166h-108l256 710h118l256 -710h-108zM284 265h223l-112 309z" />
    <glyph glyph-name="Aacute" unicode="&#xc1;" horiz-adv-x="770" 
d="M543 967l-107 -153h-82l81 153h108zM602 0l-60 166h-294l-60 -166h-108l256 710h118l256 -710h-108zM284 265h223l-112 309z" />
    <glyph glyph-name="Abreve" unicode="&#x102;" horiz-adv-x="770" 
d="M395 814c-92 0 -178 55 -178 153h82c0 -35 24 -82 96 -82s97 47 97 82h81c0 -98 -86 -153 -178 -153zM602 0l-60 166h-294l-60 -166h-108l256 710h118l256 -710h-108zM284 265h223l-112 309z" />
    <glyph glyph-name="Acircumflex" unicode="&#xc2;" horiz-adv-x="770" 
d="M396 910l-62 -96h-94l116 153h80l116 -153h-94zM602 0l-60 166h-294l-60 -166h-108l256 710h118l256 -710h-108zM284 265h223l-112 309z" />
    <glyph glyph-name="Adieresis" unicode="&#xc4;" horiz-adv-x="770" 
d="M308 840c-31 0 -56 25 -56 56s25 56 56 56s56 -25 56 -56s-25 -56 -56 -56zM483 840c-31 0 -56 25 -56 56s25 56 56 56s56 -25 56 -56s-25 -56 -56 -56zM602 0l-60 166h-294l-60 -166h-108l256 710h118l256 -710h-108zM284 265h223l-112 309z" />
    <glyph glyph-name="Agrave" unicode="&#xc0;" horiz-adv-x="770" 
d="M437 814h-82l-107 153h108zM602 0l-60 166h-294l-60 -166h-108l256 710h118l256 -710h-108zM284 265h223l-112 309z" />
    <glyph glyph-name="Amacron" unicode="&#x100;" horiz-adv-x="770" 
d="M520 943v-99h-252v99h252zM602 0l-60 166h-294l-60 -166h-108l256 710h118l256 -710h-108zM284 265h223l-112 309z" />
    <glyph glyph-name="Aogonek" unicode="&#x104;" horiz-adv-x="770" 
d="M697 -88c34 0 67 17 83 28v-84c-16 -16 -47 -42 -103 -42c-82 0 -133 98 -61 186h-14l-60 166h-294l-60 -166h-108l256 710h118l256 -710h-12c-41 -42 -42 -88 -1 -88zM284 265h223l-112 309z" />
    <glyph glyph-name="Aring" unicode="&#xc5;" horiz-adv-x="770" 
d="M395 819c-44 0 -79 35 -79 79s35 79 79 79s79 -35 79 -79s-35 -79 -79 -79zM395 929c-17 0 -31 -14 -31 -31s14 -31 31 -31s31 14 31 31s-14 31 -31 31zM602 0l-60 166h-294l-60 -166h-108l256 710h118l256 -710h-108zM284 265h223l-112 309z" />
    <glyph glyph-name="Atilde" unicode="&#xc3;" horiz-adv-x="770" 
d="M322 882c-35 0 -55 -23 -55 -54l-88 17c6 63 39 121 121 121c76 0 107 -70 168 -70c36 0 56 20 56 54l87 -17c-5 -63 -39 -121 -120 -121c-76 0 -107 70 -169 70zM602 0l-60 166h-294l-60 -166h-108l256 710h118l256 -710h-108zM284 265h223l-112 309z" />
    <glyph glyph-name="AE" unicode="&#xc6;" horiz-adv-x="990" 
d="M944 611h-285v-197h222v-99h-222v-216h285v-99h-389v169h-273l-89 -169h-113l375 710h489v-99zM555 611h-39l-182 -344h221v344z" />
    <glyph glyph-name="B" unicode="B" horiz-adv-x="629" 
d="M449 379c66 -35 115 -97 115 -178c0 -129 -97 -201 -250 -201h-228v710h213c148 0 225 -78 225 -188c0 -61 -29 -111 -75 -143zM190 611v-189h109c77 0 120 29 120 95c0 61 -43 94 -120 94h-109zM314 99c96 0 145 39 145 108c0 68 -49 116 -140 116h-129v-224h124z" />
    <glyph glyph-name="C" unicode="C" horiz-adv-x="723" 
d="M653 544c-31 32 -96 77 -196 77c-143 0 -263 -112 -263 -266s120 -266 263 -266c100 0 165 46 196 77v-106c-35 -31 -104 -70 -208 -70c-199 0 -355 160 -355 365s156 365 355 365c104 0 173 -39 208 -70v-106z" />
    <glyph glyph-name="Cacute" unicode="&#x106;" horiz-adv-x="723" 
d="M478 967h108l-107 -153h-82zM653 544c-31 32 -96 77 -196 77c-143 0 -263 -112 -263 -266s120 -266 263 -266c100 0 165 46 196 77v-106c-35 -31 -104 -70 -208 -70c-199 0 -355 160 -355 365s156 365 355 365c104 0 173 -39 208 -70v-106z" />
    <glyph glyph-name="Ccaron" unicode="&#x10c;" horiz-adv-x="723" 
d="M397 814l-116 153h94l62 -96l62 96h94l-116 -153h-80zM457 621c-143 0 -263 -112 -263 -266s120 -266 263 -266c100 0 165 46 196 77v-106c-35 -31 -104 -70 -208 -70c-199 0 -355 160 -355 365s156 365 355 365c104 0 173 -39 208 -70v-106c-31 32 -96 77 -196 77z" />
    <glyph glyph-name="Ccedilla" unicode="&#xc7;" horiz-adv-x="723" 
d="M457 621c-143 0 -263 -112 -263 -266s120 -266 263 -266c100 0 165 46 196 77v-106c-32 -27 -90 -62 -177 -69l-23 -41c57 -1 97 -22 97 -68c0 -89 -147 -87 -199 -87l20 50c63 0 120 3 120 35c0 24 -27 30 -61 30l-59 -2l33 84c-179 20 -314 173 -314 363
c0 205 156 365 355 365c104 0 173 -39 208 -70v-106c-31 32 -96 77 -196 77z" />
    <glyph glyph-name="Cdotaccent" unicode="&#x10a;" horiz-adv-x="723" 
d="M438 840c-31 0 -56 25 -56 56s25 56 56 56s56 -25 56 -56s-25 -56 -56 -56zM653 544c-31 32 -96 77 -196 77c-143 0 -263 -112 -263 -266s120 -266 263 -266c100 0 165 46 196 77v-106c-35 -31 -104 -70 -208 -70c-199 0 -355 160 -355 365s156 365 355 365
c104 0 173 -39 208 -70v-106z" />
    <glyph glyph-name="D" unicode="D" horiz-adv-x="705" 
d="M311 710c202 0 339 -156 339 -355s-137 -355 -339 -355h-237v710h237zM311 99c134 0 235 96 235 256s-101 256 -235 256h-132v-512h132z" />
    <glyph glyph-name="Eth" unicode="&#xd0;" horiz-adv-x="705" 
d="M311 710c202 0 339 -156 339 -355s-137 -355 -339 -355h-237v306h-120v99h120v305h237zM311 99c134 0 235 96 235 256s-101 256 -235 256h-132v-206h160v-99h-160v-207h132z" />
    <glyph glyph-name="Dcaron" unicode="&#x10e;" horiz-adv-x="705" 
d="M262 814l-116 153h94l62 -96l62 96h94l-116 -153h-80zM311 710c202 0 339 -156 339 -355s-137 -355 -339 -355h-237v710h237zM311 99c134 0 235 96 235 256s-101 256 -235 256h-132v-512h132z" />
    <glyph glyph-name="Dcroat" unicode="&#x110;" horiz-adv-x="705" 
d="M311 710c202 0 339 -156 339 -355s-137 -355 -339 -355h-237v306h-120v99h120v305h237zM311 99c134 0 235 96 235 256s-101 256 -235 256h-132v-206h160v-99h-160v-207h132z" />
    <glyph glyph-name="E" unicode="E" horiz-adv-x="518" 
d="M464 611h-285v-197h222v-99h-222v-216h285v-99h-390v710h390v-99z" />
    <glyph glyph-name="Eacute" unicode="&#xc9;" horiz-adv-x="518" 
d="M418 967l-107 -153h-82l81 153h108zM464 611h-285v-197h222v-99h-222v-216h285v-99h-390v710h390v-99z" />
    <glyph glyph-name="Ecaron" unicode="&#x11a;" horiz-adv-x="518" 
d="M229 814l-116 153h94l62 -96l62 96h94l-116 -153h-80zM464 611h-285v-197h222v-99h-222v-216h285v-99h-390v710h390v-99z" />
    <glyph glyph-name="Ecircumflex" unicode="&#xca;" horiz-adv-x="518" 
d="M271 910l-62 -96h-94l116 153h80l116 -153h-94zM464 611h-285v-197h222v-99h-222v-216h285v-99h-390v710h390v-99z" />
    <glyph glyph-name="Edieresis" unicode="&#xcb;" horiz-adv-x="518" 
d="M183 840c-31 0 -56 25 -56 56s25 56 56 56s56 -25 56 -56s-25 -56 -56 -56zM358 840c-31 0 -56 25 -56 56s25 56 56 56s56 -25 56 -56s-25 -56 -56 -56zM464 611h-285v-197h222v-99h-222v-216h285v-99h-390v710h390v-99z" />
    <glyph glyph-name="Edotaccent" unicode="&#x116;" horiz-adv-x="518" 
d="M270 840c-31 0 -56 25 -56 56s25 56 56 56s56 -25 56 -56s-25 -56 -56 -56zM464 611h-285v-197h222v-99h-222v-216h285v-99h-390v710h390v-99z" />
    <glyph glyph-name="Egrave" unicode="&#xc8;" horiz-adv-x="518" 
d="M313 814h-82l-107 153h108zM464 611h-285v-197h222v-99h-222v-216h285v-99h-390v710h390v-99z" />
    <glyph glyph-name="Emacron" unicode="&#x112;" horiz-adv-x="518" 
d="M395 943v-99h-252v99h252zM464 611h-285v-197h222v-99h-222v-216h285v-99h-390v710h390v-99z" />
    <glyph glyph-name="Eogonek" unicode="&#x118;" horiz-adv-x="518" 
d="M464 611h-285v-197h222v-99h-222v-216h285v-99h-94c-41 -42 -42 -88 -1 -88c34 0 67 17 83 28v-84c-16 -16 -47 -42 -103 -42c-82 0 -133 98 -61 186h-214v710h390v-99z" />
    <glyph glyph-name="uni1EBC" unicode="&#x1ebc;" horiz-adv-x="518" 
d="M197 882c-35 0 -55 -23 -55 -54l-88 17c6 63 39 121 121 121c76 0 107 -70 168 -70c36 0 56 20 56 54l87 -17c-5 -63 -39 -121 -120 -121c-76 0 -107 70 -169 70zM74 710h390v-99h-285v-197h222v-99h-222v-216h285v-99h-390v710z" />
    <glyph glyph-name="F" unicode="F" horiz-adv-x="509" 
d="M459 611h-285v-200h242v-99h-242v-312h-104v710h389v-99z" />
    <glyph glyph-name="G" unicode="G" horiz-adv-x="867" 
d="M416 387h381c0 -244 -144 -397 -356 -397c-203 0 -351 166 -351 365s148 365 362 365c124 0 216 -59 280 -147l-79 -61c-42 60 -107 109 -201 109c-150 0 -258 -118 -258 -266s102 -266 247 -266c130 0 221 81 245 199h-270v99z" />
    <glyph glyph-name="Gbreve" unicode="&#x11e;" horiz-adv-x="867" 
d="M446 814c-92 0 -178 55 -178 153h82c0 -35 24 -82 96 -82s97 47 97 82h81c0 -98 -86 -153 -178 -153zM416 387h381c0 -244 -144 -397 -356 -397c-203 0 -351 166 -351 365s148 365 362 365c124 0 216 -59 280 -147l-79 -61c-42 60 -107 109 -201 109
c-150 0 -258 -118 -258 -266s102 -266 247 -266c130 0 221 81 245 199h-270v99z" />
    <glyph glyph-name="Gcommaaccent" unicode="&#x122;" horiz-adv-x="867" 
d="M416 387h381c0 -244 -144 -397 -356 -397c-203 0 -351 166 -351 365s148 365 362 365c124 0 216 -59 280 -147l-79 -61c-42 60 -107 109 -201 109c-150 0 -258 -118 -258 -266s102 -266 247 -266c130 0 221 81 245 199h-270v99zM346 -263l49 203h109l-76 -203h-82z" />
    <glyph glyph-name="Gdotaccent" unicode="&#x120;" horiz-adv-x="867" 
d="M447 840c-31 0 -56 25 -56 56s25 56 56 56s56 -25 56 -56s-25 -56 -56 -56zM416 387h381c0 -244 -144 -397 -356 -397c-203 0 -351 166 -351 365s148 365 362 365c124 0 216 -59 280 -147l-79 -61c-42 60 -107 109 -201 109c-150 0 -258 -118 -258 -266
s102 -266 247 -266c130 0 221 81 245 199h-270v99z" />
    <glyph glyph-name="H" unicode="H" horiz-adv-x="692" 
d="M533 710h105v-710h-105v306h-354v-306h-105v710h105v-305h354v305z" />
    <glyph glyph-name="Hbar" unicode="&#x126;" horiz-adv-x="692" 
d="M749 615v-99h-111v-516h-105v306h-354v-306h-105v516h-93v99h93v95h105v-95h354v95h105v-95h111zM533 405v111h-354v-111h354z" />
    <glyph glyph-name="I" unicode="I" horiz-adv-x="244" 
d="M80 0v710h104v-710h-104z" />
    <glyph glyph-name="Iacute" unicode="&#xcd;" horiz-adv-x="244" 
d="M173 967h108l-107 -153h-82zM80 0v710h104v-710h-104z" />
    <glyph glyph-name="Icircumflex" unicode="&#xce;" horiz-adv-x="244" 
d="M174 967l116 -153h-94l-62 96l-62 -96h-94l116 153h80zM80 0v710h104v-710h-104z" />
    <glyph glyph-name="Idieresis" unicode="&#xcf;" horiz-adv-x="244" 
d="M46 840c-31 0 -56 25 -56 56s25 56 56 56s56 -25 56 -56s-25 -56 -56 -56zM221 840c-31 0 -56 25 -56 56s25 56 56 56s56 -25 56 -56s-25 -56 -56 -56zM80 0v710h104v-710h-104z" />
    <glyph glyph-name="Idotaccent" unicode="&#x130;" horiz-adv-x="244" 
d="M133 840c-31 0 -56 25 -56 56s25 56 56 56s56 -25 56 -56s-25 -56 -56 -56zM80 0v710h104v-710h-104z" />
    <glyph glyph-name="Igrave" unicode="&#xcc;" horiz-adv-x="244" 
d="M95 967l81 -153h-82l-107 153h108zM80 0v710h104v-710h-104z" />
    <glyph glyph-name="Imacron" unicode="&#x12a;" horiz-adv-x="244" 
d="M7 943h252v-99h-252v99zM80 0v710h104v-710h-104z" />
    <glyph glyph-name="Iogonek" unicode="&#x12e;" horiz-adv-x="244" 
d="M173 -88c34 0 67 17 83 28v-84c-16 -16 -47 -42 -103 -42c-82 0 -133 98 -61 186h-12v710h104v-710h-10c-41 -42 -42 -88 -1 -88z" />
    <glyph glyph-name="J" unicode="J" horiz-adv-x="545" 
d="M184 190c0 -60 35 -101 94 -101c54 0 93 26 93 121v500h104v-500c0 -151 -86 -220 -193 -220c-92 0 -202 58 -202 200h104z" />
    <glyph glyph-name="K" unicode="K" horiz-adv-x="677" 
d="M617 710l-285 -327l285 -383h-123l-230 305l-80 -90v-215h-104v710h104v-341l299 341h134z" />
    <glyph glyph-name="Kcommaaccent" unicode="&#x136;" horiz-adv-x="677" 
d="M617 710l-285 -327l285 -383h-123l-230 305l-80 -90v-215h-104v710h104v-341l299 341h134zM227 -263l49 203h109l-76 -203h-82z" />
    <glyph glyph-name="L" unicode="L" horiz-adv-x="554" 
d="M194 99h290v-99h-394v710h104v-611z" />
    <glyph glyph-name="Lacute" unicode="&#x139;" horiz-adv-x="554" 
d="M291 967l-107 -153h-82l81 153h108zM194 99h290v-99h-394v710h104v-611z" />
    <glyph glyph-name="Lcaron" unicode="&#x13d;" horiz-adv-x="554" 
d="M102 814l-116 153h94l62 -96l62 96h94l-116 -153h-80zM194 99h290v-99h-394v710h104v-611z" />
    <glyph glyph-name="Lcommaaccent" unicode="&#x13b;" horiz-adv-x="554" 
d="M194 99h290v-99h-394v710h104v-611zM159 -263l49 203h109l-76 -203h-82z" />
    <glyph glyph-name="Lslash" unicode="&#x141;" horiz-adv-x="554" 
d="M194 99h290v-99h-394v328l-84 -63v39l84 63v343h104v-264l90 67v-39l-90 -67v-308z" />
    <glyph glyph-name="M" unicode="M" horiz-adv-x="893" 
d="M717 710h105v-710h-105v521l-238 -383h-45l-238 383v-521h-105v710h105l260 -416z" />
    <glyph glyph-name="N" unicode="N" horiz-adv-x="730" 
d="M566 710h104v-710h-104l-382 534v-534h-104v710h104l382 -534v534z" />
    <glyph glyph-name="Nacute" unicode="&#x143;" horiz-adv-x="730" 
d="M527 967l-107 -153h-82l81 153h108zM566 710h104v-710h-104l-382 534v-534h-104v710h104l382 -534v534z" />
    <glyph glyph-name="Ncaron" unicode="&#x147;" horiz-adv-x="730" 
d="M338 814l-116 153h94l62 -96l62 96h94l-116 -153h-80zM566 710h104v-710h-104l-382 534v-534h-104v710h104l382 -534v534z" />
    <glyph glyph-name="Ncommaaccent" unicode="&#x145;" horiz-adv-x="730" 
d="M566 710h104v-710h-104l-382 534v-534h-104v710h104l382 -534v534zM278 -263l49 203h109l-76 -203h-82z" />
    <glyph glyph-name="Eng" unicode="&#x14a;" horiz-adv-x="770" 
d="M566 710h104v-755c0 -129 -72 -169 -140 -169c-54 0 -89 17 -104 29v86c13 -6 39 -16 59 -16c66 0 81 33 81 84v31l-382 534v-534h-104v710h104l382 -534v534z" />
    <glyph glyph-name="Ntilde" unicode="&#xd1;" horiz-adv-x="730" 
d="M306 882c-35 0 -55 -23 -55 -54l-88 17c6 63 39 121 121 121c76 0 107 -70 168 -70c36 0 56 20 56 54l87 -17c-5 -63 -39 -121 -120 -121c-76 0 -107 70 -169 70zM566 710h104v-710h-104l-382 534v-534h-104v710h104l382 -534v534z" />
    <glyph glyph-name="O" unicode="O" horiz-adv-x="880" 
d="M450 -10c-203 0 -360 164 -360 365s157 365 360 365c202 0 360 -164 360 -365s-158 -365 -360 -365zM450 89c146 0 255 121 255 266s-109 266 -255 266c-147 0 -256 -121 -256 -266s109 -266 256 -266z" />
    <glyph glyph-name="Oacute" unicode="&#xd3;" horiz-adv-x="880" 
d="M490 967h108l-107 -153h-82zM450 -10c-203 0 -360 164 -360 365s157 365 360 365c202 0 360 -164 360 -365s-158 -365 -360 -365zM450 89c146 0 255 121 255 266s-109 266 -255 266c-147 0 -256 -121 -256 -266s109 -266 256 -266z" />
    <glyph glyph-name="Ocircumflex" unicode="&#xd4;" horiz-adv-x="880" 
d="M451 910l-62 -96h-94l116 153h80l116 -153h-94zM450 720c202 0 360 -164 360 -365s-158 -365 -360 -365c-203 0 -360 164 -360 365s157 365 360 365zM450 89c146 0 255 121 255 266s-109 266 -255 266c-147 0 -256 -121 -256 -266s109 -266 256 -266z" />
    <glyph glyph-name="Odieresis" unicode="&#xd6;" horiz-adv-x="880" 
d="M363 840c-31 0 -56 25 -56 56s25 56 56 56s56 -25 56 -56s-25 -56 -56 -56zM538 840c-31 0 -56 25 -56 56s25 56 56 56s56 -25 56 -56s-25 -56 -56 -56zM450 -10c-203 0 -360 164 -360 365s157 365 360 365c202 0 360 -164 360 -365s-158 -365 -360 -365zM450 89
c146 0 255 121 255 266s-109 266 -255 266c-147 0 -256 -121 -256 -266s109 -266 256 -266z" />
    <glyph glyph-name="Ograve" unicode="&#xd2;" horiz-adv-x="880" 
d="M411 967l81 -153h-82l-107 153h108zM450 -10c-203 0 -360 164 -360 365s157 365 360 365c202 0 360 -164 360 -365s-158 -365 -360 -365zM450 89c146 0 255 121 255 266s-109 266 -255 266c-147 0 -256 -121 -256 -266s109 -266 256 -266z" />
    <glyph glyph-name="Ohungarumlaut" unicode="&#x150;" horiz-adv-x="880" 
d="M417 967h108l-107 -153h-82zM577 967h108l-107 -153h-82zM450 -10c-203 0 -360 164 -360 365s157 365 360 365c202 0 360 -164 360 -365s-158 -365 -360 -365zM450 89c146 0 255 121 255 266s-109 266 -255 266c-147 0 -256 -121 -256 -266s109 -266 256 -266z" />
    <glyph glyph-name="Omacron" unicode="&#x14c;" horiz-adv-x="880" 
d="M323 943h252v-99h-252v99zM450 -10c-203 0 -360 164 -360 365s157 365 360 365c202 0 360 -164 360 -365s-158 -365 -360 -365zM450 89c146 0 255 121 255 266s-109 266 -255 266c-147 0 -256 -121 -256 -266s109 -266 256 -266z" />
    <glyph glyph-name="Oslash" unicode="&#xd8;" horiz-adv-x="880" 
d="M680 637c80 -67 130 -169 130 -282c0 -201 -158 -365 -360 -365c-79 0 -151 25 -209 67l-73 -97h-39l88 116c-78 67 -127 167 -127 279c0 201 157 365 360 365c77 0 148 -24 206 -64l71 94h39zM194 355c0 -78 32 -149 84 -198l317 418c-41 29 -90 46 -145 46
c-147 0 -256 -121 -256 -266zM450 89c146 0 255 121 255 266c0 79 -33 152 -86 201l-317 -419c41 -30 92 -48 148 -48z" />
    <glyph glyph-name="Otilde" unicode="&#xd5;" horiz-adv-x="880" 
d="M234 845c6 63 39 121 121 121c76 0 107 -70 168 -70c36 0 56 20 56 54l87 -17c-5 -63 -39 -121 -120 -121c-76 0 -107 70 -169 70c-35 0 -55 -23 -55 -54zM450 -10c-203 0 -360 164 -360 365s157 365 360 365c202 0 360 -164 360 -365s-158 -365 -360 -365zM450 89
c146 0 255 121 255 266s-109 266 -255 266c-147 0 -256 -121 -256 -266s109 -266 256 -266z" />
    <glyph glyph-name="OE" unicode="&#x152;" horiz-adv-x="1182" 
d="M1136 611h-285v-197h222v-99h-222v-216h285v-99h-389v148c-64 -95 -172 -158 -297 -158c-203 0 -360 164 -360 365s157 365 360 365c125 0 233 -63 297 -158v148h389v-99zM450 89c146 0 255 121 255 266s-109 266 -255 266c-147 0 -256 -121 -256 -266s109 -266 256 -266
z" />
    <glyph glyph-name="P" unicode="P" horiz-adv-x="629" 
d="M320 710c138 0 255 -84 255 -238c0 -153 -117 -237 -255 -237h-141v-235h-105v710h246zM320 333c87 0 151 46 151 139s-64 139 -151 139h-141v-278h141z" />
    <glyph glyph-name="Thorn" unicode="&#xde;" horiz-adv-x="587" 
d="M299 599c138 0 255 -84 255 -237c0 -154 -117 -238 -255 -238h-125v-124h-104v733h104v-134h125zM299 223c86 0 150 46 150 139s-64 139 -150 139h-125v-278h125z" />
    <glyph glyph-name="Q" unicode="Q" horiz-adv-x="877" 
d="M816 24l-72 -72l-96 97c-56 -37 -124 -59 -198 -59c-203 0 -360 164 -360 365s157 365 360 365c202 0 360 -164 360 -365c0 -91 -33 -174 -86 -238zM450 89c46 0 89 12 126 33l-98 100l71 71l102 -103c34 46 54 103 54 165c0 145 -109 266 -255 266
c-147 0 -256 -121 -256 -266s109 -266 256 -266z" />
    <glyph glyph-name="R" unicode="R" horiz-adv-x="635" 
d="M463 0l-144 230h-140v-230h-105v710h260c125 0 241 -91 241 -240c0 -111 -64 -190 -149 -223l155 -247h-118zM179 611v-282h155c74 0 137 53 137 141c0 89 -63 141 -137 141h-155z" />
    <glyph glyph-name="Racute" unicode="&#x154;" horiz-adv-x="635" 
d="M448 967l-107 -153h-82l81 153h108zM463 0l-144 230h-140v-230h-105v710h260c125 0 241 -91 241 -240c0 -111 -64 -190 -149 -223l155 -247h-118zM179 611v-282h155c74 0 137 53 137 141c0 89 -63 141 -137 141h-155z" />
    <glyph glyph-name="Rcaron" unicode="&#x158;" horiz-adv-x="635" 
d="M259 814l-116 153h94l62 -96l62 96h94l-116 -153h-80zM463 0l-144 230h-140v-230h-105v710h260c125 0 241 -91 241 -240c0 -111 -64 -190 -149 -223l155 -247h-118zM179 611v-282h155c74 0 137 53 137 141c0 89 -63 141 -137 141h-155z" />
    <glyph glyph-name="Rcommaaccent" unicode="&#x156;" horiz-adv-x="635" 
d="M426 247l155 -247h-118l-144 230h-140v-230h-105v710h260c125 0 241 -91 241 -240c0 -111 -64 -190 -149 -223zM179 611v-282h155c74 0 137 53 137 141c0 89 -63 141 -137 141h-155zM210 -263l49 203h109l-76 -203h-82z" />
    <glyph glyph-name="S" unicode="S" horiz-adv-x="624" 
d="M99 206h104c5 -80 65 -117 130 -117c74 0 116 38 116 89c0 65 -61 97 -144 140c-133 75 -191 124 -191 224c0 105 91 178 206 178c123 0 205 -92 209 -206h-104c-4 65 -46 107 -105 107c-56 0 -102 -33 -102 -83c0 -64 49 -87 124 -126c129 -68 212 -128 212 -238
c0 -116 -98 -184 -221 -184c-140 0 -230 99 -234 216z" />
    <glyph glyph-name="Sacute" unicode="&#x15a;" horiz-adv-x="624" 
d="M365 967h108l-107 -153h-82zM99 206h104c5 -80 65 -117 130 -117c74 0 116 38 116 89c0 65 -61 97 -144 140c-133 75 -191 124 -191 224c0 105 91 178 206 178c123 0 205 -92 209 -206h-104c-4 65 -46 107 -105 107c-56 0 -102 -33 -102 -83c0 -64 49 -87 124 -126
c129 -68 212 -128 212 -238c0 -116 -98 -184 -221 -184c-140 0 -230 99 -234 216z" />
    <glyph glyph-name="Scaron" unicode="&#x160;" horiz-adv-x="624" 
d="M284 814l-116 153h94l62 -96l62 96h94l-116 -153h-80zM342 412c129 -68 212 -128 212 -238c0 -116 -98 -184 -221 -184c-140 0 -230 99 -234 216h104c5 -80 65 -117 130 -117c74 0 116 38 116 89c0 65 -61 97 -144 140c-133 75 -191 124 -191 224c0 105 91 178 206 178
c123 0 205 -92 209 -206h-104c-4 65 -46 107 -105 107c-56 0 -102 -33 -102 -83c0 -64 49 -87 124 -126z" />
    <glyph glyph-name="Scedilla" unicode="&#x15e;" horiz-adv-x="624" 
d="M554 174c0 -108 -84 -174 -195 -183l-23 -41c57 -1 97 -22 97 -68c0 -89 -147 -87 -199 -87l20 50c63 0 120 3 120 35c0 24 -27 30 -61 30l-59 -2l34 86c-114 19 -185 108 -189 212h104c5 -80 65 -117 130 -117c74 0 116 38 116 89c0 65 -61 97 -144 140
c-133 75 -191 124 -191 224c0 105 91 178 206 178c123 0 205 -92 209 -206h-104c-4 65 -46 107 -105 107c-56 0 -102 -33 -102 -83c0 -64 49 -87 124 -126c129 -68 212 -128 212 -238z" />
    <glyph glyph-name="Scommaaccent" unicode="&#x218;" horiz-adv-x="624" 
d="M99 206h104c5 -80 65 -117 130 -117c74 0 116 38 116 89c0 65 -61 97 -144 140c-133 75 -191 124 -191 224c0 105 91 178 206 178c123 0 205 -92 209 -206h-104c-4 65 -46 107 -105 107c-56 0 -102 -33 -102 -83c0 -64 49 -87 124 -126c129 -68 212 -128 212 -238
c0 -116 -98 -184 -221 -184c-140 0 -230 99 -234 216zM273 -60h109l-76 -203h-82z" />
    <glyph glyph-name="T" unicode="T" horiz-adv-x="566" 
d="M516 710v-99h-171v-611h-104v611h-171v99h446z" />
    <glyph glyph-name="Tbar" unicode="&#x166;" horiz-adv-x="566" 
d="M516 611h-171v-206h142v-99h-142v-306h-104v306h-139v99h139v206h-171v99h446v-99z" />
    <glyph glyph-name="Tcaron" unicode="&#x164;" horiz-adv-x="566" 
d="M252 814l-116 153h94l62 -96l62 96h94l-116 -153h-80zM516 710v-99h-171v-611h-104v611h-171v99h446z" />
    <glyph glyph-name="uni0162" unicode="&#x162;" horiz-adv-x="566" 
d="M345 0h-13l-28 -50c57 -1 97 -22 97 -68c0 -89 -147 -87 -199 -87l20 50c63 0 120 3 120 35c0 24 -27 30 -61 30l-59 -2l36 92h-17v611h-171v99h446v-99h-171v-611z" />
    <glyph glyph-name="uni021A" unicode="&#x21a;" horiz-adv-x="566" 
d="M516 710v-99h-171v-611h-104v611h-171v99h446zM192 -263l49 203h109l-76 -203h-82z" />
    <glyph glyph-name="U" unicode="U" horiz-adv-x="690" 
d="M635 298c0 -212 -108 -308 -280 -308c-173 0 -281 96 -281 308v412h105v-412c0 -153 67 -209 176 -209s176 56 176 209v412h104v-412z" />
    <glyph glyph-name="Uacute" unicode="&#xda;" horiz-adv-x="690" 
d="M395 967h108l-107 -153h-82zM635 298c0 -212 -108 -308 -280 -308c-173 0 -281 96 -281 308v412h105v-412c0 -153 67 -209 176 -209s176 56 176 209v412h104v-412z" />
    <glyph glyph-name="Ucircumflex" unicode="&#xdb;" horiz-adv-x="690" 
d="M356 910l-62 -96h-94l116 153h80l116 -153h-94zM531 710h104v-412c0 -212 -108 -308 -280 -308c-173 0 -281 96 -281 308v412h105v-412c0 -153 67 -209 176 -209s176 56 176 209v412z" />
    <glyph glyph-name="Udieresis" unicode="&#xdc;" horiz-adv-x="690" 
d="M268 840c-31 0 -56 25 -56 56s25 56 56 56s56 -25 56 -56s-25 -56 -56 -56zM443 840c-31 0 -56 25 -56 56s25 56 56 56s56 -25 56 -56s-25 -56 -56 -56zM635 298c0 -212 -108 -308 -280 -308c-173 0 -281 96 -281 308v412h105v-412c0 -153 67 -209 176 -209
s176 56 176 209v412h104v-412z" />
    <glyph glyph-name="Ugrave" unicode="&#xd9;" horiz-adv-x="690" 
d="M317 967l81 -153h-82l-107 153h108zM635 298c0 -212 -108 -308 -280 -308c-173 0 -281 96 -281 308v412h105v-412c0 -153 67 -209 176 -209s176 56 176 209v412h104v-412z" />
    <glyph glyph-name="Uhungarumlaut" unicode="&#x170;" horiz-adv-x="690" 
d="M322 967h108l-107 -153h-82zM482 967h108l-107 -153h-82zM635 298c0 -212 -108 -308 -280 -308c-173 0 -281 96 -281 308v412h105v-412c0 -153 67 -209 176 -209s176 56 176 209v412h104v-412z" />
    <glyph glyph-name="Umacron" unicode="&#x16a;" horiz-adv-x="690" 
d="M228 943h252v-99h-252v99zM635 298c0 -212 -108 -308 -280 -308c-173 0 -281 96 -281 308v412h105v-412c0 -153 67 -209 176 -209s176 56 176 209v412h104v-412z" />
    <glyph glyph-name="Uogonek" unicode="&#x172;" horiz-adv-x="690" 
d="M531 710h104v-412c0 -202 -97 -298 -255 -307c-24 -36 -20 -69 15 -69c34 0 67 17 83 28v-84c-16 -16 -47 -42 -103 -42c-77 0 -126 86 -73 169c-141 19 -228 115 -228 305v412h105v-412c0 -153 67 -209 176 -209s176 56 176 209v412z" />
    <glyph glyph-name="Uring" unicode="&#x16e;" horiz-adv-x="690" 
d="M355 819c-44 0 -79 35 -79 79s35 79 79 79s79 -35 79 -79s-35 -79 -79 -79zM355 867c17 0 31 14 31 31s-14 31 -31 31s-31 -14 -31 -31s14 -31 31 -31zM635 298c0 -212 -108 -308 -280 -308c-173 0 -281 96 -281 308v412h105v-412c0 -153 67 -209 176 -209
s176 56 176 209v412h104v-412z" />
    <glyph glyph-name="Utilde" unicode="&#x168;" horiz-adv-x="690" 
d="M139 845c6 63 39 121 121 121c76 0 107 -70 168 -70c36 0 56 20 56 54l87 -17c-5 -63 -39 -121 -120 -121c-76 0 -107 70 -169 70c-35 0 -55 -23 -55 -54zM635 298c0 -212 -108 -308 -280 -308c-173 0 -281 96 -281 308v412h105v-412c0 -153 67 -209 176 -209
s176 56 176 209v412h104v-412z" />
    <glyph glyph-name="V" unicode="V" horiz-adv-x="731" 
d="M572 710h109l-245 -710h-121l-245 710h109l196 -582z" />
    <glyph glyph-name="W" unicode="W" horiz-adv-x="1161" 
d="M1004 710h107l-225 -710h-124l-172 541l-171 -541h-124l-225 710h107l180 -573l180 573h107l180 -573z" />
    <glyph glyph-name="Wacute" unicode="&#x1e82;" horiz-adv-x="1161" 
d="M738 967l-107 -153h-82l81 153h108zM1004 710h107l-225 -710h-124l-172 541l-171 -541h-124l-225 710h107l180 -573l180 573h107l180 -573z" />
    <glyph glyph-name="Wcircumflex" unicode="&#x174;" horiz-adv-x="1161" 
d="M591 910l-62 -96h-94l116 153h80l116 -153h-94zM1004 710h107l-225 -710h-124l-172 541l-171 -541h-124l-225 710h107l180 -573l180 573h107l180 -573z" />
    <glyph glyph-name="Wdieresis" unicode="&#x1e84;" horiz-adv-x="1161" 
d="M503 840c-31 0 -56 25 -56 56s25 56 56 56s56 -25 56 -56s-25 -56 -56 -56zM678 840c-31 0 -56 25 -56 56s25 56 56 56s56 -25 56 -56s-25 -56 -56 -56zM1004 710h107l-225 -710h-124l-172 541l-171 -541h-124l-225 710h107l180 -573l180 573h107l180 -573z" />
    <glyph glyph-name="Wgrave" unicode="&#x1e80;" horiz-adv-x="1161" 
d="M633 814h-82l-107 153h108zM1004 710h107l-225 -710h-124l-172 541l-171 -541h-124l-225 710h107l180 -573l180 573h107l180 -573z" />
    <glyph glyph-name="X" unicode="X" horiz-adv-x="783" 
d="M733 710l-268 -355l268 -355h-127l-205 271l-204 -271h-127l268 355l-268 355h127l204 -271l205 271h127z" />
    <glyph glyph-name="Y" unicode="Y" horiz-adv-x="740" 
d="M572 710h118l-258 -420v-290h-104v290l-258 420h118l192 -312z" />
    <glyph glyph-name="Yacute" unicode="&#xdd;" horiz-adv-x="740" 
d="M528 967l-107 -153h-82l81 153h108zM572 710h118l-258 -420v-290h-104v290l-258 420h118l192 -312z" />
    <glyph glyph-name="Ycircumflex" unicode="&#x176;" horiz-adv-x="740" 
d="M381 910l-62 -96h-94l116 153h80l116 -153h-94zM572 710h118l-258 -420v-290h-104v290l-258 420h118l192 -312z" />
    <glyph glyph-name="Ydieresis" unicode="&#x178;" horiz-adv-x="740" 
d="M293 840c-31 0 -56 25 -56 56s25 56 56 56s56 -25 56 -56s-25 -56 -56 -56zM468 840c-31 0 -56 25 -56 56s25 56 56 56s56 -25 56 -56s-25 -56 -56 -56zM572 710h118l-258 -420v-290h-104v290l-258 420h118l192 -312z" />
    <glyph glyph-name="Ygrave" unicode="&#x1ef2;" horiz-adv-x="740" 
d="M423 814h-82l-107 153h108zM572 710h118l-258 -420v-290h-104v290l-258 420h118l192 -312z" />
    <glyph glyph-name="uni1EF8" unicode="&#x1ef8;" horiz-adv-x="740" 
d="M307 882c-35 0 -55 -23 -55 -54l-88 17c6 63 39 121 121 121c76 0 107 -70 168 -70c36 0 56 20 56 54l87 -17c-5 -63 -39 -121 -120 -121c-76 0 -107 70 -169 70zM572 710h118l-258 -420v-290h-104v290l-258 420h118l192 -312z" />
    <glyph glyph-name="Z" unicode="Z" horiz-adv-x="698" 
d="M638 710v-99l-412 -512h412v-99h-548v99l412 512h-412v99h548z" />
    <glyph glyph-name="Zacute" unicode="&#x179;" horiz-adv-x="698" 
d="M518 967l-107 -153h-82l81 153h108zM638 710v-99l-412 -512h412v-99h-548v99l412 512h-412v99h548z" />
    <glyph glyph-name="Zcaron" unicode="&#x17d;" horiz-adv-x="698" 
d="M329 814l-116 153h94l62 -96l62 96h94l-116 -153h-80zM638 710v-99l-412 -512h412v-99h-548v99l412 512h-412v99h548z" />
    <glyph glyph-name="Zdotaccent" unicode="&#x17b;" horiz-adv-x="698" 
d="M370 840c-31 0 -56 25 -56 56s25 56 56 56s56 -25 56 -56s-25 -56 -56 -56zM638 710v-99l-412 -512h412v-99h-548v99l412 512h-412v99h548z" />
    <glyph glyph-name="a" unicode="a" horiz-adv-x="711" 
d="M90 253c0 145 109 263 254 263c91 0 163 -50 192 -114l6 104h99v-506h-99l-6 105c-29 -65 -101 -115 -192 -115c-145 0 -254 118 -254 263zM194 253c0 -90 71 -164 167 -164c94 0 164 74 164 164s-70 164 -164 164c-96 0 -167 -74 -167 -164z" />
    <glyph glyph-name="aacute" unicode="&#xe1;" horiz-adv-x="711" 
d="M404 763h108l-107 -153h-82zM90 253c0 145 109 263 254 263c91 0 163 -50 192 -114l6 104h99v-506h-99l-6 105c-29 -65 -101 -115 -192 -115c-145 0 -254 118 -254 263zM194 253c0 -90 71 -164 167 -164c94 0 164 74 164 164s-70 164 -164 164c-96 0 -167 -74 -167 -164z
" />
    <glyph glyph-name="abreve" unicode="&#x103;" horiz-adv-x="711" 
d="M542 763c0 -98 -86 -153 -178 -153s-178 55 -178 153h82c0 -35 24 -82 96 -82s97 47 97 82h81zM90 253c0 145 109 263 254 263c91 0 163 -50 192 -114l6 104h99v-506h-99l-6 105c-29 -65 -101 -115 -192 -115c-145 0 -254 118 -254 263zM194 253c0 -90 71 -164 167 -164
c94 0 164 74 164 164s-70 164 -164 164c-96 0 -167 -74 -167 -164z" />
    <glyph glyph-name="acircumflex" unicode="&#xe2;" horiz-adv-x="711" 
d="M365 706l-62 -96h-94l116 153h80l116 -153h-94zM542 506h99v-506h-99l-6 105c-29 -65 -101 -115 -192 -115c-145 0 -254 118 -254 263s109 263 254 263c91 0 163 -50 192 -114zM361 89c94 0 164 74 164 164s-70 164 -164 164c-96 0 -167 -74 -167 -164s71 -164 167 -164z
" />
    <glyph glyph-name="adieresis" unicode="&#xe4;" horiz-adv-x="711" 
d="M277 636c-31 0 -56 25 -56 56s25 56 56 56s56 -25 56 -56s-25 -56 -56 -56zM452 636c-31 0 -56 25 -56 56s25 56 56 56s56 -25 56 -56s-25 -56 -56 -56zM90 253c0 145 109 263 254 263c91 0 163 -50 192 -114l6 104h99v-506h-99l-6 105c-29 -65 -101 -115 -192 -115
c-145 0 -254 118 -254 263zM194 253c0 -90 71 -164 167 -164c94 0 164 74 164 164s-70 164 -164 164c-96 0 -167 -74 -167 -164z" />
    <glyph glyph-name="agrave" unicode="&#xe0;" horiz-adv-x="711" 
d="M326 763l81 -153h-82l-107 153h108zM90 253c0 145 109 263 254 263c91 0 163 -50 192 -114l6 104h99v-506h-99l-6 105c-29 -65 -101 -115 -192 -115c-145 0 -254 118 -254 263zM194 253c0 -90 71 -164 167 -164c94 0 164 74 164 164s-70 164 -164 164
c-96 0 -167 -74 -167 -164z" />
    <glyph glyph-name="amacron" unicode="&#x101;" horiz-adv-x="711" 
d="M237 739h252v-99h-252v99zM90 253c0 145 109 263 254 263c91 0 163 -50 192 -114l6 104h99v-506h-99l-6 105c-29 -65 -101 -115 -192 -115c-145 0 -254 118 -254 263zM194 253c0 -90 71 -164 167 -164c94 0 164 74 164 164s-70 164 -164 164c-96 0 -167 -74 -167 -164z
" />
    <glyph glyph-name="aogonek" unicode="&#x105;" horiz-adv-x="711" 
d="M633 -88c34 0 67 17 83 28v-84c-16 -16 -47 -42 -103 -42c-82 0 -133 98 -61 186h-10l-6 105c-29 -65 -101 -115 -192 -115c-145 0 -254 118 -254 263s109 263 254 263c91 0 163 -50 192 -114l6 104h99v-506h-7c-41 -42 -42 -88 -1 -88zM361 89c94 0 164 74 164 164
s-70 164 -164 164c-96 0 -167 -74 -167 -164s71 -164 167 -164z" />
    <glyph glyph-name="aring" unicode="&#xe5;" horiz-adv-x="711" 
d="M364 615c-44 0 -79 35 -79 79s35 79 79 79s79 -35 79 -79s-35 -79 -79 -79zM364 663c17 0 31 14 31 31s-14 31 -31 31s-31 -14 -31 -31s14 -31 31 -31zM90 253c0 145 109 263 254 263c91 0 163 -50 192 -114l6 104h99v-506h-99l-6 105c-29 -65 -101 -115 -192 -115
c-145 0 -254 118 -254 263zM194 253c0 -90 71 -164 167 -164c94 0 164 74 164 164s-70 164 -164 164c-96 0 -167 -74 -167 -164z" />
    <glyph glyph-name="atilde" unicode="&#xe3;" horiz-adv-x="711" 
d="M148 641c6 63 39 121 121 121c76 0 107 -70 168 -70c36 0 56 20 56 54l87 -17c-5 -63 -39 -121 -120 -121c-76 0 -107 70 -169 70c-35 0 -55 -23 -55 -54zM90 253c0 145 109 263 254 263c91 0 163 -50 192 -114l6 104h99v-506h-99l-6 105c-29 -65 -101 -115 -192 -115
c-145 0 -254 118 -254 263zM194 253c0 -90 71 -164 167 -164c94 0 164 74 164 164s-70 164 -164 164c-96 0 -167 -74 -167 -164z" />
    <glyph glyph-name="ae" unicode="&#xe6;" horiz-adv-x="1167" 
d="M1097 247v-26h-401c3 -77 61 -138 157 -138c73 0 119 40 140 79l92 -10c-18 -70 -96 -162 -233 -162c-91 0 -166 40 -211 104v-94h-99l-6 105c-29 -65 -101 -115 -192 -115c-145 0 -254 118 -254 263s109 263 254 263c91 0 163 -50 192 -114l6 104h99v-92
c44 62 115 102 203 102c156 0 253 -125 253 -269zM844 423c-84 0 -145 -58 -148 -129h297c-4 68 -61 129 -149 129zM361 89c94 0 164 74 164 164s-70 164 -164 164c-96 0 -167 -74 -167 -164s71 -164 167 -164z" />
    <glyph glyph-name="b" unicode="b" horiz-adv-x="699" 
d="M629 253c0 -145 -108 -263 -253 -263c-91 0 -164 50 -193 115l-5 -105h-99v750h104v-348c29 64 102 114 193 114c145 0 253 -118 253 -263zM525 253c0 90 -71 164 -166 164s-165 -74 -165 -164s70 -164 165 -164s166 74 166 164z" />
    <glyph glyph-name="c" unicode="c" horiz-adv-x="574" 
d="M504 360c-40 39 -85 57 -137 57c-86 0 -167 -68 -167 -164s81 -164 167 -164c52 0 97 19 137 58v-101c-36 -34 -88 -56 -153 -56c-149 0 -261 120 -261 263c0 142 112 263 261 263c65 0 117 -22 153 -56v-100z" />
    <glyph glyph-name="cacute" unicode="&#x107;" horiz-adv-x="574" 
d="M380 763h108l-107 -153h-82zM504 360c-40 39 -85 57 -137 57c-86 0 -167 -68 -167 -164s81 -164 167 -164c52 0 97 19 137 58v-101c-36 -34 -88 -56 -153 -56c-149 0 -261 120 -261 263c0 142 112 263 261 263c65 0 117 -22 153 -56v-100z" />
    <glyph glyph-name="ccaron" unicode="&#x10d;" horiz-adv-x="574" 
d="M299 610l-116 153h94l62 -96l62 96h94l-116 -153h-80zM367 417c-86 0 -167 -68 -167 -164s81 -164 167 -164c52 0 97 19 137 58v-101c-36 -34 -88 -56 -153 -56c-149 0 -261 120 -261 263c0 142 112 263 261 263c65 0 117 -22 153 -56v-100c-40 39 -85 57 -137 57z" />
    <glyph glyph-name="ccedilla" unicode="&#xe7;" horiz-adv-x="574" 
d="M367 417c-86 0 -167 -68 -167 -164s81 -164 167 -164c52 0 97 19 137 58v-101c-32 -30 -77 -51 -133 -55l-23 -41c57 -1 97 -22 97 -68c0 -89 -147 -87 -199 -87l20 50c63 0 120 3 120 35c0 24 -27 30 -61 30l-59 -2l34 87c-123 23 -210 132 -210 258
c0 142 112 263 261 263c65 0 117 -22 153 -56v-100c-40 39 -85 57 -137 57z" />
    <glyph glyph-name="cdotaccent" unicode="&#x10b;" horiz-adv-x="574" 
d="M340 636c-31 0 -56 25 -56 56s25 56 56 56s56 -25 56 -56s-25 -56 -56 -56zM504 360c-40 39 -85 57 -137 57c-86 0 -167 -68 -167 -164s81 -164 167 -164c52 0 97 19 137 58v-101c-36 -34 -88 -56 -153 -56c-149 0 -261 120 -261 263c0 142 112 263 261 263
c65 0 117 -22 153 -56v-100z" />
    <glyph glyph-name="d" unicode="d" horiz-adv-x="711" 
d="M90 253c0 145 109 263 254 263c91 0 163 -50 192 -114v348h105v-750h-99l-6 105c-29 -65 -101 -115 -192 -115c-145 0 -254 118 -254 263zM194 253c0 -90 71 -164 167 -164c94 0 164 74 164 164s-70 164 -164 164c-96 0 -167 -74 -167 -164z" />
    <glyph glyph-name="eth" unicode="&#xf0;" horiz-adv-x="659" 
d="M396 628c118 -78 193 -209 193 -383c0 -148 -107 -255 -251 -255c-141 0 -248 107 -248 238c0 130 107 238 248 238c34 0 65 -6 94 -16c-30 55 -73 91 -120 115l-117 -89v39l85 64c-47 18 -96 27 -139 32v99c84 -6 161 -28 227 -65l104 79v-39zM484 228c0 10 -1 20 -3 29
l-8 1c0 9 0 17 -1 26c-22 49 -72 83 -133 83c-82 0 -145 -63 -145 -139c0 -77 63 -139 145 -139c83 0 145 62 145 139z" />
    <glyph glyph-name="dcaron" unicode="&#x10f;" horiz-adv-x="752" 
d="M90 253c0 145 109 263 254 263c91 0 163 -50 192 -114v348h105v-750h-99l-6 105c-29 -65 -101 -115 -192 -115c-145 0 -254 118 -254 263zM726 733h109l-76 -203h-82zM194 253c0 -90 71 -164 167 -164c94 0 164 74 164 164s-70 164 -164 164c-96 0 -167 -74 -167 -164z
" />
    <glyph glyph-name="dcroat" unicode="&#x111;" horiz-adv-x="711" 
d="M711 662v-99h-70v-563h-99l-6 105c-29 -65 -101 -115 -192 -115c-145 0 -254 118 -254 263s109 263 254 263c91 0 163 -50 192 -114v161h-210v99h210v88h105v-88h70zM361 89c94 0 164 74 164 164s-70 164 -164 164c-96 0 -167 -74 -167 -164s71 -164 167 -164z" />
    <glyph glyph-name="e" unicode="e" horiz-adv-x="666" 
d="M596 247v-26h-402c3 -78 61 -138 158 -138c73 0 119 40 140 79l91 -10c-17 -70 -96 -162 -232 -162c-154 0 -261 115 -261 266c0 141 101 260 253 260c156 0 253 -125 253 -269zM343 423c-85 0 -145 -58 -149 -129h297c-4 68 -60 129 -148 129z" />
    <glyph glyph-name="eacute" unicode="&#xe9;" horiz-adv-x="666" 
d="M491 763l-107 -153h-82l81 153h108zM596 247v-26h-402c3 -78 61 -138 158 -138c73 0 119 40 140 79l91 -10c-17 -70 -96 -162 -232 -162c-154 0 -261 115 -261 266c0 141 101 260 253 260c156 0 253 -125 253 -269zM343 423c-85 0 -145 -58 -149 -129h297
c-4 68 -60 129 -148 129z" />
    <glyph glyph-name="ecaron" unicode="&#x11b;" horiz-adv-x="666" 
d="M302 610l-116 153h94l62 -96l62 96h94l-116 -153h-80zM596 247v-26h-402c3 -78 61 -138 158 -138c73 0 119 40 140 79l91 -10c-17 -70 -96 -162 -232 -162c-154 0 -261 115 -261 266c0 141 101 260 253 260c156 0 253 -125 253 -269zM343 423c-85 0 -145 -58 -149 -129
h297c-4 68 -60 129 -148 129z" />
    <glyph glyph-name="ecircumflex" unicode="&#xea;" horiz-adv-x="666" 
d="M344 706l-62 -96h-94l116 153h80l116 -153h-94zM596 247v-26h-402c3 -78 61 -138 158 -138c73 0 119 40 140 79l91 -10c-17 -70 -96 -162 -232 -162c-154 0 -261 115 -261 266c0 141 101 260 253 260c156 0 253 -125 253 -269zM343 423c-85 0 -145 -58 -149 -129h297
c-4 68 -60 129 -148 129z" />
    <glyph glyph-name="edieresis" unicode="&#xeb;" horiz-adv-x="666" 
d="M256 636c-31 0 -56 25 -56 56s25 56 56 56s56 -25 56 -56s-25 -56 -56 -56zM431 636c-31 0 -56 25 -56 56s25 56 56 56s56 -25 56 -56s-25 -56 -56 -56zM596 247v-26h-402c3 -78 61 -138 158 -138c73 0 119 40 140 79l91 -10c-17 -70 -96 -162 -232 -162
c-154 0 -261 115 -261 266c0 141 101 260 253 260c156 0 253 -125 253 -269zM343 423c-85 0 -145 -58 -149 -129h297c-4 68 -60 129 -148 129z" />
    <glyph glyph-name="edotaccent" unicode="&#x117;" horiz-adv-x="666" 
d="M343 636c-31 0 -56 25 -56 56s25 56 56 56s56 -25 56 -56s-25 -56 -56 -56zM596 247v-26h-402c3 -78 61 -138 158 -138c73 0 119 40 140 79l91 -10c-17 -70 -96 -162 -232 -162c-154 0 -261 115 -261 266c0 141 101 260 253 260c156 0 253 -125 253 -269zM343 423
c-85 0 -145 -58 -149 -129h297c-4 68 -60 129 -148 129z" />
    <glyph glyph-name="egrave" unicode="&#xe8;" horiz-adv-x="666" 
d="M386 610h-82l-107 153h108zM596 247v-26h-402c3 -78 61 -138 158 -138c73 0 119 40 140 79l91 -10c-17 -70 -96 -162 -232 -162c-154 0 -261 115 -261 266c0 141 101 260 253 260c156 0 253 -125 253 -269zM343 423c-85 0 -145 -58 -149 -129h297c-4 68 -60 129 -148 129
z" />
    <glyph glyph-name="emacron" unicode="&#x113;" horiz-adv-x="666" 
d="M468 739v-99h-252v99h252zM596 247v-26h-402c3 -78 61 -138 158 -138c73 0 119 40 140 79l91 -10c-17 -70 -96 -162 -232 -162c-154 0 -261 115 -261 266c0 141 101 260 253 260c156 0 253 -125 253 -269zM343 423c-85 0 -145 -58 -149 -129h297c-4 68 -60 129 -148 129z
" />
    <glyph glyph-name="eogonek" unicode="&#x119;" horiz-adv-x="666" 
d="M596 247v-26h-402c3 -78 61 -138 158 -138c73 0 119 40 140 79l91 -10c-16 -64 -82 -146 -197 -160c-34 -40 -32 -80 6 -80c34 0 67 17 83 28v-84c-16 -16 -47 -42 -103 -42c-80 0 -130 93 -66 179c-130 21 -216 127 -216 263c0 141 101 260 253 260
c156 0 253 -125 253 -269zM343 423c-85 0 -145 -58 -149 -129h297c-4 68 -60 129 -148 129z" />
    <glyph glyph-name="uni1EBD" unicode="&#x1ebd;" horiz-adv-x="666" 
d="M270 678c-35 0 -55 -23 -55 -54l-88 17c6 63 39 121 121 121c76 0 107 -70 168 -70c36 0 56 20 56 54l87 -17c-5 -63 -39 -121 -120 -121c-76 0 -107 70 -169 70zM596 247v-26h-402c3 -78 61 -138 158 -138c73 0 119 40 140 79l91 -10c-17 -70 -96 -162 -232 -162
c-154 0 -261 115 -261 266c0 141 101 260 253 260c156 0 253 -125 253 -269zM343 423c-85 0 -145 -58 -149 -129h297c-4 68 -60 129 -148 129z" />
    <glyph glyph-name="f" unicode="f" horiz-adv-x="396" 
d="M286 621c-54 0 -69 -33 -69 -84v-31h125v-99h-125v-407h-105v407h-52v99h52v46c0 128 72 168 140 168c43 0 78 -17 94 -29v-88c-8 5 -36 18 -60 18z" />
    <glyph glyph-name="g" unicode="g" horiz-adv-x="608" 
d="M539 506v-93l-52 7c16 -27 26 -59 26 -94c0 -110 -92 -190 -212 -190c-26 0 -51 4 -73 11c-14 -7 -21 -16 -21 -28c0 -25 35 -31 91 -31c156 0 240 -68 240 -164c0 -106 -107 -164 -224 -164s-224 58 -224 164c0 54 28 88 63 110c-27 17 -45 40 -45 67c0 36 29 62 59 76
c-47 34 -77 87 -77 149c0 111 92 190 211 190c38 0 73 -8 103 -22zM301 224c62 0 113 43 113 102c0 60 -51 103 -113 103c-61 0 -112 -43 -112 -103c0 -59 51 -102 112 -102zM439 -78c0 58 -67 79 -171 79c-6 0 -13 0 -20 1c-27 -13 -59 -42 -59 -76c0 -50 50 -79 125 -79
s125 25 125 75z" />
    <glyph glyph-name="gbreve" unicode="&#x11f;" horiz-adv-x="608" 
d="M301 608c-92 0 -178 55 -178 153h82c0 -35 24 -82 96 -82s97 47 97 82h81c0 -98 -86 -153 -178 -153zM539 506v-93l-52 7c16 -27 26 -59 26 -94c0 -110 -92 -190 -212 -190c-26 0 -51 4 -73 11c-14 -7 -21 -16 -21 -28c0 -25 35 -31 91 -31c156 0 240 -68 240 -164
c0 -106 -107 -164 -224 -164s-224 58 -224 164c0 54 28 88 63 110c-27 17 -45 40 -45 67c0 36 29 62 59 76c-47 34 -77 87 -77 149c0 111 92 190 211 190c38 0 73 -8 103 -22zM301 224c62 0 113 43 113 102c0 60 -51 103 -113 103c-61 0 -112 -43 -112 -103
c0 -59 51 -102 112 -102zM439 -78c0 58 -67 79 -171 79c-6 0 -13 0 -20 1c-27 -13 -59 -42 -59 -76c0 -50 50 -79 125 -79s125 25 125 75z" />
    <glyph glyph-name="gcommaaccent" unicode="&#x123;" horiz-adv-x="608" 
d="M404 817l-49 -203h-109l76 203h82zM539 506v-93l-52 7c16 -27 26 -59 26 -94c0 -110 -92 -190 -212 -190c-26 0 -51 4 -73 11c-14 -7 -21 -16 -21 -28c0 -25 35 -31 91 -31c156 0 240 -68 240 -164c0 -106 -107 -164 -224 -164s-224 58 -224 164c0 54 28 88 63 110
c-27 17 -45 40 -45 67c0 36 29 62 59 76c-47 34 -77 87 -77 149c0 111 92 190 211 190c38 0 73 -8 103 -22zM301 224c62 0 113 43 113 102c0 60 -51 103 -113 103c-61 0 -112 -43 -112 -103c0 -59 51 -102 112 -102zM439 -78c0 58 -67 79 -171 79c-6 0 -13 0 -20 1
c-27 -13 -59 -42 -59 -76c0 -50 50 -79 125 -79s125 25 125 75z" />
    <glyph glyph-name="gdotaccent" unicode="&#x121;" horiz-adv-x="608" 
d="M301 634c-31 0 -56 25 -56 56s25 56 56 56s56 -25 56 -56s-25 -56 -56 -56zM539 506v-93l-52 7c16 -27 26 -59 26 -94c0 -110 -92 -190 -212 -190c-26 0 -51 4 -73 11c-14 -7 -21 -16 -21 -28c0 -25 35 -31 91 -31c156 0 240 -68 240 -164c0 -106 -107 -164 -224 -164
s-224 58 -224 164c0 54 28 88 63 110c-27 17 -45 40 -45 67c0 36 29 62 59 76c-47 34 -77 87 -77 149c0 111 92 190 211 190c38 0 73 -8 103 -22zM301 224c62 0 113 43 113 102c0 60 -51 103 -113 103c-61 0 -112 -43 -112 -103c0 -59 51 -102 112 -102zM439 -78
c0 58 -67 79 -171 79c-6 0 -13 0 -20 1c-27 -13 -59 -42 -59 -76c0 -50 50 -79 125 -79s125 25 125 75z" />
    <glyph glyph-name="h" unicode="h" 
d="M388 516c119 0 186 -78 186 -219v-297h-104v251c0 122 -49 166 -122 166c-99 0 -149 -78 -154 -153v-264h-104v750h104v-324c48 51 113 90 194 90z" />
    <glyph glyph-name="hbar" unicode="&#x127;" 
d="M388 516c119 0 186 -78 186 -219v-297h-104v251c0 122 -49 166 -122 166c-99 0 -149 -78 -154 -153v-264h-104v553h-71v99h71v98h104v-98h210v-99h-210v-127c48 51 113 90 194 90z" />
    <glyph glyph-name="i" unicode="i" horiz-adv-x="238" 
d="M119 584c-31 0 -56 25 -56 56s25 56 56 56s56 -25 56 -56s-25 -56 -56 -56zM171 506v-506h-104v506h104z" />
    <glyph glyph-name="dotlessi" unicode="&#x131;" horiz-adv-x="224" 
d="M164 506v-506h-104v506h104z" />
    <glyph glyph-name="iacute" unicode="&#xed;" horiz-adv-x="224" 
d="M153 763h108l-107 -153h-82zM164 506v-506h-104v506h104z" />
    <glyph glyph-name="icircumflex" unicode="&#xee;" horiz-adv-x="224" 
d="M154 763l116 -153h-94l-62 96l-62 -96h-94l116 153h80zM60 0v506h104v-506h-104z" />
    <glyph glyph-name="idieresis" unicode="&#xef;" horiz-adv-x="224" 
d="M27 584c-32 0 -56 25 -56 56s24 56 56 56c31 0 56 -25 56 -56s-25 -56 -56 -56zM202 584c-31 0 -56 25 -56 56s25 56 56 56s56 -25 56 -56s-25 -56 -56 -56zM164 506v-506h-104v506h104z" />
    <glyph glyph-name="i.loclTRK" horiz-adv-x="241" 
d="M112 585c-31 0 -56 25 -56 56s25 56 56 56s56 -25 56 -56s-25 -56 -56 -56zM164 506v-506h-104v506h104z" />
    <glyph glyph-name="igrave" unicode="&#xec;" horiz-adv-x="224" 
d="M75 763l81 -153h-82l-107 153h108zM164 506v-506h-104v506h104z" />
    <glyph glyph-name="imacron" unicode="&#x12b;" horiz-adv-x="224" 
d="M-13 739h252v-99h-252v99zM164 506v-506h-104v506h104z" />
    <glyph glyph-name="iogonek" unicode="&#x12f;" horiz-adv-x="241" 
d="M112 585c-31 0 -56 25 -56 56s25 56 56 56s56 -25 56 -56s-25 -56 -56 -56zM152 -88c34 0 67 17 83 28v-84c-16 -16 -47 -42 -103 -42c-82 0 -133 98 -61 186h-11v506h104v-506h-11c-41 -42 -42 -88 -1 -88z" />
    <glyph glyph-name="j" unicode="j" horiz-adv-x="266" 
d="M168 584c-31 0 -56 25 -56 56s25 56 56 56s56 -25 56 -56s-25 -56 -56 -56zM221 506v-506l-82 -230h-109l86 237v499h105z" />
    <glyph glyph-name="k" unicode="k" 
d="M580 506l-232 -220l232 -286h-130l-176 216l-80 -76v-140h-104v750h104v-470l240 226h146z" />
    <glyph glyph-name="kcommaaccent" unicode="&#x137;" 
d="M580 506l-232 -220l232 -286h-130l-176 216l-80 -76v-140h-104v750h104v-470l240 226h146zM212 -263l49 203h109l-76 -203h-82z" />
    <glyph glyph-name="l" unicode="l" horiz-adv-x="254" 
d="M194 750v-750h-104v750h104z" />
    <glyph glyph-name="lacute" unicode="&#x13a;" horiz-adv-x="254" 
d="M185 1007h108l-107 -153h-82zM194 750v-750h-104v750h104z" />
    <glyph glyph-name="lcaron" unicode="&#x13e;" horiz-adv-x="483" 
d="M194 750v-750h-104v750h104zM293 733h109l-76 -203h-82z" />
    <glyph glyph-name="lcommaaccent" unicode="&#x13c;" horiz-adv-x="254" 
d="M194 750v-750h-104v750h104zM89 -60h109l-76 -203h-82z" />
    <glyph glyph-name="lslash" unicode="&#x142;" horiz-adv-x="254" 
d="M281 456v-39l-87 -65v-352h-104v273l-87 -65v39l87 65v438h104v-359z" />
    <glyph glyph-name="m" unicode="m" horiz-adv-x="944" 
d="M708 516c108 0 166 -82 166 -199v-317h-104v282c0 81 -36 135 -101 135c-80 0 -130 -82 -135 -188v-229h-104v282c0 81 -35 135 -101 135c-80 0 -130 -82 -135 -188v-229h-104v506h98l5 -79c44 51 102 89 175 89c76 0 127 -41 151 -106c46 59 108 106 189 106z" />
    <glyph glyph-name="n" unicode="n" 
d="M388 516c119 0 186 -78 186 -219v-297h-104v251c0 122 -49 166 -122 166c-99 0 -149 -78 -154 -153v-264h-104v506h98l5 -81c48 51 113 91 195 91z" />
    <glyph glyph-name="nacute" unicode="&#x144;" 
d="M478 763l-107 -153h-82l81 153h108zM388 516c119 0 186 -78 186 -219v-297h-104v251c0 122 -49 166 -122 166c-99 0 -149 -78 -154 -153v-264h-104v506h98l5 -81c48 51 113 91 195 91z" />
    <glyph glyph-name="ncaron" unicode="&#x148;" 
d="M289 610l-116 153h94l62 -96l62 96h94l-116 -153h-80zM388 516c119 0 186 -78 186 -219v-297h-104v251c0 122 -49 166 -122 166c-99 0 -149 -78 -154 -153v-264h-104v506h98l5 -81c48 51 113 91 195 91z" />
    <glyph glyph-name="ncommaaccent" unicode="&#x146;" 
d="M388 516c119 0 186 -78 186 -219v-297h-104v251c0 122 -49 166 -122 166c-99 0 -149 -78 -154 -153v-264h-104v506h98l5 -81c48 51 113 91 195 91zM229 -263l49 203h109l-76 -203h-82z" />
    <glyph glyph-name="eng" unicode="&#x14b;" horiz-adv-x="636" 
d="M574 -28c0 -129 -72 -168 -139 -168c-54 0 -89 17 -105 29v85c13 -6 39 -16 59 -16c66 0 81 33 81 84v265c0 122 -49 166 -122 166c-99 0 -149 -78 -154 -153v-264h-104v506h98l5 -81c48 51 113 91 195 91c119 0 186 -78 186 -219v-325z" />
    <glyph glyph-name="ntilde" unicode="&#xf1;" 
d="M257 678c-35 0 -55 -23 -55 -54l-88 17c6 63 39 121 121 121c76 0 107 -70 168 -70c36 0 56 20 56 54l87 -17c-5 -63 -39 -121 -120 -121c-76 0 -107 70 -169 70zM388 516c119 0 186 -78 186 -219v-297h-104v251c0 122 -49 166 -122 166c-99 0 -149 -78 -154 -153v-264
h-104v506h98l5 -81c48 51 113 91 195 91z" />
    <glyph glyph-name="o" unicode="o" horiz-adv-x="699" 
d="M361 -10c-157 0 -271 118 -271 263s114 263 271 263c155 0 268 -118 268 -263s-113 -263 -268 -263zM361 89c94 0 164 74 164 164s-70 164 -164 164c-96 0 -167 -74 -167 -164s71 -164 167 -164z" />
    <glyph glyph-name="oacute" unicode="&#xf3;" horiz-adv-x="699" 
d="M401 763h108l-107 -153h-82zM361 -10c-157 0 -271 118 -271 263s114 263 271 263c155 0 268 -118 268 -263s-113 -263 -268 -263zM361 89c94 0 164 74 164 164s-70 164 -164 164c-96 0 -167 -74 -167 -164s71 -164 167 -164z" />
    <glyph glyph-name="ocircumflex" unicode="&#xf4;" horiz-adv-x="699" 
d="M362 706l-62 -96h-94l116 153h80l116 -153h-94zM361 516c155 0 268 -118 268 -263s-113 -263 -268 -263c-157 0 -271 118 -271 263s114 263 271 263zM361 89c94 0 164 74 164 164s-70 164 -164 164c-96 0 -167 -74 -167 -164s71 -164 167 -164z" />
    <glyph glyph-name="odieresis" unicode="&#xf6;" horiz-adv-x="699" 
d="M274 636c-31 0 -56 25 -56 56s25 56 56 56s56 -25 56 -56s-25 -56 -56 -56zM449 636c-31 0 -56 25 -56 56s25 56 56 56s56 -25 56 -56s-25 -56 -56 -56zM361 -10c-157 0 -271 118 -271 263s114 263 271 263c155 0 268 -118 268 -263s-113 -263 -268 -263zM361 89
c94 0 164 74 164 164s-70 164 -164 164c-96 0 -167 -74 -167 -164s71 -164 167 -164z" />
    <glyph glyph-name="ograve" unicode="&#xf2;" horiz-adv-x="699" 
d="M323 763l81 -153h-82l-107 153h108zM361 -10c-157 0 -271 118 -271 263s114 263 271 263c155 0 268 -118 268 -263s-113 -263 -268 -263zM361 89c94 0 164 74 164 164s-70 164 -164 164c-96 0 -167 -74 -167 -164s71 -164 167 -164z" />
    <glyph glyph-name="ohungarumlaut" unicode="&#x151;" horiz-adv-x="699" 
d="M328 763h108l-107 -153h-82zM488 763h108l-107 -153h-82zM361 -10c-157 0 -271 118 -271 263s114 263 271 263c155 0 268 -118 268 -263s-113 -263 -268 -263zM361 89c94 0 164 74 164 164s-70 164 -164 164c-96 0 -167 -74 -167 -164s71 -164 167 -164z" />
    <glyph glyph-name="omacron" unicode="&#x14d;" horiz-adv-x="699" 
d="M235 739h252v-99h-252v99zM361 -10c-157 0 -271 118 -271 263s114 263 271 263c155 0 268 -118 268 -263s-113 -263 -268 -263zM361 89c94 0 164 74 164 164s-70 164 -164 164c-96 0 -167 -74 -167 -164s71 -164 167 -164z" />
    <glyph glyph-name="oslash" unicode="&#xf8;" horiz-adv-x="699" 
d="M533 457c60 -49 96 -122 96 -204c0 -145 -113 -263 -269 -263c-56 0 -107 15 -149 42l-41 -55h-39l55 73c-60 48 -97 121 -97 203c0 145 115 263 271 263c56 0 106 -15 148 -41l41 54h39zM194 253c0 -48 20 -92 54 -122l198 263c-24 14 -54 23 -86 23
c-95 0 -166 -74 -166 -164zM360 89c95 0 164 74 164 164c0 48 -20 92 -53 122l-198 -262c25 -15 54 -24 87 -24z" />
    <glyph glyph-name="otilde" unicode="&#xf5;" horiz-adv-x="699" 
d="M145 641c6 63 39 121 121 121c76 0 107 -70 168 -70c36 0 56 20 56 54l87 -17c-5 -63 -39 -121 -120 -121c-76 0 -107 70 -169 70c-35 0 -55 -23 -55 -54zM361 -10c-157 0 -271 118 -271 263s114 263 271 263c155 0 268 -118 268 -263s-113 -263 -268 -263zM361 89
c94 0 164 74 164 164s-70 164 -164 164c-96 0 -167 -74 -167 -164s71 -164 167 -164z" />
    <glyph glyph-name="oe" unicode="&#x153;" horiz-adv-x="1083" 
d="M1013 248v-36h-370c13 -90 72 -134 175 -134c48 0 96 14 167 47v-76c-43 -34 -114 -59 -186 -59c-99 0 -175 41 -219 108c-47 -65 -126 -108 -219 -108c-157 0 -271 118 -271 263s114 263 271 263c93 0 171 -42 219 -108c42 66 114 108 202 108c145 0 231 -111 231 -268z
M784 423c-73 0 -128 -45 -140 -134h268c-10 84 -53 134 -128 134zM361 89c94 0 164 74 164 164s-70 164 -164 164c-96 0 -167 -74 -167 -164s71 -164 167 -164z" />
    <glyph glyph-name="p" unicode="p" horiz-adv-x="711" 
d="M90 -230v736h98l6 -104c30 64 102 114 193 114c145 0 254 -118 254 -263s-109 -263 -254 -263c-91 0 -163 50 -193 115v-335h-104zM206 253c0 -90 69 -164 164 -164s166 74 166 164s-71 164 -166 164s-164 -74 -164 -164z" />
    <glyph glyph-name="thorn" unicode="&#xfe;" horiz-adv-x="699" 
d="M90 -230v980h104v-343c30 65 102 109 182 109c145 0 253 -118 253 -263s-108 -263 -253 -263c-80 0 -152 44 -182 109v-329h-104zM189 253c0 -90 69 -164 164 -164s166 74 166 164s-71 164 -166 164s-164 -74 -164 -164z" />
    <glyph glyph-name="q" unicode="q" horiz-adv-x="711" 
d="M641 -230h-105v335c-29 -65 -101 -115 -192 -115c-145 0 -254 118 -254 263s109 263 254 263c91 0 163 -50 192 -114l6 104h99v-736zM525 253c0 90 -70 164 -164 164c-96 0 -167 -74 -167 -164s71 -164 167 -164c94 0 164 74 164 164z" />
    <glyph glyph-name="r" unicode="r" horiz-adv-x="399" 
d="M307 516c30 0 51 -12 62 -22l-16 -91c-10 6 -30 14 -52 14c-72 0 -107 -77 -107 -178v-239h-104v506h98l5 -59c32 41 70 69 114 69z" />
    <glyph glyph-name="racute" unicode="&#x155;" horiz-adv-x="399" 
d="M385 763l-107 -153h-82l81 153h108zM193 447c32 41 70 69 114 69c30 0 51 -12 62 -22l-16 -91c-10 6 -30 14 -52 14c-72 0 -107 -77 -107 -178v-239h-104v506h98z" />
    <glyph glyph-name="rcaron" unicode="&#x159;" horiz-adv-x="399" 
d="M196 610l-116 153h94l62 -96l62 96h94l-116 -153h-80zM193 447c32 41 70 69 114 69c30 0 51 -12 62 -22l-16 -91c-10 6 -30 14 -52 14c-72 0 -107 -77 -107 -178v-239h-104v506h98z" />
    <glyph glyph-name="rcommaaccent" unicode="&#x157;" horiz-adv-x="399" 
d="M307 516c30 0 51 -12 62 -22l-16 -91c-10 6 -30 14 -52 14c-72 0 -107 -77 -107 -178v-239h-104v506h98l5 -59c32 41 70 69 114 69zM38 -263l49 203h109l-76 -203h-82z" />
    <glyph glyph-name="s" unicode="s" horiz-adv-x="578" 
d="M90 147h104c10 -41 52 -69 117 -69c51 0 92 20 92 56c0 48 -46 59 -150 95c-80 26 -147 65 -147 147c0 87 88 140 179 140c117 0 189 -66 194 -149h-105c-4 42 -46 62 -85 62c-37 0 -78 -18 -78 -53c0 -40 43 -49 147 -88c103 -36 150 -86 150 -156
c0 -90 -87 -142 -199 -142c-122 0 -209 53 -219 157z" />
    <glyph glyph-name="sacute" unicode="&#x15b;" horiz-adv-x="578" 
d="M333 763h108l-107 -153h-82zM90 147h104c10 -41 52 -69 117 -69c51 0 92 20 92 56c0 48 -46 59 -150 95c-80 26 -147 65 -147 147c0 87 88 140 179 140c117 0 189 -66 194 -149h-105c-4 42 -46 62 -85 62c-37 0 -78 -18 -78 -53c0 -40 43 -49 147 -88
c103 -36 150 -86 150 -156c0 -90 -87 -142 -199 -142c-122 0 -209 53 -219 157z" />
    <glyph glyph-name="scaron" unicode="&#x161;" horiz-adv-x="578" 
d="M251 610l-116 153h94l62 -96l62 96h94l-116 -153h-80zM358 288c103 -36 150 -86 150 -156c0 -90 -87 -142 -199 -142c-122 0 -209 53 -219 157h104c10 -41 52 -69 117 -69c51 0 92 20 92 56c0 48 -46 59 -150 95c-80 26 -147 65 -147 147c0 87 88 140 179 140
c117 0 189 -66 194 -149h-105c-4 42 -46 62 -85 62c-37 0 -78 -18 -78 -53c0 -40 43 -49 147 -88z" />
    <glyph glyph-name="scedilla" unicode="&#x15f;" horiz-adv-x="578" 
d="M508 132c0 -82 -73 -133 -171 -141l-23 -41c57 -1 97 -22 97 -68c0 -89 -147 -87 -199 -87l20 50c63 0 120 3 120 35c0 24 -27 30 -61 30l-59 -2l33 84c-99 12 -167 64 -175 155h104c10 -41 52 -69 117 -69c51 0 92 20 92 56c0 48 -46 59 -150 95
c-80 26 -147 65 -147 147c0 87 88 140 179 140c117 0 189 -66 194 -149h-105c-4 42 -46 62 -85 62c-37 0 -78 -18 -78 -53c0 -40 43 -49 147 -88c103 -36 150 -86 150 -156z" />
    <glyph glyph-name="scommaaccent" unicode="&#x219;" horiz-adv-x="578" 
d="M90 147h104c10 -41 52 -69 117 -69c51 0 92 20 92 56c0 48 -46 59 -150 95c-80 26 -147 65 -147 147c0 87 88 140 179 140c117 0 189 -66 194 -149h-105c-4 42 -46 62 -85 62c-37 0 -78 -18 -78 -53c0 -40 43 -49 147 -88c103 -36 150 -86 150 -156
c0 -90 -87 -142 -199 -142c-122 0 -209 53 -219 157zM251 -60h109l-76 -203h-82z" />
    <glyph glyph-name="germandbls" unicode="&#xdf;" horiz-adv-x="676" 
d="M474 398c74 -37 132 -104 132 -196c0 -107 -66 -205 -204 -205c-65 0 -108 22 -138 43v102c32 -24 72 -46 122 -46c79 0 116 48 116 112c0 83 -67 133 -158 133h-23v87h23c58 0 78 51 78 88c0 54 -36 105 -106 105c-74 0 -122 -55 -122 -145v-476h-104v476
c0 128 65 244 228 244c142 0 208 -109 208 -190c0 -43 -17 -94 -52 -132z" />
    <glyph glyph-name="t" unicode="t" horiz-adv-x="398" 
d="M348 506v-99h-108v-407h-105v407h-75v99h75v150h105v-150h108z" />
    <glyph glyph-name="tbar" unicode="&#x167;" horiz-adv-x="398" 
d="M348 407h-108v-98h88v-99h-88v-210h-105v210h-64v99h64v98h-75v99h75v150h105v-150h108v-99z" />
    <glyph glyph-name="tcaron" unicode="&#x165;" horiz-adv-x="398" 
d="M351 756h109l-76 -203h-82zM240 656v-150h108v-99h-108v-407h-105v407h-75v99h75v150h105z" />
    <glyph glyph-name="uni0163" unicode="&#x163;" horiz-adv-x="398" 
d="M240 0h-15l-28 -50c57 -1 97 -22 97 -68c0 -89 -147 -87 -199 -87l20 50c63 0 120 3 120 35c0 24 -27 30 -61 30l-59 -2l36 92h-16v407h-75v99h75v150h105v-150h108v-99h-108v-407z" />
    <glyph glyph-name="uni021B" unicode="&#x21b;" horiz-adv-x="398" 
d="M240 506h108v-99h-108v-407h-105v407h-75v99h75v150h105v-150zM85 -263l49 203h109l-76 -203h-82z" />
    <glyph glyph-name="u" unicode="u" 
d="M466 506h104v-506h-98l-5 81c-48 -51 -113 -91 -195 -91c-119 0 -186 78 -186 219v297h104v-251c0 -122 49 -166 122 -166c104 0 154 86 154 165v252z" />
    <glyph glyph-name="uacute" unicode="&#xfa;" 
d="M483 763l-107 -153h-82l81 153h108zM466 506h104v-506h-98l-5 81c-48 -51 -113 -91 -195 -91c-119 0 -186 78 -186 219v297h104v-251c0 -122 49 -166 122 -166c104 0 154 86 154 165v252z" />
    <glyph glyph-name="ucircumflex" unicode="&#xfb;" 
d="M336 706l-62 -96h-94l116 153h80l116 -153h-94zM466 506h104v-506h-98l-5 81c-48 -51 -113 -91 -195 -91c-119 0 -186 78 -186 219v297h104v-251c0 -122 49 -166 122 -166c104 0 154 86 154 165v252z" />
    <glyph glyph-name="udieresis" unicode="&#xfc;" 
d="M248 636c-31 0 -56 25 -56 56s25 56 56 56s56 -25 56 -56s-25 -56 -56 -56zM423 636c-31 0 -56 25 -56 56s25 56 56 56s56 -25 56 -56s-25 -56 -56 -56zM466 506h104v-506h-98l-5 81c-48 -51 -113 -91 -195 -91c-119 0 -186 78 -186 219v297h104v-251
c0 -122 49 -166 122 -166c104 0 154 86 154 165v252z" />
    <glyph glyph-name="ugrave" unicode="&#xf9;" 
d="M378 610h-82l-107 153h108zM466 506h104v-506h-98l-5 81c-48 -51 -113 -91 -195 -91c-119 0 -186 78 -186 219v297h104v-251c0 -122 49 -166 122 -166c104 0 154 86 154 165v252z" />
    <glyph glyph-name="uhungarumlaut" unicode="&#x171;" 
d="M410 763l-107 -153h-82l81 153h108zM463 610h-82l81 153h108zM466 254v252h104v-506h-98l-5 81c-48 -51 -113 -91 -195 -91c-119 0 -186 78 -186 219v297h104v-251c0 -122 49 -166 122 -166c104 0 154 86 154 165z" />
    <glyph glyph-name="umacron" unicode="&#x16b;" 
d="M460 739v-99h-252v99h252zM466 506h104v-506h-98l-5 81c-48 -51 -113 -91 -195 -91c-119 0 -186 78 -186 219v297h104v-251c0 -122 49 -166 122 -166c104 0 154 86 154 165v252z" />
    <glyph glyph-name="uogonek" unicode="&#x173;" 
d="M566 -88c34 0 67 17 83 28v-84c-16 -16 -47 -42 -103 -42c-82 0 -133 98 -61 186h-13l-5 81c-48 -51 -113 -91 -195 -91c-119 0 -186 78 -186 219v297h104v-251c0 -122 49 -166 122 -166c104 0 154 86 154 165v252h104v-506h-3c-41 -42 -42 -88 -1 -88z" />
    <glyph glyph-name="uring" unicode="&#x16f;" 
d="M335 615c-44 0 -79 35 -79 79s35 79 79 79s79 -35 79 -79s-35 -79 -79 -79zM335 725c-17 0 -31 -14 -31 -31s14 -31 31 -31s31 14 31 31s-14 31 -31 31zM466 506h104v-506h-98l-5 81c-48 -51 -113 -91 -195 -91c-119 0 -186 78 -186 219v297h104v-251
c0 -122 49 -166 122 -166c104 0 154 86 154 165v252z" />
    <glyph glyph-name="utilde" unicode="&#x169;" 
d="M262 678c-35 0 -55 -23 -55 -54l-88 17c6 63 39 121 121 121c76 0 107 -70 168 -70c36 0 56 20 56 54l87 -17c-5 -63 -39 -121 -120 -121c-76 0 -107 70 -169 70zM466 506h104v-506h-98l-5 81c-48 -51 -113 -91 -195 -91c-119 0 -186 78 -186 219v297h104v-251
c0 -122 49 -166 122 -166c104 0 154 86 154 165v252z" />
    <glyph glyph-name="v" unicode="v" horiz-adv-x="689" 
d="M513 506h116l-214 -506h-121l-214 506h117l158 -397z" />
    <glyph glyph-name="w" unicode="w" horiz-adv-x="979" 
d="M808 506h111l-183 -506h-109l-128 353l-127 -353h-109l-183 506h111l126 -377l127 377h111l126 -377z" />
    <glyph glyph-name="wacute" unicode="&#x1e83;" horiz-adv-x="979" 
d="M650 763l-107 -153h-82l81 153h108zM808 506h111l-183 -506h-109l-128 353l-127 -353h-109l-183 506h111l126 -377l127 377h111l126 -377z" />
    <glyph glyph-name="wcircumflex" unicode="&#x175;" horiz-adv-x="979" 
d="M502 706l-62 -96h-94l116 153h80l116 -153h-94zM808 506h111l-183 -506h-109l-128 353l-127 -353h-109l-183 506h111l126 -377l127 377h111l126 -377z" />
    <glyph glyph-name="wdieresis" unicode="&#x1e85;" horiz-adv-x="979" 
d="M415 636c-31 0 -56 25 -56 56s25 56 56 56s56 -25 56 -56s-25 -56 -56 -56zM590 636c-31 0 -56 25 -56 56s25 56 56 56s56 -25 56 -56s-25 -56 -56 -56zM808 506h111l-183 -506h-109l-128 353l-127 -353h-109l-183 506h111l126 -377l127 377h111l126 -377z" />
    <glyph glyph-name="wgrave" unicode="&#x1e81;" horiz-adv-x="979" 
d="M544 610h-82l-107 153h108zM808 506h111l-183 -506h-109l-128 353l-127 -353h-109l-183 506h111l126 -377l127 377h111l126 -377z" />
    <glyph glyph-name="x" unicode="x" horiz-adv-x="675" 
d="M80 0l203 253l-203 253h129l139 -182l139 182h128l-203 -253l203 -253h-128l-139 182l-139 -182h-129z" />
    <glyph glyph-name="y" unicode="y" horiz-adv-x="685" 
d="M80 506h112l162 -376l159 376h112l-316 -736h-110l99 231z" />
    <glyph glyph-name="yacute" unicode="&#xfd;" horiz-adv-x="685" 
d="M398 763h108l-107 -153h-82zM80 506h112l162 -376l159 376h112l-316 -736h-110l99 231z" />
    <glyph glyph-name="ycircumflex" unicode="&#x177;" horiz-adv-x="685" 
d="M359 706l-62 -96h-94l116 153h80l116 -153h-94zM513 506h112l-316 -736h-110l99 231l-218 505h112l162 -376z" />
    <glyph glyph-name="ydieresis" unicode="&#xff;" horiz-adv-x="685" 
d="M271 636c-31 0 -56 25 -56 56s25 56 56 56s56 -25 56 -56s-25 -56 -56 -56zM446 636c-31 0 -56 25 -56 56s25 56 56 56s56 -25 56 -56s-25 -56 -56 -56zM80 506h112l162 -376l159 376h112l-316 -736h-110l99 231z" />
    <glyph glyph-name="ygrave" unicode="&#x1ef3;" horiz-adv-x="685" 
d="M319 763l81 -153h-82l-107 153h108zM80 506h112l162 -376l159 376h112l-316 -736h-110l99 231z" />
    <glyph glyph-name="uni1EF9" unicode="&#x1ef9;" horiz-adv-x="685" 
d="M142 641c6 63 39 121 121 121c76 0 107 -70 168 -70c36 0 56 20 56 54l87 -17c-5 -63 -39 -121 -120 -121c-76 0 -107 70 -169 70c-35 0 -55 -23 -55 -54zM80 506h112l162 -376l159 376h112l-316 -736h-110l99 231z" />
    <glyph glyph-name="z" unicode="z" horiz-adv-x="571" 
d="M511 506v-99l-281 -308h281v-99h-421v99l280 308h-280v99h421z" />
    <glyph glyph-name="zacute" unicode="&#x17a;" horiz-adv-x="571" 
d="M446 763l-107 -153h-82l81 153h108zM511 506v-99l-281 -308h281v-99h-421v99l280 308h-280v99h421z" />
    <glyph glyph-name="zcaron" unicode="&#x17e;" horiz-adv-x="571" 
d="M257 610l-116 153h94l62 -96l62 96h94l-116 -153h-80zM511 506v-99l-281 -308h281v-99h-421v99l280 308h-280v99h421z" />
    <glyph glyph-name="zdotaccent" unicode="&#x17c;" horiz-adv-x="571" 
d="M298 636c-31 0 -56 25 -56 56s25 56 56 56s56 -25 56 -56s-25 -56 -56 -56zM511 506v-99l-281 -308h281v-99h-421v99l280 308h-280v99h421z" />
    <glyph glyph-name="a.ss01" horiz-adv-x="620" 
d="M339 516c170 0 211 -105 211 -233v-283h-99l-5 28v8c-16 -13 -79 -46 -155 -46c-101 0 -201 49 -201 157s100 155 201 155c76 0 139 -32 155 -47v28c0 88 -28 146 -128 146c-79 0 -152 -36 -192 -59v84c39 22 119 62 213 62zM446 117v59c-10 25 -65 56 -129 56
c-57 0 -123 -24 -123 -85s65 -86 123 -86c64 0 119 31 129 56z" />
    <glyph glyph-name="aacute.ss01" horiz-adv-x="620" 
d="M478 763l-107 -153h-82l81 153h108zM339 516c170 0 211 -105 211 -233v-283h-99l-5 28v8c-16 -13 -79 -46 -155 -46c-101 0 -201 49 -201 157s100 155 201 155c76 0 139 -32 155 -47v28c0 88 -28 146 -128 146c-79 0 -152 -36 -192 -59v84c39 22 119 62 213 62zM446 117
v59c-10 25 -65 56 -129 56c-57 0 -123 -24 -123 -85s65 -86 123 -86c64 0 119 31 129 56z" />
    <glyph glyph-name="abreve.ss01" horiz-adv-x="620" 
d="M329 610c-92 0 -178 55 -178 153h82c0 -35 24 -82 96 -82s97 47 97 82h81c0 -98 -86 -153 -178 -153zM339 516c170 0 211 -105 211 -233v-283h-99l-5 28v8c-16 -13 -79 -46 -155 -46c-101 0 -201 49 -201 157s100 155 201 155c76 0 139 -32 155 -47v28
c0 88 -28 146 -128 146c-79 0 -152 -36 -192 -59v84c39 22 119 62 213 62zM446 117v59c-10 25 -65 56 -129 56c-57 0 -123 -24 -123 -85s65 -86 123 -86c64 0 119 31 129 56z" />
    <glyph glyph-name="acircumflex.ss01" horiz-adv-x="620" 
d="M330 706l-62 -96h-94l116 153h80l116 -153h-94zM339 516c170 0 211 -105 211 -233v-283h-99l-5 28v8c-16 -13 -79 -46 -155 -46c-101 0 -201 49 -201 157s100 155 201 155c76 0 139 -32 155 -47v28c0 88 -28 146 -128 146c-79 0 -152 -36 -192 -59v84
c39 22 119 62 213 62zM446 117v59c-10 25 -65 56 -129 56c-57 0 -123 -24 -123 -85s65 -86 123 -86c64 0 119 31 129 56z" />
    <glyph glyph-name="adieresis.ss01" horiz-adv-x="620" 
d="M243 636c-31 0 -56 25 -56 56s25 56 56 56s56 -25 56 -56s-25 -56 -56 -56zM418 636c-31 0 -56 25 -56 56s25 56 56 56s56 -25 56 -56s-25 -56 -56 -56zM339 516c170 0 211 -105 211 -233v-283h-99l-5 28v8c-16 -13 -79 -46 -155 -46c-101 0 -201 49 -201 157
s100 155 201 155c76 0 139 -32 155 -47v28c0 88 -28 146 -128 146c-79 0 -152 -36 -192 -59v84c39 22 119 62 213 62zM446 117v59c-10 25 -65 56 -129 56c-57 0 -123 -24 -123 -85s65 -86 123 -86c64 0 119 31 129 56z" />
    <glyph glyph-name="agrave.ss01" horiz-adv-x="620" 
d="M372 610h-82l-107 153h108zM339 516c170 0 211 -105 211 -233v-283h-99l-5 28v8c-16 -13 -79 -46 -155 -46c-101 0 -201 49 -201 157s100 155 201 155c76 0 139 -32 155 -47v28c0 88 -28 146 -128 146c-79 0 -152 -36 -192 -59v84c39 22 119 62 213 62zM446 117v59
c-10 25 -65 56 -129 56c-57 0 -123 -24 -123 -85s65 -86 123 -86c64 0 119 31 129 56z" />
    <glyph glyph-name="amacron.ss01" horiz-adv-x="620" 
d="M455 739v-99h-252v99h252zM339 516c170 0 211 -105 211 -233v-283h-99l-5 28v8c-16 -13 -79 -46 -155 -46c-101 0 -201 49 -201 157s100 155 201 155c76 0 139 -32 155 -47v28c0 88 -28 146 -128 146c-79 0 -152 -36 -192 -59v84c39 22 119 62 213 62zM446 117v59
c-10 25 -65 56 -129 56c-57 0 -123 -24 -123 -85s65 -86 123 -86c64 0 119 31 129 56z" />
    <glyph glyph-name="aogonek.ss01" horiz-adv-x="620" 
d="M541 -88c34 0 67 17 83 28v-84c-16 -16 -47 -42 -103 -42c-82 0 -133 98 -61 186h-9l-5 28v8c-16 -13 -79 -46 -155 -46c-101 0 -201 49 -201 157s100 155 201 155c76 0 139 -32 155 -47v28c0 88 -28 146 -128 146c-79 0 -152 -36 -192 -59v84c39 22 119 62 213 62
c170 0 211 -105 211 -233v-283h-8c-41 -42 -42 -88 -1 -88zM446 117v59c-10 25 -65 56 -129 56c-57 0 -123 -24 -123 -85s65 -86 123 -86c64 0 119 31 129 56z" />
    <glyph glyph-name="aring.ss01" horiz-adv-x="620" 
d="M329 615c-44 0 -79 35 -79 79s35 79 79 79s79 -35 79 -79s-35 -79 -79 -79zM329 725c-17 0 -31 -14 -31 -31s14 -31 31 -31s31 14 31 31s-14 31 -31 31zM339 516c170 0 211 -105 211 -233v-283h-99l-5 28v8c-16 -13 -79 -46 -155 -46c-101 0 -201 49 -201 157
s100 155 201 155c76 0 139 -32 155 -47v28c0 88 -28 146 -128 146c-79 0 -152 -36 -192 -59v84c39 22 119 62 213 62zM446 117v59c-10 25 -65 56 -129 56c-57 0 -123 -24 -123 -85s65 -86 123 -86c64 0 119 31 129 56z" />
    <glyph glyph-name="atilde.ss01" horiz-adv-x="620" 
d="M256 678c-35 0 -55 -23 -55 -54l-88 17c6 63 39 121 121 121c76 0 107 -70 168 -70c36 0 56 20 56 54l87 -17c-5 -63 -39 -121 -120 -121c-76 0 -107 70 -169 70zM339 516c170 0 211 -105 211 -233v-283h-99l-5 28v8c-16 -13 -79 -46 -155 -46c-101 0 -201 49 -201 157
s100 155 201 155c76 0 139 -32 155 -47v28c0 88 -28 146 -128 146c-79 0 -152 -36 -192 -59v84c39 22 119 62 213 62zM446 117v59c-10 25 -65 56 -129 56c-57 0 -123 -24 -123 -85s65 -86 123 -86c64 0 119 31 129 56z" />
    <glyph glyph-name="ae.ss01" horiz-adv-x="1010" 
d="M940 248v-36h-371c13 -90 73 -134 176 -134c48 0 96 14 167 47v-76c-44 -34 -114 -59 -186 -59s-132 22 -176 60v-50h-99l-5 28v8c-16 -13 -79 -46 -155 -46c-101 0 -201 49 -201 157s100 155 201 155c76 0 139 -32 155 -47v28c0 88 -28 146 -128 146
c-79 0 -152 -36 -192 -59v84c39 22 119 62 213 62c97 0 152 -35 182 -88c43 54 109 88 188 88c145 0 231 -111 231 -268zM711 423c-73 0 -129 -45 -141 -134h269c-11 84 -53 134 -128 134zM446 117v59c-10 25 -65 56 -129 56c-57 0 -123 -24 -123 -85s65 -86 123 -86
c64 0 119 31 129 56z" />
    <glyph glyph-name="e.ss01" horiz-adv-x="637" 
d="M567 248v-36h-370c12 -90 72 -134 175 -134c48 0 96 14 167 47v-76c-44 -34 -114 -59 -186 -59c-162 0 -263 111 -263 266c0 144 100 260 246 260c145 0 231 -111 231 -268zM338 423c-74 0 -129 -45 -141 -134h269c-10 84 -53 134 -128 134z" />
    <glyph glyph-name="eacute.ss01" horiz-adv-x="637" 
d="M483 763l-107 -153h-82l81 153h108zM567 248v-36h-370c12 -90 72 -134 175 -134c48 0 96 14 167 47v-76c-44 -34 -114 -59 -186 -59c-162 0 -263 111 -263 266c0 144 100 260 246 260c145 0 231 -111 231 -268zM338 423c-74 0 -129 -45 -141 -134h269
c-10 84 -53 134 -128 134z" />
    <glyph glyph-name="ecaron.ss01" horiz-adv-x="637" 
d="M294 610l-116 153h94l62 -96l62 96h94l-116 -153h-80zM567 248v-36h-370c12 -90 72 -134 175 -134c48 0 96 14 167 47v-76c-44 -34 -114 -59 -186 -59c-162 0 -263 111 -263 266c0 144 100 260 246 260c145 0 231 -111 231 -268zM338 423c-74 0 -129 -45 -141 -134h269
c-10 84 -53 134 -128 134z" />
    <glyph glyph-name="ecircumflex.ss01" horiz-adv-x="637" 
d="M336 706l-62 -96h-94l116 153h80l116 -153h-94zM567 248v-36h-370c12 -90 72 -134 175 -134c48 0 96 14 167 47v-76c-44 -34 -114 -59 -186 -59c-162 0 -263 111 -263 266c0 144 100 260 246 260c145 0 231 -111 231 -268zM338 423c-74 0 -129 -45 -141 -134h269
c-10 84 -53 134 -128 134z" />
    <glyph glyph-name="edieresis.ss01" horiz-adv-x="637" 
d="M248 636c-31 0 -56 25 -56 56s25 56 56 56s56 -25 56 -56s-25 -56 -56 -56zM423 636c-31 0 -56 25 -56 56s25 56 56 56s56 -25 56 -56s-25 -56 -56 -56zM567 248v-36h-370c12 -90 72 -134 175 -134c48 0 96 14 167 47v-76c-44 -34 -114 -59 -186 -59
c-162 0 -263 111 -263 266c0 144 100 260 246 260c145 0 231 -111 231 -268zM338 423c-74 0 -129 -45 -141 -134h269c-10 84 -53 134 -128 134z" />
    <glyph glyph-name="edotaccent.ss01" horiz-adv-x="637" 
d="M335 636c-31 0 -56 25 -56 56s25 56 56 56s56 -25 56 -56s-25 -56 -56 -56zM567 248v-36h-370c12 -90 72 -134 175 -134c48 0 96 14 167 47v-76c-44 -34 -114 -59 -186 -59c-162 0 -263 111 -263 266c0 144 100 260 246 260c145 0 231 -111 231 -268zM338 423
c-74 0 -129 -45 -141 -134h269c-10 84 -53 134 -128 134z" />
    <glyph glyph-name="egrave.ss01" horiz-adv-x="637" 
d="M378 610h-82l-107 153h108zM567 248v-36h-370c12 -90 72 -134 175 -134c48 0 96 14 167 47v-76c-44 -34 -114 -59 -186 -59c-162 0 -263 111 -263 266c0 144 100 260 246 260c145 0 231 -111 231 -268zM338 423c-74 0 -129 -45 -141 -134h269c-10 84 -53 134 -128 134z
" />
    <glyph glyph-name="emacron.ss01" horiz-adv-x="637" 
d="M461 739v-99h-252v99h252zM567 248v-36h-370c12 -90 72 -134 175 -134c48 0 96 14 167 47v-76c-44 -34 -114 -59 -186 -59c-162 0 -263 111 -263 266c0 144 100 260 246 260c145 0 231 -111 231 -268zM338 423c-74 0 -129 -45 -141 -134h269c-10 84 -53 134 -128 134z
" />
    <glyph glyph-name="eogonek.ss01" horiz-adv-x="637" 
d="M567 248v-36h-370c12 -90 72 -134 175 -134c48 0 96 14 167 47v-76c-38 -30 -98 -53 -160 -58c-33 -39 -31 -79 7 -79c34 0 67 17 83 28v-84c-16 -16 -47 -42 -103 -42c-80 0 -131 94 -66 180c-131 22 -210 124 -210 262c0 144 100 260 246 260c145 0 231 -111 231 -268z
M338 423c-74 0 -129 -45 -141 -134h269c-10 84 -53 134 -128 134z" />
    <glyph glyph-name="uni1EBD.ss01" horiz-adv-x="637" 
d="M262 678c-35 0 -55 -23 -55 -54l-88 17c6 63 39 121 121 121c76 0 107 -70 168 -70c36 0 56 20 56 54l87 -17c-5 -63 -39 -121 -120 -121c-76 0 -107 70 -169 70zM567 248v-36h-370c12 -90 72 -134 175 -134c48 0 96 14 167 47v-76c-44 -34 -114 -59 -186 -59
c-162 0 -263 111 -263 266c0 144 100 260 246 260c145 0 231 -111 231 -268zM338 423c-74 0 -129 -45 -141 -134h269c-10 84 -53 134 -128 134z" />
    <glyph glyph-name="g.ss01" horiz-adv-x="711" 
d="M542 506h99v-470c0 -170 -97 -276 -264 -276c-102 0 -199 42 -238 64v84c40 -20 122 -61 218 -61c117 0 179 64 179 189v69c-29 -65 -101 -115 -192 -115c-145 0 -254 118 -254 263s109 263 254 263c91 0 163 -50 192 -114zM361 89c94 0 164 74 164 164s-70 164 -164 164
c-96 0 -167 -74 -167 -164s71 -164 167 -164z" />
    <glyph glyph-name="gbreve.ss01" horiz-adv-x="711" 
d="M373 610c-92 0 -178 55 -178 153h82c0 -35 24 -82 96 -82s97 47 97 82h81c0 -98 -86 -153 -178 -153zM542 506h99v-470c0 -170 -97 -276 -264 -276c-102 0 -199 42 -238 64v84c40 -20 122 -61 218 -61c117 0 179 64 179 189v69c-29 -65 -101 -115 -192 -115
c-145 0 -254 118 -254 263s109 263 254 263c91 0 163 -50 192 -114zM361 89c94 0 164 74 164 164s-70 164 -164 164c-96 0 -167 -74 -167 -164s71 -164 167 -164z" />
    <glyph glyph-name="gcommaaccent.ss01" horiz-adv-x="711" 
d="M477 819l-49 -203h-109l76 203h82zM542 506h99v-470c0 -170 -97 -276 -264 -276c-102 0 -199 42 -238 64v84c40 -20 122 -61 218 -61c117 0 179 64 179 189v69c-29 -65 -101 -115 -192 -115c-145 0 -254 118 -254 263s109 263 254 263c91 0 163 -50 192 -114zM361 89
c94 0 164 74 164 164s-70 164 -164 164c-96 0 -167 -74 -167 -164s71 -164 167 -164z" />
    <glyph glyph-name="gdotaccent.ss01" horiz-adv-x="711" 
d="M374 636c-31 0 -56 25 -56 56s25 56 56 56s56 -25 56 -56s-25 -56 -56 -56zM542 506h99v-470c0 -170 -97 -276 -264 -276c-102 0 -199 42 -238 64v84c40 -20 122 -61 218 -61c117 0 179 64 179 189v69c-29 -65 -101 -115 -192 -115c-145 0 -254 118 -254 263
s109 263 254 263c91 0 163 -50 192 -114zM361 89c94 0 164 74 164 164s-70 164 -164 164c-96 0 -167 -74 -167 -164s71 -164 167 -164z" />
    <glyph glyph-name="i.ss01" horiz-adv-x="266" 
d="M144 585c-31 0 -56 25 -56 56s25 56 56 56s56 -25 56 -56s-25 -56 -56 -56zM206 506v-506h-105v407l-41 6v93h146z" />
    <glyph glyph-name="dotlessi.ss01" horiz-adv-x="266" 
d="M206 506v-506h-105v407l-41 6v93h146z" />
    <glyph glyph-name="iacute.ss01" horiz-adv-x="266" 
d="M184 763h108l-107 -153h-82zM206 506v-506h-105v407l-41 6v93h146z" />
    <glyph glyph-name="icircumflex.ss01" horiz-adv-x="266" 
d="M185 763l116 -153h-94l-62 96l-62 -96h-94l116 153h80zM60 413v93h146v-506h-105v407z" />
    <glyph glyph-name="idieresis.ss01" horiz-adv-x="266" 
d="M57 584c-31 0 -56 25 -56 56s25 56 56 56s56 -25 56 -56s-25 -56 -56 -56zM232 584c-31 0 -56 25 -56 56s25 56 56 56s56 -25 56 -56s-25 -56 -56 -56zM206 506v-506h-105v407l-41 6v93h146z" />
    <glyph glyph-name="i.loclTRK.ss01" horiz-adv-x="266" 
d="M144 584c-31 0 -56 25 -56 56s25 56 56 56s56 -25 56 -56s-25 -56 -56 -56zM206 506v-506h-105v407l-41 6v93h146z" />
    <glyph glyph-name="igrave.ss01" horiz-adv-x="266" 
d="M105 763l81 -153h-82l-107 153h108zM206 506v-506h-105v407l-41 6v93h146z" />
    <glyph glyph-name="imacron.ss01" horiz-adv-x="266" 
d="M17 739h252v-99h-252v99zM206 506v-506h-105v407l-41 6v93h146z" />
    <glyph glyph-name="iogonek.ss01" horiz-adv-x="266" 
d="M144 585c-31 0 -56 25 -56 56s25 56 56 56s56 -25 56 -56s-25 -56 -56 -56zM193 -88c34 0 67 17 83 28v-84c-16 -16 -47 -42 -103 -42c-82 0 -133 98 -61 186h-11v407l-41 6v93h146v-506h-12c-41 -42 -42 -88 -1 -88z" />
    <glyph glyph-name="j.ss01" horiz-adv-x="261" 
d="M160 584c-31 0 -56 25 -56 56s25 56 56 56s56 -25 56 -56s-25 -56 -56 -56zM221 506v-506l-82 -230h-109l86 237v400l-41 6v93h146z" />
    <glyph glyph-name="l.ss01" horiz-adv-x="276" 
d="M216 750v-750h-105v651l-41 6v93h146z" />
    <glyph glyph-name="lacute.ss01" horiz-adv-x="276" 
d="M196 1007h108l-107 -153h-82zM216 750v-750h-105v651l-41 6v93h146z" />
    <glyph glyph-name="lcaron.ss01" horiz-adv-x="373" 
d="M216 750v-750h-105v651l-41 6v93h146zM307 733h109l-76 -203h-82z" />
    <glyph glyph-name="lcommaaccent.ss01" horiz-adv-x="276" 
d="M216 750v-750h-105v651l-41 6v93h146zM109 -60h109l-76 -203h-82z" />
    <glyph glyph-name="lslash.ss01" horiz-adv-x="276" 
d="M300 439v-39l-84 -63v-337h-105v258l-89 -67v39l89 67v354l-41 6v93h146v-374z" />
    <glyph glyph-name="zero" unicode="0" horiz-adv-x="672" 
d="M346 720c139 0 266 -94 266 -255v-220c0 -161 -127 -255 -266 -255c-138 0 -266 94 -266 255v220c0 161 128 255 266 255zM346 89c88 0 162 62 162 156v220c0 94 -74 156 -162 156s-162 -62 -162 -156v-220c0 -94 74 -156 162 -156z" />
    <glyph glyph-name="one" unicode="1" horiz-adv-x="543" 
d="M334 99h159v-99h-424v99h160v483l-138 -31v103l243 56v-611z" />
    <glyph glyph-name="two" unicode="2" horiz-adv-x="659" 
d="M589 497c0 -244 -392 -260 -392 -398h392v-99h-499v99c0 213 394 228 394 401c0 70 -53 121 -132 121c-93 0 -158 -55 -158 -131h-104c0 128 111 230 263 230c134 0 236 -88 236 -223z" />
    <glyph glyph-name="three" unicode="3" horiz-adv-x="670" 
d="M489 371c63 -32 111 -86 111 -169c0 -112 -91 -212 -245 -212c-159 0 -265 105 -265 233h104c0 -86 73 -134 155 -134c93 0 146 51 146 120c0 80 -71 109 -155 109h-53v98h53c85 0 125 43 125 98c0 62 -47 107 -126 107c-82 0 -145 -53 -145 -134h-104
c0 128 96 233 255 233c134 0 225 -93 225 -200c0 -67 -33 -117 -81 -149z" />
    <glyph glyph-name="four" unicode="4" horiz-adv-x="695" 
d="M645 241v-99h-101v-142h-104v142h-370v99l370 469h104v-469h101zM202 241h238v309z" />
    <glyph glyph-name="five" unicode="5" horiz-adv-x="670" 
d="M366 480c128 0 234 -94 234 -245c0 -131 -105 -245 -255 -245c-159 0 -255 111 -255 233h104c3 -71 61 -129 149 -129c83 0 152 59 152 146c0 94 -67 147 -151 147c-56 0 -122 -26 -144 -86h-103l63 409h390v-99h-302l-26 -167c42 24 91 36 144 36z" />
    <glyph glyph-name="six" unicode="6" horiz-adv-x="690" 
d="M356 477c147 0 254 -113 254 -243c0 -131 -107 -244 -254 -244c-149 0 -256 113 -256 244c0 48 15 95 42 134l222 342h121l-157 -234c9 1 19 1 28 1zM356 89c87 0 149 68 149 145c0 76 -62 145 -149 145c-89 0 -152 -69 -152 -145c0 -77 63 -145 152 -145z" />
    <glyph glyph-name="seven" unicode="7" horiz-adv-x="627" 
d="M80 710h497v-99l-297 -611h-114l297 611h-383v99z" />
    <glyph glyph-name="eight" unicode="8" horiz-adv-x="659" 
d="M480 394c63 -37 109 -100 109 -181c0 -124 -100 -220 -250 -220c-149 0 -249 96 -249 220c0 81 46 144 109 181c-40 33 -69 79 -69 134c0 107 94 189 209 189s210 -82 210 -189c0 -55 -29 -101 -69 -134zM339 618c-50 0 -105 -30 -105 -90s55 -91 105 -91s105 31 105 91
s-55 90 -105 90zM339 92c83 0 145 51 145 121s-62 121 -145 121c-82 0 -145 -51 -145 -121s63 -121 145 -121z" />
    <glyph glyph-name="nine" unicode="9" horiz-adv-x="690" 
d="M610 476c0 -54 -18 -104 -50 -145l-215 -331h-120l157 234c-9 -1 -19 -1 -28 -1c-147 0 -254 113 -254 243c0 131 107 244 254 244c149 0 256 -113 256 -244zM204 476c0 -76 63 -144 150 -144c89 0 151 68 151 144c0 77 -62 145 -151 145c-87 0 -150 -68 -150 -145z" />
    <glyph glyph-name="fraction" unicode="&#x2044;" horiz-adv-x="714" 
d="M684 710l-536 -710h-98l536 710h98z" />
    <glyph glyph-name="asterisk" unicode="*" horiz-adv-x="538" 
d="M340 369l-56 121l-57 -121l-71 41l76 109l-132 -12v82l132 -11l-76 109l71 41l57 -120l56 120l71 -41l-76 -109l133 11v-82l-133 12l76 -109z" />
    <glyph glyph-name="backslash" unicode="\" horiz-adv-x="437" 
d="M50 710h91l266 -710h-91z" />
    <glyph glyph-name="periodcentered" unicode="&#xb7;" horiz-adv-x="181" 
d="M86 200c-31 0 -56 24 -56 56c0 31 25 56 56 56s56 -25 56 -56c0 -32 -25 -56 -56 -56z" />
    <glyph glyph-name="bullet" unicode="&#x2022;" horiz-adv-x="248" 
d="M114 212c-46 0 -84 36 -84 84c0 46 38 84 84 84c47 0 84 -38 84 -84c0 -48 -37 -84 -84 -84z" />
    <glyph glyph-name="colon" unicode=":" horiz-adv-x="232" 
d="M126 365c-31 0 -56 24 -56 56c0 31 25 56 56 56s56 -25 56 -56c0 -32 -25 -56 -56 -56zM126 -10c-31 0 -56 25 -56 56s25 56 56 56s56 -25 56 -56s-25 -56 -56 -56z" />
    <glyph glyph-name="comma" unicode="," horiz-adv-x="238" 
d="M79 61h109l-76 -203h-82z" />
    <glyph glyph-name="ellipsis" unicode="&#x2026;" horiz-adv-x="516" 
d="M248 -10c-32 0 -56 25 -56 56s24 56 56 56c31 0 56 -25 56 -56s-25 -56 -56 -56zM410 -10c-32 0 -56 25 -56 56s24 56 56 56c31 0 56 -25 56 -56s-25 -56 -56 -56zM86 -10c-31 0 -56 25 -56 56s25 56 56 56s56 -25 56 -56s-25 -56 -56 -56z" />
    <glyph glyph-name="exclam" unicode="!" horiz-adv-x="238" 
d="M82 200l-6 510h105l-6 -510h-93zM129 -10c-32 0 -56 25 -56 56s24 56 56 56c31 0 56 -25 56 -56s-25 -56 -56 -56z" />
    <glyph glyph-name="exclamdown" unicode="&#xa1;" horiz-adv-x="238" 
d="M129 480c31 0 56 -25 56 -56s-25 -56 -56 -56c-32 0 -56 25 -56 56s24 56 56 56zM82 271h93l6 -511h-105z" />
    <glyph glyph-name="numbersign" unicode="#" horiz-adv-x="779" 
d="M719 420h-122l-17 -159h109v-105h-120l-16 -156h-102l17 156h-162l-17 -156h-101l16 156h-124v105h136l17 159h-123v104h134l20 186h101l-20 -186h162l20 186h102l-20 -186h110v-104zM479 261l17 159h-162l-17 -159h162z" />
    <glyph glyph-name="period" unicode="." horiz-adv-x="192" 
d="M86 -10c-31 0 -56 25 -56 56s25 56 56 56s56 -25 56 -56s-25 -56 -56 -56z" />
    <glyph glyph-name="question" unicode="?" horiz-adv-x="562" 
d="M296 720c142 0 222 -98 222 -191c0 -97 -68 -176 -181 -201l-3 -128h-93l-6 195h20c102 0 159 45 159 119c0 62 -47 107 -116 107c-67 0 -129 -47 -129 -135h-105c0 150 113 234 232 234zM287 102c32 0 56 -25 56 -56s-24 -56 -56 -56c-31 0 -56 25 -56 56s25 56 56 56z
" />
    <glyph glyph-name="questiondown" unicode="&#xbf;" horiz-adv-x="486" 
d="M239 368c-32 0 -56 25 -56 56s24 56 56 56c31 0 56 -25 56 -56s-25 -56 -56 -56zM357 -16h105c0 -150 -113 -234 -232 -234c-142 0 -222 98 -222 191c0 97 68 176 181 201l3 129h93l6 -196h-20c-102 0 -158 -45 -158 -119c0 -62 46 -107 115 -107c67 0 129 47 129 135z
" />
    <glyph glyph-name="quotedbl" unicode="&#x22;" horiz-adv-x="369" 
d="M248 733h81v-203h-81v203zM110 733h82v-203h-82v203z" />
    <glyph glyph-name="quotesingle" unicode="'" horiz-adv-x="232" 
d="M110 733h82v-203h-82v203z" />
    <glyph glyph-name="semicolon" unicode=";" horiz-adv-x="242" 
d="M131 365c-31 0 -56 24 -56 56c0 31 25 56 56 56s56 -25 56 -56c0 -32 -25 -56 -56 -56zM77 61h109l-76 -203h-82z" />
    <glyph glyph-name="slash" unicode="/" horiz-adv-x="437" 
d="M407 710l-266 -710h-91l266 710h91z" />
    <glyph glyph-name="underscore" unicode="_" horiz-adv-x="650" 
d="M30 -18h610v-81h-610v81z" />
    <glyph glyph-name="braceleft" unicode="{" horiz-adv-x="425" 
d="M345 710v-99c-50 0 -120 -2 -120 -74c0 -57 29 -101 29 -158c0 -39 -27 -64 -52 -64c25 0 52 -25 52 -64c0 -57 -29 -101 -29 -158c0 -72 70 -74 120 -74v-99c-131 0 -225 23 -225 134c0 77 30 126 30 174c0 38 -42 38 -57 38v98c15 0 57 0 57 38c0 48 -30 97 -30 174
c0 111 94 134 225 134z" />
    <glyph glyph-name="braceright" unicode="}" horiz-adv-x="410" 
d="M66 710c130 0 224 -23 224 -134c0 -77 -30 -126 -30 -174c0 -38 42 -38 57 -38v-98c-15 0 -57 0 -57 -38c0 -48 30 -97 30 -174c0 -111 -94 -134 -224 -134v99c50 0 120 2 120 74c0 57 -29 101 -29 158c0 39 26 64 51 64c-25 0 -51 25 -51 64c0 57 29 101 29 158
c0 72 -70 74 -120 74v99z" />
    <glyph glyph-name="bracketleft" unicode="[" horiz-adv-x="384" 
d="M304 611h-120v-592h120v-99h-224v790h224v-99z" />
    <glyph glyph-name="bracketright" unicode="]" horiz-adv-x="374" 
d="M294 710v-790h-224v99h120v592h-120v99h224z" />
    <glyph glyph-name="parenleft" unicode="(" horiz-adv-x="384" 
d="M304 710v-99c-51 0 -120 -24 -120 -114v-364c0 -89 69 -114 120 -114v-99c-136 0 -224 63 -224 213v364c0 150 88 213 224 213z" />
    <glyph glyph-name="parenright" unicode=")" horiz-adv-x="374" 
d="M70 710c136 0 224 -63 224 -213v-364c0 -150 -88 -213 -224 -213v99c51 0 120 25 120 114v364c0 90 -69 114 -120 114v99z" />
    <glyph glyph-name="emdash" unicode="&#x2014;" horiz-adv-x="1203" 
d="M30 319h1153v-99h-1153v99z" />
    <glyph glyph-name="endash" unicode="&#x2013;" horiz-adv-x="915" 
d="M30 319h865v-99h-865v99z" />
    <glyph glyph-name="hyphen" unicode="-" horiz-adv-x="547" 
d="M91 319h385v-99h-385v99z" />
    <glyph glyph-name="guillemotleft" unicode="&#xab;" horiz-adv-x="592" 
d="M512 418l-123 -177l123 -177h-115l-123 177l123 177h115zM338 418l-123 -177l123 -177h-115l-123 177l123 177h115z" />
    <glyph glyph-name="guillemotright" unicode="&#xbb;" horiz-adv-x="522" 
d="M145 418l123 -177l-123 -177h-115l123 177l-123 177h115zM319 418l123 -177l-123 -177h-115l123 177l-123 177h115z" />
    <glyph glyph-name="guilsinglleft" unicode="&#x2039;" horiz-adv-x="418" 
d="M338 418l-123 -177l123 -177h-115l-123 177l123 177h115z" />
    <glyph glyph-name="guilsinglright" unicode="&#x203a;" horiz-adv-x="390" 
d="M187 418l123 -177l-123 -177h-115l123 177l-123 177h115z" />
    <glyph glyph-name="quotedblbase" unicode="&#x201e;" horiz-adv-x="399" 
d="M79 61h109l-76 -203h-82z" />
    <glyph glyph-name="quotedblleft" unicode="&#x201c;" horiz-adv-x="422" 
d="M165 529h-109l76 203h82zM329 529h-109l76 203h82z" />
    <glyph glyph-name="quotedblright" unicode="&#x201d;" horiz-adv-x="422" 
d="M95 733h109l-76 -203h-82zM259 733h109l-76 -203h-82z" />
    <glyph glyph-name="quoteleft" unicode="&#x2018;" horiz-adv-x="257" 
d="M158 530h-109l76 203h82z" />
    <glyph glyph-name="quoteright" unicode="&#x2019;" horiz-adv-x="257" 
d="M97 733h109l-76 -203h-82z" />
    <glyph glyph-name="quotesinglbase" unicode="&#x201a;" horiz-adv-x="399" 
d="M79 61h109l-76 -203h-82z" />
    <glyph glyph-name="cent" unicode="&#xa2;" horiz-adv-x="643" 
d="M514 360c-37 36 -79 55 -127 57v-328c48 3 90 22 127 58v-101c-31 -29 -74 -50 -127 -55v-63h-31v62c-147 3 -256 122 -256 263c0 140 109 260 256 263v62h31v-63c53 -5 96 -26 127 -55v-100zM210 253c0 -88 68 -153 146 -163v326c-78 -10 -146 -75 -146 -163z" />
    <glyph glyph-name="currency" unicode="&#xa4;" horiz-adv-x="569" 
d="M417 417c52 -63 50 -154 -6 -215l58 -57l-23 -23l-58 58c-61 -46 -144 -45 -203 5l-62 -63l-23 23l63 62c-50 59 -51 143 -6 204l-57 58l23 22l56 -57c61 57 153 58 216 5l52 52l22 -22zM227 249c35 -35 90 -35 125 0c36 36 36 91 0 126c-35 35 -90 35 -125 0
c-36 -35 -36 -90 0 -126z" />
    <glyph glyph-name="dollar" unicode="$" horiz-adv-x="655" 
d="M564 174c0 -113 -93 -181 -212 -184v-70h-31v71c-128 10 -208 104 -212 215h104c4 -71 52 -108 108 -115v224l-6 3c-133 75 -191 124 -191 224c0 102 86 174 197 178v70h31v-71c111 -10 183 -98 187 -205h-104c-3 57 -36 96 -83 105v-207c129 -68 212 -128 212 -238z
M228 538c0 -55 36 -79 93 -110v193c-52 -4 -93 -36 -93 -83zM352 89c68 3 107 40 107 89c0 55 -44 86 -107 121v-210z" />
    <glyph glyph-name="Euro" unicode="&#x20ac;" horiz-adv-x="896" 
d="M593 621c-143 0 -263 -112 -263 -266v-7h262l-7 -32h-252c1 -13 4 -26 8 -38h227l-7 -32h-209c41 -95 135 -157 241 -157c100 0 165 46 196 77v-106c-35 -31 -104 -70 -208 -70c-162 0 -296 106 -340 256h-141l7 32h127c-3 12 -5 25 -6 38h-104l7 32h95v7
c0 205 156 365 355 365c104 0 173 -39 208 -70v-106c-31 32 -96 77 -196 77z" />
    <glyph glyph-name="sterling" unicode="&#xa3;" horiz-adv-x="690" 
d="M463 89c54 0 95 15 127 36v-100c-35 -23 -73 -35 -127 -35c-92 0 -147 40 -236 40c-54 0 -95 -15 -127 -37v101c35 23 73 35 127 35c14 0 27 -1 40 -3c-3 77 -17 119 -48 159h-119v31h91c-50 53 -91 119 -91 198c0 118 98 206 232 206c138 0 228 -102 228 -241h-105
c0 86 -44 142 -127 142c-71 0 -124 -47 -124 -113c0 -68 45 -107 100 -177c4 -5 8 -10 11 -15h166v-31h-146c24 -46 36 -101 37 -183c28 -7 57 -13 91 -13z" />
    <glyph glyph-name="yen" unicode="&#xa5;" horiz-adv-x="820" 
d="M462 290v-36h176v-31h-176v-39h176v-31h-176v-153h-104v153h-175v31h175v39h-175v31h175v36l-258 420h118l192 -312l192 312h118z" />
    <glyph glyph-name="approxequal" unicode="&#x2248;" horiz-adv-x="632" 
d="M100 359c6 63 39 121 121 121c76 0 107 -70 168 -70c36 0 56 20 56 54l87 -17c-5 -63 -39 -121 -120 -121c-76 0 -107 70 -169 70c-35 0 -55 -23 -55 -54zM100 179c6 63 39 121 121 121c76 0 107 -70 168 -70c36 0 56 20 56 54l87 -17c-5 -63 -39 -121 -120 -121
c-76 0 -107 70 -169 70c-35 0 -55 -23 -55 -54z" />
    <glyph glyph-name="asciitilde" unicode="~" horiz-adv-x="632" 
d="M100 230c6 63 39 121 121 121c76 0 107 -70 168 -70c36 0 56 20 56 54l87 -17c-5 -63 -39 -121 -120 -121c-76 0 -107 70 -169 70c-35 0 -55 -23 -55 -54z" />
    <glyph glyph-name="divide" unicode="&#xf7;" horiz-adv-x="579" 
d="M303 382c-31 0 -55 24 -55 56c0 31 24 56 55 56c32 0 56 -25 56 -56c0 -32 -24 -56 -56 -56zM111 334h385v-99h-385v99zM303 69c-31 0 -55 25 -55 56c0 32 24 56 55 56c32 0 56 -24 56 -56c0 -31 -24 -56 -56 -56z" />
    <glyph glyph-name="equal" unicode="=" horiz-adv-x="584" 
d="M100 413h384v-99h-384v99zM100 255h384v-99h-384v99z" />
    <glyph glyph-name="greater" unicode="&#x3e;" horiz-adv-x="584" 
d="M100 491l384 -150v-92l-384 -149v90l270 105l-270 105v91z" />
    <glyph glyph-name="greaterequal" unicode="&#x2265;" horiz-adv-x="584" 
d="M484 309l-384 -149v90l270 105l-270 105v91l384 -150v-92zM100 98h385v-99h-385v99z" />
    <glyph glyph-name="less" unicode="&#x3c;" horiz-adv-x="579" 
d="M479 491v-91l-270 -105l270 -105v-90l-385 149v92z" />
    <glyph glyph-name="lessequal" unicode="&#x2264;" horiz-adv-x="579" 
d="M479 551v-91l-270 -105l270 -105v-90l-384 149v92zM94 -1v99h385v-99h-385z" />
    <glyph glyph-name="logicalnot" unicode="&#xac;" horiz-adv-x="584" 
d="M100 345h385v-193h-99v94h-286v99z" />
    <glyph glyph-name="minus" unicode="&#x2212;" horiz-adv-x="579" 
d="M111 334h385v-99h-385v99z" />
    <glyph glyph-name="multiply" unicode="&#xd7;" horiz-adv-x="526" 
d="M434 386l-101 -101l101 -102l-70 -70l-102 102l-101 -101l-70 70l102 101l-101 101l70 70l101 -101l101 101z" />
    <glyph glyph-name="notequal" unicode="&#x2260;" horiz-adv-x="579" 
d="M484 313h-140l-22 -59h162v-99h-199l-33 -90h-84l33 90h-101v99h138l22 59h-160v99h197l36 95h84l-36 -95h103v-99z" />
    <glyph glyph-name="percent" unicode="%" horiz-adv-x="1008" 
d="M265 390c-92 0 -165 73 -165 165s73 165 165 165s165 -73 165 -165s-73 -165 -165 -165zM828 710l-536 -710h-98l536 710h98zM265 466c50 0 89 39 89 89s-39 89 -89 89s-89 -39 -89 -89s39 -89 89 -89zM763 -10c-92 0 -165 73 -165 165s73 165 165 165s165 -73 165 -165
s-73 -165 -165 -165zM763 66c50 0 89 39 89 89s-39 89 -89 89s-89 -39 -89 -89s39 -89 89 -89z" />
    <glyph glyph-name="perthousand" unicode="&#x2030;" horiz-adv-x="1373" 
d="M265 390c-92 0 -165 73 -165 165s73 165 165 165s165 -73 165 -165s-73 -165 -165 -165zM828 710l-536 -710h-98l536 710h98zM265 466c50 0 89 39 89 89s-39 89 -89 89s-89 -39 -89 -89s39 -89 89 -89zM749 -10c-92 0 -165 73 -165 165s73 165 165 165s165 -73 165 -165
s-73 -165 -165 -165zM1128 -10c-92 0 -165 73 -165 165s73 165 165 165s165 -73 165 -165s-73 -165 -165 -165zM749 66c50 0 88 39 88 89s-38 89 -88 89s-89 -39 -89 -89s39 -89 89 -89zM1128 66c50 0 89 39 89 89s-39 89 -89 89s-89 -39 -89 -89s39 -89 89 -89z" />
    <glyph glyph-name="plus" unicode="+" horiz-adv-x="584" 
d="M485 335v-99h-143v-144h-99v144h-143v99h143v142h99v-142h143z" />
    <glyph glyph-name="plusminus" unicode="&#xb1;" horiz-adv-x="584" 
d="M342 391h143v-99h-143v-144h-99v144h-143v99h143v142h99v-142zM100 39v99h385v-99h-385z" />
    <glyph glyph-name="arrowup" unicode="&#x2191;" horiz-adv-x="605" 
d="M505 492h-95l-66 116l-1 -608h-82l1 607l-67 -115h-95l161 258h83z" />
    <glyph glyph-name="uni2197" unicode="&#x2197;" horiz-adv-x="789" 
d="M630 643l59 -59l-69 -296l-67 67l34 128l-429 -429l-58 58l429 429l-128 -34l-67 67z" />
    <glyph glyph-name="arrowright" unicode="&#x2192;" horiz-adv-x="950" 
d="M592 570l258 -161v-83l-258 -161v95l116 67l-608 1v82l607 -1l-115 66v95z" />
    <glyph glyph-name="uni2198" unicode="&#x2198;" horiz-adv-x="789" 
d="M620 483l69 -296l-59 -59l-296 69l67 67l128 -34l-429 429l58 58l429 -429l-34 128z" />
    <glyph glyph-name="arrowdown" unicode="&#x2193;" horiz-adv-x="605" 
d="M410 258h95l-161 -258h-83l-161 258h95l67 -116l-1 608h82l1 -607z" />
    <glyph glyph-name="uni2199" unicode="&#x2199;" horiz-adv-x="788" 
d="M259 230l128 34l67 -67l-296 -69l-59 59l69 296l67 -67l-34 -128l429 429l58 -58z" />
    <glyph glyph-name="arrowleft" unicode="&#x2190;" horiz-adv-x="950" 
d="M850 410v-82l-608 -1l116 -67v-95l-258 161v83l258 161v-95l-114 -66z" />
    <glyph glyph-name="uni2196" unicode="&#x2196;" horiz-adv-x="789" 
d="M689 112l-58 -58l-429 429l34 -128l-67 -67l-69 296l59 59l296 -69l-67 -67l-128 34z" />
    <glyph glyph-name="arrowboth" unicode="&#x2194;" horiz-adv-x="950" 
d="M592 570l258 -161v-83l-258 -161v95l117 67l-467 1l116 -67v-96l-258 162v83l258 161v-95l-115 -67h464l-115 66v95z" />
    <glyph glyph-name="arrowupdn" unicode="&#x2195;" horiz-adv-x="606" 
d="M344 144l66 114h95l-161 -258h-83l-161 258h95l67 -116l1 466l-67 -116h-95l161 258h83l161 -258h-95l-66 115z" />
    <glyph glyph-name="lozenge" unicode="&#x25ca;" horiz-adv-x="660" 
d="M376 710l184 -400l-184 -400h-92l-184 400l184 400h92zM330 10l138 300l-138 300l-138 -300z" />
    <glyph glyph-name="bar" unicode="|" horiz-adv-x="229" 
d="M78 -80v870h82v-870h-82z" />
    <glyph glyph-name="brokenbar" unicode="&#xa6;" horiz-adv-x="229" 
d="M78 500v290h82v-290h-82zM78 -80v290h82v-290h-82z" />
    <glyph glyph-name="at" unicode="@" horiz-adv-x="1004" 
d="M100 334c0 225 191 402 402 402c231 0 402 -166 402 -391c0 -154 -83 -253 -196 -253c-69 0 -107 45 -107 135c-21 -45 -76 -78 -136 -78c-92 0 -168 83 -168 185s76 185 168 185c58 0 110 -32 131 -76v73h82v-268c0 -50 11 -92 52 -92c48 0 92 61 92 178
c0 174 -106 320 -320 320c-172 0 -320 -134 -320 -320c0 -200 158 -310 296 -310c56 0 104 15 151 39l72 -47c-64 -45 -133 -74 -223 -74c-187 0 -378 147 -378 392zM384 334c0 -57 47 -103 104 -103c56 0 103 46 103 103s-47 103 -103 103c-57 0 -104 -47 -104 -103z" />
    <glyph glyph-name="ampersand" unicode="&#x26;" horiz-adv-x="806" 
d="M726 0h-124l-50 49c-50 -37 -115 -59 -196 -59c-164 0 -256 98 -256 214c0 92 57 155 111 183c-50 54 -67 93 -67 147c0 91 72 186 221 186c137 0 213 -101 213 -207h-104c0 63 -42 108 -113 108c-70 0 -112 -45 -112 -97c0 -50 33 -81 75 -122l219 -218
c23 37 37 82 37 132h-50v53h155c0 -98 -22 -189 -71 -257zM368 89c42 0 80 11 112 31l-212 210c-35 -16 -64 -54 -64 -103c0 -74 63 -138 164 -138z" />
    <glyph glyph-name="paragraph" unicode="&#xb6;" horiz-adv-x="689" 
d="M100 481c0 148 111 229 249 229h82v-710h-82v252c-138 0 -249 81 -249 229zM507 710h82v-710h-82v710z" />
    <glyph glyph-name="copyright" unicode="&#xa9;" horiz-adv-x="960" 
d="M484 -10c-212 0 -384 172 -384 385s172 385 384 385c213 0 386 -172 386 -385s-173 -385 -386 -385zM484 72c168 0 303 135 303 303s-135 303 -303 303s-303 -135 -303 -303s135 -303 303 -303zM613 472c-32 30 -70 50 -121 50c-81 0 -150 -62 -150 -147
s69 -147 150 -147c51 0 89 21 121 51l33 -76c-37 -32 -89 -63 -165 -63c-115 0 -233 92 -233 235c0 142 118 235 233 235c76 0 128 -31 165 -63z" />
    <glyph glyph-name="registered" unicode="&#xae;" horiz-adv-x="960" 
d="M484 758c213 0 386 -172 386 -385s-173 -385 -386 -385c-212 0 -384 172 -384 385s172 385 384 385zM484 70c168 0 303 136 303 303c0 168 -135 303 -303 303s-303 -135 -303 -303c0 -167 135 -303 303 -303zM640 438c0 -65 -34 -109 -84 -128l84 -130h-97l-70 119h-42
v-119h-82v396h145c83 0 146 -50 146 -138zM494 381c35 0 64 15 64 57c0 41 -29 57 -64 57h-63v-114h63z" />
    <glyph glyph-name="section" unicode="&#xa7;" horiz-adv-x="513" 
d="M348 247c45 -25 85 -66 85 -120c0 -74 -53 -137 -157 -137c-115 0 -162 81 -166 151h82c4 -42 32 -69 84 -69c43 0 75 22 75 59c0 45 -57 71 -116 87c-62 18 -145 39 -145 130c0 51 35 93 89 116c-40 25 -74 64 -74 120c0 74 59 136 157 136c114 0 162 -84 166 -150h-82
c-4 39 -31 68 -84 68c-37 0 -75 -21 -75 -65c0 -40 42 -66 102 -78c65 -14 154 -42 154 -133c0 -50 -39 -92 -95 -115zM274 429c-55 -5 -102 -35 -102 -76c0 -42 33 -60 75 -72c66 2 114 36 114 73c0 48 -45 64 -87 75z" />
    <glyph glyph-name="trademark" unicode="&#x2122;" horiz-adv-x="862" 
d="M361 710v-76h-108v-224h-65v224h-108v76h281zM717 710h65v-300h-65v185l-110 -185h-22l-110 185v-185h-65v300h65l121 -203z" />
    <glyph glyph-name="degree" unicode="&#xb0;" horiz-adv-x="460" 
d="M245 390c-92 0 -165 73 -165 165s73 165 165 165s165 -73 165 -165s-73 -165 -165 -165zM245 466c50 0 89 39 89 89s-39 89 -89 89s-89 -39 -89 -89s39 -89 89 -89z" />
    <glyph glyph-name="asciicircum" unicode="^" horiz-adv-x="540" 
d="M510 310h-92l-138 300l-138 -300h-92l184 400h92z" />
    <glyph glyph-name="dagger" unicode="&#x2020;" horiz-adv-x="584" 
d="M484 544v-99h-151v-525h-82v525h-151v99h151v246h82v-246h151z" />
    <glyph glyph-name="daggerdbl" unicode="&#x2021;" horiz-adv-x="584" 
d="M484 445h-151v-181h151v-99h-151v-245h-82v245h-151v99h151v181h-151v99h151v246h82v-246h151v-99z" />
    <glyph glyph-name="acutecomb" unicode="&#x301;" horiz-adv-x="0" 
d="M-208 727h108l-107 -153h-82z" />
    <glyph glyph-name="uni0306" unicode="&#x306;" horiz-adv-x="0" 
d="M-100 727c0 -98 -86 -153 -178 -153s-178 55 -178 153h82c0 -35 24 -82 96 -82s97 47 97 82h81z" />
    <glyph glyph-name="uni030C" unicode="&#x30c;" horiz-adv-x="0" 
d="M-196 727h94l-116 -153h-80l-116 153h94l62 -96z" />
    <glyph glyph-name="uni0327" unicode="&#x327;" horiz-adv-x="0" 
d="M-151 -50c58 0 97 -22 97 -68c0 -89 -147 -87 -199 -87l20 50c63 0 120 3 120 35c0 25 -27 30 -61 30l-59 -2l36 92h74z" />
    <glyph glyph-name="uni0302" unicode="&#x302;" horiz-adv-x="0" 
d="M-102 574h-94l-62 96l-62 -96h-94l116 153h80z" />
    <glyph glyph-name="uni0326" unicode="&#x326;" horiz-adv-x="0" 
d="M-209 -60h109l-76 -203h-82z" />
    <glyph glyph-name="uni0312" unicode="&#x312;" horiz-adv-x="0" 
d="M-149 580h-109l76 203h82z" />
    <glyph glyph-name="uni0308" unicode="&#x308;" horiz-adv-x="0" 
d="M-325 600c-31 0 -56 24 -56 56c0 31 25 56 56 56s56 -25 56 -56c0 -32 -25 -56 -56 -56zM-150 600c-31 0 -56 24 -56 56c0 31 25 56 56 56s56 -25 56 -56c0 -32 -25 -56 -56 -56z" />
    <glyph glyph-name="uni0307" unicode="&#x307;" horiz-adv-x="0" 
d="M-156 600c-31 0 -56 24 -56 56c0 31 25 56 56 56s56 -25 56 -56c0 -32 -25 -56 -56 -56z" />
    <glyph glyph-name="gravecomb" unicode="&#x300;" horiz-adv-x="0" 
d="M-181 727l81 -153h-82l-108 153h109z" />
    <glyph glyph-name="uni030B" unicode="&#x30b;" horiz-adv-x="0" 
d="M-189 727h109l-107 -153h-82zM-348 727h108l-107 -153h-82z" />
    <glyph glyph-name="uni0304" unicode="&#x304;" horiz-adv-x="0" 
d="M-356 703h252v-99h-252v99z" />
    <glyph glyph-name="uni0328" unicode="&#x328;" horiz-adv-x="0" 
d="M-76 -60v-84c-16 -16 -47 -42 -103 -42c-82 0 -133 98 -61 186h82c-41 -42 -42 -88 -1 -88c34 0 67 17 83 28z" />
    <glyph glyph-name="uni030A" unicode="&#x30a;" horiz-adv-x="0" 
d="M-179 579c-44 0 -79 35 -79 79s35 79 79 79s79 -35 79 -79s-35 -79 -79 -79zM-179 627c17 0 31 14 31 31s-14 31 -31 31s-31 -14 -31 -31s14 -31 31 -31z" />
    <glyph glyph-name="uni0338" unicode="&#x338;" horiz-adv-x="0" 
d="M-87 750l-598 -790h-39l598 790h39z" />
    <glyph glyph-name="uni0337" unicode="&#x337;" horiz-adv-x="0" 
d="M-378 111v39l278 209v-39z" />
    <glyph glyph-name="uni0336" unicode="&#x336;" horiz-adv-x="0" 
d="M-801 279h768v-99h-768v99z" />
    <glyph glyph-name="uni0335" unicode="&#x335;" horiz-adv-x="0" 
d="M-484 284h384v-98h-384v98z" />
    <glyph glyph-name="tildecomb" unicode="&#x303;" horiz-adv-x="0" 
d="M-532 605c6 63 39 121 121 121c76 0 107 -70 168 -70c36 0 56 20 56 54l87 -17c-5 -63 -39 -121 -120 -121c-76 0 -107 70 -169 70c-35 0 -55 -23 -55 -54z" />
    <glyph glyph-name="acute" unicode="&#xb4;" horiz-adv-x="389" 
d="M181 727h108l-107 -153h-82z" />
    <glyph glyph-name="breve" unicode="&#x2d8;" horiz-adv-x="556" 
d="M456 727c0 -98 -86 -153 -178 -153s-178 55 -178 153h82c0 -35 24 -82 96 -82s97 47 97 82h81z" />
    <glyph glyph-name="caron" unicode="&#x2c7;" horiz-adv-x="512" 
d="M318 727h94l-115 -153h-81l-116 153h94l62 -96z" />
    <glyph glyph-name="cedilla" unicode="&#xb8;" horiz-adv-x="399" 
d="M202 -50c57 -1 97 -22 97 -68c0 -89 -147 -87 -199 -87l20 50c63 0 120 3 120 35c0 24 -28 30 -61 30l-59 -2l36 92h74z" />
    <glyph glyph-name="circumflex" unicode="&#x2c6;" horiz-adv-x="512" 
d="M412 574h-94l-62 96l-62 -96h-94l116 153h80z" />
    <glyph glyph-name="dieresis" unicode="&#xa8;" horiz-adv-x="487" 
d="M156 600c-31 0 -56 24 -56 56c0 31 25 56 56 56s56 -25 56 -56c0 -32 -25 -56 -56 -56zM331 600c-31 0 -56 24 -56 56c0 31 25 56 56 56s56 -25 56 -56c0 -32 -25 -56 -56 -56z" />
    <glyph glyph-name="dotaccent" unicode="&#x2d9;" horiz-adv-x="312" 
d="M156 600c-31 0 -56 24 -56 56c0 31 25 56 56 56s56 -25 56 -56c0 -32 -25 -56 -56 -56z" />
    <glyph glyph-name="grave" unicode="`" horiz-adv-x="389" 
d="M209 727l81 -153h-82l-108 153h109z" />
    <glyph glyph-name="hungarumlaut" unicode="&#x2dd;" horiz-adv-x="549" 
d="M340 727h109l-107 -153h-82zM181 727h108l-107 -153h-82z" />
    <glyph glyph-name="macron" unicode="&#xaf;" horiz-adv-x="456" 
d="M100 703h252v-99h-252v99z" />
    <glyph glyph-name="ogonek" unicode="&#x2db;" horiz-adv-x="400" 
d="M300 -60v-84c-16 -16 -47 -42 -102 -42c-82 0 -134 98 -62 186h82c-41 -42 -42 -88 -1 -88c34 0 67 17 83 28z" />
    <glyph glyph-name="ring" unicode="&#x2da;" horiz-adv-x="358" 
d="M179 579c-44 0 -79 35 -79 79s35 79 79 79s79 -35 79 -79s-35 -79 -79 -79zM179 627c17 0 31 14 31 31s-14 31 -31 31s-31 -14 -31 -31s14 -31 31 -31z" />
    <glyph glyph-name="tilde" unicode="&#x2dc;" horiz-adv-x="632" 
d="M100 605c6 63 39 121 121 121c76 0 107 -70 168 -70c36 0 56 20 56 54l87 -17c-5 -63 -39 -121 -120 -121c-76 0 -107 70 -169 70c-35 0 -55 -23 -55 -54z" />
    </font>
</defs>
</svg>
