<?xml version="1.0" standalone="no"?>
<!DOCTYPE svg PUBLIC "-//W3C//DTD SVG 1.1//EN" "http://www.w3.org/Graphics/SVG/1.1/DTD/svg11.dtd" >
<svg xmlns="http://www.w3.org/2000/svg" xmlns:xlink="http://www.w3.org/1999/xlink" version="1.1">
<metadata>
Created by FontForge 20170910 at Mon Nov 27 14:48:46 2017
 By Jimmy Wärting
Ellen Luff
</metadata>
<defs>
<font id="Kiona-Regular" horiz-adv-x="695" >
  <font-face 
    font-family="Kiona"
    font-weight="400"
    font-stretch="normal"
    units-per-em="1000"
    panose-1="0 0 5 0 0 0 0 0 0 0"
    ascent="800"
    descent="-200"
    x-height="650"
    cap-height="650"
    bbox="-670 -200 1032 894"
    underline-thickness="50"
    underline-position="-100"
    unicode-range="U+0020-2212"
  />
<missing-glyph horiz-adv-x="450" 
d="M369 700v-900h-285v900h285zM300 86h-150v-102h150v102zM270 57v-43h-90v43h90zM300 242h-90v-50h30v20h30v-42h-90v72h-30v-102h150v102zM300 352h-30v-60h-120v-30h150v90zM300 406h-150v-30h60v-33h-60v-30h90v63h60v30zM210 493v-32h-30v32h30zM240 524h-90v-94h150
v31h-60v63zM300 640h-149v-30h59v-33h-60v-30h150v30h-60v33h60v30zM300 -36h-150v-30h63l-63 -42v-30h150v30h-92l63 42h29v30z" />
    <glyph glyph-name=".notdef" horiz-adv-x="450" 
d="M369 700v-900h-285v900h285zM300 86h-150v-102h150v102zM270 57v-43h-90v43h90zM300 242h-90v-50h30v20h30v-42h-90v72h-30v-102h150v102zM300 352h-30v-60h-120v-30h150v90zM300 406h-150v-30h60v-33h-60v-30h90v63h60v30zM210 493v-32h-30v32h30zM240 524h-90v-94h150
v31h-60v63zM300 640h-149v-30h59v-33h-60v-30h150v30h-60v33h60v30zM300 -36h-150v-30h63l-63 -42v-30h150v30h-92l63 42h29v30z" />
    <glyph glyph-name="space" unicode=" " horiz-adv-x="332" 
 />
    <glyph glyph-name="A" unicode="A" 
d="M177 165l-77 -165h-50l306 658l289 -658h-49l-73 165h-346zM354 547l-156 -337h305z" />
    <glyph glyph-name="Aacute" unicode="&#xc1;" 
d="M177 165l-77 -165h-50l306 658l289 -658h-49l-73 165h-346zM354 547l-156 -337h305zM298 717h52l112 101h-82z" />
    <glyph glyph-name="Acircumflex" unicode="&#xc2;" 
d="M177 165l-77 -165h-50l306 658l289 -658h-49l-73 165h-346zM354 547l-156 -337h305zM455 717h-51l-71 64l-71 -64h-51l81 101h81z" />
    <glyph glyph-name="Adieresis" unicode="&#xc4;" 
d="M177 165l-77 -165h-50l306 658l289 -658h-49l-73 165h-346zM354 547l-156 -337h305zM211 776.5q-10 -10.5 -10 -24.5q0 -15 10.5 -25t24.5 -10t24.5 10t10.5 25q0 14 -10.5 24.5t-24.5 10.5q-15 0 -25 -10.5zM397 776.5q-10 -10.5 -10 -24.5q0 -15 10 -25t24 -10t24.5 10
t10.5 25q0 14 -10.5 24.5t-24.5 10.5t-24 -10.5z" />
    <glyph glyph-name="Agrave" unicode="&#xc0;" 
d="M177 165l-77 -165h-50l306 658l289 -658h-49l-73 165h-346zM354 547l-156 -337h305zM313 717h51l-81 101h-82z" />
    <glyph glyph-name="Aring" unicode="&#xc5;" 
d="M177 165l-77 -165h-50l306 658l289 -658h-49l-73 165h-346zM354 547l-156 -337h305zM396 743q26 26 26 62q0 37 -26 63t-62 26q-37 0 -62.5 -26t-25.5 -63q0 -36 25.5 -62t62.5 -26q36 0 62 26zM365 837q13 -13 13 -32q0 -18 -13 -31t-31 -13q-19 0 -31.5 13t-12.5 31
q0 19 12.5 32t31.5 13q18 0 31 -13z" />
    <glyph glyph-name="Atilde" unicode="&#xc3;" 
d="M177 165l-77 -165h-50l306 658l289 -658h-49l-73 165h-346zM354 547l-156 -337h305zM211 728.5q7 8.5 20 18t28 12.5q4 1 13 1q25 0 49 -17q35 -25 73 -25q15 0 22 2q46 9 66.5 34.5t21.5 26.5l-37 24q-2 -3 -9.5 -11.5t-20.5 -18t-29 -12.5q-4 -1 -13 -1q-26 0 -49 17
q-35 25 -73 25q-15 0 -23 -2q-24 -4 -43 -17.5t-30 -26.5t-13 -17l38 -24q2 3 9 11.5z" />
    <glyph glyph-name="AE" unicode="&#xc6;" horiz-adv-x="954" 
d="M864 604h-375v-256h292v-46h-292v-257h375v-45h-421v178h-260l-83 -178h-50l301 650h513v-46zM204 224h239v380h-63z" />
    <glyph glyph-name="B" unicode="B" horiz-adv-x="602" 
d="M513.5 279.5q32.5 -42.5 32.5 -96.5q0 -35 -15.5 -68.5t-44.5 -59.5q-30 -26 -70.5 -40.5t-85.5 -14.5h-239l1 650h186q91 0 145 -51q25 -23 38.5 -53t13.5 -62q0 -40 -18.5 -73t-45.5 -51l-9 -6q19 -6 33 -12q46 -20 78.5 -62.5zM137 367h139q27 0 45 3t36 10
q26 11 49.5 38t23.5 66q0 31 -17.5 58.5t-52 44.5t-82.5 17h-141v-237zM420 65q39 20 60 51.5t21 66.5q0 39 -24.5 70.5t-58.5 46.5q-48 21 -121 21h-160v-276h193q51 0 90 20z" />
    <glyph glyph-name="C" unicode="C" horiz-adv-x="685" 
d="M521 25.5q67 32.5 114 91.5l-36 28q-41 -50 -98.5 -78t-121.5 -28q-77 0 -142 38.5t-103.5 104.5t-38.5 144t38.5 144t103.5 104.5t142 38.5q60 0 114.5 -25t94.5 -70l35 31q-48 52 -111.5 80.5t-132.5 28.5q-89 0 -165 -45t-120 -121t-44 -166t44 -166.5t120 -121.5
t165 -45q75 0 142 32.5z" />
    <glyph glyph-name="Ccedilla" unicode="&#xc7;" horiz-adv-x="685" 
d="M521 25.5q67 32.5 114 91.5l-36 28q-41 -50 -98.5 -78t-121.5 -28q-77 0 -142 38.5t-103.5 104.5t-38.5 144t38.5 144t103.5 104.5t142 38.5q60 0 114.5 -25t94.5 -70l35 31q-48 52 -111.5 80.5t-132.5 28.5q-89 0 -165 -45t-120 -121t-44 -166t44 -166.5t120 -121.5
t165 -45q75 0 142 32.5zM435 -131q12 9 19 22t7 27t-7 27.5t-19 22.5q-15 11 -38 16v16h-39v-53h19q19 0 32.5 -8.5t13.5 -20.5q0 -11 -14 -20t-32 -9t-31.5 9t-13.5 20h-39q0 -14 7 -27t20 -22q24 -19 57 -19t58 19z" />
    <glyph glyph-name="D" unicode="D" horiz-adv-x="648" 
d="M406 25.5q59 25.5 102 73.5q41 46 63 104t22 123t-22 123t-63 103q-43 47 -102 72.5t-128 25.5h-187v-650h187q69 0 128 25.5zM136 604h142q120 0 197 -83q35 -38 53.5 -88.5t18.5 -106.5q0 -57 -18.5 -107.5t-53.5 -88.5q-76 -85 -197 -85h-142v559z" />
    <glyph glyph-name="Eth" unicode="&#xd0;" horiz-adv-x="746" 
d="M668.5 448.5q21.5 -58.5 21.5 -122.5q0 -65 -21.5 -123t-62.5 -104q-43 -48 -102 -73.5t-127 -25.5h-189v302h-97v46h97v302h189q68 0 127 -25.5t102 -72.5q41 -45 62.5 -103.5zM626.5 218.5q18.5 50.5 18.5 107.5q0 55 -18.5 106t-53.5 89q-38 41 -88 62t-108 21h-143
v-256h249v-46h-249v-257h143q59 0 109 21.5t87 63.5q35 38 53.5 88.5z" />
    <glyph glyph-name="E" unicode="E" horiz-adv-x="602" 
d="M512 0v47h-376v255h293v46h-293v256h376v46h-421v-650h421z" />
    <glyph glyph-name="Eacute" unicode="&#xc9;" horiz-adv-x="602" 
d="M512 0v47h-376v255h293v46h-293v256h376v46h-421v-650h421zM247 717h52l112 101h-82z" />
    <glyph glyph-name="Ecircumflex" unicode="&#xca;" horiz-adv-x="602" 
d="M512 0v47h-376v255h293v46h-293v256h376v46h-421v-650h421zM411 717h-51l-71 64l-71 -64h-51l81 101h81z" />
    <glyph glyph-name="Edieresis" unicode="&#xcb;" horiz-adv-x="602" 
d="M512 0v47h-376v255h293v46h-293v256h376v46h-421v-650h421zM173 776.5q-10 -10.5 -10 -24.5q0 -15 10.5 -25t24.5 -10t24.5 10t10.5 25q0 14 -10.5 24.5t-24.5 10.5q-15 0 -25 -10.5zM359 776.5q-10 -10.5 -10 -24.5q0 -15 10 -25t24 -10t24.5 10t10.5 25
q0 14 -10.5 24.5t-24.5 10.5t-24 -10.5z" />
    <glyph glyph-name="Egrave" unicode="&#xc8;" horiz-adv-x="602" 
d="M512 0v47h-376v255h293v46h-293v256h376v46h-421v-650h421zM272 717h51l-81 101h-82z" />
    <glyph glyph-name="F" unicode="F" horiz-adv-x="593" 
d="M136 0v301h294v47h-294v256h376v46h-421v-650h45z" />
    <glyph glyph-name="G" unicode="G" horiz-adv-x="709" 
d="M613 323h-261v-45h214v-233h-188q-76 0 -141 38.5t-103 103.5t-38 142t38 141.5t103 102.5t141 38q58 0 112 -23.5t94 -66.5l33 31q-46 50 -108.5 78t-130.5 28q-89 0 -164 -44.5t-119 -120t-44 -164.5q0 -90 44 -165.5t119 -119.5t164 -44h235v323z" />
    <glyph glyph-name="H" unicode="H" horiz-adv-x="659" 
d="M522 0h45v326v324h-45v-302h-384v302h-46v-302v-348h46v302h384v-302z" />
    <glyph glyph-name="I" unicode="I" horiz-adv-x="251" 
d="M148 0v650h-45v-650h45z" />
    <glyph glyph-name="Iacute" unicode="&#xcd;" horiz-adv-x="257" 
d="M151 0v650h-46v-650h46zM103 706h52l112 100h-82z" />
    <glyph glyph-name="Icircumflex" unicode="&#xce;" horiz-adv-x="250" 
d="M146 0v650h-45v-650h45zM247 706h-51l-71 64l-71 -64h-51l81 100h81z" />
    <glyph glyph-name="Idieresis" unicode="&#xcf;" horiz-adv-x="251" 
d="M146 0v650h-45v-650h45zM8.5 765q-10.5 -10 -10.5 -24q0 -15 10.5 -25t24.5 -10t24.5 10t10.5 25q0 14 -10.5 24t-24.5 10t-24.5 -10zM194 765q-10 -10 -10 -24q0 -15 10 -25t24 -10t24.5 10t10.5 25q0 14 -10.5 24t-24.5 10t-24 -10z" />
    <glyph glyph-name="Igrave" unicode="&#xcc;" horiz-adv-x="256" 
d="M152 0v650h-46v-650h46zM102 706h51l-81 100h-82z" />
    <glyph glyph-name="J" unicode="J" horiz-adv-x="572" 
d="M336.5 14q45.5 21 78.5 61q71 86 71 232v343h-45v-343q0 -129 -61 -202q-54 -66 -142 -66q-54 0 -98 30t-71 85l-41 -20q32 -66 88 -103.5t122 -37.5q53 0 98.5 21z" />
    <glyph glyph-name="K" unicode="K" horiz-adv-x="649" 
d="M594 0h-60l-233 277l-210 -288v661h45v-521l379 521h57l-244 -334z" />
    <glyph glyph-name="L" unicode="L" horiz-adv-x="581" 
d="M501 0v45h-365v605h-45v-650h410z" />
    <glyph glyph-name="M" unicode="M" horiz-adv-x="854" 
d="M762 0v658l-333 -476l-337 476v-658h45v515l292 -412l288 411v-514h45z" />
    <glyph glyph-name="N" unicode="N" horiz-adv-x="678" 
d="M587 -11v661h-45v-530l-450 538v-658h45v528z" />
    <glyph glyph-name="Ntilde" unicode="&#xd1;" horiz-adv-x="678" 
d="M587 -11v661h-45v-530l-450 538v-658h45v528zM197 728.5q7 8.5 20 18t28 12.5q4 1 13 1q25 0 49 -17q35 -25 73 -25q15 0 22 2q46 9 66.5 34.5t21.5 26.5l-37 24q-2 -3 -9.5 -11.5t-20.5 -18t-29 -12.5q-4 -1 -13 -1q-26 0 -49 17q-35 25 -73 25q-15 0 -23 -2
q-24 -4 -43 -17.5t-30 -26.5t-13 -17l38 -24q2 3 9 11.5z" />
    <glyph glyph-name="O" unicode="O" horiz-adv-x="757" 
d="M544 37.5q76 44.5 120 121t44 166.5t-44 166.5t-120 121t-165 44.5t-165 -44.5t-120 -121t-44 -166.5t44 -166.5t120 -121t165 -44.5t165 44.5zM521 572.5q65 -38.5 103 -104t38 -143.5t-38 -143.5t-103 -104t-142 -38.5t-142 38.5t-103.5 104t-38.5 143.5t38.5 143.5
t103.5 104t142 38.5t142 -38.5z" />
    <glyph glyph-name="Oacute" unicode="&#xd3;" horiz-adv-x="757" 
d="M544 37.5q76 44.5 120 121t44 166.5t-44 166.5t-120 121t-165 44.5t-165 -44.5t-120 -121t-44 -166.5t44 -166.5t120 -121t165 -44.5t165 44.5zM521 572.5q65 -38.5 103 -104t38 -143.5t-38 -143.5t-103 -104t-142 -38.5t-142 38.5t-103.5 104t-38.5 143.5t38.5 143.5
t103.5 104t142 38.5t142 -38.5zM322 717h52l112 101h-82z" />
    <glyph glyph-name="Ocircumflex" unicode="&#xd4;" horiz-adv-x="757" 
d="M544 37.5q76 44.5 120 121t44 166.5t-44 166.5t-120 121t-165 44.5t-165 -44.5t-120 -121t-44 -166.5t44 -166.5t120 -121t165 -44.5t165 44.5zM521 572.5q65 -38.5 103 -104t38 -143.5t-38 -143.5t-103 -104t-142 -38.5t-142 38.5t-103.5 104t-38.5 143.5t38.5 143.5
t103.5 104t142 38.5t142 -38.5zM476 717h-51l-71 64l-71 -64h-51l81 101h81z" />
    <glyph glyph-name="Odieresis" unicode="&#xd6;" horiz-adv-x="757" 
d="M544 37.5q76 44.5 120 121t44 166.5t-44 166.5t-120 121t-165 44.5t-165 -44.5t-120 -121t-44 -166.5t44 -166.5t120 -121t165 -44.5t165 44.5zM521 572.5q65 -38.5 103 -104t38 -143.5t-38 -143.5t-103 -104t-142 -38.5t-142 38.5t-103.5 104t-38.5 143.5t38.5 143.5
t103.5 104t142 38.5t142 -38.5zM234 776.5q-10 -10.5 -10 -24.5q0 -15 10.5 -25t24.5 -10t24.5 10t10.5 25q0 14 -10.5 24.5t-24.5 10.5q-15 0 -25 -10.5zM420 776.5q-10 -10.5 -10 -24.5q0 -15 10 -25t24 -10t24.5 10t10.5 25q0 14 -10.5 24.5t-24.5 10.5t-24 -10.5z" />
    <glyph glyph-name="Ograve" unicode="&#xd2;" horiz-adv-x="757" 
d="M544 37.5q76 44.5 120 121t44 166.5t-44 166.5t-120 121t-165 44.5t-165 -44.5t-120 -121t-44 -166.5t44 -166.5t120 -121t165 -44.5t165 44.5zM521 572.5q65 -38.5 103 -104t38 -143.5t-38 -143.5t-103 -104t-142 -38.5t-142 38.5t-103.5 104t-38.5 143.5t38.5 143.5
t103.5 104t142 38.5t142 -38.5zM329 717h51l-81 101h-82z" />
    <glyph glyph-name="Oslash" unicode="&#xd8;" horiz-adv-x="757" 
d="M670 481.5q38 -71.5 38 -154.5q0 -90 -44 -166t-119.5 -120.5t-165.5 -44.5q-80 0 -146 34l-19 -30h-53l32 53q-66 46 -104.5 118t-38.5 156q0 90 44 166.5t119.5 121t165.5 44.5q79 0 149 -36l16 26h53l-30 -50q65 -46 103 -117.5zM127.5 194.5q32.5 -61.5 88.5 -101.5
l289 491q-60 30 -126 30q-77 0 -142 -38.5t-103.5 -104.5t-38.5 -144q0 -71 32.5 -132.5zM521 79.5q65 38.5 103 104t38 143.5q0 71 -31.5 131.5t-86.5 100.5l-289 -489q56 -29 124 -29q77 0 142 38.5z" />
    <glyph glyph-name="Otilde" unicode="&#xd5;" horiz-adv-x="757" 
d="M544 37.5q76 44.5 120 121t44 166.5t-44 166.5t-120 121t-165 44.5t-165 -44.5t-120 -121t-44 -166.5t44 -166.5t120 -121t165 -44.5t165 44.5zM521 572.5q65 -38.5 103 -104t38 -143.5t-38 -143.5t-103 -104t-142 -38.5t-142 38.5t-103.5 104t-38.5 143.5t38.5 143.5
t103.5 104t142 38.5t142 -38.5zM233 728.5q7 8.5 20 18t28 12.5q4 1 13 1q25 0 49 -17q35 -25 73 -25q15 0 22 2q46 9 66.5 34.5t21.5 26.5l-37 24q-2 -3 -9.5 -11.5t-20.5 -18t-29 -12.5q-4 -1 -13 -1q-26 0 -49 17q-35 25 -73 25q-15 0 -23 -2q-24 -4 -43 -17.5t-30 -26.5
t-13 -17l38 -24q2 3 9 11.5z" />
    <glyph glyph-name="OE" unicode="&#x152;" horiz-adv-x="1122" 
d="M658 605v-256h292v-47h-292v-257h374v-45h-419v94q-46 -46 -106.5 -72t-127.5 -26q-90 0 -165.5 44.5t-119.5 120.5t-44 166t44 166.5t119.5 121t165.5 44.5q67 0 127.5 -26t106.5 -72v89h419v-45h-374zM511.5 74.5q61.5 33.5 101.5 90.5v325q-40 57 -101.5 90.5
t-132.5 33.5q-77 0 -142 -38.5t-103.5 -104.5t-38.5 -144t38.5 -143.5t103.5 -104t142 -38.5q71 0 132.5 33.5z" />
    <glyph glyph-name="P" unicode="P" horiz-adv-x="595" 
d="M137 0v282h186q57 0 105.5 25t77 67.5t28.5 91.5q0 50 -28.5 92t-77 67t-105.5 25h-232l1 -650h45zM136 604h187q45 0 83 -18.5t60.5 -50t22.5 -69.5q0 -37 -22.5 -68.5t-60.5 -50t-83 -18.5h-186z" />
    <glyph glyph-name="Q" unicode="Q" horiz-adv-x="763" 
d="M683 197.5q-25 -60.5 -70 -106.5l86 -91h-61l-60 61q-42 -32 -93 -50t-106 -18q-89 0 -164.5 44.5t-120 121t-44.5 166.5t44.5 166.5t120 121t164.5 44.5t165 -44.5t120 -121t44 -166.5q0 -67 -25 -127.5zM468.5 53.5q43.5 14.5 78.5 40.5l-195 211l34 31l196 -212
q38 40 59 92t21 109q0 78 -38 143.5t-103 104t-142 38.5t-142 -38.5t-103.5 -104t-38.5 -143.5t38.5 -143.5t103.5 -104t142 -38.5q46 0 89.5 14.5z" />
    <glyph glyph-name="R" unicode="R" horiz-adv-x="618" 
d="M475 0l-270 328h80q74 0 120 19q34 16 59 48.5t25 71.5q0 35 -21 66.5t-60 51.5t-90 20h-182v-605h-45v650h227q46 0 86 -14.5t70 -41.5q29 -26 44.5 -59t15.5 -68q0 -55 -33 -98.5t-78 -62.5q-31 -14 -60.5 -17.5t-62.5 -3.5l235 -285h-60z" />
    <glyph glyph-name="S" unicode="S" horiz-adv-x="617" 
d="M513.5 251.5q25.5 -37.5 25.5 -80.5q0 -37 -18 -70.5t-52 -58.5q-70 -50 -163 -50q-46 0 -88 13t-75 37q-57 42 -69 103l43 24q3 -55 54 -90q26 -20 61 -30.5t74 -10.5q80 0 135 41q53 39 53 92q0 31 -19.5 58t-54.5 46q-33 17 -118 27q-7 1 -50.5 8t-74.5 22
q-49 24 -77 63.5t-28 85.5q0 37 18.5 69.5t52.5 57.5q33 24 75 37t88 13q93 0 163 -50q58 -44 68 -102l-43 -24q-1 25 -14.5 48t-38.5 42q-27 20 -62 30.5t-73 10.5t-73.5 -10.5t-61.5 -30.5q-26 -19 -40 -42.5t-14 -48.5q0 -31 23 -61.5t57 -47.5q21 -10 46.5 -14.5
t65.5 -9.5l35 -5t54 -11t44 -17q46 -26 71.5 -63.5z" />
    <glyph glyph-name="T" unicode="T" horiz-adv-x="669" 
d="M615 650v-46h-257v-604h-46v604h-258v46h561z" />
    <glyph glyph-name="U" unicode="U" horiz-adv-x="679" 
d="M435 12.5q45 19.5 80 55.5q35 34 53.5 80t18.5 97v405h-45v-405q0 -42 -15.5 -80t-43.5 -66q-29 -29 -66 -44.5t-78 -15.5q-40 0 -77 15.5t-66 44.5q-28 28 -43.5 66t-15.5 80v405h-45v-405q0 -51 18.5 -97t53.5 -80q35 -36 80.5 -55.5t94.5 -19.5q51 0 96 19.5z" />
    <glyph glyph-name="Uacute" unicode="&#xda;" horiz-adv-x="677" 
d="M435 12.5q45 19.5 80 55.5q35 34 53.5 80t18.5 97v405h-45v-405q0 -42 -15.5 -80t-43.5 -66q-29 -29 -66 -44.5t-78 -15.5q-40 0 -77 15.5t-66 44.5q-28 28 -43.5 66t-15.5 80v405h-45v-405q0 -51 18.5 -97t53.5 -80q35 -36 80.5 -55.5t94.5 -19.5q51 0 96 19.5zM272 717
h52l112 101h-82z" />
    <glyph glyph-name="Ucircumflex" unicode="&#xdb;" horiz-adv-x="677" 
d="M435 12.5q45 19.5 80 55.5q35 34 53.5 80t18.5 97v405h-45v-405q0 -42 -15.5 -80t-43.5 -66q-29 -29 -66 -44.5t-78 -15.5q-40 0 -77 15.5t-66 44.5q-28 28 -43.5 66t-15.5 80v405h-45v-405q0 -51 18.5 -97t53.5 -80q35 -36 80.5 -55.5t94.5 -19.5q51 0 96 19.5zM440 717
h-51l-71 64l-71 -64h-51l81 101h81z" />
    <glyph glyph-name="Udieresis" unicode="&#xdc;" horiz-adv-x="677" 
d="M435 12.5q45 19.5 80 55.5q35 34 53.5 80t18.5 97v405h-45v-405q0 -42 -15.5 -80t-43.5 -66q-29 -29 -66 -44.5t-78 -15.5q-40 0 -77 15.5t-66 44.5q-28 28 -43.5 66t-15.5 80v405h-45v-405q0 -51 18.5 -97t53.5 -80q35 -36 80.5 -55.5t94.5 -19.5q51 0 96 19.5z
M198 776.5q-10 -10.5 -10 -24.5q0 -15 10.5 -25t24.5 -10t24.5 10t10.5 25q0 14 -10.5 24.5t-24.5 10.5q-15 0 -25 -10.5zM384 776.5q-10 -10.5 -10 -24.5q0 -15 10 -25t24 -10t24.5 10t10.5 25q0 14 -10.5 24.5t-24.5 10.5t-24 -10.5z" />
    <glyph glyph-name="Ugrave" unicode="&#xd9;" horiz-adv-x="677" 
d="M435 12.5q45 19.5 80 55.5q35 34 53.5 80t18.5 97v405h-45v-405q0 -42 -15.5 -80t-43.5 -66q-29 -29 -66 -44.5t-78 -15.5q-40 0 -77 15.5t-66 44.5q-28 28 -43.5 66t-15.5 80v405h-45v-405q0 -51 18.5 -97t53.5 -80q35 -36 80.5 -55.5t94.5 -19.5q51 0 96 19.5zM294 717
h51l-81 101h-82z" />
    <glyph glyph-name="V" unicode="V" horiz-adv-x="688" 
d="M342 101l246 549h50l-296 -661l-295 661h49z" />
    <glyph glyph-name="W" unicode="W" horiz-adv-x="883" 
d="M624 129l161 521h48l-205 -661l-185 484l-187 -484l-206 661h47l163 -523l183 472z" />
    <glyph glyph-name="Wacute" unicode="&#x1e82;" horiz-adv-x="883" 
d="M624 129l161 521h48l-205 -661l-185 484l-187 -484l-206 661h47l163 -523l183 472zM381 717h52l112 101h-82z" />
    <glyph glyph-name="Wcircumflex" unicode="&#x174;" horiz-adv-x="883" 
d="M624 129l161 521h48l-205 -661l-185 484l-187 -484l-206 661h47l163 -523l183 472zM535 717h-51l-71 64l-71 -64h-51l81 101h81z" />
    <glyph glyph-name="Wdieresis" unicode="&#x1e84;" horiz-adv-x="883" 
d="M624 129l161 521h48l-205 -661l-185 484l-187 -484l-206 661h47l163 -523l183 472zM297 776.5q-10 -10.5 -10 -24.5q0 -15 10.5 -25t24.5 -10t24.5 10t10.5 25q0 14 -10.5 24.5t-24.5 10.5q-15 0 -25 -10.5zM483 776.5q-10 -10.5 -10 -24.5q0 -15 10 -25t24 -10t24.5 10
t10.5 25q0 14 -10.5 24.5t-24.5 10.5t-24 -10.5z" />
    <glyph glyph-name="Wgrave" unicode="&#x1e80;" horiz-adv-x="883" 
d="M624 129l161 521h48l-205 -661l-185 484l-187 -484l-206 661h47l163 -523l183 472zM394 717h51l-81 101h-82z" />
    <glyph glyph-name="X" unicode="X" horiz-adv-x="628" 
d="M573 650l-232 -325l232 -325h-55l-204 287l-204 -287h-55l232 325l-232 325h55l204 -287l204 287h55z" />
    <glyph glyph-name="Y" unicode="Y" horiz-adv-x="717" 
d="M359 274l256 376h54l-288 -425v-225h-45v225l-288 425h54z" />
    <glyph glyph-name="Yacute" unicode="&#xdd;" horiz-adv-x="717" 
d="M359 274l256 376h54l-288 -425v-225h-45v225l-288 425h54zM296 717h52l112 101h-82z" />
    <glyph glyph-name="Ycircumflex" unicode="&#x176;" horiz-adv-x="717" 
d="M359 274l256 376h54l-288 -425v-225h-45v225l-288 425h54zM458 717h-51l-71 64l-71 -64h-51l81 101h81z" />
    <glyph glyph-name="Ydieresis" unicode="&#x178;" horiz-adv-x="717" 
d="M359 274l256 376h54l-288 -425v-225h-45v225l-288 425h54zM219 776.5q-10 -10.5 -10 -24.5q0 -15 10.5 -25t24.5 -10t24.5 10t10.5 25q0 14 -10.5 24.5t-24.5 10.5q-15 0 -25 -10.5zM405 776.5q-10 -10.5 -10 -24.5q0 -15 10 -25t24 -10t24.5 10t10.5 25q0 14 -10.5 24.5
t-24.5 10.5t-24 -10.5z" />
    <glyph glyph-name="Ygrave" unicode="&#x1ef2;" horiz-adv-x="717" 
d="M359 274l256 376h54l-288 -425v-225h-45v225l-288 425h54zM319 717h51l-81 101h-82z" />
    <glyph glyph-name="Z" unicode="Z" horiz-adv-x="597" 
d="M520 0v45h-338l314 605h-413v-46h338l-315 -604h414z" />
    <glyph glyph-name="A.001" horiz-adv-x="694" 
d="M353 658l291 -658h-50l-242 547l-252 -547h-50z" />
    <glyph glyph-name="a" unicode="a" 
d="M177 165l-77 -165h-50l306 658l289 -658h-49l-73 165h-346zM354 547l-156 -337h305z" />
    <glyph glyph-name="aacute" unicode="&#xe1;" 
d="M177 165l-77 -165h-50l306 658l289 -658h-49l-73 165h-346zM354 547l-156 -337h305zM298 717h52l112 101h-82z" />
    <glyph glyph-name="acircumflex" unicode="&#xe2;" 
d="M177 165l-77 -165h-50l306 658l289 -658h-49l-73 165h-346zM354 547l-156 -337h305zM455 717h-51l-71 64l-71 -64h-51l81 101h81z" />
    <glyph glyph-name="adieresis" unicode="&#xe4;" 
d="M177 165l-77 -165h-50l306 658l289 -658h-49l-73 165h-346zM354 547l-156 -337h305zM211 776.5q-10 -10.5 -10 -24.5q0 -15 10.5 -25t24.5 -10t24.5 10t10.5 25q0 14 -10.5 24.5t-24.5 10.5q-15 0 -25 -10.5zM397 776.5q-10 -10.5 -10 -24.5q0 -15 10 -25t24 -10t24.5 10
t10.5 25q0 14 -10.5 24.5t-24.5 10.5t-24 -10.5z" />
    <glyph glyph-name="agrave" unicode="&#xe0;" 
d="M177 165l-77 -165h-50l306 658l289 -658h-49l-73 165h-346zM354 547l-156 -337h305zM313 717h51l-81 101h-82z" />
    <glyph glyph-name="aring" unicode="&#xe5;" 
d="M177 165l-77 -165h-50l306 658l289 -658h-49l-73 165h-346zM354 547l-156 -337h305zM396 743q26 26 26 62q0 37 -26 63t-62 26q-37 0 -62.5 -26t-25.5 -63q0 -36 25.5 -62t62.5 -26q36 0 62 26zM365 837q13 -13 13 -32q0 -18 -13 -31t-31 -13q-19 0 -31.5 13t-12.5 31
q0 19 12.5 32t31.5 13q18 0 31 -13z" />
    <glyph glyph-name="atilde" unicode="&#xe3;" 
d="M177 165l-77 -165h-50l306 658l289 -658h-49l-73 165h-346zM354 547l-156 -337h305zM211 728.5q7 8.5 20 18t28 12.5q4 1 13 1q25 0 49 -17q35 -25 73 -25q15 0 22 2q46 9 66.5 34.5t21.5 26.5l-37 24q-2 -3 -9.5 -11.5t-20.5 -18t-29 -12.5q-4 -1 -13 -1q-26 0 -49 17
q-35 25 -73 25q-15 0 -23 -2q-24 -4 -43 -17.5t-30 -26.5t-13 -17l38 -24q2 3 9 11.5z" />
    <glyph glyph-name="ae" unicode="&#xe6;" horiz-adv-x="954" 
d="M864 604h-375v-256h292v-46h-292v-257h375v-45h-421v178h-260l-83 -178h-50l301 650h513v-46zM204 224h239v380h-63z" />
    <glyph glyph-name="b" unicode="b" horiz-adv-x="602" 
d="M513.5 279.5q32.5 -42.5 32.5 -96.5q0 -35 -15.5 -68.5t-44.5 -59.5q-30 -26 -70.5 -40.5t-85.5 -14.5h-239l1 650h186q91 0 145 -51q25 -23 38.5 -53t13.5 -62q0 -40 -18.5 -73t-45.5 -51l-9 -6q19 -6 33 -12q46 -20 78.5 -62.5zM137 367h139q27 0 45 3t36 10
q26 11 49.5 38t23.5 66q0 31 -17.5 58.5t-52 44.5t-82.5 17h-141v-237zM420 65q39 20 60 51.5t21 66.5q0 39 -24.5 70.5t-58.5 46.5q-48 21 -121 21h-160v-276h193q51 0 90 20z" />
    <glyph glyph-name="c" unicode="c" horiz-adv-x="685" 
d="M521 25.5q67 32.5 114 91.5l-36 28q-41 -50 -98.5 -78t-121.5 -28q-77 0 -142 38.5t-103.5 104.5t-38.5 144t38.5 144t103.5 104.5t142 38.5q60 0 114.5 -25t94.5 -70l35 31q-48 52 -111.5 80.5t-132.5 28.5q-89 0 -165 -45t-120 -121t-44 -166t44 -166.5t120 -121.5
t165 -45q75 0 142 32.5z" />
    <glyph glyph-name="ccedilla" unicode="&#xe7;" horiz-adv-x="685" 
d="M521 25.5q67 32.5 114 91.5l-36 28q-41 -50 -98.5 -78t-121.5 -28q-77 0 -142 38.5t-103.5 104.5t-38.5 144t38.5 144t103.5 104.5t142 38.5q60 0 114.5 -25t94.5 -70l35 31q-48 52 -111.5 80.5t-132.5 28.5q-89 0 -165 -45t-120 -121t-44 -166t44 -166.5t120 -121.5
t165 -45q75 0 142 32.5zM435 -131q12 9 19 22t7 27t-7 27.5t-19 22.5q-15 11 -38 16v16h-39v-53h19q19 0 32.5 -8.5t13.5 -20.5q0 -11 -14 -20t-32 -9t-31.5 9t-13.5 20h-39q0 -14 7 -27t20 -22q24 -19 57 -19t58 19z" />
    <glyph glyph-name="d" unicode="d" horiz-adv-x="648" 
d="M406 25.5q59 25.5 102 73.5q41 46 63 104t22 123t-22 123t-63 103q-43 47 -102 72.5t-128 25.5h-187v-650h187q69 0 128 25.5zM136 604h142q120 0 197 -83q35 -38 53.5 -88.5t18.5 -106.5q0 -57 -18.5 -107.5t-53.5 -88.5q-76 -85 -197 -85h-142v559z" />
    <glyph glyph-name="e" unicode="e" horiz-adv-x="602" 
d="M512 0v47h-376v255h293v46h-293v256h376v46h-421v-650h421z" />
    <glyph glyph-name="eacute" unicode="&#xe9;" horiz-adv-x="602" 
d="M512 0v47h-376v255h293v46h-293v256h376v46h-421v-650h421zM247 717h52l112 101h-82z" />
    <glyph glyph-name="ecircumflex" unicode="&#xea;" horiz-adv-x="602" 
d="M512 0v47h-376v255h293v46h-293v256h376v46h-421v-650h421zM411 717h-51l-71 64l-71 -64h-51l81 101h81z" />
    <glyph glyph-name="edieresis" unicode="&#xeb;" horiz-adv-x="602" 
d="M512 0v47h-376v255h293v46h-293v256h376v46h-421v-650h421zM173 776.5q-10 -10.5 -10 -24.5q0 -15 10.5 -25t24.5 -10t24.5 10t10.5 25q0 14 -10.5 24.5t-24.5 10.5q-15 0 -25 -10.5zM359 776.5q-10 -10.5 -10 -24.5q0 -15 10 -25t24 -10t24.5 10t10.5 25
q0 14 -10.5 24.5t-24.5 10.5t-24 -10.5z" />
    <glyph glyph-name="egrave" unicode="&#xe8;" horiz-adv-x="602" 
d="M512 0v47h-376v255h293v46h-293v256h376v46h-421v-650h421zM272 717h51l-81 101h-82z" />
    <glyph glyph-name="f" unicode="f" horiz-adv-x="593" 
d="M136 0v301h294v47h-294v256h376v46h-421v-650h45z" />
    <glyph glyph-name="g" unicode="g" horiz-adv-x="709" 
d="M613 323h-261v-45h214v-233h-188q-76 0 -141 38.5t-103 103.5t-38 142t38 141.5t103 102.5t141 38q58 0 112 -23.5t94 -66.5l33 31q-46 50 -108.5 78t-130.5 28q-89 0 -164 -44.5t-119 -120t-44 -164.5q0 -90 44 -165.5t119 -119.5t164 -44h235v323z" />
    <glyph glyph-name="h" unicode="h" horiz-adv-x="659" 
d="M522 0h45v326v324h-45v-302h-384v302h-46v-302v-348h46v302h384v-302z" />
    <glyph glyph-name="i" unicode="i" horiz-adv-x="251" 
d="M148 0v650h-45v-650h45z" />
    <glyph glyph-name="iacute" unicode="&#xed;" horiz-adv-x="257" 
d="M151 0v650h-46v-650h46zM103 706h52l112 100h-82z" />
    <glyph glyph-name="icircumflex" unicode="&#xee;" horiz-adv-x="250" 
d="M146 0v650h-45v-650h45zM247 706h-51l-71 64l-71 -64h-51l81 100h81z" />
    <glyph glyph-name="idieresis" unicode="&#xef;" horiz-adv-x="251" 
d="M146 0v650h-45v-650h45zM8.5 765q-10.5 -10 -10.5 -24q0 -15 10.5 -25t24.5 -10t24.5 10t10.5 25q0 14 -10.5 24t-24.5 10t-24.5 -10zM194 765q-10 -10 -10 -24q0 -15 10 -25t24 -10t24.5 10t10.5 25q0 14 -10.5 24t-24.5 10t-24 -10z" />
    <glyph glyph-name="igrave" unicode="&#xec;" horiz-adv-x="256" 
d="M152 0v650h-46v-650h46zM102 706h51l-81 100h-82z" />
    <glyph glyph-name="j" unicode="j" horiz-adv-x="572" 
d="M336.5 14q45.5 21 78.5 61q71 86 71 232v343h-45v-343q0 -129 -61 -202q-54 -66 -142 -66q-54 0 -98 30t-71 85l-41 -20q32 -66 88 -103.5t122 -37.5q53 0 98.5 21z" />
    <glyph glyph-name="k" unicode="k" horiz-adv-x="649" 
d="M594 0h-60l-233 277l-210 -288v661h45v-521l379 521h57l-244 -334z" />
    <glyph glyph-name="l" unicode="l" horiz-adv-x="581" 
d="M501 0v45h-365v605h-45v-650h410z" />
    <glyph glyph-name="m" unicode="m" horiz-adv-x="854" 
d="M762 0v658l-333 -476l-337 476v-658h45v515l292 -412l288 411v-514h45z" />
    <glyph glyph-name="n" unicode="n" horiz-adv-x="678" 
d="M587 -11v661h-45v-530l-450 538v-658h45v528z" />
    <glyph glyph-name="ntilde" unicode="&#xf1;" horiz-adv-x="678" 
d="M587 -11v661h-45v-530l-450 538v-658h45v528zM197 728.5q7 8.5 20 18t28 12.5q4 1 13 1q25 0 49 -17q35 -25 73 -25q15 0 22 2q46 9 66.5 34.5t21.5 26.5l-37 24q-2 -3 -9.5 -11.5t-20.5 -18t-29 -12.5q-4 -1 -13 -1q-26 0 -49 17q-35 25 -73 25q-15 0 -23 -2
q-24 -4 -43 -17.5t-30 -26.5t-13 -17l38 -24q2 3 9 11.5z" />
    <glyph glyph-name="o" unicode="o" horiz-adv-x="757" 
d="M544 37.5q76 44.5 120 121t44 166.5t-44 166.5t-120 121t-165 44.5t-165 -44.5t-120 -121t-44 -166.5t44 -166.5t120 -121t165 -44.5t165 44.5zM521 572.5q65 -38.5 103 -104t38 -143.5t-38 -143.5t-103 -104t-142 -38.5t-142 38.5t-103.5 104t-38.5 143.5t38.5 143.5
t103.5 104t142 38.5t142 -38.5z" />
    <glyph glyph-name="oacute" unicode="&#xf3;" horiz-adv-x="757" 
d="M544 37.5q76 44.5 120 121t44 166.5t-44 166.5t-120 121t-165 44.5t-165 -44.5t-120 -121t-44 -166.5t44 -166.5t120 -121t165 -44.5t165 44.5zM521 572.5q65 -38.5 103 -104t38 -143.5t-38 -143.5t-103 -104t-142 -38.5t-142 38.5t-103.5 104t-38.5 143.5t38.5 143.5
t103.5 104t142 38.5t142 -38.5zM322 717h52l112 101h-82z" />
    <glyph glyph-name="ocircumflex" unicode="&#xf4;" horiz-adv-x="757" 
d="M544 37.5q76 44.5 120 121t44 166.5t-44 166.5t-120 121t-165 44.5t-165 -44.5t-120 -121t-44 -166.5t44 -166.5t120 -121t165 -44.5t165 44.5zM521 572.5q65 -38.5 103 -104t38 -143.5t-38 -143.5t-103 -104t-142 -38.5t-142 38.5t-103.5 104t-38.5 143.5t38.5 143.5
t103.5 104t142 38.5t142 -38.5zM476 717h-51l-71 64l-71 -64h-51l81 101h81z" />
    <glyph glyph-name="odieresis" unicode="&#xf6;" horiz-adv-x="757" 
d="M544 37.5q76 44.5 120 121t44 166.5t-44 166.5t-120 121t-165 44.5t-165 -44.5t-120 -121t-44 -166.5t44 -166.5t120 -121t165 -44.5t165 44.5zM521 572.5q65 -38.5 103 -104t38 -143.5t-38 -143.5t-103 -104t-142 -38.5t-142 38.5t-103.5 104t-38.5 143.5t38.5 143.5
t103.5 104t142 38.5t142 -38.5zM234 776.5q-10 -10.5 -10 -24.5q0 -15 10.5 -25t24.5 -10t24.5 10t10.5 25q0 14 -10.5 24.5t-24.5 10.5q-15 0 -25 -10.5zM420 776.5q-10 -10.5 -10 -24.5q0 -15 10 -25t24 -10t24.5 10t10.5 25q0 14 -10.5 24.5t-24.5 10.5t-24 -10.5z" />
    <glyph glyph-name="ograve" unicode="&#xf2;" horiz-adv-x="757" 
d="M544 37.5q76 44.5 120 121t44 166.5t-44 166.5t-120 121t-165 44.5t-165 -44.5t-120 -121t-44 -166.5t44 -166.5t120 -121t165 -44.5t165 44.5zM521 572.5q65 -38.5 103 -104t38 -143.5t-38 -143.5t-103 -104t-142 -38.5t-142 38.5t-103.5 104t-38.5 143.5t38.5 143.5
t103.5 104t142 38.5t142 -38.5zM329 717h51l-81 101h-82z" />
    <glyph glyph-name="oslash" unicode="&#xf8;" horiz-adv-x="757" 
d="M670 481.5q38 -71.5 38 -154.5q0 -90 -44 -166t-119.5 -120.5t-165.5 -44.5q-80 0 -146 34l-19 -30h-53l32 53q-66 46 -104.5 118t-38.5 156q0 90 44 166.5t119.5 121t165.5 44.5q79 0 149 -36l16 26h53l-30 -50q65 -46 103 -117.5zM127.5 194.5q32.5 -61.5 88.5 -101.5
l289 491q-60 30 -126 30q-77 0 -142 -38.5t-103.5 -104.5t-38.5 -144q0 -71 32.5 -132.5zM521 79.5q65 38.5 103 104t38 143.5q0 71 -31.5 131.5t-86.5 100.5l-289 -489q56 -29 124 -29q77 0 142 38.5z" />
    <glyph glyph-name="otilde" unicode="&#xf5;" horiz-adv-x="757" 
d="M544 37.5q76 44.5 120 121t44 166.5t-44 166.5t-120 121t-165 44.5t-165 -44.5t-120 -121t-44 -166.5t44 -166.5t120 -121t165 -44.5t165 44.5zM521 572.5q65 -38.5 103 -104t38 -143.5t-38 -143.5t-103 -104t-142 -38.5t-142 38.5t-103.5 104t-38.5 143.5t38.5 143.5
t103.5 104t142 38.5t142 -38.5zM233 728.5q7 8.5 20 18t28 12.5q4 1 13 1q25 0 49 -17q35 -25 73 -25q15 0 22 2q46 9 66.5 34.5t21.5 26.5l-37 24q-2 -3 -9.5 -11.5t-20.5 -18t-29 -12.5q-4 -1 -13 -1q-26 0 -49 17q-35 25 -73 25q-15 0 -23 -2q-24 -4 -43 -17.5t-30 -26.5
t-13 -17l38 -24q2 3 9 11.5z" />
    <glyph glyph-name="oe" unicode="&#x153;" horiz-adv-x="1122" 
d="M658 605v-256h292v-47h-292v-257h374v-45h-419v94q-46 -46 -106.5 -72t-127.5 -26q-90 0 -165.5 44.5t-119.5 120.5t-44 166t44 166.5t119.5 121t165.5 44.5q67 0 127.5 -26t106.5 -72v89h419v-45h-374zM511.5 74.5q61.5 33.5 101.5 90.5v325q-40 57 -101.5 90.5
t-132.5 33.5q-77 0 -142 -38.5t-103.5 -104.5t-38.5 -144t38.5 -143.5t103.5 -104t142 -38.5q71 0 132.5 33.5z" />
    <glyph glyph-name="p" unicode="p" horiz-adv-x="595" 
d="M137 0v282h186q57 0 105.5 25t77 67.5t28.5 91.5q0 50 -28.5 92t-77 67t-105.5 25h-232l1 -650h45zM136 604h187q45 0 83 -18.5t60.5 -50t22.5 -69.5q0 -37 -22.5 -68.5t-60.5 -50t-83 -18.5h-186z" />
    <glyph glyph-name="q" unicode="q" horiz-adv-x="763" 
d="M683 197.5q-25 -60.5 -70 -106.5l86 -91h-61l-60 61q-42 -32 -93 -50t-106 -18q-89 0 -164.5 44.5t-120 121t-44.5 166.5t44.5 166.5t120 121t164.5 44.5t165 -44.5t120 -121t44 -166.5q0 -67 -25 -127.5zM468.5 53.5q43.5 14.5 78.5 40.5l-195 211l34 31l196 -212
q38 40 59 92t21 109q0 78 -38 143.5t-103 104t-142 38.5t-142 -38.5t-103.5 -104t-38.5 -143.5t38.5 -143.5t103.5 -104t142 -38.5q46 0 89.5 14.5z" />
    <glyph glyph-name="r" unicode="r" horiz-adv-x="618" 
d="M475 0l-270 328h80q74 0 120 19q34 16 59 48.5t25 71.5q0 35 -21 66.5t-60 51.5t-90 20h-182v-605h-45v650h227q46 0 86 -14.5t70 -41.5q29 -26 44.5 -59t15.5 -68q0 -55 -33 -98.5t-78 -62.5q-31 -14 -60.5 -17.5t-62.5 -3.5l235 -285h-60z" />
    <glyph glyph-name="s" unicode="s" horiz-adv-x="617" 
d="M513.5 251.5q25.5 -37.5 25.5 -80.5q0 -37 -18 -70.5t-52 -58.5q-70 -50 -163 -50q-46 0 -88 13t-75 37q-57 42 -69 103l43 24q3 -55 54 -90q26 -20 61 -30.5t74 -10.5q80 0 135 41q53 39 53 92q0 31 -19.5 58t-54.5 46q-33 17 -118 27q-7 1 -50.5 8t-74.5 22
q-49 24 -77 63.5t-28 85.5q0 37 18.5 69.5t52.5 57.5q33 24 75 37t88 13q93 0 163 -50q58 -44 68 -102l-43 -24q-1 25 -14.5 48t-38.5 42q-27 20 -62 30.5t-73 10.5t-73.5 -10.5t-61.5 -30.5q-26 -19 -40 -42.5t-14 -48.5q0 -31 23 -61.5t57 -47.5q21 -10 46.5 -14.5
t65.5 -9.5l35 -5t54 -11t44 -17q46 -26 71.5 -63.5z" />
    <glyph glyph-name="germandbls" unicode="&#xdf;" horiz-adv-x="601" 
d="M512.5 279.5q32.5 -42.5 32.5 -96.5q0 -35 -15.5 -68.5t-43.5 -59.5q-31 -26 -71.5 -40.5t-85.5 -14.5h-94v45h94q51 0 90 20t60 51.5t21 66.5q0 40 -24.5 71t-58.5 46q-48 21 -121 21h-61v46h32q35 0 65.5 16t48.5 43.5t18 59.5t-17.5 59t-48 43t-66.5 16
q-35 0 -65.5 -16t-48 -43t-17.5 -59v-486h-45v485q0 44 23.5 82t64 60t88.5 22t88.5 -22t64.5 -59.5t24 -81.5q0 -38 -17.5 -71t-47.5 -56q35 -7 56 -17q45 -20 77.5 -62.5z" />
    <glyph glyph-name="t" unicode="t" horiz-adv-x="669" 
d="M615 650v-46h-257v-604h-46v604h-258v46h561z" />
    <glyph glyph-name="u" unicode="u" horiz-adv-x="679" 
d="M435 12.5q45 19.5 80 55.5q35 34 53.5 80t18.5 97v405h-45v-405q0 -42 -15.5 -80t-43.5 -66q-29 -29 -66 -44.5t-78 -15.5q-40 0 -77 15.5t-66 44.5q-28 28 -43.5 66t-15.5 80v405h-45v-405q0 -51 18.5 -97t53.5 -80q35 -36 80.5 -55.5t94.5 -19.5q51 0 96 19.5z" />
    <glyph glyph-name="uacute" unicode="&#xfa;" horiz-adv-x="677" 
d="M435 12.5q45 19.5 80 55.5q35 34 53.5 80t18.5 97v405h-45v-405q0 -42 -15.5 -80t-43.5 -66q-29 -29 -66 -44.5t-78 -15.5q-40 0 -77 15.5t-66 44.5q-28 28 -43.5 66t-15.5 80v405h-45v-405q0 -51 18.5 -97t53.5 -80q35 -36 80.5 -55.5t94.5 -19.5q51 0 96 19.5zM272 717
h52l112 101h-82z" />
    <glyph glyph-name="ucircumflex" unicode="&#xfb;" horiz-adv-x="677" 
d="M435 12.5q45 19.5 80 55.5q35 34 53.5 80t18.5 97v405h-45v-405q0 -42 -15.5 -80t-43.5 -66q-29 -29 -66 -44.5t-78 -15.5q-40 0 -77 15.5t-66 44.5q-28 28 -43.5 66t-15.5 80v405h-45v-405q0 -51 18.5 -97t53.5 -80q35 -36 80.5 -55.5t94.5 -19.5q51 0 96 19.5zM440 717
h-51l-71 64l-71 -64h-51l81 101h81z" />
    <glyph glyph-name="udieresis" unicode="&#xfc;" horiz-adv-x="677" 
d="M435 12.5q45 19.5 80 55.5q35 34 53.5 80t18.5 97v405h-45v-405q0 -42 -15.5 -80t-43.5 -66q-29 -29 -66 -44.5t-78 -15.5q-40 0 -77 15.5t-66 44.5q-28 28 -43.5 66t-15.5 80v405h-45v-405q0 -51 18.5 -97t53.5 -80q35 -36 80.5 -55.5t94.5 -19.5q51 0 96 19.5z
M198 776.5q-10 -10.5 -10 -24.5q0 -15 10.5 -25t24.5 -10t24.5 10t10.5 25q0 14 -10.5 24.5t-24.5 10.5q-15 0 -25 -10.5zM384 776.5q-10 -10.5 -10 -24.5q0 -15 10 -25t24 -10t24.5 10t10.5 25q0 14 -10.5 24.5t-24.5 10.5t-24 -10.5z" />
    <glyph glyph-name="ugrave" unicode="&#xf9;" horiz-adv-x="677" 
d="M435 12.5q45 19.5 80 55.5q35 34 53.5 80t18.5 97v405h-45v-405q0 -42 -15.5 -80t-43.5 -66q-29 -29 -66 -44.5t-78 -15.5q-40 0 -77 15.5t-66 44.5q-28 28 -43.5 66t-15.5 80v405h-45v-405q0 -51 18.5 -97t53.5 -80q35 -36 80.5 -55.5t94.5 -19.5q51 0 96 19.5zM294 717
h51l-81 101h-82z" />
    <glyph glyph-name="v" unicode="v" horiz-adv-x="688" 
d="M342 101l246 549h50l-296 -661l-295 661h49z" />
    <glyph glyph-name="w" unicode="w" horiz-adv-x="883" 
d="M624 129l161 521h48l-205 -661l-185 484l-187 -484l-206 661h47l163 -523l183 472z" />
    <glyph glyph-name="wacute" unicode="&#x1e83;" horiz-adv-x="883" 
d="M624 129l161 521h48l-205 -661l-185 484l-187 -484l-206 661h47l163 -523l183 472zM381 717h52l112 101h-82z" />
    <glyph glyph-name="wcircumflex" unicode="&#x175;" horiz-adv-x="883" 
d="M624 129l161 521h48l-205 -661l-185 484l-187 -484l-206 661h47l163 -523l183 472zM535 717h-51l-71 64l-71 -64h-51l81 101h81z" />
    <glyph glyph-name="wdieresis" unicode="&#x1e85;" horiz-adv-x="883" 
d="M624 129l161 521h48l-205 -661l-185 484l-187 -484l-206 661h47l163 -523l183 472zM297 776.5q-10 -10.5 -10 -24.5q0 -15 10.5 -25t24.5 -10t24.5 10t10.5 25q0 14 -10.5 24.5t-24.5 10.5q-15 0 -25 -10.5zM483 776.5q-10 -10.5 -10 -24.5q0 -15 10 -25t24 -10t24.5 10
t10.5 25q0 14 -10.5 24.5t-24.5 10.5t-24 -10.5z" />
    <glyph glyph-name="wgrave" unicode="&#x1e81;" horiz-adv-x="883" 
d="M624 129l161 521h48l-205 -661l-185 484l-187 -484l-206 661h47l163 -523l183 472zM394 717h51l-81 101h-82z" />
    <glyph glyph-name="x" unicode="x" horiz-adv-x="628" 
d="M573 650l-232 -325l232 -325h-55l-204 287l-204 -287h-55l232 325l-232 325h55l204 -287l204 287h55z" />
    <glyph glyph-name="y" unicode="y" horiz-adv-x="717" 
d="M359 274l256 376h54l-288 -425v-225h-45v225l-288 425h54z" />
    <glyph glyph-name="yacute" unicode="&#xfd;" horiz-adv-x="717" 
d="M359 274l256 376h54l-288 -425v-225h-45v225l-288 425h54zM296 717h52l112 101h-82z" />
    <glyph glyph-name="ycircumflex" unicode="&#x177;" horiz-adv-x="717" 
d="M359 274l256 376h54l-288 -425v-225h-45v225l-288 425h54zM458 717h-51l-71 64l-71 -64h-51l81 101h81z" />
    <glyph glyph-name="ydieresis" unicode="&#xff;" horiz-adv-x="717" 
d="M359 274l256 376h54l-288 -425v-225h-45v225l-288 425h54zM219 776.5q-10 -10.5 -10 -24.5q0 -15 10.5 -25t24.5 -10t24.5 10t10.5 25q0 14 -10.5 24.5t-24.5 10.5q-15 0 -25 -10.5zM405 776.5q-10 -10.5 -10 -24.5q0 -15 10 -25t24 -10t24.5 10t10.5 25q0 14 -10.5 24.5
t-24.5 10.5t-24 -10.5z" />
    <glyph glyph-name="ygrave" unicode="&#x1ef3;" horiz-adv-x="717" 
d="M359 274l256 376h54l-288 -425v-225h-45v225l-288 425h54zM319 717h51l-81 101h-82z" />
    <glyph glyph-name="z" unicode="z" horiz-adv-x="597" 
d="M520 0v45h-338l314 605h-413v-46h338l-315 -604h414z" />
    <glyph glyph-name="a.001" horiz-adv-x="694" 
d="M353 658l291 -658h-50l-242 547l-252 -547h-50z" />
    <glyph glyph-name="zero" unicode="0" horiz-adv-x="591" 
d="M379 9q39 16 70 44t47.5 62.5t16.5 69.5v278q0 36 -16.5 70t-47.5 63t-70 44.5t-79 15.5t-78.5 -15.5t-69.5 -44.5q-30 -29 -46.5 -63.5t-16.5 -69.5v-277q0 -36 16.5 -70.5t46.5 -62.5q31 -28 70 -44t78 -16q40 0 79 16zM363 597.5q31 -12.5 55 -34.5q24 -21 36.5 -47.5
t12.5 -52.5v-278q0 -25 -13 -51t-36 -48q-24 -22 -55 -34.5t-63 -12.5q-31 0 -61.5 12t-55.5 35q-23 22 -36 48t-13 52v277q0 26 13 52t36 48q25 23 55.5 35t61.5 12q32 0 63 -12.5z" />
    <glyph glyph-name="one" unicode="1" horiz-adv-x="376" 
d="M44 443l241 231v-674h-46v566l-195 -186v63z" />
    <glyph glyph-name="two" unicode="2" horiz-adv-x="538" 
d="M472 45v-45h-393q35 48 123 167.5t159 214.5q38 51 38 105q0 13 -1 20q-9 55 -52 82q-33 24 -74 24q-17 0 -32 -4q-61 -14 -110 -74q-9 -9 -17 -19t-11 -14l-36 26l29 37q29 35 63.5 58t71.5 31q23 5 42 5q53 0 100 -32q59 -42 71 -112q2 -18 2 -27q0 -65 -45 -129
q-126 -167 -232 -314h304z" />
    <glyph glyph-name="three" unicode="3" horiz-adv-x="560" 
d="M469.5 270q23.5 -43 23.5 -88q0 -51 -29 -94.5t-78.5 -69t-107.5 -25.5q-52 0 -97.5 20.5t-75.5 56.5t-39 80l43 31q0 -38 23 -71t61.5 -52t84.5 -19t85 19t62 52t23 72q0 34 -20 68t-57 64l-50 38l37 37q26 28 36 50.5t10 51.5q0 49 -37 83.5t-89 34.5t-89 -34.5
t-37 -83.5h-46q0 45 23.5 82.5t63 59.5t85.5 22q47 0 86.5 -22t62.5 -59.5t23 -82.5q0 -42 -14.5 -71.5t-45.5 -61.5q1 -1 3.5 -3t6.5 -5q46 -37 69.5 -80z" />
    <glyph glyph-name="four" unicode="4" horiz-adv-x="641" 
d="M140 186h462v-45h-159v-141h-45v141h-343l338 509h50v-475h-45v402z" />
    <glyph glyph-name="five" unicode="5" horiz-adv-x="561" 
d="M403.5 19q49.5 26 78.5 71t29 98q0 52 -29 95.5t-79 68.5t-108 25l-143 -1l16 229h338v45h-380l-24 -321l193 1q35 0 67 -11t56 -32q22 -20 34.5 -46t12.5 -53q0 -41 -22.5 -75t-61.5 -54t-86 -20q-74 0 -124 41q-22 17 -34.5 39t-12.5 45h-46q0 -45 29.5 -84.5t79.5 -63
t108 -23.5q59 0 108.5 26z" />
    <glyph glyph-name="six" unicode="6" horiz-adv-x="544" 
d="M288 650h51q-59 -111 -93 -179l-61 -118q43 20 99 20q59 0 108.5 -25.5t78.5 -69t29 -94.5q0 -52 -29 -95.5t-78.5 -69.5t-108.5 -26t-109 26t-79.5 69.5t-29.5 95.5q0 44 23 83zM193 309q-39 -19 -60 -52t-21 -73q0 -39 23 -72.5t62.5 -53t86.5 -19.5q46 0 85 19.5
t62 53t23 72.5t-23 72t-62 52.5t-85 19.5q-52 0 -91 -19z" />
    <glyph glyph-name="seven" unicode="7" horiz-adv-x="582" 
d="M526 650l-341 -650h-51l317 605h-390v45h465z" />
    <glyph glyph-name="eight" unicode="8" horiz-adv-x="553" 
d="M464 283.5q33 -45.5 33 -100.5q0 -51 -29 -95t-78.5 -69.5t-107.5 -25.5t-108 25.5t-79 69.5t-29 95q0 55 33.5 100.5t88.5 68.5q-35 23 -56.5 60t-21.5 79q0 45 23 83t62.5 60t86.5 22t86.5 -22t62.5 -60t23 -83q0 -43 -21 -79.5t-57 -59.5q55 -23 88 -68.5zM172.5 431
q17.5 -28 46.5 -44t63 -16t63.5 16t46.5 44t17 60t-17 59.5t-46.5 43.5t-63.5 16t-63 -16t-46.5 -43.5t-17.5 -59.5t17.5 -60zM367 58.5q39 19.5 62 52.5t23 72q0 38 -23 71t-62 52.5t-85 19.5t-85 -19.5t-62 -52.5t-23 -71q0 -39 23 -72t62 -52.5t85 -19.5t85 19.5z" />
    <glyph glyph-name="nine" unicode="9" horiz-adv-x="566" 
d="M276 0h-51l156 298q-48 -21 -99 -21q-58 0 -107.5 25.5t-79 69t-29.5 95.5t29.5 96t79 69.5t107.5 25.5q59 0 109 -25.5t79.5 -69.5t29.5 -96q0 -41 -20 -78zM368.5 341.5q39.5 19.5 62.5 53t23 72.5t-23 73t-62.5 53.5t-86.5 19.5q-46 0 -85 -20t-62 -53.5t-23 -72.5
t23 -72.5t62 -53t85 -19.5q47 0 86.5 19.5z" />
    <glyph glyph-name="fraction" unicode="&#x2044;" horiz-adv-x="568" 
d="M66 0l383 650h53l-383 -650h-53z" />
    <glyph glyph-name="asterisk" unicode="*" horiz-adv-x="496" 
d="M145 297l103 142l103 -142l37 26l-103 142l167 55l-14 43l-168 -55l1 176h-45v-176l-167 55l-15 -43l168 -55l-103 -142z" />
    <glyph glyph-name="backslash" unicode="\" horiz-adv-x="568" 
d="M119 650l383 -650h-53l-383 650h53z" />
    <glyph glyph-name="colon" unicode=":" horiz-adv-x="225" 
d="M88 76.5q10 -10.5 24 -10.5q15 0 25 10.5t10 24.5t-10 24.5t-25 10.5q-14 0 -24 -10t-10 -25q0 -14 10 -24.5zM88 286q10 -10 24 -10q15 0 25 10.5t10 24.5t-10 24.5t-25 10.5q-14 0 -24 -10.5t-10 -24.5q0 -15 10 -25z" />
    <glyph glyph-name="comma" unicode="," horiz-adv-x="224" 
d="M61 -49h35l50 97h-52z" />
    <glyph glyph-name="ellipsis" unicode="&#x2026;" horiz-adv-x="504" 
d="M88 10q10 -10 24 -10t24.5 10t10.5 24t-10.5 25t-24.5 11t-24 -10.5t-10 -25.5q0 -14 10 -24zM227.5 10q10.5 -10 25.5 -10q14 0 24 10.5t10 23.5q0 14 -10.5 25t-23.5 11q-15 0 -25.5 -10.5t-10.5 -25.5q0 -14 10.5 -24zM367 10q10 -10 25 -10q14 0 24 10t10 24t-10 25
t-24 11t-24.5 -11t-10.5 -25t10 -24z" />
    <glyph glyph-name="exclam" unicode="!" horiz-adv-x="257" 
d="M152 650v-45l-6 -475h-35l-6 475v45h47zM104.5 59.5q-10.5 -10.5 -10.5 -24.5t10.5 -24.5t24.5 -10.5t24 10.5t10 24.5t-10 24.5t-24 10.5t-24.5 -10.5z" />
    <glyph glyph-name="exclamdown" unicode="&#xa1;" horiz-adv-x="258" 
d="M106 0v45l6 475h34l6 -475v-45h-46zM154 590.5q10 10.5 10 24.5t-10 24.5t-24 10.5t-25 -10.5t-11 -24.5t10.5 -24.5t25.5 -10.5q14 0 24 10.5z" />
    <glyph glyph-name="numbersign" unicode="#" horiz-adv-x="818" 
d="M757 451h-155l-39 -253h156l-7 -44h-156l-22 -154h-45l22 154h-255l-23 -154h-46l23 154h-155l7 44h155l38 253h-155l6 45h155l24 154h45l-23 -154h256l22 154h45l-22 -154h155zM517 198l38 253h-255l-37 -253h254z" />
    <glyph glyph-name="period" unicode="." horiz-adv-x="181" 
d="M65.5 10q10.5 -10 24.5 -10t24.5 10t10.5 24t-10.5 25t-24.5 11t-24.5 -10.5t-10.5 -25.5q0 -14 10.5 -24z" />
    <glyph glyph-name="question" unicode="?" horiz-adv-x="585" 
d="M256 53q-10 -10 -10 -24q0 -15 10 -25.5t25 -10.5q14 0 24.5 10.5t10.5 25.5q0 14 -10.5 24t-24.5 10q-15 0 -25 -10zM298 158q0 28 8 46t18 28t37 32q6 4 13.5 10t12.5 11q49 39 79 79.5t30 102.5q0 38 -16.5 73t-47.5 62q-31 26 -69.5 40t-81.5 14t-81.5 -14t-68.5 -40
q-31 -27 -48 -62t-17 -73h46q0 39 22.5 72t61.5 52t85 19t85 -19.5t62 -52t23 -71.5q0 -48 -24 -80t-68 -67q-6 -4 -13.5 -10.5t-13.5 -10.5q-36 -30 -51 -51q-23 -37 -23 -90v-34h40v34z" />
    <glyph glyph-name="questiondown" unicode="&#xbf;" horiz-adv-x="585" 
d="M328.5 596.5q10.5 10.5 10.5 24.5t-10.5 24.5t-24.5 10.5t-24.5 -10.5t-10.5 -24.5t10.5 -24.5t24.5 -10.5t24.5 10.5zM287 491q0 -28 -8 -46t-18.5 -28.5t-36.5 -30.5l-26 -22q-49 -39 -79 -79.5t-30 -102.5q0 -38 16.5 -73t47.5 -61q31 -27 69.5 -41t81.5 -14t81.5 14
t68.5 41q31 26 47.5 60.5t16.5 73.5h-45q0 -39 -22.5 -72t-61.5 -52t-85 -19t-85 19t-62 52t-23 72q0 48 24 80t68 67q3 2 10.5 8.5t16.5 12.5q5 4 22 19t29 32q23 37 23 90v34h-40v-34z" />
    <glyph glyph-name="quotedbl" unicode="&#x22;" horiz-adv-x="354" 
d="M186 554h36l49 96h-51zM83 554h36l49 96h-51z" />
    <glyph glyph-name="quotesingle" unicode="'" horiz-adv-x="230" 
d="M78 554h35l50 96h-52z" />
    <glyph glyph-name="semicolon" unicode=";" horiz-adv-x="249" 
d="M111 197.5q10 -10.5 25 -10.5q14 0 24.5 10.5t10.5 24.5t-10.5 24.5t-24.5 10.5q-15 0 -25 -10.5t-10 -24.5t10 -24.5zM78 -49h35l50 96h-51z" />
    <glyph glyph-name="slash" unicode="/" horiz-adv-x="568" 
d="M66 0l383 650h53l-383 -650h-53z" />
    <glyph glyph-name="underscore" unicode="_" horiz-adv-x="833" 
d="M767 0v45h-701v-45h701z" />
    <glyph glyph-name="braceleft" unicode="{" horiz-adv-x="354" 
d="M199 89q30 -33 78 -47v-46q-68 16 -110.5 61.5t-42.5 102.5v113q-1 4 -20 26t-26 30q7 8 26 29.5t20 25.5v110q0 58 42.5 103.5t110.5 61.5v-46q-48 -14 -78 -47t-30 -72v-111q0 -17 -28 -54q28 -37 28 -55v-114q0 -38 30 -71z" />
    <glyph glyph-name="braceright" unicode="}" horiz-adv-x="354" 
d="M155.5 89q29.5 33 29.5 71v114q0 22 29 55q-29 33 -29 54v111q0 39 -29.5 72t-77.5 47v46q67 -16 109.5 -61.5t42.5 -103.5v-110q2 -4 21 -25.5t26 -29.5q-7 -8 -26 -30t-21 -26v-113q0 -57 -42.5 -102.5t-109.5 -61.5v46q48 14 77.5 47z" />
    <glyph glyph-name="bracketleft" unicode="[" horiz-adv-x="318" 
d="M240 0v47h-117v557h117v46h-162v-650h162z" />
    <glyph glyph-name="bracketright" unicode="]" horiz-adv-x="319" 
d="M241 0v650h-163v-46h118v-557h-118v-47h163z" />
    <glyph glyph-name="parenleft" unicode="(" horiz-adv-x="339" 
d="M261 42v-46q-68 9 -119 57q-31 29 -47.5 63t-16.5 70v277q0 36 16.5 70t47.5 63q50 47 119 58v-47q-50 -8 -88 -44q-23 -22 -36.5 -48.5t-13.5 -51.5v-277q0 -25 13.5 -51.5t36.5 -48.5q36 -34 88 -44z" />
    <glyph glyph-name="parenright" unicode=")" horiz-adv-x="338" 
d="M78 42v-46q67 9 119 57q30 29 46.5 63t16.5 70v277q0 36 -16.5 70t-46.5 63q-52 47 -119 58v-47q48 -8 88 -44q23 -22 36 -48t13 -52v-277q0 -26 -13 -52t-36 -48q-38 -35 -88 -44z" />
    <glyph glyph-name="endash" unicode="&#x2013;" horiz-adv-x="525" 
d="M459 302v46h-393v-46h393z" />
    <glyph glyph-name="hyphen" unicode="-" horiz-adv-x="547" 
d="M470 302v46h-392v-46h392z" />
    <glyph glyph-name="guillemotleft" unicode="&#xab;" horiz-adv-x="666" 
d="M154 326l247 -179v-56l-323 235l323 233v-55zM342 326l246 -179v-56l-323 235l323 233v-56z" />
    <glyph glyph-name="guillemotright" unicode="&#xbb;" horiz-adv-x="667" 
d="M266 505v57l323 -236l-323 -233v55l246 179zM78 506v56l323 -235l-323 -234v57l245 177z" />
    <glyph glyph-name="guilsinglleft" unicode="&#x2039;" horiz-adv-x="479" 
d="M154 326l247 -180v-56l-323 236l323 232v-55z" />
    <glyph glyph-name="guilsinglright" unicode="&#x203a;" horiz-adv-x="480" 
d="M78 504v57l324 -235l-324 -234v56l247 178z" />
    <glyph glyph-name="quotedblbase" unicode="&#x201e;" horiz-adv-x="224" 
d="M61 -49h35l50 97h-52zM61 -49h35l50 97h-52z" />
    <glyph glyph-name="quotedblleft" unicode="&#x201c;" horiz-adv-x="354" 
d="M186 554h36l49 96h-51zM83 554h36l49 96h-51z" />
    <glyph glyph-name="quotedblright" unicode="&#x201d;" horiz-adv-x="354" 
d="M186 554h36l49 96h-51zM83 554h36l49 96h-51z" />
    <glyph glyph-name="quoteleft" unicode="&#x2018;" horiz-adv-x="230" 
d="M78 554h35l50 96h-52z" />
    <glyph glyph-name="quoteright" unicode="&#x2019;" horiz-adv-x="230" 
d="M78 554h35l50 96h-52z" />
    <glyph glyph-name="quotesinglbase" unicode="&#x201a;" horiz-adv-x="224" 
d="M61 -49h35l50 97h-52z" />
    <glyph glyph-name="cent" unicode="&#xa2;" horiz-adv-x="684" 
d="M529.5 30.5q-61.5 -31.5 -130.5 -36.5v-103h-46v103q-83 6 -152.5 52t-110 119.5t-40.5 159.5t40.5 159.5t110 119.5t152.5 52v106h46v-106q64 -4 121.5 -32.5t100.5 -75.5l-34 -31q-40 45 -94.5 69.5t-113.5 24.5q-77 0 -142 -38.5t-103.5 -104t-38.5 -143.5
t38.5 -143.5t103.5 -104t142 -38.5q64 0 121.5 28t97.5 78l36 -28q-43 -55 -104.5 -86.5z" />
    <glyph glyph-name="dollar" unicode="$" horiz-adv-x="612" 
d="M499 245q22 -35 22 -79q0 -25 -7 -47q-18 -64 -82 -98q-43 -23 -107 -27v-103h-46v106q-114 9 -201 91l31 33q85 -81 206 -81q43 0 91 18.5t65 73.5q5 20 5 34q0 39 -28.5 70.5t-79.5 47.5l-138 39q-81 27 -116 84q-22 34 -22 77q0 26 7 48q9 31 29.5 56t50.5 41
q45 23 100 27v106h46v-107q118 -9 209 -92l-31 -33q-44 41 -94.5 60.5t-111.5 19.5q-44 0 -91.5 -18.5t-63.5 -73.5q-5 -20 -5 -34q0 -39 28 -70t79 -47l137 -40q81 -26 118 -82z" />
    <glyph glyph-name="Euro" unicode="&#x20ac;" horiz-adv-x="664" 
d="M318 560.5q-72 -50.5 -103 -131.5h266v-46h-279q-7 -27 -7 -58q0 -30 6 -57h280v-45h-267q31 -82 103 -133t162 -51h95v-46h-95q-72 0 -136 29.5t-110 82t-67 118.5h-116v45h105q-5 32 -5 57q0 26 5 58h-105v46h116q21 66 67.5 118t110 81t135.5 29h95v-46h-95
q-89 0 -161 -50.5z" />
    <glyph glyph-name="sterling" unicode="&#xa3;" horiz-adv-x="557" 
d="M491 45v-45h-401v47q27 2 54 14t48 32q48 45 48 99v115h-116v45h116v117q0 35 17 69.5t47 63.5q31 28 69.5 43.5t78.5 15.5h19v-45h-19q-31 0 -61.5 -12.5t-55.5 -35.5q-23 -22 -36 -48t-13 -51v-117h114v-45h-114v-115q0 -35 -16.5 -70t-46.5 -62q-5 -5 -17 -15h285z
" />
    <glyph glyph-name="plus" unicode="+" horiz-adv-x="547" 
d="M470 348v-46h-173v-172h-46v172h-173v46h173v174h46v-174h173z" />
    <glyph glyph-name="minus" unicode="&#x2212;" horiz-adv-x="525" 
d="M459 302v46h-393v-46h393z" />
    <glyph glyph-name="multiply" unicode="&#xd7;" horiz-adv-x="443" 
d="M377 449l-123 -123l123 -122l-32 -32l-123 122l-122 -123l-32 32l121 123l-123 123l33 32l123 -123l123 123z" />
    <glyph glyph-name="equal" unicode="=" horiz-adv-x="547" 
d="M470 184v45h-392v-45h392zM470 421v45h-392v-45h392z" />
    <glyph glyph-name="greater" unicode="&#x3e;" horiz-adv-x="479" 
d="M78 505v56l323 -235l-323 -234v56l245 178z" />
    <glyph glyph-name="less" unicode="&#x3c;" horiz-adv-x="479" 
d="M155 326l246 -179v-56l-323 235l323 233v-56z" />
    <glyph glyph-name="percent" unicode="%" horiz-adv-x="729" 
d="M615 36.5q36 36.5 36 88.5t-36 88.5t-88 36.5q-51 0 -87.5 -36.5t-36.5 -88.5q0 -34 17 -62.5t45.5 -45.5t61.5 -17q52 0 88 36.5zM583 181.5q23 -23.5 23 -56.5t-23 -56.5t-56 -23.5q-32 0 -55 23.5t-23 56.5t23 56.5t55 23.5q33 0 56 -23.5zM263.5 419q28.5 17 45.5 46
t17 62q0 34 -17 62.5t-45.5 45.5t-61.5 17q-52 0 -88 -36.5t-36 -88.5q0 -34 16.5 -62.5t45 -45.5t62.5 -17q33 0 61.5 17zM257 584q23 -23 23 -57q0 -33 -23 -56t-55 -23q-33 0 -56 23t-23 56q0 34 23 57t56 23q32 0 55 -23zM147 0l383 650h52l-383 -650h-52z" />
    <glyph glyph-name="at" unicode="@" horiz-adv-x="852" 
d="M773 471.5q29 -69.5 29 -145.5q0 -70 -49 -119q-46 -43 -108 -43q-42 0 -77 22.5t-54 60.5q-16 -18 -39 -28.5t-49 -10.5q-48 0 -82.5 35t-34.5 84q0 48 34.5 82.5t82.5 34.5q39 0 70 -23v18h46l1 -128q4 -41 31.5 -71.5t70.5 -30.5q20 0 40 8t36 23q36 34 36 86
q0 67 -25.5 128t-73.5 107q-46 46 -106 70.5t-126 24.5q-89 0 -165.5 -44.5t-121 -120.5t-44.5 -165q0 -90 44.5 -166.5t120.5 -121t166 -44.5q55 0 106.5 18t93.5 50h69q-53 -53 -122.5 -83t-146.5 -30q-102 0 -188.5 50.5t-137 137t-50.5 189.5q0 102 50.5 188t137 136.5
t188.5 50.5q75 0 143 -27.5t121 -79.5q54 -53 83 -122.5zM478 274.5q22 21.5 22 51.5t-22 51.5t-52 21.5t-51.5 -21.5t-21.5 -51.5t22 -51.5t51 -21.5q30 0 52 21.5z" />
    <glyph glyph-name="ampersand" unicode="&#x26;" horiz-adv-x="730" 
d="M641 205l-49 -41l-33 32l19 15l31 26zM428 188q129 -130 186 -188h-63l-74 72q-46 -36 -85 -57.5t-82 -21.5q-58 0 -106 23t-76 63t-28 87q0 60 32 97.5t92 66.5l-19 19q-25 25 -44.5 61t-19.5 82q1 33 14 63t37 53t55 35t65 12t65.5 -12t55.5 -35t37 -53t13 -63
q0 -49 -42 -93q-19 -20 -43 -37l-34 33q35 22 54.5 47.5t19.5 49.5q0 23 -9.5 45t-26.5 38q-37 34 -90 34q-52 0 -89 -34q-35 -32 -37 -83q0 -33 15 -61t32 -45q66 -68 195 -198zM375 57q33 18 70 47l-187 192q-59 -27 -86 -55t-27 -75q0 -35 22 -64t60 -46t83 -17
q32 0 65 18z" />
    <glyph glyph-name="copyright" unicode="&#xa9;" horiz-adv-x="575" 
d="M345.5 349q27.5 13 45.5 37l-35 28q-13 -16 -31 -24.5t-38 -8.5q-37 0 -63.5 26.5t-26.5 63.5q0 38 26 64.5t64 26.5q18 0 35.5 -7.5t29.5 -21.5l35 30q-19 21 -45 32.5t-55 11.5q-36 0 -67 -18.5t-49.5 -49.5t-18.5 -68q0 -36 18.5 -67t49.5 -49.5t67 -18.5
q31 0 58.5 13zM398 282.5q51 29.5 80.5 80t29.5 110.5t-30 111t-80.5 81t-110.5 30t-110.5 -30t-80.5 -81t-30 -111t29.5 -110.5t80.5 -80t111 -29.5t111 29.5zM388.5 648q46.5 -27 73.5 -73.5t27 -101.5t-27 -101t-73.5 -73.5t-101.5 -27.5t-101 27.5t-73.5 73.5t-27.5 101
t27.5 101.5t73.5 73.5t101 27t101.5 -27z" />
    <glyph glyph-name="trademark" unicode="&#x2122;" horiz-adv-x="665" 
 />
    <glyph glyph-name="degree" unicode="&#xb0;" horiz-adv-x="382" 
d="M253.5 456.5q28.5 16.5 45.5 45.5t17 63t-17 62.5t-46 45.5t-62 17q-52 0 -88.5 -36.5t-36.5 -88.5t36.5 -88.5t88.5 -36.5q34 0 62.5 16.5zM247 621.5q23 -23.5 23 -56.5t-23 -56.5t-56 -23.5t-56 23.5t-23 56.5t23 56.5t56 23.5t56 -23.5z" />
    <glyph glyph-name="bar" unicode="|" horiz-adv-x="245" 
d="M145 0v650h-45v-650h45z" />
    <glyph glyph-name="asciicircum" unicode="^" horiz-adv-x="608" 
d="M110 413l194 195l195 -194l32 32l-227 226l-226 -227z" />
    <glyph glyph-name="uni0308" unicode="&#x308;" horiz-adv-x="0" 
d="M-234 776.5q-10 -10.5 -10 -24.5q0 -15 10.5 -25t24.5 -10t24.5 10t10.5 25q0 14 -10.5 24.5t-24.5 10.5q-15 0 -25 -10.5zM-48 776.5q-10 -10.5 -10 -24.5q0 -15 10 -25t24 -10t24.5 10t10.5 25q0 14 -10.5 24.5t-24.5 10.5t-24 -10.5z" />
    <glyph glyph-name="uni0307" unicode="&#x307;" horiz-adv-x="0" 
d="M-71 776.5q-10 -10.5 -10 -25.5q0 -14 10 -24t24 -10q15 0 25.5 10t10.5 24t-10.5 25t-25.5 11q-14 0 -24 -10.5z" />
    <glyph glyph-name="gravecomb" unicode="&#x300;" horiz-adv-x="0" 
d="M-62 717h51l-81 101h-82z" />
    <glyph glyph-name="acutecomb" unicode="&#x301;" horiz-adv-x="0" 
d="M-175 717h52l112 101h-82z" />
    <glyph glyph-name="uni0302" unicode="&#x302;" horiz-adv-x="0" 
d="M-10 717h-51l-71 64l-71 -64h-51l81 101h81z" />
    <glyph glyph-name="uni030A" unicode="&#x30a;" horiz-adv-x="0" 
d="M-38 743q26 26 26 62q0 37 -26 63t-62 26q-37 0 -62.5 -26t-25.5 -63q0 -36 25.5 -62t62.5 -26q36 0 62 26zM-69 837q13 -13 13 -32q0 -18 -13 -31t-31 -13q-19 0 -31.5 13t-12.5 31q0 19 12.5 32t31.5 13q18 0 31 -13z" />
    <glyph glyph-name="tildecomb" unicode="&#x303;" horiz-adv-x="0" 
d="M-304 728.5q7 8.5 20 18t28 12.5q4 1 13 1q25 0 49 -17q35 -25 73 -25q15 0 22 2q46 9 66.5 34.5t21.5 26.5l-37 24q-2 -3 -9.5 -11.5t-20.5 -18t-29 -12.5q-4 -1 -13 -1q-26 0 -49 17q-35 25 -73 25q-15 0 -23 -2q-24 -4 -43 -17.5t-30 -26.5t-13 -17l38 -24q2 3 9 11.5
z" />
    <glyph glyph-name="uni0327" unicode="&#x327;" horiz-adv-x="0" 
d="M-277 -131q12 9 19 22t7 27t-7 27.5t-19 22.5q-15 11 -38 16v16h-39v-53h19q19 0 32.5 -8.5t13.5 -20.5q0 -11 -14 -20t-32 -9t-31.5 9t-13.5 20h-39q0 -14 7 -27t20 -22q24 -19 57 -19t58 19z" />
    <glyph glyph-name="uni0335" unicode="&#x335;" horiz-adv-x="0" 
d="M-278 302v46h-392v-46h392z" />
    <glyph glyph-name="uni0338" unicode="&#x338;" horiz-adv-x="0" 
d="M-665 0l383 650h52l-382 -650h-53z" />
    </font>
</defs>
</svg>
